<svg xmlns="http://www.w3.org/2000/svg" version="1.2" baseProfile="tiny" x="0" y="0" viewBox="0 0 100 100" xml:space="preserve"><path fill="#040000" d="M92.4 53.5L92.4 53.5c0.7-1.9 1.1-4 1.1-6.2 0-10-8.2-18.2-18.2-18.2 -2.6 0-5 0.5-7.3 1.5 -2.2-7.7-9.3-13.3-17.7-13.3 -8.1 0-14.9 5.2-17.4 12.4 -2.1-0.8-4.4-1.3-6.8-1.3 -10.4 0-18.9 8.5-18.9 18.9 0 2 0.3 3.8 0.9 5.6C3.3 55.9 0 61.1 0 67.1c0 9.1 7.4 16.5 16.4 16.5h67.2c0 0 0 0 0.1 0 9 0 16.3-7.3 16.3-16.3C100 61.5 97 56.4 92.4 53.5zM83.8 80.4L83.8 80.4c-0.3 0-0.7 0-1 0h-8.8c0 0 0 0 0.1 0H26.4c0 0 0 0 0.1 0H18v0c-0.5 0-0.9 0.1-1.4 0.1 -7.3 0-13.3-6-13.3-13.3 0-1.6 0.3-3.1 0.8-4.6 1.3-3.8 4.3-6.9 8.1-8.2 -0.4-0.9-0.8-1.8-1.1-2.8 0 0 0 0 0 0 -0.4-1.3-0.6-2.8-0.6-4.2 0-8.6 7-15.6 15.6-15.6 2.1 0 4.2 0.4 6 1.2 0 0 0 0 0 0 1.1 0.4 2.1 1 3.1 1.7 0.1-1.2 0.3-2.3 0.7-3.4 0 0 0 0 0 0 1.9-6.1 7.7-10.6 14.5-10.6 6.8 0 12.5 4.5 14.4 10.6 0.5 1.5 0.8 3.1 0.8 4.8 1.3-1.1 2.9-2 4.5-2.6 1.6-0.6 3.4-0.9 5.2-0.9 8.2 0 14.9 6.7 14.9 14.9 0 1.7-1.1 4.7-1.1 4.7 -2.1 5.3-6 7-6.8 7.5 0.8 0.7 6.7 0.9 9.1-2.8 3.3 2.4 5.5 6.2 5.5 10.6C96.8 74.5 91 80.4 83.8 80.4z"/><polygon fill="#040000" points="79.8 42.6 50.4 31.7 21.1 42.6 22.2 45.7 50.4 35.1 78.7 45.7 "/><rect x="20.9" y="46.9" fill="#040000" width="59" height="3.3"/><rect x="20.9" y="71.1" fill="#040000" width="59" height="3.5"/><rect x="17.5" y="75.5" fill="#040000" width="65.8" height="3.3"/><rect x="28.9" y="51.5" fill="#E0B231" width="5.8" height="18.2"/><rect x="38.3" y="51.5" fill="#D3692D" width="5.8" height="18.2"/><rect x="47.8" y="51.5" fill="#A82540" width="5.8" height="18.2"/><rect x="57.2" y="51.5" fill="#67528F" width="5.8" height="18.2"/><rect x="66.7" y="51.5" fill="#277CB1" width="5.8" height="18.2"/><polygon fill="#040000" points="36.8 45.8 50.2 40.8 63.6 45.8 72.9 45.8 50.2 37.4 50 37.4 27.5 45.8 "/></svg>