<?xml version="1.0" encoding="utf-8"?>
<!-- Generator: Adobe Illustrator 19.2.1, SVG Export Plug-In . SVG Version: 6.00 Build 0)  -->
<svg version="1.1" baseProfile="basic" id="图层_1"
	 xmlns="http://www.w3.org/2000/svg" xmlns:xlink="http://www.w3.org/1999/xlink" x="0px" y="0px" viewBox="0 0 300 120"
	 xml:space="preserve">
<path fill-rule="evenodd" clip-rule="evenodd" fill="#00A0E9" d="M49.4,26.5c18.4,0,33.4,15,33.4,33.4s-15,33.4-33.4,33.4
	s-33.4-15-33.4-33.4S31,26.5,49.4,26.5z"/>
<path fill-rule="evenodd" clip-rule="evenodd" fill="#FFFFFF" d="M49.4,27.4c17.9,0,32.5,14.5,32.5,32.5c0,17.9-14.5,32.5-32.5,32.5
	C31.5,92.4,17,77.8,17,59.9C17,42,31.5,27.4,49.4,27.4z"/>
<path fill-rule="evenodd" clip-rule="evenodd" fill="#00A0E9" d="M89.5,86.9v-4.2h1.6c0.3,0,0.6,0,0.8,0.1c0.2,0.1,0.4,0.2,0.5,0.4
	c0.1,0.2,0.2,0.4,0.2,0.6c0,0.2,0,0.4-0.1,0.5c-0.1,0.2-0.2,0.3-0.4,0.4c0.3,0.1,0.5,0.2,0.6,0.4c0.1,0.2,0.2,0.4,0.2,0.6
	c0,0.2,0,0.4-0.1,0.6c-0.1,0.2-0.2,0.3-0.3,0.4c-0.1,0.1-0.3,0.2-0.5,0.2c-0.2,0-0.4,0.1-0.7,0.1H89.5z M90,84.5H91
	c0.2,0,0.4,0,0.5,0c0.1,0,0.3-0.1,0.3-0.2s0.1-0.2,0.1-0.4c0-0.1,0-0.3-0.1-0.4c-0.1-0.1-0.2-0.2-0.3-0.2c-0.1,0-0.3-0.1-0.6-0.1H90
	V84.5z M90,86.4h1.1c0.2,0,0.3,0,0.4,0c0.1,0,0.2-0.1,0.3-0.1c0.1-0.1,0.2-0.1,0.2-0.2c0.1-0.1,0.1-0.2,0.1-0.4c0-0.2,0-0.3-0.1-0.4
	c-0.1-0.1-0.2-0.2-0.3-0.2C91.5,85,91.3,85,91,85h-1V86.4z"/>
<polygon fill-rule="evenodd" clip-rule="evenodd" fill="#00A0E9" points="93.8,86.9 93.8,82.7 96.9,82.7 96.9,83.2 94.4,83.2 
	94.4,84.5 96.7,84.5 96.7,85 94.4,85 94.4,86.4 97,86.4 97,86.9 "/>
<rect x="98.2" y="82.7" fill-rule="evenodd" clip-rule="evenodd" fill="#00A0E9" width="0.6" height="4.2"/>
<path fill-rule="evenodd" clip-rule="evenodd" fill="#00A0E9" d="M99.8,85.7l0.5-0.1c0,0.3,0.1,0.5,0.2,0.7c0.1,0.1,0.3,0.2,0.4,0.2
	c0.1,0,0.3,0,0.4-0.1c0.1-0.1,0.2-0.2,0.2-0.3c0-0.1,0.1-0.3,0.1-0.5v-2.9h0.6v2.9c0,0.4,0,0.6-0.1,0.8c-0.1,0.2-0.2,0.3-0.4,0.4
	c-0.2,0.1-0.4,0.2-0.7,0.2c-0.4,0-0.7-0.1-0.9-0.3C99.8,86.4,99.8,86.1,99.8,85.7z"/>
<rect x="103.4" y="82.7" fill-rule="evenodd" clip-rule="evenodd" fill="#00A0E9" width="0.6" height="4.2"/>
<polygon fill-rule="evenodd" clip-rule="evenodd" fill="#00A0E9" points="105.3,86.9 105.3,82.7 105.9,82.7 108.1,86 108.1,82.7 
	108.7,82.7 108.7,86.9 108.1,86.9 105.9,83.6 105.9,86.9 "/>
<path fill-rule="evenodd" clip-rule="evenodd" fill="#00A0E9" d="M111.9,85.2v-0.5l1.8,0v1.6c-0.3,0.2-0.6,0.4-0.9,0.5
	c-0.3,0.1-0.6,0.2-0.9,0.2c-0.4,0-0.8-0.1-1.1-0.3c-0.3-0.2-0.6-0.4-0.8-0.8c-0.2-0.3-0.3-0.7-0.3-1.1c0-0.4,0.1-0.8,0.3-1.2
	c0.2-0.4,0.4-0.6,0.7-0.8c0.3-0.2,0.7-0.3,1.1-0.3c0.3,0,0.6,0,0.8,0.1c0.2,0.1,0.4,0.2,0.6,0.4c0.1,0.2,0.2,0.4,0.3,0.7l-0.5,0.1
	c-0.1-0.2-0.1-0.4-0.2-0.5c-0.1-0.1-0.2-0.2-0.4-0.3c-0.2-0.1-0.4-0.1-0.6-0.1c-0.3,0-0.5,0-0.7,0.1c-0.2,0.1-0.3,0.2-0.5,0.3
	c-0.1,0.1-0.2,0.3-0.3,0.4c-0.1,0.3-0.2,0.5-0.2,0.9c0,0.4,0.1,0.7,0.2,0.9c0.1,0.3,0.3,0.4,0.6,0.6s0.5,0.2,0.8,0.2
	c0.2,0,0.5,0,0.7-0.1c0.2-0.1,0.4-0.2,0.5-0.3v-0.8H111.9z"/>
<path fill-rule="evenodd" clip-rule="evenodd" fill="#00A0E9" d="M119,82.7h0.6v2.5c0,0.4,0,0.8-0.1,1c-0.1,0.3-0.3,0.5-0.5,0.6
	c-0.3,0.2-0.6,0.2-1,0.2c-0.4,0-0.7-0.1-1-0.2c-0.3-0.1-0.4-0.3-0.5-0.6c-0.1-0.3-0.2-0.6-0.2-1.1v-2.5h0.6v2.4c0,0.4,0,0.6,0.1,0.8
	c0.1,0.2,0.2,0.3,0.4,0.4c0.2,0.1,0.4,0.1,0.6,0.1c0.4,0,0.7-0.1,0.9-0.3c0.2-0.2,0.3-0.5,0.3-1.1V82.7z"/>
<polygon fill-rule="evenodd" clip-rule="evenodd" fill="#00A0E9" points="120.8,86.9 120.8,82.7 121.4,82.7 123.6,86 123.6,82.7 
	124.1,82.7 124.1,86.9 123.6,86.9 121.3,83.6 121.3,86.9 "/>
<rect x="125.5" y="82.7" fill-rule="evenodd" clip-rule="evenodd" fill="#00A0E9" width="0.6" height="4.2"/>
<path fill-rule="evenodd" clip-rule="evenodd" fill="#00A0E9" d="M128.6,86.9l-1.6-4.2h0.6l1.1,3.1c0.1,0.2,0.2,0.5,0.2,0.7
	c0.1-0.2,0.1-0.5,0.2-0.7l1.1-3.1h0.6l-1.7,4.2H128.6z"/>
<polygon fill-rule="evenodd" clip-rule="evenodd" fill="#00A0E9" points="131.7,86.9 131.7,82.7 134.7,82.7 134.7,83.2 132.2,83.2 
	132.2,84.5 134.6,84.5 134.6,85 132.2,85 132.2,86.4 134.8,86.4 134.8,86.9 "/>
<path fill-rule="evenodd" clip-rule="evenodd" fill="#00A0E9" d="M136,86.9v-4.2h1.9c0.4,0,0.7,0,0.9,0.1c0.2,0.1,0.4,0.2,0.5,0.4
	c0.1,0.2,0.2,0.4,0.2,0.6c0,0.3-0.1,0.6-0.3,0.8c-0.2,0.2-0.5,0.3-0.9,0.4c0.1,0.1,0.3,0.1,0.3,0.2c0.2,0.2,0.3,0.3,0.5,0.6l0.7,1.2
	H139l-0.6-0.9c-0.2-0.3-0.3-0.4-0.4-0.6c-0.1-0.1-0.2-0.2-0.3-0.3c-0.1-0.1-0.2-0.1-0.3-0.1c-0.1,0-0.2,0-0.3,0h-0.7v1.9H136z
	 M136.5,84.5h1.2c0.3,0,0.5,0,0.6-0.1c0.1-0.1,0.3-0.1,0.3-0.3c0.1-0.1,0.1-0.2,0.1-0.4c0-0.2-0.1-0.4-0.2-0.5
	c-0.1-0.1-0.4-0.2-0.7-0.2h-1.3V84.5z"/>
<path fill-rule="evenodd" clip-rule="evenodd" fill="#00A0E9" d="M140.4,85.5l0.5,0c0,0.2,0.1,0.4,0.2,0.5c0.1,0.1,0.2,0.2,0.4,0.3
	c0.2,0.1,0.4,0.1,0.7,0.1c0.2,0,0.4,0,0.6-0.1c0.2-0.1,0.3-0.2,0.4-0.3c0.1-0.1,0.1-0.2,0.1-0.4c0-0.1,0-0.2-0.1-0.3
	c-0.1-0.1-0.2-0.2-0.4-0.2c-0.1,0-0.4-0.1-0.8-0.2c-0.4-0.1-0.7-0.2-0.8-0.3c-0.2-0.1-0.4-0.2-0.5-0.4c-0.1-0.2-0.1-0.3-0.1-0.5
	c0-0.2,0.1-0.4,0.2-0.6c0.1-0.2,0.3-0.3,0.5-0.4c0.2-0.1,0.5-0.1,0.8-0.1c0.3,0,0.6,0.1,0.8,0.2c0.2,0.1,0.4,0.3,0.6,0.4
	c0.1,0.2,0.2,0.4,0.2,0.7l-0.5,0c0-0.3-0.1-0.5-0.3-0.6c-0.2-0.1-0.4-0.2-0.7-0.2c-0.3,0-0.6,0.1-0.7,0.2c-0.2,0.1-0.2,0.3-0.2,0.4
	c0,0.2,0.1,0.3,0.2,0.4c0.1,0.1,0.4,0.2,0.8,0.3c0.5,0.1,0.8,0.2,0.9,0.3c0.2,0.1,0.4,0.3,0.5,0.4c0.1,0.2,0.2,0.4,0.2,0.6
	c0,0.2-0.1,0.4-0.2,0.6c-0.1,0.2-0.3,0.4-0.6,0.5c-0.2,0.1-0.5,0.2-0.8,0.2c-0.4,0-0.7-0.1-1-0.2c-0.3-0.1-0.5-0.3-0.6-0.5
	C140.4,86.1,140.4,85.8,140.4,85.5z"/>
<rect x="144.9" y="82.7" fill-rule="evenodd" clip-rule="evenodd" fill="#00A0E9" width="0.6" height="4.2"/>
<polygon fill-rule="evenodd" clip-rule="evenodd" fill="#00A0E9" points="147.9,86.9 147.9,83.2 146.5,83.2 146.5,82.7 149.9,82.7 
	149.9,83.2 148.5,83.2 148.5,86.9 "/>
<path fill-rule="evenodd" clip-rule="evenodd" fill="#00A0E9" d="M152,86.9v-1.8l-1.6-2.4h0.7l0.8,1.3c0.2,0.2,0.3,0.5,0.4,0.7
	c0.1-0.2,0.3-0.5,0.5-0.7l0.8-1.2h0.7l-1.7,2.4v1.8H152z"/>
<path fill-rule="evenodd" clip-rule="evenodd" fill="#00A0E9" d="M156.1,84.8c0-0.7,0.2-1.3,0.6-1.7c0.4-0.4,0.9-0.6,1.5-0.6
	c0.4,0,0.7,0.1,1.1,0.3c0.3,0.2,0.6,0.4,0.7,0.8c0.2,0.3,0.2,0.7,0.2,1.1c0,0.4-0.1,0.8-0.3,1.2c-0.2,0.3-0.4,0.6-0.7,0.8
	c-0.3,0.2-0.7,0.3-1,0.3c-0.4,0-0.8-0.1-1.1-0.3c-0.3-0.2-0.6-0.5-0.7-0.8C156.2,85.6,156.1,85.2,156.1,84.8z M156.7,84.9
	c0,0.5,0.1,0.9,0.4,1.2c0.3,0.3,0.6,0.4,1,0.4c0.4,0,0.8-0.1,1-0.4c0.3-0.3,0.4-0.7,0.4-1.3c0-0.3-0.1-0.6-0.2-0.9
	c-0.1-0.3-0.3-0.5-0.5-0.6c-0.2-0.1-0.5-0.2-0.8-0.2c-0.4,0-0.7,0.1-1,0.4C156.8,83.8,156.7,84.2,156.7,84.9z"/>
<polygon fill-rule="evenodd" clip-rule="evenodd" fill="#00A0E9" points="161.2,86.9 161.2,82.7 164.1,82.7 164.1,83.2 161.8,83.2 
	161.8,84.5 163.8,84.5 163.8,85 161.8,85 161.8,86.9 "/>
<path fill-rule="evenodd" clip-rule="evenodd" fill="#00A0E9" d="M166.5,86.9v-4.2h1.6c0.3,0,0.5,0,0.6,0c0.2,0,0.4,0.1,0.5,0.2
	c0.1,0.1,0.3,0.2,0.3,0.4c0.1,0.2,0.1,0.4,0.1,0.6c0,0.4-0.1,0.7-0.3,0.9c-0.2,0.2-0.6,0.4-1.2,0.4H167v1.7H166.5z M167,84.7h1.1
	c0.4,0,0.6-0.1,0.8-0.2c0.2-0.1,0.2-0.3,0.2-0.6c0-0.2,0-0.3-0.1-0.5c-0.1-0.1-0.2-0.2-0.4-0.3c-0.1,0-0.3,0-0.5,0H167V84.7z"/>
<path fill-rule="evenodd" clip-rule="evenodd" fill="#00A0E9" d="M170.6,84.8c0-0.7,0.2-1.3,0.6-1.7c0.4-0.4,0.9-0.6,1.5-0.6
	c0.4,0,0.7,0.1,1.1,0.3c0.3,0.2,0.6,0.4,0.7,0.8c0.2,0.3,0.2,0.7,0.2,1.1c0,0.4-0.1,0.8-0.3,1.2c-0.2,0.3-0.4,0.6-0.7,0.8
	c-0.3,0.2-0.7,0.3-1,0.3c-0.4,0-0.8-0.1-1.1-0.3c-0.3-0.2-0.6-0.5-0.7-0.8C170.7,85.6,170.6,85.2,170.6,84.8z M171.2,84.9
	c0,0.5,0.1,0.9,0.4,1.2c0.3,0.3,0.6,0.4,1,0.4c0.4,0,0.8-0.1,1-0.4c0.3-0.3,0.4-0.7,0.4-1.3c0-0.3-0.1-0.6-0.2-0.9
	c-0.1-0.3-0.3-0.5-0.5-0.6c-0.2-0.1-0.5-0.2-0.8-0.2c-0.4,0-0.7,0.1-1,0.4C171.3,83.8,171.2,84.2,171.2,84.9z"/>
<path fill-rule="evenodd" clip-rule="evenodd" fill="#00A0E9" d="M175.5,85.5l0.5,0c0,0.2,0.1,0.4,0.2,0.5c0.1,0.1,0.2,0.2,0.4,0.3
	c0.2,0.1,0.4,0.1,0.7,0.1c0.2,0,0.4,0,0.6-0.1c0.2-0.1,0.3-0.2,0.4-0.3c0.1-0.1,0.1-0.2,0.1-0.4c0-0.1,0-0.2-0.1-0.3
	s-0.2-0.2-0.4-0.2c-0.1,0-0.4-0.1-0.8-0.2c-0.4-0.1-0.7-0.2-0.8-0.3c-0.2-0.1-0.4-0.2-0.5-0.4c-0.1-0.2-0.1-0.3-0.1-0.5
	c0-0.2,0.1-0.4,0.2-0.6c0.1-0.2,0.3-0.3,0.5-0.4c0.2-0.1,0.5-0.1,0.8-0.1c0.3,0,0.6,0.1,0.8,0.2c0.2,0.1,0.4,0.3,0.6,0.4
	c0.1,0.2,0.2,0.4,0.2,0.7l-0.5,0c0-0.3-0.1-0.5-0.3-0.6c-0.2-0.1-0.4-0.2-0.7-0.2c-0.3,0-0.6,0.1-0.7,0.2c-0.2,0.1-0.2,0.3-0.2,0.4
	c0,0.2,0.1,0.3,0.2,0.4c0.1,0.1,0.4,0.2,0.8,0.3c0.5,0.1,0.8,0.2,0.9,0.3c0.2,0.1,0.4,0.3,0.5,0.4c0.1,0.2,0.2,0.4,0.2,0.6
	c0,0.2-0.1,0.4-0.2,0.6c-0.1,0.2-0.3,0.4-0.6,0.5c-0.2,0.1-0.5,0.2-0.8,0.2c-0.4,0-0.7-0.1-1-0.2c-0.3-0.1-0.5-0.3-0.6-0.5
	C175.6,86.1,175.5,85.8,175.5,85.5z"/>
<polygon fill-rule="evenodd" clip-rule="evenodd" fill="#00A0E9" points="181,86.9 181,83.2 179.6,83.2 179.6,82.7 183,82.7 
	183,83.2 181.6,83.2 181.6,86.9 "/>
<path fill-rule="evenodd" clip-rule="evenodd" fill="#00A0E9" d="M183.7,85.5l0.5,0c0,0.2,0.1,0.4,0.2,0.5c0.1,0.1,0.2,0.2,0.4,0.3
	c0.2,0.1,0.4,0.1,0.7,0.1c0.2,0,0.4,0,0.6-0.1c0.2-0.1,0.3-0.2,0.4-0.3c0.1-0.1,0.1-0.2,0.1-0.4c0-0.1,0-0.2-0.1-0.3
	c-0.1-0.1-0.2-0.2-0.4-0.2c-0.1,0-0.4-0.1-0.8-0.2c-0.4-0.1-0.7-0.2-0.8-0.3c-0.2-0.1-0.4-0.2-0.5-0.4c-0.1-0.2-0.1-0.3-0.1-0.5
	c0-0.2,0.1-0.4,0.2-0.6c0.1-0.2,0.3-0.3,0.5-0.4c0.2-0.1,0.5-0.1,0.8-0.1c0.3,0,0.6,0.1,0.8,0.2c0.2,0.1,0.4,0.3,0.6,0.4
	c0.1,0.2,0.2,0.4,0.2,0.7l-0.5,0c0-0.3-0.1-0.5-0.3-0.6c-0.2-0.1-0.4-0.2-0.7-0.2c-0.3,0-0.6,0.1-0.7,0.2c-0.2,0.1-0.2,0.3-0.2,0.4
	c0,0.2,0.1,0.3,0.2,0.4c0.1,0.1,0.4,0.2,0.8,0.3c0.5,0.1,0.8,0.2,0.9,0.3c0.2,0.1,0.4,0.3,0.5,0.4c0.1,0.2,0.2,0.4,0.2,0.6
	c0,0.2-0.1,0.4-0.2,0.6c-0.1,0.2-0.3,0.4-0.6,0.5c-0.2,0.1-0.5,0.2-0.8,0.2c-0.4,0-0.7-0.1-1-0.2c-0.3-0.1-0.5-0.3-0.6-0.5
	C183.8,86.1,183.7,85.8,183.7,85.5z"/>
<path fill-rule="evenodd" clip-rule="evenodd" fill="#00A0E9" d="M190.4,86.9l1.6-4.2h0.6l1.7,4.2h-0.6l-0.5-1.3h-1.8l-0.5,1.3
	H190.4z M191.6,85.2h1.4l-0.4-1.2c-0.1-0.4-0.2-0.6-0.3-0.9c-0.1,0.3-0.1,0.5-0.2,0.8L191.6,85.2z"/>
<polygon fill-rule="evenodd" clip-rule="evenodd" fill="#00A0E9" points="195.1,86.9 195.1,82.7 195.7,82.7 197.9,86 197.9,82.7 
	198.5,82.7 198.5,86.9 197.9,86.9 195.6,83.6 195.6,86.9 "/>
<path fill-rule="evenodd" clip-rule="evenodd" fill="#00A0E9" d="M199.7,86.9v-4.2h1.5c0.3,0,0.6,0,0.8,0.1c0.2,0.1,0.5,0.2,0.6,0.3
	c0.2,0.2,0.4,0.4,0.5,0.7c0.1,0.3,0.2,0.6,0.2,1c0,0.3,0,0.6-0.1,0.9c-0.1,0.2-0.2,0.5-0.3,0.6c-0.1,0.2-0.2,0.3-0.4,0.4
	c-0.1,0.1-0.3,0.2-0.5,0.2c-0.2,0-0.4,0.1-0.7,0.1H199.7z M200.3,86.4h0.9c0.3,0,0.5,0,0.7-0.1c0.2-0.1,0.3-0.1,0.4-0.2
	c0.1-0.1,0.2-0.3,0.3-0.5c0.1-0.2,0.1-0.5,0.1-0.8c0-0.4-0.1-0.8-0.2-1c-0.1-0.2-0.3-0.4-0.5-0.5c-0.2-0.1-0.4-0.1-0.7-0.1h-0.9
	V86.4z"/>
<polygon fill-rule="evenodd" clip-rule="evenodd" fill="#00A0E9" points="206.6,86.9 206.6,83.2 205.2,83.2 205.2,82.7 208.6,82.7 
	208.6,83.2 207.2,83.2 207.2,86.9 "/>
<polygon fill-rule="evenodd" clip-rule="evenodd" fill="#00A0E9" points="209.5,86.9 209.5,82.7 212.6,82.7 212.6,83.2 210.1,83.2 
	210.1,84.5 212.4,84.5 212.4,85 210.1,85 210.1,86.4 212.7,86.4 212.7,86.9 "/>
<polygon fill-rule="evenodd" clip-rule="evenodd" fill="#00A0E9" points="213.8,86.9 213.8,82.7 214.3,82.7 214.3,86.4 216.4,86.4 
	216.4,86.9 "/>
<polygon fill-rule="evenodd" clip-rule="evenodd" fill="#00A0E9" points="217.4,86.9 217.4,82.7 220.5,82.7 220.5,83.2 218,83.2 
	218,84.5 220.3,84.5 220.3,85 218,85 218,86.4 220.6,86.4 220.6,86.9 "/>
<path fill-rule="evenodd" clip-rule="evenodd" fill="#00A0E9" d="M224.7,85.4l0.6,0.1c-0.1,0.5-0.3,0.8-0.6,1.1
	c-0.3,0.2-0.7,0.4-1.1,0.4c-0.5,0-0.8-0.1-1.1-0.3c-0.3-0.2-0.5-0.5-0.7-0.8c-0.1-0.4-0.2-0.7-0.2-1.1c0-0.4,0.1-0.8,0.3-1.2
	c0.2-0.3,0.4-0.6,0.7-0.7c0.3-0.2,0.7-0.3,1-0.3c0.4,0,0.8,0.1,1.1,0.3c0.3,0.2,0.5,0.5,0.6,0.9l-0.6,0.1c-0.1-0.3-0.2-0.5-0.4-0.7
	c-0.2-0.1-0.4-0.2-0.7-0.2c-0.3,0-0.6,0.1-0.8,0.2c-0.2,0.2-0.4,0.4-0.5,0.6c-0.1,0.3-0.1,0.5-0.1,0.8c0,0.4,0.1,0.7,0.2,0.9
	c0.1,0.3,0.3,0.5,0.5,0.6c0.2,0.1,0.5,0.2,0.7,0.2c0.3,0,0.6-0.1,0.8-0.3C224.5,86.1,224.6,85.8,224.7,85.4z"/>
<path fill-rule="evenodd" clip-rule="evenodd" fill="#00A0E9" d="M226.1,84.8c0-0.7,0.2-1.3,0.6-1.7c0.4-0.4,0.9-0.6,1.5-0.6
	c0.4,0,0.7,0.1,1.1,0.3c0.3,0.2,0.6,0.4,0.7,0.8c0.2,0.3,0.2,0.7,0.2,1.1c0,0.4-0.1,0.8-0.3,1.2c-0.2,0.3-0.4,0.6-0.7,0.8
	c-0.3,0.2-0.7,0.3-1,0.3c-0.4,0-0.8-0.1-1.1-0.3c-0.3-0.2-0.6-0.5-0.7-0.8C226.2,85.6,226.1,85.2,226.1,84.8z M226.7,84.9
	c0,0.5,0.1,0.9,0.4,1.2c0.3,0.3,0.6,0.4,1,0.4c0.4,0,0.8-0.1,1-0.4c0.3-0.3,0.4-0.7,0.4-1.3c0-0.3-0.1-0.6-0.2-0.9
	c-0.1-0.3-0.3-0.5-0.5-0.6c-0.2-0.1-0.5-0.2-0.8-0.2c-0.4,0-0.7,0.1-1,0.4C226.8,83.8,226.7,84.2,226.7,84.9z"/>
<path fill-rule="evenodd" clip-rule="evenodd" fill="#00A0E9" d="M231.2,86.9v-4.2h0.8l1,3c0.1,0.3,0.2,0.5,0.2,0.6
	c0-0.2,0.1-0.4,0.2-0.7l1-3h0.8v4.2h-0.5v-3.6l-1.2,3.6H233l-1.2-3.6v3.6H231.2z"/>
<path fill-rule="evenodd" clip-rule="evenodd" fill="#00A0E9" d="M236.5,86.9v-4.2h0.8l1,3c0.1,0.3,0.2,0.5,0.2,0.6
	c0-0.2,0.1-0.4,0.2-0.7l1-3h0.8v4.2H240v-3.6l-1.2,3.6h-0.5l-1.2-3.6v3.6H236.5z"/>
<path fill-rule="evenodd" clip-rule="evenodd" fill="#00A0E9" d="M244.5,82.7h0.6v2.5c0,0.4,0,0.8-0.1,1c-0.1,0.3-0.3,0.5-0.5,0.6
	c-0.3,0.2-0.6,0.2-1,0.2c-0.4,0-0.7-0.1-1-0.2c-0.3-0.1-0.4-0.3-0.5-0.6c-0.1-0.3-0.2-0.6-0.2-1.1v-2.5h0.6v2.4c0,0.4,0,0.6,0.1,0.8
	c0.1,0.2,0.2,0.3,0.4,0.4c0.2,0.1,0.4,0.1,0.6,0.1c0.4,0,0.7-0.1,0.9-0.3c0.2-0.2,0.3-0.5,0.3-1.1V82.7z"/>
<polygon fill-rule="evenodd" clip-rule="evenodd" fill="#00A0E9" points="246.4,86.9 246.4,82.7 246.9,82.7 249.2,86 249.2,82.7 
	249.7,82.7 249.7,86.9 249.1,86.9 246.9,83.6 246.9,86.9 "/>
<rect x="251.1" y="82.7" fill-rule="evenodd" clip-rule="evenodd" fill="#00A0E9" width="0.6" height="4.2"/>
<path fill-rule="evenodd" clip-rule="evenodd" fill="#00A0E9" d="M256,85.4l0.6,0.1c-0.1,0.5-0.3,0.8-0.6,1.1
	c-0.3,0.2-0.7,0.4-1.1,0.4c-0.5,0-0.8-0.1-1.1-0.3c-0.3-0.2-0.5-0.5-0.7-0.8c-0.1-0.4-0.2-0.7-0.2-1.1c0-0.4,0.1-0.8,0.3-1.2
	c0.2-0.3,0.4-0.6,0.7-0.7c0.3-0.2,0.7-0.3,1-0.3c0.4,0,0.8,0.1,1.1,0.3c0.3,0.2,0.5,0.5,0.6,0.9l-0.6,0.1c-0.1-0.3-0.2-0.5-0.4-0.7
	c-0.2-0.1-0.4-0.2-0.7-0.2c-0.3,0-0.6,0.1-0.8,0.2c-0.2,0.2-0.4,0.4-0.5,0.6c-0.1,0.3-0.1,0.5-0.1,0.8c0,0.4,0.1,0.7,0.2,0.9
	c0.1,0.3,0.3,0.5,0.5,0.6c0.2,0.1,0.5,0.2,0.7,0.2c0.3,0,0.6-0.1,0.8-0.3C255.8,86.1,255.9,85.8,256,85.4z"/>
<path fill-rule="evenodd" clip-rule="evenodd" fill="#00A0E9" d="M257.1,86.9l1.6-4.2h0.6l1.7,4.2h-0.6l-0.5-1.3h-1.8l-0.5,1.3
	H257.1z M258.3,85.2h1.4l-0.4-1.2c-0.1-0.4-0.2-0.6-0.3-0.9c-0.1,0.3-0.1,0.5-0.2,0.8L258.3,85.2z"/>
<polygon fill-rule="evenodd" clip-rule="evenodd" fill="#00A0E9" points="262.5,86.9 262.5,83.2 261.1,83.2 261.1,82.7 264.5,82.7 
	264.5,83.2 263.1,83.2 263.1,86.9 "/>
<rect x="265.5" y="82.7" fill-rule="evenodd" clip-rule="evenodd" fill="#00A0E9" width="0.6" height="4.2"/>
<path fill-rule="evenodd" clip-rule="evenodd" fill="#00A0E9" d="M267.2,84.8c0-0.7,0.2-1.3,0.6-1.7c0.4-0.4,0.9-0.6,1.5-0.6
	c0.4,0,0.7,0.1,1.1,0.3c0.3,0.2,0.6,0.4,0.7,0.8c0.2,0.3,0.2,0.7,0.2,1.1c0,0.4-0.1,0.8-0.3,1.2c-0.2,0.3-0.4,0.6-0.7,0.8
	c-0.3,0.2-0.7,0.3-1,0.3c-0.4,0-0.8-0.1-1.1-0.3c-0.3-0.2-0.6-0.5-0.7-0.8C267.2,85.6,267.2,85.2,267.2,84.8z M267.7,84.9
	c0,0.5,0.1,0.9,0.4,1.2c0.3,0.3,0.6,0.4,1,0.4c0.4,0,0.8-0.1,1-0.4c0.3-0.3,0.4-0.7,0.4-1.3c0-0.3-0.1-0.6-0.2-0.9
	c-0.1-0.3-0.3-0.5-0.5-0.6c-0.2-0.1-0.5-0.2-0.8-0.2c-0.4,0-0.7,0.1-1,0.4C267.9,83.8,267.7,84.2,267.7,84.9z"/>
<polygon fill-rule="evenodd" clip-rule="evenodd" fill="#00A0E9" points="272.3,86.9 272.3,82.7 272.8,82.7 275.1,86 275.1,82.7 
	275.6,82.7 275.6,86.9 275,86.9 272.8,83.6 272.8,86.9 "/>
<path fill-rule="evenodd" clip-rule="evenodd" fill="#00A0E9" d="M276.7,85.5l0.5,0c0,0.2,0.1,0.4,0.2,0.5c0.1,0.1,0.2,0.2,0.4,0.3
	c0.2,0.1,0.4,0.1,0.7,0.1c0.2,0,0.4,0,0.6-0.1c0.2-0.1,0.3-0.2,0.4-0.3c0.1-0.1,0.1-0.2,0.1-0.4c0-0.1,0-0.2-0.1-0.3
	c-0.1-0.1-0.2-0.2-0.4-0.2c-0.1,0-0.4-0.1-0.8-0.2c-0.4-0.1-0.7-0.2-0.8-0.3c-0.2-0.1-0.4-0.2-0.5-0.4c-0.1-0.2-0.1-0.3-0.1-0.5
	c0-0.2,0.1-0.4,0.2-0.6c0.1-0.2,0.3-0.3,0.5-0.4c0.2-0.1,0.5-0.1,0.8-0.1c0.3,0,0.6,0.1,0.8,0.2c0.2,0.1,0.4,0.3,0.6,0.4
	c0.1,0.2,0.2,0.4,0.2,0.7l-0.5,0c0-0.3-0.1-0.5-0.3-0.6c-0.2-0.1-0.4-0.2-0.7-0.2c-0.3,0-0.6,0.1-0.7,0.2c-0.2,0.1-0.2,0.3-0.2,0.4
	c0,0.2,0.1,0.3,0.2,0.4c0.1,0.1,0.4,0.2,0.8,0.3c0.5,0.1,0.8,0.2,0.9,0.3c0.2,0.1,0.4,0.3,0.5,0.4c0.1,0.2,0.2,0.4,0.2,0.6
	c0,0.2-0.1,0.4-0.2,0.6c-0.1,0.2-0.3,0.4-0.6,0.5c-0.2,0.1-0.5,0.2-0.8,0.2c-0.4,0-0.7-0.1-1-0.2c-0.3-0.1-0.5-0.3-0.6-0.5
	C276.8,86.1,276.7,85.8,276.7,85.5z"/>
<path fill-rule="evenodd" clip-rule="evenodd" fill="#00A0E9" d="M96.9,50.9c0,0,2.3-8.2,0.2-8.3c-2.1-0.1-3.4,1.9-2.8,5.4
	c0.6,3.4,0.3,1.9,0.3,1.9s-5.5,0.6-5.5,2.1c0,1.5,1.8,1.9,4.3,1c2.5-0.9,0,3.7,0,4.6c0,0.9-4.2,4.2-5.5,4.3c-1.3,0.1-0.3,3.7,4,1
	c4.3-2.7,11.8-7,11.8-7s0,4,2.5,5.4c2.5,1.3-3.4,1.8-2.4,2.8c1,1,5.5,0.3,7.9-2.5c2.4-2.8-3-2.8-4.6-3.9c-1.6-1,0.3-6.7,6-6.6
	c5.7,0.1,0.4-3.4-4.5-2.5c0,0,0.9-9.6-2.2-9.7s-4.6-1.2-2.7,2.7c1.9,3.9,0.4,10,0.4,10s-6.1,4.5-7.5,4.9S96.9,50.9,96.9,50.9z"/>
<path fill-rule="evenodd" clip-rule="evenodd" fill="#00A0E9" d="M133.5,41.2c-0.3,0.2,1.5-3.6,0.3-4.4c-1.1-0.8,8.3-1,6.8,1.8
	C139.2,41.4,133.8,41,133.5,41.2z M121.1,50.2c1.3-0.7,21-10.8,29-9.5c0,0,2.4,2.4-3.6,3.7c-6,1.3-24.5,9.5-24.5,9.5
	S119.8,50.8,121.1,50.2z M135.1,58.3c0,0-5.4-0.6-3.1-4.4c1.8-3.1,6.7-6.9,9.4-5.3c1.8,1.1,1.6,1.9,0.7,3.3
	c-0.8,1.2-1.9,2.9-2.6,3.2l-0.6,4.1c0,0,7.7-0.7,6.3,4.2c0,0-3.2,1.8-4.8-0.7c0,0-1.6-2-1.8-1.4c-0.2,0.6,0.8,7.8-3.7,4.2
	c0,0-3.1-3.5-0.4-2.4L135.1,58.3z M137.8,50.8c0,0-3.7,2.6-0.9,2.8c0,0,1.3,0.3,2.2-2C140.1,49.2,137.8,50.8,137.8,50.8z
	 M132.9,61.6c0.1-0.2-2,1.2-3.3,1.2c-1.2,0-4.4-0.2-2.9,1.9c1.5,2.1,4.4,2.9,5.3,1.3S132.8,61.9,132.9,61.6z"/>
<path fill-rule="evenodd" clip-rule="evenodd" fill="#00A0E9" d="M160.4,41.2c0,0,5.1-5.9,5.7-6.7c0.6-0.7,6.1,0.3,3.5,2.5
	c-2.6,2.2-3.6,2.2-3.6,2.2l0.4,1c0,0,6.8-2.4,4.7,1.5l-4.2,2.5c0,0-1.6,1.9,1.4,1c3-1,6.3-0.6,3.6,2.6c-2.7,3.3-2.7,2.4-2.7,2.4
	s-0.8,1.3,2.6,1.3c3.5,0-0.3,2.8-3.7,3.1l-0.5,1.8c0,0,0.7,0,1.5,0.1c2.2,0.2,3,0.6,0.5,2.2c-2.5,1.6-7.3,1.5-7.5,1
	c-0.2-0.6-0.6-0.8,1.9-1.6c2.5-0.7,0.6-1.6-0.4-1.4c-0.5,0.1-1.2,0.5-1.7,0.8c-1.1,0.7-0.9,1.2-1.9,0.4c-0.5-0.4-1-0.9-0.1-1.2
	c1.4-0.5,3.1-1.7,3.1-1.7S162,52,160.6,53c-1.4,1-6.5,1.4-3.8-1c2.7-2.3,5.1-4.9,5.1-4.9s-2.2-1.7-0.3-2.5c1.9-0.8,2.2-1.4,2.2-1.4
	l0.1-2.6L160.4,41.2z M163.8,48c1.4-0.2,0.9-0.8,0.7-1.6C164.4,45.8,161.9,48.3,163.8,48z M175.5,43.4c2-1.6,5.9-4.1,8-1.6
	c3,3.3-3,6.6-3,6.6s6.6,5.9-3.8,10.8c0,0,0.1,14.4-1.2,14.6c-1.1,0.2-2.2-1.5-2.4-10.5c-0.1-4.4,0-8.9,0.2-13.4
	c0.1-1.3,0.2-2.2,0.3-3C173.9,44.7,173.9,44.7,175.5,43.4z M179.7,46.3c0,0-0.5,1.3-1.5,1.6c-0.9,0.3,4,4.1,2.1,6.2
	c-1.9,2.1-4.5,2.7-4.5,2.7l0-9C175.9,44.2,181,42.9,179.7,46.3z"/>
<path fill-rule="evenodd" clip-rule="evenodd" fill="#00A0E9" d="M201.1,37.1c0,0,0.6-3.7,4.2-0.5c3.6,3.2-2.6,3.3-2.6,3.3l-6.9,5.3
	c0,0-1.6,3.1,5-0.4c6.6-3.5,4.4-4.2,12.6-3c0,0,6.3,3.6-2,6.7c0,0-3.1,0.4,0.7-2.4c3.8-2.8-3.5-3.7-4.7-2.8c-1,0.8-2.6,1.2,0.1,2.4
	c1.5,0.7,2.2,0.7,1.6,2.9c-0.3,1-1,2.3-2.7,4c0,0-2.7,1.3,1.8,1.6c1.4,0.1,1.8,0,2.1,1.7c0.3,1.5-0.3,3.7-5.1,5.6c0,0-2.4,4.8,6,3.7
	c0.6-0.1,2.4-0.3,1.7,1c-1,1.8-9.8,1.1-9.8-3.1l-5,0c-5.2,0-1.8-4.8,0.7-8.1c-7,0.6,1.6-8.2,2.5-7.4c1.7,1.3-0.1,1.8-1,2.6
	c-1.5,1.2-2.9,2.8-0.4,3.3c3.5,0.6,2.6,0.4,2.7-1.8l0.2-2.8c0.1-1.9,1.2-3.2-1.2-2.9c-1.5,0.2-4.1,0.9-5.7,3.7
	c-2.5,4.2-1.2,3-1.6,3.3c-0.3,0.3-2.3,1.6-2-3.8c0.1-1.8,4-6.8,6.6-9C201.1,38.3,200.9,40.9,201.1,37.1z M201.6,58
	c0.4-1.9-2.7-0.7-2.7,1.6c0,2.3,2.3,1.7,3.7,1.3C206.4,59.8,201,60.7,201.6,58z M205.1,59.2c-0.2,0,0-4.9,2.7-2.9
	C210.8,58.5,206.2,59.3,205.1,59.2z"/>
<path fill-rule="evenodd" clip-rule="evenodd" fill="#00A0E9" d="M227.8,46.6l4.7-1c0,0,0.5-6.6-0.2-7.4c-0.7-0.8,5.2-0.4,5.2,2.1
	c0,2.5-0.7,2.1-1.4,2.2c-0.7,0.1,0,2.2,0,2.2s4.3-2.1,4.3,0.3c0,2.5-3.8,1.2-5.5,2.7c-1.3,1.1-1.5,2-0.4,2.6
	c1.3,0.8,1.5-0.3,3.2,1.5c2.3,2.5,6.7,7.6,11.3,7.4c0,0-3.9,4.6-9.9-1c-1.4-1.3-1.7-2.5-2.5-3.4C234,52,233,51,233,51
	s-7.3,9.4-10.1,9.6c-2.8,0.2,6.3-5.5,7.4-10.2c0,0,1.2-1.7-0.7-1.6C227.2,49.3,226.9,46.7,227.8,46.6z"/>
<path fill-rule="evenodd" clip-rule="evenodd" fill="#00A0E9" d="M265.7,43.8c0,0-0.9,5.2-3.5,2.9c0,0-1.5-1-2,1.4
	c-0.5,2.4-4.2,1.5-3.9-2.7c0.3-4.2,1.7-8.7,4.3-6.3c0,0,1,3.6,1.7,0.5c0.7-3.1,2.6-4.3,2.8-0.9c0.2,3.4,2.5,3.9,2.6,0.1
	c0.1-3.8-0.7-5.2,0.7-5.6c1.4-0.4,1.3,0.5,1.4,1.5c0.1,1,3-1.1,3.1,0.7c0.1,1.8-1.6,2.1-2.4,2.3c0,0-0.8,1.1-0.2,1.3
	c0.6,0.2,3.8-1.3,2.3,0.9c-1.5,2.1-2,0.9-2.6,1.5c-0.6,0.6,2.4,0.9,2.4,2.6c0,1.8-0.9,2.7-0.9,2.7s5.2-0.5,5.9,0.9
	c0.7,1.4,0.5,4.7-4.4,4.6c-4.9-0.1-1.3-1.1-0.7-1.5c0.6-0.3,0.8-1.7-2.6-0.9c-3.3,0.9-7.5,3.3-9.1,3.7c-1.6,0.3-3.6-1.5-2.3-2.2
	c1.3-0.8,7.9-2.3,9.1-2.8c1.1-0.5,3.6-3.2,0-4.8C267.3,43.6,265.9,43.7,265.7,43.8z M256.6,50.7c-0.4-0.3-5.2,3.2-3.6,7.3
	c0.5,1.3,1.2,0.8,1.8,0.7c1.4-0.1,2.7-1.7,2.2-3.6C256.4,52.3,257.1,51,256.6,50.7z M265.2,57.8c0,0,1.2-2.7-2.1-2.6
	c-3.3,0.1,0-2.1,2.6-2.6c2.6-0.5,5.1-2.1,4.5,1.3c0,0,0.3,1.2-1.7,2.2l0.1,1.5c0,0,6.1-1.6,5,0.6c-1.2,2.2-2.3,2.3-4,2.2
	c0,0,0.1,6.5-2.8,7.5c-2.9,1-5.2-0.3-4.6-1.9c0.6-1.5,0.6-1.7,2.6-1.1c2,0.6,1-2.6,0.9-3.5c-0.1-0.9-3.2,0.4-4.4,1.7
	c-1.2,1.3-7.1-1.4-3.2-2.5C261.8,59.6,265.2,57.8,265.2,57.8z"/>
<g>
	<path fill-rule="evenodd" clip-rule="evenodd" fill="#00A0E9" d="M49.4,34c14.3,0,25.9,11.6,25.9,25.9c0,14.3-11.6,25.9-25.9,25.9
		c-14.3,0-25.9-11.6-25.9-25.9C23.6,45.6,35.2,34,49.4,34z"/>
	<path fill-rule="evenodd" clip-rule="evenodd" fill="#FFFFFF" d="M49.4,34.4C63.5,34.4,75,45.8,75,59.9C75,74,63.5,85.4,49.4,85.4
		c-14.1,0-25.5-11.4-25.5-25.5C23.9,45.8,35.4,34.4,49.4,34.4z"/>
</g>
<path fill-rule="evenodd" clip-rule="evenodd" fill="#00A0E9" d="M23.8,60.3c0,0,0.1,0.4,0.1,0.7h36.1c0,0-3.8-8.1-4.3-9
	c-0.2-0.4-0.1-0.7,0.5-0.3c0.6,0.4,1.8,1.2,3.6,5.2c0,0,1.6-0.7,2-0.9c0.4-0.2,0.4-0.3,0.1-0.8c-0.6-1.1-1.2-2.1-1.9-3.3
	c-0.5-0.8-1.3-1.5-2.2-2.3c-0.2-0.2-0.4-0.3,0.7-1c0,0,0.4,0.4,1.1,1c0.5,0.5,1,0.9,1.6,1.7c0.6,0.9,1.4,2.2,2.3,3.9
	c0,0,2.2-1,2.6-1.3c0,0,0.1-0.3-0.1-0.7c-0.2-0.6-0.8-1.6-1.3-2.5c-0.8-1.5-1.3-2.1-4.1-4.6c-0.4-0.4-0.1-0.6,0.2-1
	c0.3-0.3,0.6-0.7,1.1-0.1c0.3,0.3,1.2,0.9,2.4,2.4c1.3,1.6,2.9,4.7,4.3,8.4l3.8-0.8c0,0-1-5.8-5.3-10.6c-0.4-0.4-3.3-3.9-8.5-6.1
	c-2.6-1.1-5.8-1.8-9.4-1.7c-2.2,0-8.8,0.3-14.7,5.3c-0.1,0.2-0.2,0.4,0.2,0.5c0.4,0.1,4.3,0.9,7.6,4.4c0.7,0.7,1.1,1.1,1.6,2.1
	c1.1,2.1,1.3,2.9,1.7,4.3c0.2,0.7,0.4,3.7-2.5,5.1c-0.6,0.3-2.8,1.6-6.2,0.7c-1.9-0.4-3.6-1.3-5.3-1.3c-1.7,0-2.7,0.3-5.1,2.1
	C26.1,59.9,25.4,60.6,23.8,60.3z M33.8,77.2l2.9-3c0,0,5,4.8,12.7,4.7c2.5,0,5.3-0.4,7.7-1.9c0,0-1-2.3-1.1-2.5c0,0,1.3-0.6,1.5-0.8
	c0.2-0.1,0.4-0.1,0.6,0.3c0.2,0.4,0.8,1.9,1.2,2.2c0,0,1.7-1.1,3.5-2.7c2.1-2,4.4-4.9,5.6-9.8c0.2-0.9,0.7-3.4,0.5-5.7l4.1-0.3
	c0,0,0.1,4.4-1.1,8.7c-0.2,0.9-0.8,2.2-1.5,3.4c-0.7,1.4-1.4,2.7-2,3.5c-0.5,0.7-3.5,5.5-10.3,8.1c-0.7,0.3-10.7,4.1-20.2-1.4
	C37.1,79.6,35.3,78.6,33.8,77.2z M54.3,71.1l0.8,1.7l1.8-0.8l-0.8-1.7L54.3,71.1z M53,68.4l0.8,1.7l1.8-0.8l-0.8-1.7L53,68.4z
	 M51.6,65.7l0.8,1.7l1.8-0.8l-0.8-1.7L51.6,65.7z M32.2,79.5l-3.7,4l-0.6-0.6c-0.1-0.1-0.2-0.2-0.2-0.3c0-0.1,0-0.2,0-0.3
	c0-0.1,0.1-0.3,0.1-0.4c0.1-0.2,0.2-0.3,0.3-0.5c0.1-0.2,0.3-0.3,0.4-0.4c0.2-0.2,0.4-0.2,0.5-0.3l0.2,0c0-0.1,0-0.2,0.1-0.4
	c0-0.1,0.1-0.3,0.2-0.5c0.1-0.2,0.2-0.4,0.4-0.5c0.2-0.2,0.3-0.3,0.5-0.4c0.2-0.1,0.3-0.2,0.4-0.2s0.2-0.1,0.3,0
	c0.1,0,0.2,0,0.3,0.1c0.1,0,0.2,0.1,0.2,0.2L32.2,79.5z M30.2,81.1l1.2-1.3l-0.3-0.3c-0.1-0.1-0.2-0.2-0.2-0.2c0,0-0.1,0-0.2,0
	c-0.1,0-0.2,0-0.3,0.1c-0.1,0.1-0.2,0.1-0.3,0.2c-0.1,0.1-0.2,0.2-0.3,0.3c-0.1,0.1-0.1,0.3-0.2,0.4c0,0.1,0,0.2,0,0.2
	c0,0,0.1,0.1,0.1,0.2L30.2,81.1z M29.8,81.6l-0.3-0.3c-0.1-0.1-0.1-0.1-0.2-0.1c-0.1,0-0.1,0-0.2,0c-0.1,0-0.2,0.1-0.3,0.2
	c-0.1,0.1-0.2,0.2-0.3,0.3c-0.1,0.1-0.1,0.2-0.2,0.2c0,0.1-0.1,0.2-0.1,0.2c0,0.1,0,0.1,0,0.2c0,0.1,0.1,0.1,0.1,0.2l0.4,0.3
	L29.8,81.6z M27,78.8l0.5-0.5l0.7,0.8l1.3-1.2l-0.8-0.9l0.5-0.5l1.1,1.2l-4.1,3.6l-1-1.2l0.5-0.5l0.8,0.9l1.1-1L27,78.8z M28.4,75.4
	l0.2,0.3L24.3,79l-0.2-0.3L28.4,75.4z M25.7,74.4l-3.2,2l-0.2-0.3l3.3-2.1c0.1-0.1,0.2-0.2,0.4-0.2c0.1-0.1,0.3-0.1,0.4-0.2
	c0.2,0,0.3-0.1,0.4-0.1c0.1,0,0.2,0,0.3,0.1c0.1,0.1,0.2,0.1,0.2,0.2c0.1,0.1,0.1,0.3,0,0.4c0,0.1-0.1,0.3-0.2,0.4
	c-0.1,0.1-0.2,0.3-0.4,0.4l-0.3,0.2L26.3,75c0.1-0.1,0.2-0.1,0.2-0.2c0.1-0.1,0.1-0.1,0.2-0.2c0.1-0.1,0.1-0.1,0.1-0.2
	c0-0.1,0-0.2,0-0.2c0-0.1-0.1-0.1-0.1-0.1c-0.1,0-0.1,0-0.2,0c-0.1,0-0.2,0-0.3,0.1C26,74.2,25.8,74.3,25.7,74.4z M26.1,71.8
	l0.2,0.3l-4.8,2.5l-0.2-0.3L26.1,71.8z M21.7,72.1l3.8-1.6l0.1,0.3l-5,2.1l-0.1-0.3l3.2-2.7L20,71.4l-0.1-0.3l5-2.1l0.1,0.3
	L21.7,72.1z M20.3,67.4l0.1,0.4c-0.1,0.1-0.2,0.1-0.3,0.2c-0.1,0.1-0.2,0.1-0.3,0.3c-0.1,0.1-0.1,0.2-0.1,0.4c0,0.1,0.1,0.1,0.1,0.2
	c0.1,0.1,0.2,0.1,0.3,0.1c0.1,0,0.3,0,0.5,0c0.2,0,0.4,0,0.6-0.1c0.2,0,0.4-0.1,0.6-0.1c0.2-0.1,0.4-0.1,0.5-0.2
	c0.2-0.1,0.4-0.2,0.6-0.3c0.2-0.1,0.4-0.2,0.5-0.3c0.1-0.1,0.2-0.2,0.2-0.3s0-0.2,0-0.2c0-0.1,0-0.1-0.1-0.2l-0.1-0.3l-1.3,0.4
	l0.1,0.4L21.6,68l-0.3-0.8l2.7-0.8l0.2,0.5c0,0.1,0.1,0.3,0.1,0.4c0,0.1,0,0.3-0.1,0.5c-0.1,0.2-0.2,0.3-0.3,0.5
	c-0.2,0.1-0.3,0.3-0.5,0.4c-0.2,0.1-0.4,0.2-0.6,0.3c-0.2,0.1-0.5,0.2-0.7,0.2c-0.3,0.1-0.6,0.2-0.9,0.2c-0.3,0.1-0.6,0.1-0.8,0.1
	c-0.2,0-0.4,0-0.6-0.1c-0.2,0-0.3-0.1-0.4-0.2c-0.1-0.1-0.2-0.2-0.2-0.4c0-0.2,0-0.3,0-0.4c0.1-0.1,0.1-0.2,0.2-0.3
	c0.1-0.1,0.2-0.2,0.4-0.3c0.1-0.1,0.3-0.2,0.4-0.2L20.3,67.4z M17.9,62.1l0-0.4l3.6-0.3c0.1,0,0.3,0,0.5,0c0.2,0,0.4,0,0.5,0
	c0.2,0,0.3,0.1,0.5,0.1c0.1,0.1,0.3,0.2,0.4,0.3c0.1,0.1,0.2,0.3,0.2,0.4c0,0.1,0,0.3-0.1,0.4c-0.1,0.1-0.2,0.2-0.3,0.3
	c-0.1,0.1-0.3,0.2-0.4,0.2c-0.1,0.1-0.3,0.1-0.5,0.1c-0.2,0-0.4,0.1-0.6,0.1L18,63.7l0-0.4l3.5-0.3c0.3,0,0.5-0.1,0.6-0.1
	c0.2,0,0.3-0.1,0.4-0.2c0.1-0.1,0.2-0.2,0.2-0.2c0-0.1,0-0.2,0-0.3c0-0.1,0-0.2-0.1-0.3c-0.1-0.1-0.1-0.1-0.3-0.1
	c-0.1,0-0.2-0.1-0.4-0.1c-0.2,0-0.4,0-0.6,0L17.9,62.1z M19.1,60.1l4.2,0l0,0.4l-5.5-0.1l0-0.4l4-1.2l-4,0l0-0.4l5.5,0.1l0,0.4
	L19.1,60.1z M23.4,57.1l0,0.4l-5.4-0.5l0-0.4L23.4,57.1z M23.7,55.1L18.2,55l0.1-0.4l4.2,0.1l-3.9-1.5l0.1-0.4l5.1,2L23.7,55.1z
	 M21.5,50.8l0.7,0.2l-0.3,1l1.7,0.5l0.3-1.1l0.7,0.2l-0.4,1.5l-5.3-1.6l0.4-1.5l0.7,0.2l-0.3,1.1l1.5,0.4L21.5,50.8z M25,50.6
	l-0.1,0.3l-5-2l0.4-0.8c0-0.1,0.1-0.2,0.2-0.3c0.1-0.1,0.2-0.1,0.3-0.1c0.1,0,0.3,0,0.5,0c0.2,0,0.4,0.1,0.6,0.2
	c0.2,0.1,0.4,0.2,0.5,0.3c0.1,0.1,0.2,0.2,0.3,0.3l0.1,0.1c0.1,0,0.1,0,0.2,0c0.1,0,0.1,0,0.2,0c0.1,0,0.2,0.1,0.5,0.1l1.9,0.6
	l-0.1,0.3L23.5,49c-0.1,0-0.2-0.1-0.3-0.1c-0.1,0-0.2,0-0.2,0c0,0-0.1,0.1-0.1,0.2l-0.2,0.4L25,50.6z M20.6,48.8l1.4,0.6l0.2-0.5
	c0-0.1,0-0.2,0-0.2c0-0.1-0.1-0.2-0.2-0.2c-0.1-0.1-0.2-0.2-0.4-0.2c-0.1,0-0.2-0.1-0.3-0.1c-0.1,0-0.2,0-0.3,0
	c-0.1,0-0.2,0-0.2,0.1c-0.1,0.1-0.1,0.1-0.1,0.2L20.6,48.8z M24.4,48l0.2-0.3c0.1,0,0.1,0.1,0.2,0.1c0.1,0,0.2,0,0.2,0.1
	c0.1,0,0.2,0,0.2,0c0.1,0,0.1,0,0.2-0.1c0.1,0,0.1-0.1,0.2-0.2c0-0.1,0.1-0.1,0.1-0.2c0-0.1,0-0.1,0-0.2c0-0.1,0-0.1,0-0.2
	c0-0.1-0.1-0.1-0.1-0.2c-0.1-0.1-0.2-0.1-0.3-0.2c-0.1-0.1-0.2-0.1-0.3-0.1c-0.1,0-0.2-0.1-0.3-0.1c-0.1,0-0.2,0-0.3,0.1
	c-0.1,0.1-0.3,0.1-0.4,0.2c-0.1,0.1-0.3,0.2-0.4,0.2c-0.1,0-0.2,0.1-0.4,0c-0.2,0-0.3,0-0.5-0.1c-0.2-0.1-0.4-0.2-0.6-0.3
	c-0.2-0.1-0.3-0.2-0.4-0.3c-0.1-0.1-0.2-0.2-0.2-0.3c-0.1-0.1-0.1-0.2-0.1-0.3c0-0.1,0-0.2,0-0.3c0-0.1,0-0.2,0.1-0.2
	c0.1-0.2,0.2-0.3,0.3-0.3c0.1-0.1,0.3-0.1,0.4-0.1c0.1,0,0.3,0,0.4,0c0.1,0,0.3,0.1,0.3,0.1l0.2,0.1l-0.2,0.3c-0.1,0-0.1,0-0.2-0.1
	c-0.1,0-0.1,0-0.2-0.1c-0.1,0-0.2,0-0.3,0c-0.1,0-0.1,0.1-0.2,0.1c0,0.1-0.1,0.1-0.1,0.1c0,0.1,0,0.2,0,0.3c0,0.1,0,0.2,0.1,0.2
	c0.1,0.1,0.1,0.1,0.2,0.2c0.1,0.1,0.2,0.1,0.2,0.2c0.1,0.1,0.2,0.1,0.3,0.1c0.1,0,0.2,0,0.3,0c0.1,0,0.2,0,0.2-0.1
	c0.1,0,0.2-0.1,0.3-0.2c0.1-0.1,0.2-0.1,0.4-0.2c0.1-0.1,0.2-0.1,0.4-0.1c0.1,0,0.2,0,0.4,0c0.1,0,0.3,0.1,0.4,0.1
	c0.1,0,0.2,0.1,0.4,0.2c0.2,0.1,0.4,0.3,0.5,0.4c0.1,0.1,0.2,0.2,0.3,0.4c0.1,0.1,0.1,0.3,0.1,0.4c0,0.1,0,0.2-0.1,0.3
	c-0.1,0.1-0.1,0.2-0.2,0.3c-0.1,0.1-0.2,0.1-0.3,0.1c-0.1,0-0.2,0-0.4,0c-0.1,0-0.3,0-0.4-0.1c-0.1,0-0.3-0.1-0.4-0.1L24.4,48z
	 M27.5,45.8l-0.2,0.3l-4.6-2.9l0.2-0.3L27.5,45.8z M24.2,42c-0.2-0.1-0.4-0.3-0.6-0.4c0.2-0.3,0.4-0.5,0.6-0.8
	c0.2-0.3,0.4-0.5,0.6-0.8c0.2,0.1,0.4,0.3,0.6,0.4c-0.2,0.2-0.3,0.4-0.5,0.7c0.6,0.5,1.2,0.9,1.9,1.4c0.6,0.5,1.3,1,1.9,1.5
	c-0.1,0.1-0.1,0.2-0.2,0.3c-0.6-0.5-1.3-1-1.9-1.5c-0.6-0.5-1.2-0.9-1.9-1.4C24.5,41.6,24.4,41.8,24.2,42z M30.5,41.9l-0.3,0.3
	l-1.8-1.7l-2.8-1.3l0.3-0.3l2.1,1l-1.1-2l0.3-0.3l1.5,2.7L30.5,41.9z M38.5,30.3l0.8-0.3c0.1,0,0.2,0,0.3,0c0.1,0,0.2,0.1,0.3,0.2
	c0.1,0.1,0.2,0.2,0.3,0.4c0.1,0.1,0.1,0.3,0.2,0.4c0,0.1,0.1,0.2,0.1,0.3c0.1,0.2,0.1,0.5,0.2,0.6c0,0.2,0,0.4,0,0.5
	c0,0.2-0.1,0.3-0.2,0.4c-0.1,0.1-0.2,0.2-0.3,0.2l-0.4,0.1l0.8,2.2l-0.3,0.1L38.5,30.3z M39.6,32.4l0.4-0.1c0.1,0,0.2-0.1,0.2-0.1
	c0-0.1,0.1-0.1,0.1-0.2c0-0.1,0-0.2,0-0.3c0-0.1,0-0.2-0.1-0.4C40.1,31.2,40,31,40,30.9c-0.1-0.1-0.1-0.2-0.2-0.2
	c-0.1,0-0.1-0.1-0.2,0l-0.5,0.2L39.6,32.4z M42.3,29.1c0.2,0,0.4,0,0.6,0.2c0.2,0.2,0.4,0.5,0.7,0.9c0.2,0.4,0.4,0.9,0.5,1.3
	c0.1,0.5,0.2,0.9,0.1,1.4c0,0.4-0.1,0.8-0.2,1.1c-0.1,0.3-0.3,0.4-0.5,0.5c-0.2,0-0.4,0-0.6-0.3c-0.2-0.2-0.4-0.5-0.6-0.9
	c-0.2-0.4-0.3-0.8-0.5-1.3c-0.1-0.5-0.2-0.9-0.2-1.4c0-0.5,0.1-0.8,0.2-1.1C42,29.3,42.2,29.1,42.3,29.1z M42.5,29.8
	c-0.1,0-0.2,0.1-0.3,0.3s-0.1,0.4-0.1,0.8c0,0.3,0,0.7,0.1,1c0.1,0.4,0.2,0.7,0.3,1c0.1,0.3,0.3,0.5,0.4,0.7
	c0.2,0.2,0.3,0.2,0.4,0.2c0.1,0,0.2-0.1,0.3-0.3c0.1-0.2,0.1-0.5,0.1-0.8c0-0.3,0-0.7-0.1-1c-0.1-0.3-0.2-0.7-0.3-1
	c-0.1-0.3-0.3-0.5-0.5-0.7C42.8,29.8,42.6,29.8,42.5,29.8z M47.7,29l0-0.7h1.9l0,0.7h-0.8l0.1,4.8h-0.4L48.5,29H47.7z M57.9,29.4
	c0.1,0,0.2,0.1,0.3,0.1c0,0.9-0.1,1.9-0.1,2.8c-0.1,0.9-0.2,1.9-0.2,2.8c-0.1,0-0.3-0.1-0.4-0.1c0-0.2,0-0.5,0-0.7
	c0-0.2,0-0.5,0.1-0.7c-0.2,0-0.4-0.1-0.5-0.1c-0.2,0-0.4-0.1-0.5-0.1c-0.2,0.4-0.4,0.9-0.6,1.3c-0.1,0-0.2-0.1-0.4-0.1
	c0.4-0.8,0.8-1.6,1.2-2.4C57.1,31.1,57.5,30.3,57.9,29.4z M57.6,32.8c0-0.4,0.1-0.8,0.1-1.1c0-0.4,0-0.8,0.1-1.1
	c-0.2,0.3-0.3,0.7-0.5,1c-0.2,0.3-0.3,0.7-0.5,1c0.1,0,0.3,0.1,0.4,0.1S57.5,32.8,57.6,32.8z M60.4,31.6l-1.5,3.8l-0.3-0.1l2-5
	l0.3,0.1l-0.3,4.1l1.5-3.7l0.3,0.1l-2,5L60,35.9L60.4,31.6z M61,36.3l2.6-4.8l0.6,0.3c0.1,0.1,0.2,0.1,0.3,0.2
	c0.1,0.1,0.2,0.2,0.3,0.4c0.1,0.1,0.1,0.3,0.1,0.5c0,0.2,0,0.4-0.1,0.6c0,0.2-0.1,0.4-0.2,0.6c-0.1,0.2-0.2,0.5-0.3,0.7
	c-0.1,0.3-0.3,0.5-0.4,0.8c-0.2,0.3-0.4,0.5-0.5,0.7c-0.2,0.2-0.3,0.3-0.5,0.4c-0.1,0.1-0.3,0.1-0.4,0.1c-0.1,0-0.2,0-0.3,0
	c-0.1,0-0.2-0.1-0.4-0.2L61,36.3z M63.5,32.3l-1.9,3.6l0.2,0.1c0.2,0.1,0.3,0.1,0.4,0.1c0.1,0,0.3,0,0.4-0.1
	c0.1-0.1,0.3-0.2,0.4-0.3c0.1-0.1,0.2-0.3,0.3-0.5c0.1-0.2,0.3-0.4,0.4-0.7c0.1-0.3,0.2-0.5,0.3-0.7c0.1-0.2,0.1-0.3,0.1-0.5
	c0-0.2,0-0.3,0-0.4c0-0.1-0.1-0.2-0.1-0.3c0-0.1-0.1-0.1-0.2-0.2c-0.1-0.1-0.1-0.1-0.2-0.1L63.5,32.3z M68.4,35.3
	c0.2-0.2,0.3-0.4,0.5-0.6c0.2,0.2,0.5,0.4,0.7,0.6c0.2,0.2,0.5,0.4,0.7,0.6c-0.2,0.2-0.3,0.4-0.5,0.6c-0.2-0.2-0.4-0.3-0.6-0.5
	c-0.5,0.6-1,1.3-1.5,1.9c-0.5,0.6-1,1.2-1.5,1.8c-0.1-0.1-0.2-0.2-0.3-0.3c0.5-0.6,1-1.2,1.5-1.8c0.5-0.6,1-1.3,1.5-1.9
	C68.8,35.6,68.6,35.5,68.4,35.3z M70.7,39.5L70.2,40l-0.8-0.8l-1.3,1.3l0.8,0.8l-0.5,0.5l-1.1-1.1l3.9-3.9l1.1,1.1l-0.5,0.5
	l-0.8-0.8L70,38.7L70.7,39.5z M69.1,42.4l4.2-3.5l0.2,0.3l-3.6,3l0.8,1l-0.6,0.5L69.1,42.4z M74.1,43.6L73.5,44l-0.6-0.9l-1.5,1
	l0.7,1l-0.6,0.4l-0.9-1.3l4.5-3.2l0.9,1.3l-0.6,0.4l-0.7-1l-1.3,0.9L74.1,43.6z M76.4,46l-0.2-0.3c0.1,0,0.1-0.1,0.2-0.1
	c0.1,0,0.1-0.1,0.2-0.2c0.1-0.1,0.1-0.2,0.1-0.3c0-0.1,0-0.2,0-0.3c-0.1-0.1-0.2-0.2-0.3-0.2c-0.2,0-0.3,0-0.5,0
	c-0.2,0-0.4,0.1-0.6,0.2c-0.2,0.1-0.4,0.2-0.7,0.4c-0.3,0.2-0.5,0.3-0.7,0.4c-0.2,0.1-0.3,0.3-0.5,0.4c-0.1,0.1-0.2,0.3-0.3,0.5
	c0,0.2,0,0.3,0.1,0.4c0.1,0.1,0.2,0.2,0.3,0.2c0.1,0,0.2,0,0.3,0l0.5-0.2l0.2,0.3c-0.1,0-0.2,0.1-0.3,0.1c-0.1,0-0.2,0.1-0.4,0.2
	c-0.2,0.1-0.4,0.1-0.5,0.1c-0.2,0-0.3,0-0.5-0.1c-0.1-0.1-0.2-0.2-0.3-0.3c-0.1-0.1-0.1-0.3-0.1-0.5c0-0.2,0.1-0.4,0.3-0.6
	c0.1-0.2,0.3-0.4,0.6-0.6c0.2-0.2,0.4-0.3,0.6-0.4c0.2-0.1,0.4-0.2,0.6-0.3c0.3-0.2,0.5-0.3,0.8-0.4c0.2-0.1,0.5-0.2,0.7-0.2
	c0.3,0,0.5-0.1,0.6,0c0.2,0,0.3,0.1,0.5,0.2c0.1,0.1,0.2,0.2,0.3,0.3c0.1,0.2,0.1,0.4,0,0.5c-0.1,0.2-0.2,0.3-0.3,0.5
	s-0.3,0.3-0.4,0.3L76.4,46z M78.7,47.4c0.1,0.2,0,0.4-0.1,0.6c-0.1,0.3-0.4,0.5-0.8,0.8s-0.8,0.5-1.2,0.7c-0.5,0.2-0.9,0.3-1.3,0.4
	c-0.4,0.1-0.8,0.1-1.1,0c-0.3-0.1-0.5-0.2-0.6-0.4c-0.1-0.2-0.1-0.4,0.1-0.7c0.1-0.3,0.4-0.5,0.8-0.8c0.4-0.3,0.8-0.5,1.2-0.7
	c0.5-0.2,0.9-0.3,1.3-0.4c0.5-0.1,0.8-0.1,1.1,0C78.5,47.1,78.7,47.2,78.7,47.4z M78.1,47.7c-0.1-0.1-0.2-0.2-0.4-0.2
	c-0.2,0-0.5,0-0.8,0c-0.3,0.1-0.7,0.2-1,0.3c-0.3,0.1-0.6,0.3-0.9,0.5c-0.3,0.2-0.5,0.4-0.6,0.6c-0.1,0.2-0.1,0.3-0.1,0.5
	c0.1,0.1,0.2,0.2,0.4,0.2c0.2,0,0.5,0,0.8,0c0.3-0.1,0.6-0.2,1-0.3c0.3-0.1,0.6-0.3,0.9-0.5c0.3-0.2,0.5-0.4,0.6-0.6
	C78.1,47.9,78.1,47.8,78.1,47.7z M79.6,49.7l0.1,0.4l-4,2.1l4.5-0.4l0.1,0.4l-5.3,1.5L75,53.5l4-1.2l-4.2,0.4l-0.1-0.3l3.8-2l-4,1.2
	l-0.1-0.3L79.6,49.7z M80.7,53.7l0.1,0.5l-4.2,1.5l4.5,0.2l0.1,0.5l-5.5,0.8l0-0.4l4.1-0.6l-4.3-0.2l-0.1-0.3l4-1.4l-4.1,0.6
	l-0.1-0.4L80.7,53.7z M81.3,59.3l0,0.4l-3.6,0.1c-0.1,0-0.3,0-0.5,0c-0.2,0-0.4,0-0.5-0.1c-0.2,0-0.3-0.1-0.5-0.2
	c-0.1-0.1-0.3-0.2-0.3-0.3c-0.1-0.1-0.1-0.3-0.1-0.4c0-0.1,0-0.3,0.1-0.4c0.1-0.1,0.2-0.2,0.3-0.3c0.1-0.1,0.3-0.2,0.4-0.2
	c0.1,0,0.3-0.1,0.5-0.1c0.2,0,0.4,0,0.6,0l3.5-0.1l0,0.4l-3.5,0.1c-0.3,0-0.5,0-0.6,0.1c-0.2,0-0.3,0.1-0.4,0.2
	c-0.1,0.1-0.2,0.2-0.2,0.2c0,0.1,0,0.2,0,0.3c0,0.1,0,0.2,0.1,0.3s0.1,0.1,0.2,0.2c0.1,0,0.2,0.1,0.4,0.1c0.2,0,0.4,0,0.6,0
	L81.3,59.3z M79.9,61.2L75.8,61l0-0.4l5.5,0.3l0,0.4l-4.1,1l4,0.3l0,0.4l-5.5-0.3l0-0.4L79.9,61.2z M75.5,64.1l0.1-0.4l5.4,0.8
	l-0.1,0.4L75.5,64.1z M78.7,68.1l0.1-0.4c0.1,0,0.1,0,0.2,0c0.1,0,0.2,0,0.3,0c0.1,0,0.2-0.1,0.3-0.1c0.1-0.1,0.1-0.1,0.2-0.2
	c0-0.1,0-0.3-0.1-0.4c-0.1-0.1-0.2-0.2-0.4-0.4c-0.2-0.1-0.4-0.2-0.6-0.3c-0.2-0.1-0.5-0.1-0.8-0.2c-0.3-0.1-0.6-0.1-0.8-0.2
	c-0.2,0-0.4,0-0.6,0c-0.2,0-0.4,0.1-0.5,0.1c-0.1,0.1-0.2,0.2-0.3,0.3c0,0.1,0,0.2,0.1,0.4c0.1,0.1,0.1,0.2,0.2,0.2l0.5,0.2
	l-0.1,0.4c-0.1,0-0.2-0.1-0.3-0.1c-0.1,0-0.2-0.1-0.4-0.2c-0.2-0.1-0.3-0.2-0.4-0.3c-0.1-0.1-0.2-0.3-0.3-0.4c0-0.1,0-0.3,0-0.4
	c0-0.1,0.1-0.3,0.3-0.4c0.1-0.1,0.3-0.2,0.6-0.2c0.3,0,0.5-0.1,0.8,0c0.3,0,0.5,0.1,0.7,0.1c0.2,0,0.4,0.1,0.7,0.2
	c0.3,0.1,0.6,0.2,0.8,0.3c0.2,0.1,0.5,0.2,0.7,0.3c0.2,0.1,0.4,0.3,0.5,0.4c0.1,0.1,0.2,0.3,0.2,0.4c0,0.2,0,0.3,0,0.4
	c-0.1,0.2-0.2,0.3-0.3,0.4c-0.2,0.1-0.3,0.1-0.5,0.1c-0.2,0-0.4,0-0.5,0L78.7,68.1z M79.4,70.6l-0.1,0.3l-5.5-0.8l0.1-0.4l1.5,0.2
	l0.4-1l-1.3-0.8l0.1-0.4L79.4,70.6z M76,70.1l2.3,0.4l-1.9-1.2L76,70.1z M77.8,72.8l0.6,0.3l-0.9,1.8l-0.6-0.3l0.4-0.7L73,71.7
	l0.2-0.3l4.3,2.2L77.8,72.8z M71.8,73.7l0.2-0.3l4.7,2.9l-0.2,0.3L71.8,73.7z M75,78.8c-0.1,0.2-0.3,0.2-0.6,0.3
	c-0.3,0-0.7-0.1-1.1-0.3c-0.4-0.2-0.8-0.4-1.2-0.7c-0.4-0.3-0.7-0.6-1-1c-0.3-0.3-0.5-0.7-0.5-0.9c-0.1-0.3-0.1-0.5,0.1-0.7
	c0.1-0.2,0.3-0.2,0.6-0.2c0.3,0,0.7,0.1,1.1,0.3c0.4,0.2,0.8,0.4,1.2,0.7c0.4,0.3,0.7,0.6,1,1c0.3,0.4,0.5,0.7,0.6,1
	C75.2,78.4,75.1,78.6,75,78.8z M74.4,78.3c0.1-0.1,0.1-0.3,0-0.5s-0.2-0.4-0.4-0.7c-0.2-0.3-0.5-0.5-0.8-0.7
	c-0.3-0.2-0.6-0.4-0.9-0.5c-0.3-0.1-0.5-0.2-0.8-0.2c-0.2,0-0.4,0-0.5,0.2c-0.1,0.1-0.1,0.3,0,0.5c0.1,0.2,0.2,0.4,0.4,0.7
	c0.2,0.2,0.5,0.5,0.8,0.7c0.3,0.2,0.6,0.4,0.9,0.5c0.3,0.1,0.6,0.2,0.8,0.2C74.2,78.5,74.4,78.4,74.4,78.3z M72.3,80l-3-2.8l0.3-0.3
	l4,3.7l-0.3,0.3l-3.8-1.8l2.9,2.7l-0.3,0.3l-4-3.7l0.2-0.3L72.3,80z M68.7,80c-0.1,0.1-0.2,0.2-0.3,0.3c-0.1-0.1-0.1-0.1-0.2-0.2
	C68.2,80.1,68.1,80,68,80c-0.1-0.1-0.1-0.1-0.2-0.1c-0.1,0-0.1,0-0.2,0c-0.1,0-0.1,0-0.2,0.1c-0.1,0-0.1,0.1-0.1,0.1
	c0,0-0.1,0.1-0.1,0.1c0,0.1,0,0.1,0,0.2c0,0.1,0,0.1,0.1,0.2c0,0.1,0.1,0.2,0.2,0.3c0.1,0.1,0.1,0.2,0.2,0.3
	c0.1,0.1,0.2,0.1,0.2,0.2c0.1,0,0.2,0.1,0.3,0.1c0.1,0,0.3,0,0.5-0.1c0.2,0,0.3-0.1,0.4-0.1c0.1,0,0.3,0,0.4,0.1
	c0.1,0.1,0.3,0.2,0.5,0.3c0.2,0.1,0.3,0.3,0.5,0.5c0.1,0.2,0.2,0.3,0.3,0.4c0.1,0.1,0.1,0.2,0.1,0.3c0,0.1,0,0.2,0,0.3
	c0,0.1,0,0.2-0.1,0.3c0,0.1-0.1,0.1-0.1,0.2c-0.1,0.1-0.3,0.2-0.4,0.2s-0.3,0-0.4-0.1c-0.1,0-0.3-0.1-0.4-0.2
	c-0.1-0.1-0.2-0.1-0.3-0.2c-0.1,0-0.1-0.1-0.2-0.1c0.1-0.1,0.2-0.2,0.3-0.3c0.1,0,0.1,0.1,0.1,0.1c0,0,0.1,0.1,0.2,0.1
	c0.1,0,0.2,0.1,0.2,0.1c0.1,0,0.2,0,0.2,0c0.1,0,0.1-0.1,0.1-0.1c0.1-0.1,0.1-0.2,0.1-0.3c0-0.1,0-0.2,0-0.3c0-0.1-0.1-0.2-0.1-0.3
	c-0.1-0.1-0.1-0.2-0.2-0.2c-0.1-0.1-0.2-0.2-0.3-0.2c-0.1,0-0.2-0.1-0.3-0.1c-0.1,0-0.2,0-0.2,0c-0.1,0-0.2,0-0.4,0.1
	c-0.1,0-0.3,0.1-0.4,0.1c-0.1,0-0.3,0-0.4-0.1c-0.1,0-0.2-0.1-0.4-0.2c-0.1-0.1-0.2-0.2-0.3-0.3c-0.1-0.1-0.2-0.2-0.3-0.3
	c-0.2-0.2-0.3-0.4-0.3-0.5c-0.1-0.1-0.1-0.3-0.1-0.4c0-0.1,0-0.3,0.1-0.4c0-0.1,0.1-0.2,0.2-0.3c0.1-0.1,0.2-0.1,0.3-0.2
	c0.1,0,0.2,0,0.3,0c0.1,0,0.2,0.1,0.4,0.1c0.1,0.1,0.2,0.1,0.3,0.2c0.1,0.1,0.2,0.2,0.3,0.3C68.6,79.9,68.7,80,68.7,80z M49.4,34.1
	c14.2,0,25.8,11.6,25.8,25.8S63.6,85.7,49.4,85.7S23.7,74.1,23.7,59.9S35.3,34.1,49.4,34.1z M49.4,33.9c14.3,0,26,11.7,26,26
	s-11.7,26-26,26s-26-11.7-26-26S35.1,33.9,49.4,33.9z M49.4,27c18.1,0,32.9,14.8,32.9,32.9S67.6,92.8,49.4,92.8S16.5,78,16.5,59.9
	S31.3,27,49.4,27z M49.4,27.4c17.9,0,32.5,14.6,32.5,32.5S67.3,92.4,49.4,92.4S17,77.8,17,59.9S31.6,27.4,49.4,27.4z M34.5,84.5
	c0.2,0.1,0.3,0.2,0.5,0.3c0.2,0.1,0.4,0.2,0.6,0.3c0.1-0.3,0.3-0.7,0.4-1c0.1-0.1,0.1-0.3,0.2-0.5c0.1,0.1,0.3,0.1,0.4,0.2
	c-0.1,0.2-0.2,0.3-0.2,0.4c-0.3,0.6-0.5,1.1-0.8,1.7c-0.3,0.6-0.6,1.1-0.8,1.7c-0.1,0.1-0.1,0.3-0.2,0.6c-0.1-0.1-0.3-0.1-0.4-0.2
	c0.1-0.2,0.2-0.4,0.3-0.7c-0.3,0-0.5-0.1-0.7-0.1c-0.2,0-0.4,0-0.5,0c0-0.2,0-0.4,0.1-0.6c0.2,0.1,0.4,0.1,0.7,0.2
	c0.3,0.1,0.5,0.1,0.7,0.1c0.1-0.3,0.3-0.5,0.4-0.8c0.1-0.2,0.2-0.5,0.4-0.8c-0.2-0.1-0.4-0.2-0.6-0.3c-0.1-0.1-0.3-0.1-0.5-0.2
	C34.4,84.7,34.5,84.6,34.5,84.5z M37.2,84c0.1,0.1,0.2,0.1,0.4,0.2c-0.1,0.1-0.2,0.3-0.2,0.4c-0.2,0.4-0.4,0.9-0.6,1.3
	c0.2,0,0.4,0,0.6-0.1c0.2,0,0.5-0.1,0.7-0.2c0,0.2,0,0.4,0.1,0.6c-0.2,0-0.4-0.1-0.7,0c-0.3,0-0.6,0-0.9,0.1
	c-0.1,0.3-0.3,0.5-0.4,0.8c-0.1,0.3-0.2,0.5-0.3,0.8c-0.1,0.2,0,0.4,0.1,0.4c0.1,0.1,0.3,0.1,0.4,0.2c0.1,0.1,0.2,0.1,0.3,0
	c0.1-0.1,0.2-0.2,0.3-0.5c0,0.2,0.1,0.3,0.3,0.4c-0.2,0.2-0.4,0.4-0.5,0.5c-0.1,0.1-0.2,0.1-0.4,0c-0.3-0.1-0.5-0.2-0.8-0.4
	c-0.3-0.1-0.4-0.4-0.2-0.7c0.2-0.6,0.5-1.1,0.8-1.7c0.3-0.6,0.5-1.1,0.8-1.7C37.1,84.3,37.2,84.2,37.2,84z M41.4,89.3
	c0.1-0.1,0.3-0.1,0.4-0.2c0.1,0.2,0.2,0.3,0.4,0.5c0.2,0.2,0.3,0.4,0.4,0.6c-0.1,0.1-0.3,0.2-0.4,0.3C42,90.2,41.8,89.8,41.4,89.3z
	 M39.8,88.5c0.1,0.1,0.2,0.3,0.3,0.4c-0.2,0.1-0.7,0.4-1.4,0.8c-0.1-0.1-0.1-0.2-0.3-0.4C39.1,88.9,39.6,88.7,39.8,88.5z M39.9,86.5
	l3,0.8c-0.2,0.5-0.4,1-0.4,1.5l-1.2-0.3l-0.3,1.3c-0.1,0.2-0.1,0.4-0.3,0.4c-0.1,0-0.3,0-0.7,0c0-0.2,0-0.4-0.1-0.6
	c0.2,0.1,0.4,0.1,0.5,0.1c0.1,0,0.2-0.1,0.2-0.3l0.3-1.1l-1.3-0.3c0.1-0.2,0.1-0.5,0.2-0.8S39.8,86.7,39.9,86.5z M40.1,87.1L40,87.9
	l2.2,0.6l0.2-0.8L40.1,87.1z M41.4,85.4c0.1,0,0.3,0,0.5,0c0,0.1,0,0.1,0,0.3c0,0.1,0,0.3,0,0.5c0.3,0.1,0.7,0.2,1,0.3
	c0.3,0.1,0.5,0.1,0.8,0.2c0,0.1-0.1,0.3-0.1,0.4c-1.4-0.4-2.8-0.8-4.2-1.1c0-0.1,0-0.3,0.1-0.5c0.3,0.1,0.6,0.2,0.8,0.3
	c0.2,0.1,0.4,0.1,0.6,0.2C41,86,41.2,86,41.4,86c0-0.1,0-0.2,0-0.3C41.4,85.7,41.4,85.5,41.4,85.4z M46.7,91.5c0-0.2,0-0.4,0.1-0.6
	c0-0.2,0-0.3,0-0.5l0.2-2.5c0-0.2,0-0.4,0-0.6l0-0.5c0.2,0,0.4,0,0.5,0.1l0.6,0c0.1,0,0.3,0,0.5,0c-0.1,0.1-0.1,0.3-0.1,0.4
	c0,0.1-0.1,0.2-0.1,0.2L48,88.6c0.2,0.3,0.3,0.4,0.3,0.6c0,0.1,0.1,0.2,0.1,0.4c0,0.1,0,0.3,0,0.4c0,0.2-0.1,0.3-0.1,0.5
	c-0.1,0.1-0.2,0.2-0.3,0.3c-0.1,0.1-0.3,0.1-0.6,0.2c0-0.1,0-0.1,0-0.2c0,0,0-0.1,0-0.2c0-0.1-0.1-0.2-0.1-0.3
	c0.2,0,0.3,0.1,0.3,0.1c0.3,0,0.4-0.1,0.4-0.4c0,0,0-0.1,0-0.1c0-0.1,0-0.1,0-0.2c0-0.1,0-0.2-0.1-0.2c0-0.1-0.1-0.2-0.1-0.3
	c0-0.1-0.1-0.2-0.2-0.4c0.1-0.4,0.2-0.6,0.2-0.6l0.2-0.8l-0.6,0l-0.2,3.2c0,0.1,0,0.3,0,0.6l0,0.5C47,91.5,46.9,91.5,46.7,91.5z
	 M45.6,88.5l0.5,0l0.1-1l-0.5,0L45.6,88.5z M45.4,90l0.5,0l0.1-1.1l-0.5,0L45.4,90z M44.6,88.5l0.6,0l0.1-1l-0.6,0L44.6,88.5z
	 M44.5,89.9l0.6,0l0.1-1.1l-0.6,0L44.5,89.9z M44.4,87c0.2,0,0.4,0.1,0.5,0.1l0.4,0l0-0.4c0-0.2,0-0.3,0-0.4l0-0.4
	c0.1,0,0.3,0,0.4,0c0,0.2,0,0.3-0.1,0.4c0,0.1,0,0.2,0,0.3l0,0.3l0.4,0c0.2,0,0.3,0,0.5,0c0,0.2-0.1,0.4-0.1,0.5c0,0.1,0,0.3,0,0.4
	l-0.2,2c0,0.2,0,0.4,0,0.4l0,0.4c-0.1,0-0.2,0-0.2,0c0,0-0.1,0-0.2,0c0-0.1,0-0.2,0-0.3l0-0.2l-1.5-0.1l0,0.3c0,0,0,0.1,0,0.2l0,0.1
	c-0.1,0-0.3,0-0.4,0c0-0.2,0-0.4,0.1-0.5c0-0.1,0-0.3,0-0.5l0.2-2.1c0-0.1,0-0.2,0-0.4L44.4,87z M49.7,87.2c0.2,0,0.3,0,0.5,0l1-0.1
	l0-0.2c0-0.1,0-0.2,0-0.3l0-0.4c0.2,0,0.3,0,0.3,0c0,0,0.1,0,0.2,0c0,0.2,0,0.3,0,0.4s0,0.2,0,0.3l0,0.2l1-0.1c0.1,0,0.3,0,0.5-0.1
	c0,0.1,0,0.2,0,0.3c0,0.1,0,0.2,0,0.3l0.1,1.7c0,0.2,0,0.3,0,0.3l0,0.3c-0.2,0-0.4,0-0.5,0c0,0,0-0.1,0-0.1c0,0,0,0,0-0.1l0-0.1
	l-1,0.1l0.1,0.8c0,0.1,0,0.2,0,0.3c0,0,0,0.1,0.1,0.1s0.3,0,0.8,0c0.2,0,0.3,0,0.4-0.1c0.1,0,0.1-0.1,0.2-0.1c0-0.1,0.1-0.1,0.1-0.2
	c0-0.1,0-0.2,0-0.4c0.1,0.1,0.2,0.2,0.2,0.2c0.1,0.1,0.2,0.1,0.4,0.2c0,0.1-0.1,0.2-0.1,0.2c0,0.1-0.1,0.2-0.1,0.3
	c0,0.1-0.1,0.2-0.2,0.2c-0.1,0.1-0.2,0.1-0.3,0.1c-0.1,0-0.4,0-0.6,0c-0.5,0-0.8,0-1,0c-0.1,0-0.2-0.1-0.2-0.2c0-0.1,0-0.2,0-0.4
	l-0.1-0.9l-1,0.1l0,0.2l0,0.1l0,0.1c-0.1,0-0.2,0-0.2,0l-0.1,0l-0.2,0c0-0.2,0-0.3,0-0.4c0-0.1,0-0.2,0-0.4l-0.1-1.6
	c0-0.1,0-0.2,0-0.3L49.7,87.2z M50.3,89.3l1-0.1l0-0.7l-1,0.1L50.3,89.3z M50.3,88.2l1-0.1l0-0.6l-1,0.1L50.3,88.2z M51.8,89.2
	l1-0.1l0-0.7l-1,0.1L51.8,89.2z M51.7,88.1l1-0.1l0-0.6l-1,0.1L51.7,88.1z M55.1,90.5l0.1-0.1c0.3-0.2,0.6-0.4,0.8-0.7
	c0.2-0.3,0.4-0.6,0.4-0.8c0-0.3,0.1-0.5,0.1-0.7c0-0.2,0-0.4,0-0.6l-1.1,0.2c0,0-0.2,0.1-0.7,0.2c0-0.1,0-0.1,0-0.1c0,0,0-0.1,0-0.1
	c0,0,0-0.1,0-0.1l-0.1-0.2c0.4-0.1,0.6-0.1,0.7-0.1l1.1-0.2c0-0.1,0-0.2,0-0.2c0-0.1,0-0.2-0.1-0.4l-0.1-0.2c0-0.1,0-0.1,0-0.1
	l-0.1-0.5c0.1,0,0.2,0,0.3,0c0.1,0,0.1,0,0.2-0.1l0.1,0.5c0,0.1,0,0.2,0.1,0.4c0,0.1,0,0.3,0.1,0.3l0.1,0.3l1.2-0.3
	c0,0,0.3-0.1,0.6-0.2c0,0.1,0,0.2,0,0.2c0,0,0,0.1,0,0.1c0,0,0,0.1,0.1,0.2c-0.3,0-0.5,0.1-0.6,0.1l-1.1,0.2c0,0.1,0.1,0.2,0.1,0.3
	c0,0.1,0.2,0.3,0.4,0.7c0.2,0.3,0.4,0.5,0.6,0.6c0.2,0.1,0.4,0.2,0.6,0.3c0.2,0.1,0.4,0.1,0.6,0.1l0.1,0c-0.2,0.2-0.3,0.3-0.3,0.5
	l-0.1,0.2L59,90c0,0-0.2-0.1-0.5-0.2c-0.3-0.1-0.6-0.3-0.9-0.6c-0.3-0.3-0.5-0.6-0.7-1c0,0.1,0,0.2,0,0.3c0,0.1,0,0.2,0,0.2
	c0,0.1,0,0.2-0.1,0.3c0,0.1-0.1,0.3-0.1,0.4c-0.1,0.2-0.1,0.3-0.3,0.5c-0.1,0.2-0.2,0.3-0.3,0.4c-0.1,0.1-0.3,0.3-0.5,0.5l-0.1,0.1
	c0,0-0.1-0.1-0.2-0.2C55.4,90.7,55.3,90.6,55.1,90.5z M60.3,88.5c0-0.1-0.1-0.2-0.1-0.3c0,0,0-0.1,0-0.1L60.2,88
	c0.3-0.1,0.5-0.1,0.6-0.2l1.3-0.5l0-0.1l0,0l0-0.1L61.9,87l0.1-0.1c0.1-0.1,0.3-0.2,0.4-0.5l-1.1,0.4c-0.1,0-0.3,0.1-0.6,0.3
	c0-0.1,0-0.1,0-0.1c0,0,0-0.1,0-0.1l0-0.1l-0.1-0.1c0.4-0.1,0.6-0.2,0.7-0.2l1.4-0.5c0.2-0.1,0.4-0.1,0.6-0.2c0,0.1,0,0.1,0,0.2
	l0,0.1c0,0.1,0,0.1,0,0.1l0.1,0.1l-0.1,0.1c-0.2,0.1-0.4,0.3-0.6,0.6L62.4,87l0.1,0.2l1.1-0.4c0.2-0.1,0.4-0.2,0.7-0.3
	c0,0.1,0,0.1,0,0.2c0,0,0,0.1,0,0.1c0,0,0,0.1,0.1,0.2c-0.4,0.1-0.7,0.2-0.7,0.2l-1.1,0.4l0.3,0.9c0,0.1,0,0.2,0,0.3
	c0,0.1-0.2,0.2-0.6,0.5c0,0,0-0.1-0.1-0.1c0,0,0-0.1-0.1-0.1c0-0.1-0.1-0.1-0.3-0.2l0.1,0c0.1,0,0.2,0,0.2-0.1
	c0.1,0,0.2-0.1,0.2-0.1c0,0,0-0.1,0-0.1c0,0,0-0.1-0.1-0.3l-0.1-0.4l-1.3,0.5C60.9,88.3,60.7,88.4,60.3,88.5z M59.9,87.1
	c0-0.2-0.1-0.3-0.1-0.3l-0.1-0.4c0-0.1-0.1-0.2-0.1-0.3c0.3-0.1,0.4-0.1,0.5-0.2l2-0.7c0.1-0.4,0.1-0.8,0.1-1.2v-0.2
	c0.2,0.1,0.3,0.1,0.5,0.1l0,0.2l0,0.2l-0.1,0.4L62.4,85l0.6-0.2c0.1,0,0.2-0.1,0.5-0.2c0,0.1,0,0.2,0.1,0.2c0,0.1,0,0.1,0,0.1
	l0.1,0.4c0,0,0,0,0.1,0.1l0.1,0.2c-0.1,0-0.3,0.1-0.4,0.2c0-0.1,0-0.1,0-0.2c0,0,0-0.1,0-0.1l-0.1-0.3l-3.2,1.1l0.1,0.3
	c0,0.1,0,0.1,0.1,0.1l0.1,0.2c-0.1,0-0.1,0-0.1,0C60.1,87,60,87,59.9,87.1z M59.7,85.1c0.1-0.1,0.2-0.2,0.3-0.3l0.7,0.5
	c-0.1,0.1-0.2,0.1-0.2,0.1l-0.2,0.2l-0.1-0.1c0,0-0.1-0.1-0.2-0.1c-0.1-0.1-0.2-0.1-0.3-0.2L59.7,85.1z M61.1,84.1l0.6,0.7
	c-0.1,0.1-0.3,0.1-0.4,0.2L61.2,85c-0.1-0.1-0.1-0.2-0.2-0.2l-0.2-0.3l-0.1-0.1C60.8,84.3,61,84.2,61.1,84.1z M45.5,32.5
	c0,0.4,0.3,1.1,0.9,0.8c0.1,0,0.1-0.1,0.1-0.1c0,0,0.1-0.1,0.1-0.2c0.1-1.2-0.2-1.1-0.8-1.4c-0.2-0.1-0.3-0.2-0.4-0.3
	c-0.1-0.1-0.2-0.2-0.3-0.3c-0.4-0.7-0.5-2.2,0.5-2.4c0.7,0,0.9,0.8,1,1.3h-0.3c-0.1-0.4-0.5-0.9-0.9-0.6c-0.3,0.2-0.3,0.8-0.1,1.1
	c0,0.1,0.1,0.2,0.1,0.2c0.1,0.1,0.1,0.1,0.2,0.2c0.1,0.1,0.2,0.1,0.3,0.2c0.6,0.3,0.8,0.5,1,1.1c0,0.1,0.1,0.4,0.1,0.5
	c0,0.3,0,0.5,0,0.6c0,0.2-0.1,0.3-0.2,0.4c-0.1,0.1-0.2,0.2-0.3,0.3C46.5,34,46.4,34,46.2,34c-0.7,0-1-0.9-1.1-1.5H45.5z M50.9,32.3
	c0,0.4,0.1,1.1,0.8,0.9c0.1,0,0.1,0,0.2-0.1c0,0,0.1-0.1,0.1-0.2c0.3-1.1,0-1.1-0.6-1.6c-0.1-0.1-0.3-0.2-0.3-0.3
	c-0.1-0.1-0.1-0.2-0.2-0.4c-0.2-0.7-0.1-2.3,1-2.3c0.7,0.1,0.7,1,0.8,1.5l-0.3-0.1c0-0.4-0.3-1-0.8-0.7c-0.3,0.2-0.4,0.7-0.3,1
	c0,0.1,0.1,0.2,0.1,0.3c0,0.1,0.1,0.1,0.2,0.2c0.1,0.1,0.2,0.2,0.3,0.3c0.5,0.4,0.7,0.6,0.7,1.3c0,0.1,0,0.4,0,0.5
	c0,0.3-0.1,0.5-0.2,0.6c-0.1,0.2-0.2,0.3-0.2,0.4c-0.1,0.1-0.2,0.2-0.3,0.2c-0.1,0-0.2,0-0.3,0c-0.7-0.1-0.8-1-0.8-1.7L50.9,32.3z
	 M31.2,34c0.2-0.1,0.4-0.1,0.6,0c0.1,0,0.3,0.1,0.4,0.2c0.2,0.1,0.3,0.2,0.5,0.4c0.2,0.2,0.3,0.3,0.5,0.5c0.2,0.2,0.3,0.4,0.4,0.6
	c0.1,0.2,0.3,0.4,0.4,0.6c0.1,0.2,0.2,0.4,0.3,0.6c0.2,0.4,0.2,0.8,0.2,1c0,0.3-0.1,0.5-0.3,0.6c-0.2,0.1-0.4,0.1-0.7,0
	c-0.3-0.1-0.6-0.3-0.9-0.6c-0.3-0.3-0.6-0.6-0.9-1c-0.1-0.2-0.3-0.4-0.4-0.6c-0.1-0.2-0.2-0.4-0.3-0.6C31,35.3,31,34.9,31,34.6
	C31,34.3,31.1,34.2,31.2,34z M31.7,34.7c-0.1,0.1-0.2,0.2-0.2,0.4c0,0.2,0,0.5,0.2,0.8c0.1,0.3,0.3,0.6,0.5,0.9
	c0.2,0.3,0.4,0.5,0.7,0.8c0.2,0.2,0.5,0.4,0.7,0.4c0.2,0.1,0.4,0.1,0.5,0c0.1-0.1,0.2-0.2,0.2-0.4c0-0.2-0.1-0.5-0.2-0.8
	c-0.1-0.3-0.3-0.6-0.5-0.9c-0.2-0.3-0.4-0.5-0.7-0.8s-0.5-0.4-0.7-0.5C31.9,34.6,31.8,34.6,31.7,34.7z M35,35.2l1.2,2.2L36,37.5
	l-2.7-4.8l1.3-0.7l0.4,0.6l-1,0.5l0.8,1.3l0.9-0.5l0.4,0.6L35,35.2z"/>
</svg>
