<svg xmlns="http://www.w3.org/2000/svg" width="300" height="120" viewBox="0 0 300 120">
  <title>ruc</title>
  <rect width="300" height="120" style="fill: #fff"/>
  <g>
    <g>
      <path d="M143.1,43.3a31.2,31.2,0,0,0-.5-3.3,9.3,9.3,0,0,0-1.7-3.2,4.1,4.1,0,0,0-3.4-1.6c-1,0-1.7.7-2.8,0.9s-4.7,1.1-6.5,1.4-2.7,1.2-3,2.3a15,15,0,0,1,2.2-1l2.4-.5,3.7-.7a8.5,8.5,0,0,1,3.7-.1c0.5,0,1.1.9,1.5,1.7a8.4,8.4,0,0,1,.9,2.6,32.1,32.1,0,0,1,.2,5.6c0,1.8.1,4.1,0.2,5.2a40.4,40.4,0,0,1-.7,5.6c0,0.3-.1,1.2-0.6,1.3a17.5,17.5,0,0,1-3.7-2.2c-0.5-.1-1.1-2.2-0.9-2.8s1.7-1,2.3-2.8-0.2-2,.3-5.2,0.5-4.7-1-5.8a1.8,1.8,0,0,0-.8-0.5c-0.9-.2-2.1,0-2,0.2s1.2,1.7,2,2.4-0.1,2.9-.7,4.6-1,1.5-1.4,1.3-0.8-1.5-1.1-2.4a15.3,15.3,0,0,1-.4-1.9,7.3,7.3,0,0,0,0-2,8.6,8.6,0,0,0-.9-1.3c-0.2-.4-0.3-0.8-0.5-1s-0.6-1-1.1-.9-0.4,3.1-.8,3.9-1.4.7-2.4,0.8l-1.2.4c-0.2.2,0.3,0.5,0.7,0.9a4.3,4.3,0,0,1,.5.7,1.1,1.1,0,0,1,.4.7,3.9,3.9,0,0,0,.1,1.3c0.3,0.3.9-.2,1.6-0.2s-1.4,1.9-1.3,2.1a1.2,1.2,0,0,0,.8.1,5.3,5.3,0,0,1,2.1-1.1,3.3,3.3,0,0,1,.8,1.7c0,1.1-3.1,2.5-4.9,2.2-0.1-.6.1-1.8-0.1-1.7s-0.9,1-1.7,1.7a1.2,1.2,0,0,1-1.1.4c0-1.8-.1-5.7.2-6.4a6.9,6.9,0,0,0,.1-3.3c-0.1-.7-0.7-1.2-0.8-0.9s-1.7,3.4-2.3,6.2a87.2,87.2,0,0,0-.7,10.6,1.5,1.5,0,0,0,1.2,1.3,2.2,2.2,0,0,0,1.6-1c0.3-1.1.2-2.7,0.4-4.4a13.5,13.5,0,0,0,3.8-.3,24.3,24.3,0,0,0,2.8-1.1,11.7,11.7,0,0,0,1.5-1.1A0.6,0.6,0,0,1,131,53a4.9,4.9,0,0,1,0,1.6c-1,1.1-1.5,1.9-1.3,2a11.1,11.1,0,0,0,1.9-.8,0.8,0.8,0,0,1,.3.8,1,1,0,0,1-.1,1.1,2,2,0,0,1-.7.9,9.8,9.8,0,0,1-2.2.1c-1,.1-1.3.4-1.8,0.2s-0.2-.3.2-0.7a1,1,0,0,0,.3-1c-0.5.1-2.8,1.3-2.8,1.8a4.4,4.4,0,0,0,.4,1.8c0.1,1,0,1.3.2,1.5a1.3,1.3,0,0,0,1.2-.1l1.4-.7a21.1,21.1,0,0,1,4.2-.7c0.8,0,3.2-.7,3.5-0.6s2.2,1.9,2.6,2.3,1.5,1.6,1.8,2.1,0,1.3.2,1.4a2,2,0,0,0,1.1-.1,4.9,4.9,0,0,0,1.8-1.5c0.6-.6.1-6.9,0.4-12C143.7,49.5,143.1,46.6,143.1,43.3Zm-9.7,8.5a3.2,3.2,0,0,1,0-1.2h0.7a2.7,2.7,0,0,1,.1,1.2h-0.8ZM257,45.6a1.9,1.9,0,0,0,1,.8,1.4,1.4,0,0,0,1.2-.1c0.5-.5-0.3-7.8-0.7-8.2s-3.2-1.8-3.2-1.2,0.5,1.5.7,2.5C256.3,42.2,256.8,45.2,257,45.6ZM110.9,40.4a15.4,15.4,0,0,0-5.8-.2,5,5,0,0,1-3-.3c-0.5-.3-0.7-0.9-0.6-2s0.1-1.8.1-2.6a1.6,1.6,0,0,0-1.1-.9c-0.9,0-2.2-.9-2.4-0.2a2.8,2.8,0,0,0-.1,1.6c0,0.4.2,0.8,0.2,1.2a10.6,10.6,0,0,1-.2,3c-1.4.9-3.8,1.6-5.3,2.3s-1.4-1-2.1-1.4a3.1,3.1,0,0,0-1.8-.3V41c0.3,1,.8,1.7,1.1,2.7s0.9,3.5,1.4,5.2a2.2,2.2,0,0,0,.2.7,0.9,0.9,0,0,0,1,.4,0.7,0.7,0,0,0,.8-0.5c0.2-1.5-.1-3.7.1-5s-0.1-1.2.2-1.2l2.5-.4A4.1,4.1,0,0,1,98,43c0.1,1.9-.1,4.3.1,5.4-2.7.5-2.1,0.7-2.5,1.5s2.1,0,2.4.7c0,3-.4,7.4-0.4,11,0,1.3.3,2.4,0.3,3.4a8.5,8.5,0,0,0,.7,3c0.4,0.7.6,1,1,1a0.6,0.6,0,0,0,.5-0.2,5.4,5.4,0,0,0,1.5-2.6c0.1-.7-0.1-2-0.1-4.1s0.4-7.7.5-8.6,0.1-2.1.1-3,1.5-.4,3.1-1.1a15.8,15.8,0,0,0,2.3-1,2.8,2.8,0,0,1,2-.8c3.6-.4,4.2-0.7,4.2-1.2s-0.1-1.7-.4-2.8S112.2,40.7,110.9,40.4Zm-7.3,6.7c-0.6.2-1.4,0.9-1.8,0.4a51.1,51.1,0,0,1-.1-5.2c0-.4,2.4-0.2,4.4-0.5h1.1C107.9,42.2,108.1,45.8,103.6,47.1Zm61.2-9.3a0.6,0.6,0,0,0-.5-0.3,1,1,0,0,0-.7.3c-1.6,2.4-3,4.2-4.6,6.6s-2.4,4.1-3.4,5.8c-2,3.3-3.4,5.6-6,9.2a2.7,2.7,0,0,0-.5.9c-0.1.3-.4,1.2,0.2,1.2l1.2-.2a12.4,12.4,0,0,0,3.5-2.3c1.1-1.6,3.3-5.9,5.1-9.1s2.8-4.3,3.8-6.1S165,38.5,164.8,37.8Zm78.1,22.6c-0.7-.5-1.9-0.4-3.5-1.2s-2.7-2.4-5.2-5.2a18.8,18.8,0,0,1-1.8-2.1,30.2,30.2,0,0,1-2.1-2.9c-0.2-.4-0.8-1.2,0-1.6s3.4-1.8,5-2.4a29.7,29.7,0,0,1,3.5,0,0.5,0.5,0,0,0,.4-0.4,1.2,1.2,0,0,0-.1-1.3,2.8,2.8,0,0,0-1.3-.9,4.7,4.7,0,0,0-2.3-.4,10.8,10.8,0,0,0-4.1,1.8l-2.1,1c-0.5.2-.9,0.3-1,0s0.3-4.3.9-6.3a2.9,2.9,0,0,0-.1-1.4,2,2,0,0,0-1-.7c-1.1-.7-2-1-2.7-0.4s-0.1,3.5-.2,5-0.1,4-.7,5.1a8.1,8.1,0,0,1-4.3,1.9h-1.6a3.9,3.9,0,0,0-1.1,0,0.8,0.8,0,0,0-.8.9c0.2,1.1.5,1,1.3,1.3a4.9,4.9,0,0,0,2.1.2,19.9,19.9,0,0,1,3.4-.7c0.3,0,.4.5,0.3,0.9a22.5,22.5,0,0,1-2,5.8,15,15,0,0,1-3.2,4.8c-0.8.8-.8,1.3-0.4,1.5s0.4-.2,1.5-0.8a27.8,27.8,0,0,0,2.9-1.5c0.9-.7,1.3-1.8,2.4-3.7s0.8-2.3,1.8-6.8a5,5,0,0,1,.1-0.6,1.7,1.7,0,0,1,.4-0.6,2.3,2.3,0,0,1,1.1-.8c0.9,2.1,1.3,3.5,2,4.7s0.9,1.3,1.4,2a57.9,57.9,0,0,0,5.5,7.2c1.1,1,3.3.8,5.4,0.8a2.3,2.3,0,0,0,1.3-.6C244.2,61.7,244.3,61.4,242.9,60.4Zm-61.4-.6a42.1,42.1,0,0,1-10.9-4.9c-4.5-2.7-7.9-6.2-8.5-5.5s1.8,2.2,3.6,4a58.3,58.3,0,0,0,5,4.3c2,1.7,3.3,3.7,5,4.6a9,9,0,0,0,3.8.7,15.7,15.7,0,0,0,3.4-.3c1-.3.9-0.8,0.5-1.4A3.5,3.5,0,0,0,181.5,59.8Zm96.2-10.8a5.4,5.4,0,0,0-3-3.6c-0.6-.3-0.4-2.9.2-5.4s0.6-2,.8-2.9,0-3.3-.3-3.5a2.4,2.4,0,0,0-1.6-.2l-4.6.3c0-.4-0.8-1.7-1.1-0.6s-0.5,1.3-.9,2a13,13,0,0,1-1.2,2A12.1,12.1,0,0,1,263,37a3.4,3.4,0,0,0-.3-2.2,1.6,1.6,0,0,0-1.4-.5c-0.6.1-.3,3.7-0.4,7.6s-0.9,5.8-.9,7.1l-4.3,2.5a2,2,0,0,1-1.8.2,3,3,0,0,0-.6-1.4,1.8,1.8,0,0,0-1.4-.9c-0.1,0-.8-0.2-1,0.3s-0.2,1.9-.4,3-1.8,5.8-1.7,6.1,0.4,1,.9,1.1a2.1,2.1,0,0,0,2.3-.6c1.3-1.2,1.1-5.1,2-5.9l2-.6c0.9-.2.9-0.7,3.3-1.7s2.5-.8,3.7-1.2,2.1-1.1,2.9-1.4,2,0,3.2-.1a5.9,5.9,0,0,0,1.4-.6l1.5-.3a1,1,0,0,1,.8.1c0.6,0.5.6,0.7-.1,1.1a7.8,7.8,0,0,0-3.5,2.3l-1.3.4-1.4.6-5.6,1c-0.3.1-.3,0.5-0.3,0.8s1.4,1.2,2.6,1.2a3.8,3.8,0,0,0,1.5-.8c0.4-.2,2.2-1.5,1.9-0.3s-0.3,1.7-.3,2.1-0.1,1.3-.2,1.8a11.8,11.8,0,0,1-2.7,1.1c-1.5.4-2.9,0.4-4.8,0.9s-2.4,2-2.1,2.3,2.5,0.3,4.5-.4a29.3,29.3,0,0,0,3.9-1.9,0.8,0.8,0,0,1,1.2.6c-0.1,1.3-.7,1.5-0.8,2.3s-2,.8-3.8.6l-2.7-.2c-0.5.2,1,.7,1.5,0.9s1.4,0.3,2.6.8,2.3,1.4,3.3,1.5a3.5,3.5,0,0,0,3-1.6c0.6-1.3.4-3.1,0.3-5.5,0-.5.1-0.5,0.4-0.5h0.5l2.2,0.4c0.8,0.2,1.6.7,2,.8a0.9,0.9,0,0,0,.9-1.2,8.6,8.6,0,0,0-1.1-1.6,13.7,13.7,0,0,0-4-.1h-0.8c-0.4-.1-0.5,0-0.6-0.2a3.1,3.1,0,0,1,.1-1.9,5.1,5.1,0,0,1,.9-1.5c0.4-.8,0-1.7.1-2.2a3.4,3.4,0,0,1,3.3-1.5,6.3,6.3,0,0,1,1,.7l2.6,0.4C277.9,50.9,277.8,50.3,277.6,48.9ZM262.9,38h2.2a7.4,7.4,0,0,1-1.4,2.1,1.7,1.7,0,0,1-.9.3C262.8,39.8,262.9,38.2,262.9,38Zm0.1,9a1,1,0,0,1-.5-0.6,23,23,0,0,1,.1-4.3l1.5-.9c0.2-.1.3-0.4,1.2,0.8a4.9,4.9,0,0,1,.7,1.1C264.2,45.5,263.7,46.6,263,47Zm3.9-.3a0.5,0.5,0,0,1-.4.3H266a1.3,1.3,0,0,1,.6-0.8A0.5,0.5,0,0,1,266.9,46.7Zm-1.6-6.6,2.2-2.4h1.9a1,1,0,0,1,.4,1.1,31.8,31.8,0,0,1-2.7,3.2A8.2,8.2,0,0,1,265.2,40.1Zm6.1,4.4c-1,1.4-1.7,1.7-2.3.4s-0.8-1.3-.9-1.8a3.8,3.8,0,0,1,1.4-1.4c0.8,0.1,2.5-.2,2.5.2S271.5,43.8,271.3,44.5Zm1.1-4.1a5.2,5.2,0,0,1-1.9-.1c0.3-.6.6-1.9,1.2-2.2s1-.2,1.2.1A5.5,5.5,0,0,1,272.5,40.3Zm0.6-4c-0.4.2-1.8,0-2.5,0.8h-2.8c0.1-.7,1-2,1.2-2.7a36.9,36.9,0,0,1,4.2,0c0.2,0,.2-0.1.3,0.6S273.3,36.3,273,36.3ZM211.2,53.2c-0.7,2.6-1.5,4.9-3.4,6.2a2.7,2.7,0,0,1-1.7.6,3.5,3.5,0,0,1-2.1-1.9,11.2,11.2,0,0,1-1.8-6.3l3.2-2c0.9-1,1.8-2,1.5-2.6s-0.5-.3-2.5.1a30.3,30.3,0,0,0-2.9,1.3c-0.5-.1-0.8-1-1.4-1.4a2.2,2.2,0,0,0-2.2-.1c-0.6.9-.3,3.3-0.3,4.6s-2.9,2.6-4,3.6-0.3-5.5,0-9.9c-0.1-.8,5.7-0.1,6.4-0.6s1.9-2.8,2.5-4,1.1-2.4.6-3.7a1.1,1.1,0,0,0-1.2-.9c-0.9,0-1.4.7-1.9,0.9s-1.9,0-2.5.4-2,1.3-2.9,1.7-1.2,1.3-1,1.4a34.2,34.2,0,0,1,4.4-1.3c0.2,0,.1.3,0,0.7s-0.8,2.4-1.3,3.6a8.2,8.2,0,0,1-3.1-.1c-0.7-.1-1.9-0.8-2.6-0.9a2.1,2.1,0,0,0-2,1.3c-0.4,1.8,0,3.6-.1,6.1-0.2,4-.6,9-0.7,11.9a3.1,3.1,0,0,0,.3,1.6,6.3,6.3,0,0,0,3.6-.1c0.8-.6.6-2.1,0.9-5l0.4-.7a13.6,13.6,0,0,1,4.3-3.3,25.7,25.7,0,0,0,3.8,7.9c0.9,0.9,4.4,1.9,5.9.4s3.6-4.8,4.1-7.6a10.5,10.5,0,0,0,.1-2.1C211.8,52.4,211.4,52.4,211.2,53.2Z" style="fill: #982030;fill-rule: evenodd"/>
      <path d="M107.3,41.8" style="fill: #55b449;fill-rule: evenodd"/>
    </g>
    <g>
      <path d="M91,81.2a0.8,0.8,0,0,0,.9.9h0.4v0.5H88.3V82.1h0.2a0.8,0.8,0,0,0,1-.9V76.5a0.7,0.7,0,0,0-.9-0.9H88.3V75.2h3.3q2.4,0,3.1.8a1.9,1.9,0,0,1,.5,1.3,2,2,0,0,1-1.7,1.9l1,1.2,0.9,1.2a2,2,0,0,0,1.5.7v0.4H94.8a2.3,2.3,0,0,1-.9-0.6l-0.8-1a8.8,8.8,0,0,0-1.2-1.5H91v1.8Zm0-2.3h0.4q2.2,0,2.2-1.7t-2-1.7H91v3.4Z" style="fill: #982030"/>
      <path d="M99.8,75.9v2.6h1.9a0.7,0.7,0,0,0,.8-0.8h0.4V80h-0.4q0.1-.9-1-0.8H99.8v2.1q0,0.7.4,0.6h1.9a1.2,1.2,0,0,0,1.3-1.2h0.4v1.8H96.9V82.1h0.4a0.7,0.7,0,0,0,.9-0.8V76.5a0.8,0.8,0,0,0-1-.8H97.1V75.2h6.2v1.7h-0.4q-0.1-1.2-.8-1.1H99.8Z" style="fill: #982030"/>
      <path d="M106.1,81.1q-0.1,1.1,1.1,1v0.5h-2.7V82.1h0.1a0.7,0.7,0,0,0,.8-0.7V75.9l-0.9-.2V75.2h2.3l4.6,5V76.7a1.3,1.3,0,0,0-.2-0.8l-0.9-.2h-0.1V75.2h2.9v0.5H113q-1,0-.9.6v6.3h-0.6l-5.4-5.9v4.4Z" style="fill: #982030"/>
      <path d="M115.5,76.7l-0.3,4.2a1.4,1.4,0,0,0,.1.9,1,1,0,0,0,.8.2v0.5h-2.5V82.1a1,1,0,0,0,.8-0.2,1.7,1.7,0,0,0,.2-1l0.3-4.3a1.1,1.1,0,0,0-.1-0.7l-0.7-.2V75.2h2.4l2.2,4.9,2.1-4.9h2.4v0.5h-0.8a1,1,0,0,0,0,.7l0.3,4.4a1.4,1.4,0,0,0,.2.9l0.8,0.2v0.5h-3.5V82.1h0.2a0.7,0.7,0,0,0,.9-0.8,3.6,3.6,0,0,0,0-.6l-0.3-4.2-2.5,6H118Z" style="fill: #982030"/>
      <path d="M124.1,75.2h3.6v0.5h-0.2a0.8,0.8,0,0,0-.9.9v4.7a0.7,0.7,0,0,0,.9.9h0.2v0.5h-3.6V82.1h0.1a0.7,0.7,0,0,0,.8-0.8V76.5a0.7,0.7,0,0,0-.8-0.9h-0.1V75.2Z" style="fill: #982030"/>
      <path d="M129.9,81.1q-0.1,1.1,1.1,1v0.5h-2.7V82.1h0.1a0.7,0.7,0,0,0,.8-0.7V75.9l-0.9-.2V75.2h2.3l4.6,5V76.7a1.3,1.3,0,0,0-.2-0.8l-0.9-.2H134V75.2h2.9v0.5h-0.1q-1,0-.9.6v6.3h-0.6l-5.4-5.9v4.4Z" style="fill: #982030"/>
      <path d="M147.3,75.2h2.9v0.5h-0.1a0.8,0.8,0,0,0-1,1v3q0,3-3.2,3T142.7,80V76.5a0.7,0.7,0,0,0-.8-0.8h-0.2V75.2h3.5v0.5H145a0.7,0.7,0,0,0-.8.8V80a1.8,1.8,0,0,0,2,1.9,2,2,0,0,0,2.2-2.2V76.9q0-1.2-.9-1.2h-0.2V75.2Z" style="fill: #982030"/>
      <path d="M152.2,81.1q-0.1,1.1,1.1,1v0.5h-2.7V82.1h0.1a0.7,0.7,0,0,0,.8-0.7V75.9l-0.9-.2V75.2h2.3l4.6,5V76.7a1.3,1.3,0,0,0-.2-0.8l-0.9-.2h-0.1V75.2h2.9v0.5h-0.1q-1,0-.9.6v6.3h-0.6l-5.4-5.9v4.4Z" style="fill: #982030"/>
      <path d="M159.8,75.2h3.6v0.5h-0.2a0.8,0.8,0,0,0-.9.9v4.7a0.7,0.7,0,0,0,.9.9h0.2v0.5h-3.6V82.1h0.1a0.7,0.7,0,0,0,.8-0.8V76.5a0.7,0.7,0,0,0-.8-0.9h-0.1V75.2Z" style="fill: #982030"/>
      <path d="M164.9,76.6l-0.5-.8-0.7-.2h-0.1V75.2h3.9v0.5h-0.2a1.2,1.2,0,0,0-.9.2,0.8,0.8,0,0,0,.1.8l1.8,4,1.7-4.3q0.2-.6-0.7-0.6h-0.3V75.2H172v0.5h0q-0.8-.1-1.3,1.2l-2.3,5.7h-0.7Z" style="fill: #982030"/>
      <path d="M175,75.9v2.6h1.9a0.7,0.7,0,0,0,.8-0.8h0.4V80h-0.4q0.1-.9-1-0.8H175v2.1q0,0.7.4,0.6h1.9a1.2,1.2,0,0,0,1.3-1.2H179v1.8h-6.8V82.1h0.4a0.7,0.7,0,0,0,.9-0.8V76.5a0.8,0.8,0,0,0-1-.8h-0.1V75.2h6.2v1.7h-0.4q-0.1-1.2-.8-1.1H175Z" style="fill: #982030"/>
      <path d="M182.2,81.2a0.8,0.8,0,0,0,.9.9h0.4v0.5h-3.9V82.1h0.2a0.8,0.8,0,0,0,1-.9V76.5a0.7,0.7,0,0,0-.9-0.9h-0.2V75.2h3.3q2.4,0,3.1.8a1.9,1.9,0,0,1,.5,1.3,2,2,0,0,1-1.7,1.9l1,1.2,0.9,1.2a2,2,0,0,0,1.5.7v0.4H186a2.3,2.3,0,0,1-.9-0.6l-0.8-1a8.7,8.7,0,0,0-1.2-1.5h-0.9v1.8Zm0-2.3h0.4q2.2,0,2.2-1.7t-2-1.7h-0.6v3.4Z" style="fill: #982030"/>
      <path d="M188.7,80.4h0.4a2,2,0,0,0,1.9,1.8,1.2,1.2,0,0,0,1.3-1.2,2.3,2.3,0,0,0-1.6-1.7,2.8,2.8,0,0,1-2-2.3q0.1-1.8,2.3-1.9l1.4,0.2h0.8l0.2,1.9h-0.4a1.9,1.9,0,0,0-1.9-1.6,1,1,0,0,0-1.1.8q0,0.6,1.4,1.4a7,7,0,0,1,1.8,1.2,2.3,2.3,0,0,1,.7,1.6,2.2,2.2,0,0,1-2.4,2.1l-1.5-.2h-0.4l-0.2.2H189Z" style="fill: #982030"/>
      <path d="M194.7,75.2h3.6v0.5h-0.2a0.8,0.8,0,0,0-.9.9v4.7a0.7,0.7,0,0,0,.9.9h0.2v0.5h-3.6V82.1h0.1a0.7,0.7,0,0,0,.8-0.8V76.5a0.7,0.7,0,0,0-.8-0.9h-0.1V75.2Z" style="fill: #982030"/>
      <path d="M203.5,81.2q-0.1.9,1,.9h0.3v0.5h-4.1V82.1H201a0.8,0.8,0,0,0,.9-0.9V75.8h-1.4a1.1,1.1,0,0,0-.8.2,2.9,2.9,0,0,0-.4,1.2h-0.5l0.2-2.2h0.4l0.2,0.2h5.7a0.5,0.5,0,0,0,.5-0.2h0.4l0.2,2.2H206a2.9,2.9,0,0,0-.4-1.2,1.2,1.2,0,0,0-.9-0.2h-1.3v5.4Z" style="fill: #982030"/>
      <path d="M212,81.2q-0.1.9,1,.9h0.2v0.5h-3.9V82.1h0.3a0.7,0.7,0,0,0,.8-0.8V79.6L208,76.2l-0.4-.5h-0.7V75.2h3.7v0.5h-0.7a0.4,0.4,0,0,0,0,.5l1.8,2.5,1.3-2.2a0.9,0.9,0,0,0,.2-0.7,0.7,0.7,0,0,0-.6-0.2h-0.1V75.2h2.7v0.5l-0.8.2-0.5.6L212,79.6v1.6Z" style="fill: #982030"/>
      <path d="M223.9,75q3.8,0.2,4.1,3.7t-4.3,3.9q-3.8-.2-4.1-3.6T223.9,75Zm0,7.2q2.2-.1,2.3-3t-2.7-3.7q-2.3.1-2.4,3T224,82.2Z" style="fill: #982030"/>
      <path d="M231.4,78.5H233q1.1,0.1,1-.8h0.4V80h-0.4a0.7,0.7,0,0,0-.8-0.8h-1.8v1.9q-0.1,1.1.8,1h0.2v0.5H229V82.1h0.2a0.6,0.6,0,0,0,.7-0.7V76.6q0-1.1-.7-1H229V75.2h5.7v1.7h-0.4q0-1.1-.7-1h-2.2v2.6Z" style="fill: #982030"/>
      <path d="M248.6,80.4a7.1,7.1,0,0,1-.7,2.1h-2.6q-3.8-.3-4.1-3.7t4.3-3.9a5.1,5.1,0,0,1,1.8.4h0.9v2.1h-0.4a2.3,2.3,0,0,0-2.3-1.8q-2.6.2-2.7,3.1t2.9,3.4a2.6,2.6,0,0,0,2.3-1.7h0.5Z" style="fill: #982030"/>
      <path d="M254.7,82.1a0.8,0.8,0,0,0,.8-0.9V79.1h-3.8v2.1a0.8,0.8,0,0,0,.9.9h0.2v0.5h-3.6V82.1h0.2a0.8,0.8,0,0,0,.8-0.9V76.5a0.7,0.7,0,0,0-.8-0.8h-0.2V75.2h3.6v0.5h-0.2a0.7,0.7,0,0,0-.9.8v1.9h3.8V76.5a0.8,0.8,0,0,0-.9-0.9h-0.1V75.2h3.6v0.5h-0.2a0.7,0.7,0,0,0-.8.8v4.7a0.7,0.7,0,0,0,.9.9h0.2v0.5h-3.6V82.1h0.2Z" style="fill: #982030"/>
      <path d="M258.6,75.2h3.6v0.5H262a0.8,0.8,0,0,0-.9.9v4.7a0.7,0.7,0,0,0,.9.9h0.2v0.5h-3.6V82.1h0.1a0.7,0.7,0,0,0,.8-0.8V76.5a0.7,0.7,0,0,0-.8-0.9h-0.1V75.2Z" style="fill: #982030"/>
      <path d="M264.4,81.1q-0.1,1.1,1.1,1v0.5h-2.7V82.1h0.1a0.7,0.7,0,0,0,.8-0.7V75.9l-0.9-.2V75.2h2.3l4.6,5V76.7a1.3,1.3,0,0,0-.2-0.8l-0.9-.2h-0.1V75.2h2.9v0.5h-0.1q-1,0-.9.6v6.3h-0.6l-5.4-5.9v4.4Z" style="fill: #982030"/>
      <path d="M274.2,79.8l-0.4,1.4a0.6,0.6,0,0,0,0,.7,1.4,1.4,0,0,0,.9.2h0.1v0.5h-3V82.1h0.2A1.2,1.2,0,0,0,273,81l1.9-5.6V75h1.7l2.3,6a1.3,1.3,0,0,0,1.1,1.1v0.5h-3.7V82.1h0.4a0.7,0.7,0,0,0,.6-0.2,0.7,0.7,0,0,0-.1-0.6l-0.5-1.4h-2.5Zm1.2-3.4-1,2.8h2Z" style="fill: #982030"/>
    </g>
  </g>
  <g>
    <g>
      <path d="M41.6,77.2H41l0.5,0.2a0.4,0.4,0,0,1,.1.3,1.2,1.2,0,0,1,0,.4,4.4,4.4,0,0,1-.2.7l-0.2.7-0.4.7H40.6l-0.4-.5a0.5,0.5,0,0,1,0-.4,1.9,1.9,0,0,0,.4-0.2c0.1-.2.1-0.3,0.3-0.6s0.3-.6.2-0.8H40.8a0.5,0.5,0,0,0,.1.4,0.8,0.8,0,0,1-.3.5h0v0.2H40.3a0.6,0.6,0,0,1,0-.4V77.5a0.3,0.3,0,0,0-.1-0.2c-0.2,0-.2.4-0.3,0.5H39.5s0,0.1,0,.1h0a0.2,0.2,0,0,1,0,.1v0.2h0.2l-0.3.2h0.4a0.5,0.5,0,0,1,0,.3,0.7,0.7,0,0,1-.7,0V78.6H38.8l0.3-.8a0.9,0.9,0,0,0,.2-0.4c0-.1,0-0.2-0.1-0.2a1.6,1.6,0,0,0-.6.7L38,79.4a0.2,0.2,0,0,0,.1.2h0.3l0.3-.5,0.5,0.2h0.8v0.2l-0.3.2h0.3a0.1,0.1,0,0,1,0,.1h-1a0.6,0.6,0,0,0,0,.2V80h1.4l0.2,0.4a0.8,0.8,0,0,0,.1.4,0.7,0.7,0,0,1,0,.2h0.4a14.1,14.1,0,0,0,.6-1.5c0.2-.4.2-0.8,0.4-1.2V78.1a1.3,1.3,0,0,0-.1-0.5A0.5,0.5,0,0,0,41.6,77.2ZM47.7,82l-1.3-.8a5.3,5.3,0,0,0-1-.8,1.2,1.2,0,0,0,.4.6l0.6,0.6L47,82.2h0.9c0.1,0,.1-0.1.1-0.2Zm-1.8-3H45.7l-0.7.8-0.5.7-0.9,1.1H43.6s-0.1.1,0,.2h0.2l0.5-.2L45,80.4l0.6-.7A1.6,1.6,0,0,0,45.9,79Zm-9.4-3.4H36.5l-0.5-.4h0l0.2,0.2Zm0,0a0.7,0.7,0,0,1-.9,0c-0.1,0-.2-0.1-0.2-0.1l0.5-.5H35.8a0.2,0.2,0,0,1,.1-0.2l0.2-.2a0.2,0.2,0,0,0,0-.2A0.4,0.4,0,0,0,36,74H35.8l-0.3.3-0.7-.3a0.6,0.6,0,0,1-.1-0.3V73.7h0l-0.2.3-0.3.6h0a0.1,0.1,0,0,0,.1.1h0.1l0.5-.4h0.1L35,74.6l0.2,0.2-0.5.5c-0.3-.2-0.3-0.1-0.4-0.1a2,2,0,0,1,.1.3l-1,1-0.3.3-0.2.3a0.2,0.2,0,0,0,0,.2h0.4l0.4-.4,0.8-.7,0.3-.3L35.2,76h0.6l0.5,0.3a0.5,0.5,0,0,0,.2-0.3,0.5,0.5,0,0,0,.1-0.5H36.5Zm27.3,0.9h0.5a0.1,0.1,0,0,0,0-.2H64.1l-0.4.3H63.5V76.2a0.7,0.7,0,0,1,0-.2l-0.2-.2a0.4,0.4,0,0,1,0-.2l0.2-.2h0.2l0.3-.2c0.1-.1.1-0.2-0.1-0.3a0.7,0.7,0,0,0-.6-0.1,1.1,1.1,0,0,1-.4-0.6l-0.2-.4a0.5,0.5,0,0,0-.3-0.3H62c0.1,0.1.1,0.2,0.1,0.2a0.7,0.7,0,0,0-.2.3l-0.2.2H61.6V73.9h0s-0.1,0,0,.1v0.6H61.4a1.6,1.6,0,0,1,0,.3H61.3l-0.2-.3h0.1L61,74.6H60.9a3.5,3.5,0,0,0,.6.8l0.5,0.8-0.2.6-0.2.2H61.1S61,77,61,77.1l0.2,0.3,0.3,0.8h0.2a0.3,0.3,0,0,0,.2-0.2,5.1,5.1,0,0,0-.3-0.8l0.2-.2,0.2-.4,0.3-.4a1.8,1.8,0,0,0,.2-0.4l0.3-.3V75.3h0.2c0.1,0,.1,0,0.1.1a1,1,0,0,0-.2.5v0.3l-0.5.6s0,0.1,0,.1h0.4V76.5c0-.1.1-0.3,0.2-0.2v0.4l-0.2.3-0.4.5a0.4,0.4,0,0,0,0,.4,0.8,0.8,0,0,0,.4-0.4l0.2-.5a0.1,0.1,0,0,1,.2,0,1.1,1.1,0,0,1,.1.3,0.5,0.5,0,0,1-.3.4l-0.3.2h1a0.5,0.5,0,0,0,.2-0.4,1.7,1.7,0,0,0-.4-0.6c0-.1,0-0.1,0-0.1h0.1Zm-1.9-.7H61.8l-0.4-.5V75.1h0.4A2.1,2.1,0,0,1,61.9,75.8Zm0-.9H61.5c0-.1,0-0.3,0-0.4l0.2-.2h0.1A4.3,4.3,0,0,1,61.9,74.9Zm0.3-.9v0.3H62.1a0.8,0.8,0,0,1-.1-0.3h0.1Zm0.2,1.6H62.4a0.2,0.2,0,0,1,0-.1h0.1ZM62.4,75H62.1a0.5,0.5,0,0,1,0-.3l0.3-.2v0.3C62.6,75,62.5,75.1,62.4,75Zm-1-.3h0ZM62,73.6H61.9l-0.4.3h0.1Zm-8.6,7.2a1.4,1.4,0,0,1-.4.9H52.8l-0.3-.2a1.5,1.5,0,0,1-.3-0.8l0.4-.3a0.5,0.5,0,0,0,.2-0.4H52.5l-0.4.2-0.2-.2H51.6a1.6,1.6,0,0,0,0,.6l-0.5.5a7.8,7.8,0,0,1-.1-1.3,6.3,6.3,0,0,1,.9-0.1l0.3-.6a0.6,0.6,0,0,0,.1-0.5H51.4l-0.4.2c-0.1.1-.2,0.2-0.1,0.2l0.6-.2s0,0,0,.1a1.2,1.2,0,0,1-.2.5H50.6a0.3,0.3,0,0,0-.3.2,5.3,5.3,0,0,0,0,.8c0,0.5,0,1.2,0,1.6a0.4,0.4,0,0,0,.1.2h0.5a1.2,1.2,0,0,0,.1-0.7h0.1l0.6-.5a3.5,3.5,0,0,0,.6,1,0.7,0.7,0,0,0,.8,0,1.5,1.5,0,0,0,.5-1.1,1.5,1.5,0,0,0,0-.3H53.4Zm6.1-.8H59l-0.9-.4-0.3-.2-0.4-.3s-0.2-.1-0.1-0.2l0.5-.6,0.5-.2h0V78H57.7l-0.4.4-0.2.2H56.9a2,2,0,0,1-.2-0.9V77.7H56.5a0.3,0.3,0,0,0-.4.1l0.2,0.7a2,2,0,0,1,.1.7,1.1,1.1,0,0,1-.5.5H55.7c-0.1,0-.1.1-0.1,0.1h0.5l0.4-.3h0.1a3.1,3.1,0,0,1,0,.8,2.1,2.1,0,0,1-.2.8c-0.1.1,0,.2,0,0.2l0.2-.2,0.3-.3a2.3,2.3,0,0,0,.1-0.6,4.8,4.8,0,0,0-.1-1h0V79.1l0.5,0.5,0.3,0.2,1,0.7a1.2,1.2,0,0,0,.7-0.2h0.1C59.8,80.1,59.8,80.1,59.5,80Zm2-3.8h0.1a3.4,3.4,0,0,0-.8-0.8H60.4l0.3,0.2,0.6,0.6h0.2ZM40.5,78.7h0Z" style="fill: #982030;fill-rule: evenodd"/>
      <path d="M39.2,71.1" style="fill: #55b449;fill-rule: evenodd"/>
      <g>
        <g>
          <path d="M45.1,71.6l0.7-.4h0.6V74H45.8V71.7l-0.7.4V71.6Z" style="fill: #982030"/>
          <path d="M47.7,73.3a0.3,0.3,0,0,0,.3.4q0.5,0,.4-0.9l-0.6.2a0.9,0.9,0,0,1-.8-0.9,1,1,0,0,1,1-1,1,1,0,0,1,1,1.3,2.4,2.4,0,0,1-.2,1.3,0.9,0.9,0,0,1-.8.4,0.8,0.8,0,0,1-.9-0.7h0.6Zm0.4-.8a0.4,0.4,0,0,0,.4-0.5,0.4,0.4,0,0,0-.4-0.5,0.4,0.4,0,0,0-.4.5A0.4,0.4,0,0,0,48.1,72.5Z" style="fill: #982030"/>
          <path d="M50,73.2a0.4,0.4,0,0,0,.4.4,0.4,0.4,0,0,0,.4-0.4q0-.5-0.7-0.5V72.3q0.7,0,.7-0.4a0.3,0.3,0,0,0-.4-0.4,0.4,0.4,0,0,0-.3.4H49.4a0.8,0.8,0,0,1,1-.8,0.9,0.9,0,0,1,1,.7,0.7,0.7,0,0,1-.5.7,0.7,0.7,0,0,1,.6.8,0.9,0.9,0,0,1-1,.7,0.8,0.8,0,0,1-1-.8H50Z" style="fill: #982030"/>
          <path d="M53.5,71.1v0.5L52.6,74H52l0.9-2.4H51.7V71.1h1.8Z" style="fill: #982030"/>
        </g>
        <path d="M41.2,42.6l0.9,0.2a1.2,1.2,0,0,1,.5.7c0.1,1.5-.6,2.4-0.3,4s1.3,3.4,1.7,5.2c1.6-.4,3.8-2.9,4.1-4.7a7.9,7.9,0,0,0-.2-2.9,3.4,3.4,0,0,1-.1-2,1.2,1.2,0,0,1,1.2-.6,1.2,1.2,0,0,1,1.3.8c0.3,1-.5,1.6-0.3,3.5s1.2,5.1,2.1,5.8c1.4-1,3.3-2.6,3.8-4.6s-1.3-4.4,0-5.2a1.5,1.5,0,0,1,1.8,0l0.3,0.4a1.7,1.7,0,0,1,.1.9c0,0.4-.3.8-0.3,1.4a8.4,8.4,0,0,0,.2,2.9c0.5,2,2.4,4.1,1.8,6.9s-2.5,3.2-3,7.3c-0.3,2.3,1.5,5.5,1.2,6.9a1,1,0,0,1-.6.9,1.2,1.2,0,0,1-1.1-.2c-1.2-.6-1.9-5.2-1.5-7.9s1-3.7,2.7-6.3a5.1,5.1,0,0,0-.7-5.2,17.6,17.6,0,0,1-4.6,3.9c-0.1,2.7-2.6,4.4-3,7.4a11.2,11.2,0,0,0,.6,4.5c0.7,1.8.9,3.1,0.2,3.6a1.3,1.3,0,0,1-1.3.1c-0.4-.2-1-1.4-1.3-3a15.1,15.1,0,0,1,.3-7.5c0.9-2.3,3.3-3.8,2.4-6.7a8.2,8.2,0,0,0-.9-2.2H48.6c-0.7,1.5-2.9,3.1-4.4,3.8-0.1,2.6-2.8,4.3-3,7.4s1.2,5.2,1.2,7.3a1,1,0,0,1-.6.8,1.3,1.3,0,0,1-1.1,0c-1.3-.5-2.7-6.7-0.7-11.6,0.6-1.3,1.7-2.2,2.1-3.8s-1.1-4.1-1.1-4.1-3.4,4.3-5.3,4.1a0.9,0.9,0,0,1-.6-0.9c0-.6,1.1-1.1,1.7-1.6a10.2,10.2,0,0,0,3.3-3.7c0.7-1.6-.3-3.3-0.2-5.4C40,42.8,40.5,42.6,41.2,42.6Z" style="fill: #982030;fill-rule: evenodd"/>
        <g>
          <path d="M28.4,63l0.2,0.8-3.5.8-0.3-1.5a1,1,0,0,1,.6-1.4,0.9,0.9,0,0,1,1,.5h0a0.7,0.7,0,0,1,.6-0.8h0.1l0.8-.4,0.2,0.8-0.9.4q-0.4.1-.4,0.4L27,63.3Zm-2,.5V62.9a0.5,0.5,0,0,0-.6-0.4,0.4,0.4,0,0,0-.3.6v0.6Z" style="fill: #982030"/>
          <path d="M24.2,60.7l-0.2-2.4h0.6v1.6h0.8V58.3h0.6v1.5h1V58h0.6l0.2,2.5Z" style="fill: #982030"/>
          <path d="M27.8,55.6l-3.1,1.2h0l3,0.2v0.7l-3.6-.3V56.4l2.9-1.2h0L24.2,55V54.2l3.6,0.3v1.1Z" style="fill: #982030"/>
          <path d="M28.5,52l-0.2.6H25.1l3,0.8-0.2.7-3.5-1,0.3-1.2h2.7l-2.3-1.5,0.3-1.2,3.5,1-0.2.7-3-.8h0Z" style="fill: #982030"/>
          <path d="M29.7,49l-0.3.7-3.3-1.5,0.3-.7Z" style="fill: #982030"/>
          <path d="M31.1,46.5l-3.3-.4h0l2.5,1.6-0.4.6-3.1-1.9,0.6-1,3.1,0.3h0l-2.4-1.5,0.4-.6,3.1,1.9Z" style="fill: #982030"/>
          <path d="M32.9,39l1.6,1.6a1.6,1.6,0,0,1-2.3,2.2l-1.6-1.6,0.6-.5,1.4,1.4a1.5,1.5,0,0,0,.7.5,0.7,0.7,0,0,0,.7-0.2,0.7,0.7,0,0,0,.3-0.6,1.5,1.5,0,0,0-.5-0.7l-1.4-1.4Z" style="fill: #982030"/>
          <path d="M37.3,40.2l-2.8-1.7h0L36.2,41l-0.6.4-2-3,1-.6,2.7,1.6h0L35.7,37l0.6-.4,2,3Z" style="fill: #982030"/>
          <path d="M39.7,38.9l-0.7.3-1.6-3.2,0.7-.3Z" style="fill: #982030"/>
          <path d="M39.2,35.2l0.8-.3,1.8,2.4h0v-3l0.7-.2v3.8l-0.8.3Z" style="fill: #982030"/>
          <path d="M43.5,33.9l2.4-.4v0.6l-1.6.3v0.8l1.5-.2v0.6l-1.5.2,0.2,0.9,1.7-.3V37l-2.5.4Z" style="fill: #982030"/>
          <path d="M47.8,36.9H47V33.4h1.6q1.2,0,1.3.9a0.9,0.9,0,0,1-.7.9h0a0.7,0.7,0,0,1,.7.8h0a2.1,2.1,0,0,0,.2.9H49.1a4.7,4.7,0,0,1-.2-1q0-.5-0.3-0.5H47.8v1.4Zm0-2h0.6a0.5,0.5,0,0,0,.5-0.5,0.4,0.4,0,0,0-.6-0.4H47.7v1Z" style="fill: #982030"/>
          <path d="M52.5,34.7a0.6,0.6,0,0,0-1.2-.2q-0.1.4,0.6,0.6h0.1q1.2,0.4,1.1,1.1t-1.7,1a1.1,1.1,0,0,1-1.2-1.4H51a0.6,0.6,0,0,0,.5.7q0.7,0.1.8-.4a0.7,0.7,0,0,0-.6-0.6H51.6q-1.2-.4-1.1-1.1t1.7-1a1.1,1.1,0,0,1,1.1,1.3H52.5Z" style="fill: #982030"/>
          <path d="M54.4,37.7l-0.8-.2L54.5,34l0.8,0.2Z" style="fill: #982030"/>
          <path d="M56.5,34.5l2.7,1.1-0.2.6-1-.4L57,38.6l-0.7-.3,1.1-2.8-1-.4Z" style="fill: #982030"/>
          <path d="M60.1,38.8l0.2-2.7,0.8,0.5-0.2,1.8,1.5-1L63,37.8l-2.3,1.4-0.6,1-0.7-.4Z" style="fill: #982030"/>
          <path d="M64.2,41a1.7,1.7,0,1,1,2.4,2.5A1.7,1.7,0,1,1,64.2,41Zm0.6,0.6q-0.9.9-.3,1.6t1.6-.2,0.3-1.6T64.8,41.6Z" style="fill: #982030"/>
          <path d="M65.6,45.2l3-2,1.3,1.9-0.5.3-0.9-1.3-0.7.5,0.8,1.2-0.5.3L67.3,45l-1.3.9Z" style="fill: #982030"/>
          <path d="M71,50.3a0.6,0.6,0,0,0,.4-0.9q-0.3-.6-1.5-0.2t-1,1.1a0.6,0.6,0,0,0,.9.4l0.3,0.8a1.3,1.3,0,0,1-1.7-1q-0.5-1.4,1.2-2.1t2.3,0.7a1.3,1.3,0,0,1-.6,1.9Z" style="fill: #982030"/>
          <path d="M69.1,52.3l3.5-.7v0.8l-1.4.3L71.7,54l1.4-.3,0.2,0.8-3.5.7V54.4l1.5-.3-0.3-1.4-1.5.3V52.3Z" style="fill: #982030"/>
          <path d="M69.8,56.8V56l3.6-.2v0.8Z" style="fill: #982030"/>
          <path d="M69.7,59.8l3.1-1.2h0l-3-.2V57.6l3.6,0.3V59l-2.9,1.2h0l2.8,0.2v0.7l-3.6-.3V59.8Z" style="fill: #982030"/>
          <path d="M69.6,61.4l3.1,2.2-0.2.9-3.8.3,0.2-.8h0.8L70,62.6l-0.7-.5Zm0.7,2.5h1.6l-1.3-.9Z" style="fill: #982030"/>
        </g>
      </g>
    </g>
    <path d="M48.7,37.8A20.1,20.1,0,1,0,68.8,57.9,20.1,20.1,0,0,0,48.7,37.8Zm0,39A18.9,18.9,0,1,1,67.6,57.9,18.9,18.9,0,0,1,48.7,76.8Z" style="fill: #982030;fill-rule: evenodd"/>
    <path d="M48.7,31.6A26.3,26.3,0,1,0,75,57.9,26.3,26.3,0,0,0,48.7,31.6Zm0,51.9A25.6,25.6,0,1,1,74.3,57.9,25.6,25.6,0,0,1,48.7,83.4Z" style="fill: #982030;fill-rule: evenodd"/>
    <path d="M48.7,30.4A27.5,27.5,0,1,0,76.2,57.9,27.5,27.5,0,0,0,48.7,30.4Zm0,54.4A26.9,26.9,0,1,1,75.6,57.9,26.9,26.9,0,0,1,48.7,84.8Z" style="fill: #982030;fill-rule: evenodd"/>
  </g>
</svg>
