<svg xmlns="http://www.w3.org/2000/svg" version="1.1" x="0" y="0" viewBox="0 0 300 120" enable-background="new 0 0 300 120" xml:space="preserve"><path fill-rule="evenodd" clip-rule="evenodd" fill="#0C3B5D" d="M66.8 31.7c-0.1 0-0.1-0.1-0.1-0.1 -0.1-0.1-0.2-0.1-0.3-0.2 -0.1-0.1-0.2-0.1-0.3-0.2 -0.1-0.1-0.2-0.1-0.3-0.2 0 0 0-0.1 0-0.1 0 0-0.1 0-0.1 0 -0.2-0.1-0.3-0.2-0.5-0.3 -0.9-0.5-1.8-0.9-2.7-1.3 -0.3-0.1-0.7-0.3-1-0.4 -0.4-0.1-0.7-0.3-1.1-0.4 -2-0.7-4.2-1.1-6.6-1.4 -1.2-0.1-2.5-0.2-3.9-0.1 -5.1 0.2-9.2 1.6-12.7 3.4 -1.2 0.6-2.3 1.3-3.3 2 -2.1 1.5-4 3.2-5.6 5.1 -0.6 0.7-1.2 1.5-1.7 2.3 -0.1 0.1-0.1 0.2-0.2 0.2 0 0 0 0.1-0.1 0.1 0 0 0 0.1-0.1 0.1 0 0 0 0.1-0.1 0.1 0 0 0 0.1-0.1 0.1 0 0 0 0.1-0.1 0.1 -0.1 0.1-0.1 0.2-0.2 0.2 -0.1 0.1-0.2 0.3-0.2 0.4 0 0-0.1 0-0.1 0 0 0.1-0.1 0.2-0.1 0.3 -0.1 0.1-0.1 0.1-0.1 0.2 -0.1 0.2-0.2 0.4-0.4 0.6 -0.4 0.7-0.8 1.4-1.1 2.1 0 0 0 0.1 0 0.1 -0.1 0.2-0.2 0.3-0.2 0.4 -0.1 0.2-0.2 0.4-0.2 0.6 0 0-0.1 0.1-0.1 0.1 0 0.1 0 0.2-0.1 0.3 -0.1 0.3-0.3 0.6-0.4 0.9 -0.8 2.3-1.4 4.9-1.6 7.8 -0.2 2.6-0.1 5.1 0.4 7.5 1.1 6 3.7 10.7 7 14.5 2.3 2.6 5.1 4.8 8.3 6.6 2.9 1.5 6.1 2.7 9.8 3.2 4.1 0.6 8.4 0.2 11.8-0.7 0.7-0.2 1.3-0.3 1.9-0.5 0.4-0.1 0.8-0.3 1.2-0.4 0.4-0.2 0.8-0.3 1.1-0.5 0 0 0.1-0.1 0.1-0.1 0 0 0.1 0 0.2 0 0.1 0 0.2-0.1 0.3-0.2 0 0 0.1 0 0.2 0 0 0 0.1 0 0.1-0.1 0.9-0.4 1.8-1 2.6-1.4 0.1-0.1 0.3-0.2 0.4-0.2 0 0 0.1 0 0.1-0.1 0.1 0 0.2-0.1 0.2-0.2C67 82 67.1 82 67.2 82c0.1-0.1 0.2-0.1 0.2-0.2 0 0 0.1 0 0.1-0.1 0.1-0.1 0.2-0.1 0.2-0.2 0.1-0.1 0.2-0.1 0.2-0.2 0.1-0.1 0.2-0.1 0.2-0.2 0.1-0.1 0.2-0.1 0.2-0.2 0 0 0.1 0 0.1-0.1 0.1-0.1 0.1-0.2 0.2-0.2 0 0 0.1 0 0.1-0.1 0.1-0.1 0.2-0.2 0.3-0.3 0.1-0.1 0.2-0.1 0.2-0.2 0.1-0.1 0.1-0.1 0.2-0.2 0.1-0.1 0.2-0.1 0.2-0.2 0.2-0.1 0.3-0.3 0.4-0.4 0.1-0.1 0.1-0.1 0.2-0.2 0.1-0.1 0.2-0.1 0.2-0.2 0.1-0.1 0.1-0.2 0.2-0.2 0.1-0.1 0.3-0.2 0.4-0.4l0.4-0.4c0.3-0.3 0.6-0.5 0.8-0.8 0 0 0-0.1 0.1-0.1 0 0 0.1-0.1 0.1-0.1 0.3-0.4 0.6-0.7 0.9-1.1 0.1-0.1 0.1-0.1 0.2-0.2 0 0 0-0.1 0.1-0.1 0 0 0.1 0 0.1 0 0 0 0-0.1 0-0.1 0.1-0.1 0.1-0.1 0.2-0.2 0.1-0.1 0.1-0.2 0.2-0.2 0.8-1.1 1.6-2.2 2.3-3.4 1.3-2.2 2.3-4.8 3-7.6 0.1-0.3 0.2-0.6 0.2-0.8 0.1-0.4 0.1-0.7 0.2-1 0-0.1 0.1-0.1 0.1-0.2 0-0.2 0.1-0.5 0.1-0.7 0.1-0.7 0.2-1.5 0.2-2.2 0.3-4.4-0.4-8.3-1.4-11.5 -0.2-0.5-0.4-1-0.5-1.5 -0.1-0.3-0.2-0.6-0.3-0.8 0 0-0.1-0.1-0.1-0.1 -0.1-0.2-0.2-0.4-0.2-0.6 -0.1-0.2-0.2-0.4-0.3-0.5 -0.1-0.2-0.1-0.4-0.2-0.6 -0.1-0.2-0.2-0.3-0.3-0.5 -0.1-0.2-0.2-0.4-0.3-0.5 -0.1-0.3-0.3-0.5-0.4-0.8 -0.1-0.2-0.2-0.3-0.3-0.5 -0.1-0.1-0.1-0.2-0.2-0.3 -0.9-1.3-1.8-2.5-2.8-3.7 -0.1-0.2-0.3-0.3-0.4-0.5 -0.1-0.2-0.3-0.3-0.4-0.5C70.7 34.6 68.8 33 66.8 31.7zM49.6 26.3h2.6c2.2 0.1 4.2 0.4 6.1 0.9 3.7 0.9 6.8 2.4 9.6 4.3 0.3 0.2 0.6 0.3 0.8 0.6 0.2 0.1 0.4 0.3 0.6 0.4 0 0 0.1 0 0.1 0 0 0 0 0.1 0.1 0.1 0 0 0.1 0 0.1 0 0 0 0.1 0.1 0.1 0.1 0.2 0.2 0.4 0.3 0.6 0.5 0.2 0.1 0.3 0.3 0.5 0.4 0 0 0 0.1 0.1 0.1 0 0 0.1 0 0.1 0 0.1 0 0.1 0.1 0.1 0.2 0 0 0.1 0.1 0.2 0.1 0.1 0.1 0.2 0.2 0.3 0.3 0.5 0.4 1 0.9 1.5 1.4 0.1 0.1 0.3 0.3 0.4 0.4 0 0.1 0.1 0.1 0.1 0.2 0.2 0.2 0.4 0.4 0.6 0.6 0.3 0.3 0.5 0.6 0.8 0.9 2.3 2.9 4.1 6.3 5.3 10.3 0.7 2.4 1.2 5 1.3 8v1.6c-0.2 4.7-1.2 8.7-2.8 12.1 -1.6 3.4-3.7 6.3-6.2 8.8 -2.5 2.5-5.4 4.6-8.8 6.2 -3.4 1.6-7.4 2.7-12.1 2.8h-1.6c-4.6-0.2-8.6-1.2-12-2.8 -2.2-1-4.2-2.3-6.1-3.7 -0.1-0.1-0.1-0.1-0.2-0.2 0 0 0 0-0.1 0 -0.2-0.1-0.3-0.3-0.5-0.4 0 0-0.1 0-0.1 0 -0.1-0.1-0.2-0.2-0.3-0.3 -0.3-0.3-0.7-0.7-1.1-1 -0.3-0.3-0.6-0.6-0.9-0.9 -0.1-0.1-0.1-0.2-0.2-0.3 -0.1-0.1-0.2-0.1-0.2-0.2 -0.2-0.2-0.3-0.3-0.4-0.5 -0.1-0.1-0.2-0.2-0.3-0.4 -0.1-0.1-0.3-0.3-0.4-0.5 0 0-0.1-0.1-0.1-0.1 -0.1-0.1-0.2-0.2-0.2-0.2 0 0 0-0.1 0-0.1 0 0-0.1 0-0.1 0 -0.1-0.1-0.2-0.2-0.2-0.3 0 0-0.1-0.1-0.1-0.1 0 0-0.1-0.1-0.1-0.1 0 0-0.1-0.1-0.1-0.1 0 0-0.1-0.1-0.1-0.1 -0.1-0.1-0.2-0.2-0.2-0.3 -3-4.3-5.3-9.6-5.7-16.5v-2.6c0 0 0 0 0-0.1 0.1-3.7 1-7.1 2.1-9.8 0-0.1 0-0.2 0.1-0.2 0 0 0.1-0.1 0.1-0.1 0 0 0-0.1 0-0.1 0 0 0.1-0.1 0.1-0.1 0 0 0-0.1 0-0.1 0 0 0.1-0.1 0.1-0.1 0.1-0.3 0.3-0.7 0.4-1 0-0.1 0.1-0.2 0.2-0.3 0.1-0.2 0.2-0.4 0.3-0.6 0.1-0.2 0.2-0.4 0.3-0.6 0.1-0.2 0.2-0.4 0.3-0.6 0.6-1 1.2-1.9 1.8-2.8 2.1-2.9 4.5-5.3 7.3-7.3 1.4-1 3-1.9 4.6-2.7C41.1 27.6 45 26.5 49.6 26.3zM48.6 81.9c-0.1 0.3-0.6 0-0.8 0.1 0.1 0 0.2 0.1 0.2 0.2 0.1 0.1 0.1 0.2 0.1 0.3 -0.1 0.2-0.3 0.4-0.6 0.4 -0.1 0.1-0.1 0.2-0.2 0.3 -0.1-0.3-0.2-0.4-0.2-0.8 -0.1-0.2-0.2-0.3-0.5-0.3 0 0.2 0.2 0.3 0.3 0.5 0.1 0.2 0.2 0.5 0.2 0.7 0 0.1 0.1 0.1 0.2 0.2 0 0.1 0 0.2 0.1 0.2 0.1 0 0.1 0.1 0.1 0.1 0.2-0.2 0.5 0 0.7 0 0-0.1 0.1-0.2 0.1-0.3 0.2-0.3 0.5-0.4 0.9-0.5C49.3 82.2 48.9 82.1 48.6 81.9zM52.1 82.1c0.1 0.4 0.1 0.8 0.2 1.2 0.2 0.3 0.3 0.6 0.6 0.7 0.1-0.1 0.1-0.2 0-0.3 0-0.2-0.2-0.4-0.2-0.6 -0.1 0-0.1 0-0.1 0 0.1-0.1 0-0.1 0-0.3 -0.2-0.2-0.4-0.4-0.4-0.8 0-0.1 0.1-0.2 0-0.2C52.1 81.8 52.1 81.9 52.1 82.1zM62.1 80.6c-0.1-0.1-0.3-0.1-0.4-0.1 -0.1 0-0.2 0-0.3 0 0 0.3 0.2 0.5 0.2 0.7 0.1 0.1 0.3 0.2 0.5 0.1 0.1 0 0.2-0.1 0.3-0.1 0.1-0.1 0.1-0.3 0.1-0.5C62.4 80.6 62.3 80.6 62.1 80.6zM52.4 81c0.2 0 0.3 0.1 0.5 0.1 0.1-0.3-0.2-0.6-0.3-0.8 0 0 0 0-0.1 0C52.5 80.4 52.5 80.8 52.4 81zM41.5 80C41.5 80 41.4 80 41.5 80 41.4 80 41.5 80 41.5 80zM39.3 79.9C39.3 79.9 39.2 79.9 39.3 79.9 39.2 79.9 39.3 79.9 39.3 79.9zM41.9 79.8C41.9 79.7 41.9 79.7 41.9 79.8 41.9 79.8 41.9 79.8 41.9 79.8zM41.9 79.6C41.9 79.6 41.8 79.5 41.9 79.6 41.8 79.6 41.9 79.6 41.9 79.6zM65.9 79.5C65.9 79.5 65.9 79.5 65.9 79.5 65.9 79.5 66 79.5 65.9 79.5zM54.6 80.7c-0.1 0.1-0.2 0.2-0.4 0.2 -0.2 0.2-0.4 0.4-0.6 0.6 -0.1 0.1-0.2 0.2-0.3 0.3C53.1 81.9 53 82 53 82.2c0 0.2 0.2 0.1 0.2 0.2 0.1 0.2 0.2 0.3 0.3 0.4 0.2 0.1 0.3 0.2 0.5 0.3 0.1 0.1 0.3 0.2 0.4 0.2 0.2 0.1 0.3 0 0.4 0 0-0.1 0.1-0.1 0.2-0.1 0.4 0 0.7-0.1 0.9-0.2 0-0.3-0.2-0.4-0.2-0.6 0.2-0.3 0.4-0.4 0.5-0.8 0.2-0.1 0.3-0.3 0.3-0.5 -0.1-0.2-0.2-0.3-0.3-0.4 -0.4-0.1-0.9-0.1-1.3-0.1 -0.1-0.5-0.1-0.9-0.4-1.3 -0.1 0-0.2 0-0.3 0C54.4 79.8 54.5 80.2 54.6 80.7zM47.9 80c-0.4 0.4-0.8 0.7-1.2 1 -0.1 0.1-0.3 0.2-0.4 0.3 -0.4 0.3-0.9 0.6-1.3 0.9 -0.2 0.1-0.3 0.1-0.5 0.3 -0.1 0-0.2 0-0.3 0.1 0.2 0.1 0.3 0.2 0.6 0.1 0.2-0.1 0.3-0.2 0.5-0.3 0.2-0.1 0.4-0.2 0.5-0.3 0 0 0-0.1 0-0.1 0.1-0.1 0.2-0.2 0.3-0.3 0.2-0.1 0.3-0.3 0.5-0.4 0 0 0-0.1 0-0.1 0.2-0.1 0.3-0.2 0.5-0.3 0 0 0.1 0 0.1-0.1 0.4-0.3 0.8-0.6 1.1-0.8 0.2 0 0.3-0.1 0.5 0 0.1-0.3-0.1-0.6-0.3-0.7 -0.2 0.1-0.5 0.2-0.8 0.2 -0.2 0-0.4-0.1-0.5-0.2C47.4 79.7 47.7 79.8 47.9 80zM59 78.1c0 0.1 0.1 0.2 0.1 0.3 0 0.1 0.1 0.2 0.1 0.3 0.1 0 0.2 0.1 0.2 0.2 0 0.1 0 0.1-0.1 0.1 0.1 0.1 0.1 0.5 0.2 0.7 0 0.5-0.2 0.8-0.7 0.9 0.1 0.2 0.4 0.2 0.6 0.2 0 0 0.1 0.1 0.1 0.1 0 0.2 0.2 0.2 0.2 0.3 -0.1 0.1-0.1 0.1-0.1 0.2 -0.1 0-0.1 0-0.2 0.1v1c0.1 0 0.2-0.1 0.2-0.2 0.1-0.1 0.2-0.2 0.2-0.3 0.1 0 0.2-0.1 0.3-0.2 0-0.2 0.1-0.3 0.1-0.5 0.1-0.1 0.2-0.1 0.2-0.3 -0.1-0.2-0.2-0.3-0.2-0.5 0-0.2 0.2-0.4 0.2-0.6 0-0.1 0-0.2 0-0.3 0 0 0-0.1 0-0.1 0-0.1 0.2-0.1 0.2-0.2 0-0.1 0-0.1 0-0.1 0-0.1 0-0.2 0-0.3 -0.1 0-0.1-0.1-0.2-0.1 0-0.1-0.1-0.1-0.1-0.2 -0.2 0.1-0.3 0-0.5-0.1 0-0.2-0.1-0.3-0.2-0.4C59.4 78.1 59.1 78.1 59 78.1 58.9 78.1 59 78.1 59 78.1zM41.9 78.1c0.1 0.2 0.1 0.5 0.2 0.6 0.1 0 0.2 0 0.3 0 0.2-0.3-0.1-0.7-0.4-0.8C42 78 41.9 78 41.9 78.1zM39.3 80C39.3 79.9 39.2 80 39.3 80c0.1 0.3 0.3 0.6 0.5 0.7 0.2 0 0.3 0 0.4 0 0.1 0.1 0.3 0.2 0.4 0.1 0 0 0-0.1 0-0.1 0-0.2-0.2-0.1-0.2-0.4 0.3 0 0.5-0.2 0.7-0.1 0 0.3-0.1 0.7 0 0.9 0.2-0.1 0.1-0.4 0.2-0.7 0.1-0.1 0-0.3 0.1-0.4 -0.3 0-0.7 0.1-0.9 0.1 0.3-0.2 0.8-0.2 1.1-0.4 0.1 0.1 0 0.2-0.1 0.2 0.1 0 0.2 0 0.3-0.1 0-0.2-0.1-0.3-0.1-0.5 -0.1 0-0.2 0.1-0.3 0.1 -0.1-0.2-0.2-0.7-0.2-0.9 0.2 0 0.3-0.2 0.3-0.3 0-0.1-0.4-0.4-0.5-0.5 -0.1-0.1-0.3-0.2-0.4-0.1 0 0.2 0.3 0.1 0.2 0.3 -0.1 0-0.2-0.1-0.3-0.2 0 0.2 0.1 0.2 0.1 0.4 -0.1 0.1-0.5 0.2-0.7 0.1 -0.1 0.1-0.2 0.4-0.1 0.5 0.3 0 0.4 0 0.7 0 0.1 0 0.2-0.1 0.3-0.1 0 0.2-0.2 0.2-0.3 0.3 -0.4 0.2-1 0.2-1.4 0.4 0 0.1-0.1 0.1-0.1 0.3 0.2 0.1 0.5 0.1 0.7 0.1 0.5 0 1.1-0.2 1.5-0.3 0 0.1 0.1 0.1 0.1 0.2 -0.4 0.3-0.9 0.5-1.6 0.5C39.5 80.1 39.4 80 39.3 80zM40.7 77.5c0.3 0.2 0.8 0.2 1.3 0.2 0.4 0.1 1 0.2 1 0.5 0 0.1-0.1 0.3-0.2 0.5 -0.3 0.5-0.5 1.1-0.7 1.6 -0.2 0.5-0.4 0.9-0.6 1.3 -0.1 0.1-0.1 0.4-0.3 0.4 -0.1 0-0.2-0.2-0.2-0.3 -0.1-0.1-0.1-0.3-0.2-0.4 0-0.1-0.1 0.1-0.1 0 -0.1 0 0-0.1-0.1-0.2 0 0.2 0.1 0.7 0.1 0.8 0.1 0.3 0.3 0.8 0.5 0.8 0.2 0 0.3-0.2 0.4-0.3 0.1-0.1 0.2-0.2 0.2-0.4 0.1-0.1 0.2-0.2 0.2-0.4 0.1-0.1 0.1-0.3 0.2-0.4 0.1-0.1 0.2-0.3 0.2-0.4 0.2-0.4 0.4-0.9 0.6-1.2 0.1-0.1 0.2-0.3 0.2-0.4 0.1-0.1 0.3-0.2 0.3-0.4 0.1-0.1 0-0.3 0-0.4 -0.2-0.5-0.6-0.6-1.2-0.8C41.8 77.5 41.2 77.4 40.7 77.5c-0.1-0.1-0.1-0.1-0.1 0C40.7 77.4 40.7 77.5 40.7 77.5zM39.6 77.4c0 0 0 0.1 0 0.1 0 0-0.1 0.1-0.1 0.1 -0.2 0.3-0.4 0.7-0.6 1.1 -0.1 0.2-0.2 0.3-0.3 0.5 -0.1 0.1-0.1 0.2-0.2 0.3 -0.1 0.1-0.1 0.2-0.2 0.3 0.1 0.1 0 0.3 0.2 0.3 0.1-0.1 0.1-0.2 0.2-0.3 0.2-0.5 0.5-1 0.7-1.4 0.1-0.2 0.3-0.4 0.4-0.7 0.1-0.1 0.1-0.3 0.1-0.4 0 0 0 0-0.1 0C39.7 77.4 39.7 77.4 39.6 77.4zM65.4 76.1c0 0.4-0.3 0.6-0.5 0.7 0.1 0.1 0.3 0 0.4 0 0.1 0 0.1-0.2 0.2-0.2 0.1-0.1 0-0.2 0.1-0.2 0.1 0.2 0.1 0.6 0.3 0.6 0.2 0 0.2-0.1 0.3 0 -0.1 0.3-0.5 0.4-0.6 0.7 -0.1 0.1-0.2 0.2-0.4 0.2 0.1 0 0.1 0.1 0.3 0.1 0.1 0 0.2 0 0.3 0.1 0.3-0.2 0.3-0.7 0.7-0.7 0.8 0.4 0 1.5-0.4 1.8 0 0 0.1 0 0.1 0.1 -0.1 0.1-0.2 0.1-0.3 0.1 0.2 0 0.4-0.2 0.6-0.1 0-0.1 0.1-0.1 0.1-0.1 0.2-0.2 0.4-0.3 0.6-0.5 0-0.3 0.2-0.4 0.1-0.7 0-0.1 0-0.3-0.1-0.4C67.3 77.4 67 77.3 67 77c0.1-0.2 0.3-0.2 0.3-0.5 -0.2-0.1-0.2-0.1-0.3-0.1 -0.2 0-0.3 0.2-0.4 0.2 -0.1 0-0.2-0.1-0.3-0.1 -0.2-0.2-0.1-0.3-0.1-0.6C65.9 75.7 65.6 76 65.4 76.1zM34.2 75.4c0 0.3 0.1 0.6 0.3 0.6 -0.1-0.8-0.4-1.3-0.8-1.6C33.8 74.8 34 75.1 34.2 75.4zM36.6 74.1c-0.2 0.3-0.3 0.8-0.7 0.9 -0.2-0.1-0.4-0.2-0.6-0.1 0 0 0.1 0.2 0.1 0.2 0.1 0.1 0.3 0.1 0.4 0.3 0 0.2-0.2 0.2-0.2 0.4 -0.1 0.1-0.2 0.2-0.3 0.3 -0.1 0-0.2 0.1-0.3 0.2v0.3c-0.6 0.8-1.2 1.7-1.8 2.5 0.3-0.1 0.4-0.4 0.6-0.5 0.2-0.2 0.4-0.4 0.6-0.6 0 0 0.1-0.1 0.1-0.2 0-0.1 0.1-0.1 0.2-0.1 0.1-0.1 0.2-0.2 0.3-0.3 0.1-0.1 0.2-0.2 0.3-0.3 0 0 0-0.1 0-0.1 0.1-0.1 0.2-0.2 0.3-0.2 0.3 0 0.6 0.1 0.8 0.2 0.1-0.1 0.1-0.2 0.1-0.3 0.2 0 0.5-0.1 0.6 0 0.1-0.1 0.1-0.2 0.3-0.3 0.1 0.1 0.3 0.1 0.3 0.2 -0.1 0-0.2 0-0.3 0.1 0.2 0.1 0.4 0 0.5-0.1 0-0.5-0.2-0.7-0.4-0.9 -0.1 0-0.2 0-0.2 0 -0.2-0.2-0.6-0.2-0.7-0.4 0.1-0.1 0.2-0.3 0.3-0.4 0.1-0.1 0.3-0.3 0.2-0.5C36.9 74.2 36.8 74.1 36.6 74.1zM66.2 75.1C66.2 75 66.2 75.1 66.2 75.1 66.1 75.1 66.2 75.1 66.2 75.1 66.2 75.1 66.2 75.1 66.2 75.1c0.3-0.1 0.6-0.2 0.6-0.5 -0.5-0.1-0.7 0.3-1 0.5 -0.2-0.2-0.3-0.5-0.4-0.7 0-0.2 0-0.3 0-0.5 0-0.1-0.1-0.1-0.1-0.2 -0.3 0-0.4 0.1-0.6 0.1 0 0 0 0.1 0 0.1 0 0-0.1 0-0.1 0.1 0 0 0 0.1 0 0.2 0 0-0.1 0-0.1 0.1 0.2 0 0.3-0.1 0.4-0.1 0.1 0.1 0.2 0.2 0.2 0.3 -0.1 0-0.1-0.1-0.3 0 0.1 0.1 0.3 0.3 0.4 0.2 0.1 0.1 0.1 0.1 0.1 0.2 -0.1 0.1-0.2 0.1-0.2 0.2 -0.1 0-0.1 0-0.1 0 0.1 0 0.2 0.1 0.3 0.1 0.1 0 0.2 0 0.3 0.1 -0.1 0.2-0.3 0.4-0.4 0.6 -0.1 0-0.1 0.2-0.2 0.2 0.1-0.1-0.1-0.3 0-0.4 0-0.1-0.1-0.1-0.1-0.2 0-0.3-0.1-0.5-0.1-0.7 0 0 0 0 0-0.1 -0.2-0.2-0.5 0-0.7 0.1 -0.1-0.1-0.4-0.1-0.5 0 0.2 0 0.2 0.2 0.2 0.4 0.1 0.1 0.3 0.1 0.4 0.2 0.1 0 0.1-0.2 0.2-0.1 0 0.2 0.1 0.3 0.2 0.5 -0.1 0-0.2 0-0.2 0.1 0.1 0 0.2 0 0.3 0 0 0 0 0.1 0 0.1 0 0 0.1 0 0.1 0.1 0 0.1 0 0.2 0 0.3 -0.1-0.1-0.2-0.2-0.3-0.2 -0.1-0.1-0.2-0.2-0.2-0.2 0 0-0.1 0-0.1 0 0 0 0-0.1 0-0.1 0 0-0.1 0-0.1 0 0 0 0-0.1 0-0.1 -0.2-0.1-0.4-0.1-0.6 0h0.2c0.4 0.2 0.9 0.5 1.1 0.8 0 0.1 0.1 0.1 0.1 0.2 0 0.1-0.1 0.2-0.2 0.2 -0.1-0.1-0.3-0.2-0.4-0.4 0 0-0.1 0-0.1-0.1 -0.2-0.1-0.4-0.4-0.8-0.3 0 0-0.1 0-0.1 0.1 0.2 0 0.4 0 0.5 0 0.1 0 0.2 0.1 0.3 0.1 0.1 0 0.1 0 0.2 0 0 0 0.1 0.1 0.1 0.1 0.2 0.1 0.4 0.2 0.4 0.4 -0.1 0.3-0.3 0.5-0.5 0.7 -0.1 0-0.3 0-0.3 0.1 0 0.2 0.1 0.4 0 0.7 0.1 0.1 0.4 0 0.5 0 0.1-0.3 0-0.5 0-0.8 0.1-0.1 0.1-0.2 0.2-0.3 0-0.1 0.1-0.2 0.2-0.2 0.1 0 0.2 0.1 0.3 0 -0.1 0-0.2-0.1-0.2-0.2 0.1-0.2 0.1-0.3 0.4-0.2 0-0.1-0.1-0.1-0.1-0.2 0.2-0.3 0.5-0.6 0.6-0.9 0.1 0 0.3 0.2 0.4 0.1 0-0.2-0.1-0.3-0.1-0.4 0.1-0.1 0.2-0.2 0.3-0.2 0.1-0.1 0.1-0.2 0.2-0.2C66.4 74.9 66.3 74.9 66.2 75.1zM51.6 66.9c0 0-0.1 0-0.1 0C51.5 67 51.6 67 51.6 66.9zM57.4 65.4c-0.3 0.1-0.6 0.1-0.9 0.1 -0.3 1-0.5 2-0.8 3 0.1 0.4 0.2 0.8 0.3 1.3 0.4 0 0.7 0 1.1 0.1 0.4 0 0.7 0.1 1 0.1C57.9 68.5 57.7 66.9 57.4 65.4zM42.8 65.4c0.5 0.2 1 0.3 1.4 0.4 0.3 1 0.7 1.9 1 2.9 1.1-0.2 2.1-0.6 3.1-0.8 1-0.3 2.1-0.6 3.1-0.9 -1.8 0.2-3.6 0.5-5.4 0.8 -0.2-0.6-0.4-1.4-0.6-2 -0.1-0.3-0.2-0.7-0.3-1 0-0.1 0-0.2-0.1-0.2C44.3 64.9 43.5 65.1 42.8 65.4zM51.4 63.7C51.4 63.7 51.4 63.7 51.4 63.7 51.4 63.8 51.5 63.7 51.4 63.7zM25.6 64.9c0 0.4 0.2 0.9 0.4 1.1 0.4 0.5 0.9 0.8 1.6 0.7 0.8-0.1 1.5-0.6 1.6-1.4 0-0.4 0-0.8-0.1-1 -0.1-0.3-0.2-0.4-0.4-0.6 -0.1-0.1-0.1-0.2-0.2-0.2 -0.1-0.1-0.2-0.1-0.3-0.1 -0.1 0-0.2-0.1-0.3-0.1h-0.4c0 0.3 0.1 0.5 0 0.7 0.2 0 0.5 0 0.6 0.1 0.2 0.1 0.3 0.2 0.4 0.4 0.2 0.4 0 0.9-0.2 1 -0.1 0.1-0.2 0.1-0.4 0.2 -0.1 0-0.2 0.1-0.2 0.1C27.4 66 27.1 66 27 66c-0.2 0-0.3-0.1-0.4-0.2 0 0-0.1 0-0.1 0 -0.1 0-0.1-0.1-0.1-0.2 -0.1-0.2-0.2-0.4-0.1-0.7 0.1-0.1 0.1-0.2 0.1-0.2 0-0.1 0.2-0.1 0.2-0.2 -0.1-0.2-0.2-0.4-0.4-0.6C25.8 64.1 25.6 64.4 25.6 64.9zM57.6 63.8C57.6 63.9 57.7 63.8 57.6 63.8c-0.3-0.1-0.7-0.4-1-0.5 -0.1-0.1-0.3-0.1-0.4-0.1 -0.2 0-0.5 0.2-0.6 0.2 -0.1 0-0.3 0.1-0.4 0.2 -0.1 0-0.2 0.1-0.3 0.1 -0.1 0-0.2 0.1-0.3 0.1 -0.1 0.1-0.3 0.1-0.4 0.2C54 64 53.9 64 53.8 64c-0.1 0-0.4 0.2-0.5 0.2 -0.1 0-0.3-0.1-0.5-0.1 -0.3-0.1-0.6-0.1-0.9-0.2 -0.1 0-0.3-0.1-0.4-0.1 0.6 0.3 1.2 0.6 1.8 0.9 1-0.4 2-0.7 2.9-1.1C56.7 63.7 57.1 63.8 57.6 63.8zM72.9 62.8c0.7 0.2 1.5 0.5 2.1 0.7 0.1 0 0.3 0 0.3 0.1 -0.9-0.1-1.8-0.1-2.6-0.1 -0.1 0.2-0.2 0.5-0.2 0.7 0.3 0.2 0.7 0.4 1 0.6 0.3 0.2 0.7 0.4 1 0.7 0.1 0 0.2 0.1 0.3 0.2 -0.8-0.3-1.7-0.5-2.5-0.8 -0.1 0.2-0.2 0.4-0.2 0.7 1.1 0.3 2.2 0.7 3.2 1 0.1-0.4 0.2-0.7 0.3-1.1 -0.6-0.4-1.2-0.8-1.7-1.2 -0.1-0.1-0.2-0.1-0.2-0.2 0.8 0 1.6 0.1 2.4 0.1 0.1-0.4 0.3-0.7 0.3-1.1 -1.1-0.3-2.2-0.7-3.2-1C73 62.4 72.9 62.6 72.9 62.8zM56.3 61.1c-0.2-0.1-0.6-0.2-0.7-0.2 -0.4 0.1-0.8 0.3-1.1 0.4 -0.4 0.1-0.8 0.2-1.2 0.3 -0.1 0.1-0.4 0.3-0.5 0.4 0 0-0.2 0.1 0 0.1 0.8-0.2 1.6-0.3 2.3-0.5 0.4-0.1 0.6 0 0.9 0 0.6 0.1 1.1 0.2 1.7 0.3 0.2-0.1 0.3-0.3 0.4-0.4C57.6 61.5 56.9 61.3 56.3 61.1zM59 60.9c-0.6-0.5-1.2-0.9-1.8-1.3 0 0 0 0 0 0 -0.2 0.2-0.5 0.4-0.7 0.6 0.8 0.4 1.5 0.8 2.3 1.2 0.2 0 0.3-0.2 0.5-0.3C59.2 60.9 59.1 60.9 59 60.9zM44.7 61h1.4v-1.5h-1.4V61zM44.7 59.5 44.1 61h0.3v-1.6h-0.3V61zM44.1 59.4 27.7 59.4c-0.8 0.2-1.7 0.3-2.5 0.5 -0.3 0.1-0.6 0-0.8 0.2 0.1 0.2 0.1 0.5 0.2 0.7 0.4-0.1 0.9-0.2 1.3-0.2 0.1 0.5 0.2 1 0.2 1.5 -0.5 0-0.8 0.2-1.3 0.2 0 0.2 0.1 0.5 0.1 0.7 1.2-0.2 2.2-0.4 3.3-0.6 0-0.2-0.1-0.5-0.1-0.7 -0.5 0-1 0.2-1.5 0.2 -0.1-0.5-0.2-1-0.3-1.5 0.5-0.1 1-0.2 1.5-0.3 0-0.1-0.1-0.2-0.1-0.4C27.8 59.7 27.9 59.5 27.7 59.4L27.7 59.4zM46.8 59.4v1.2c0 0.1-0.1 0.4 0.1 0.4H47c0.1-0.4 0-1 0-1.5 -0.1-0.1-0.1-0.2-0.2-0.2V59.4zM74.5 58.7C74.5 58.7 74.4 58.7 74.5 58.7c-0.2 0-0.5 0.1-0.5 0.2 0 0-0.1 0-0.1 0 0 0 0 0.1-0.1 0.1 -0.1 0.1-0.2 0.1-0.2 0.3 -0.2 0.4-0.2 0.9-0.2 1.5 0.1 0.3 0.2 0.5 0.4 0.6 0.8 0.3 1.9 0.4 2.8 0.5 0-0.2 0.1-0.5 0.1-0.7 -0.6 0-1.2-0.2-1.8-0.2 -0.4-0.1-0.8-0.1-0.9-0.3 -0.2-0.3-0.1-0.7 0-0.9 0.2-0.4 0.6-0.3 1.1-0.3 0.6 0.1 1.3 0.2 1.8 0.2C77 59.5 77 59.2 77 59 76.3 58.9 75.2 58.7 74.5 58.7zM24.3 58.1c0 0.3 0.1 0.5 0 0.8 1.1-0.1 2.3-0.2 3.4-0.2 0-0.3-0.1-0.5 0-0.7C26.6 58 25.5 58.1 24.3 58.1zM47.4 58.2H48v-1.3h-0.6V58.2zM46.8 56.8v1.1c0 0.1-0.1 0.3 0.1 0.3H47c0.1-0.3 0-0.8 0-1.3 -0.1-0.1-0.1-0.2-0.2-0.2V56.8zM48.6 56.3c-0.1 0-0.1 0.1-0.2 0.1v1.7c-0.1 0.3 0.1 0.2 0.2 0.3C48.6 57.8 48.7 57 48.6 56.3zM73.6 55.1c0 1 0.1 1.9 0 2.8h0.6c0-0.7-0.1-1.5 0-2.1 0.3 0 0.7 0 0.9 0 0 0.6 0.1 1.2 0 1.9h0.6c0-0.6 0-1.2 0-1.9 0.3 0 0.5-0.1 0.8 0 0 0.7 0 1.4 0 2 0.2 0 0.3-0.1 0.5 0 0-1 0-1.8 0-2.8C75.9 55 74.7 55 73.6 55.1zM24.4 54.1c-0.1 0.2 0 0.5 0 0.7 0.7 0.1 1.5 0 2.2 0.1 -0.8 0.5-1.5 1-2.3 1.4 0 0.2 0 0.6 0 0.7 1.1 0 2.3 0.1 3.4 0.2 0-0.2 0-0.5 0-0.7 -0.7-0.1-1.5 0-2.2-0.1 0.7-0.5 1.5-0.9 2.2-1.4 0.1-0.2 0-0.5 0-0.8C26.6 54.2 25.5 54.1 24.4 54.1zM57.3 56.5C57.2 56.6 57.3 56.6 57.3 56.5 57.3 56.6 57.3 56.6 57.3 56.5 57.3 56.6 57.3 56.5 57.3 56.5c-0.2-0.5-0.5-1-0.8-1.5 0-0.2 0-0.5 0-0.7 0-0.1 0-0.2 0-0.3 0-0.1 0-0.2-0.1-0.2 -0.1 0.4 0 1 0 1.5C56.6 55.7 56.9 56.1 57.3 56.5zM59.8 52.2v0.4h0.3c0.1-0.2 0.2-0.4 0.3-0.6 0-0.1 0.2-0.2 0-0.2C60.2 52 60 52.1 59.8 52.2zM73.1 52c0.2 0.9 0.3 1.8 0.4 2.6 0.2-0.1 0.4 0 0.5-0.1 -0.1-0.6-0.2-1.3-0.3-1.9 0.9-0.1 1.8-0.3 2.8-0.4 0-0.3-0.1-0.5-0.1-0.7C75.4 51.6 74.2 51.8 73.1 52zM59.5 51c-0.1 0-0.2 0-0.1 0.1v0.5c0.1 0 0.3-0.1 0.3 0.1v0.1c0 0.1-0.2 0-0.3 0v0.4c0.4 0 0.5-0.3 0.7-0.4 0-0.3 0.1-0.6 0.1-0.9 -0.2-0.1-0.3-0.4-0.5-0.5h-0.2V51zM24.9 50.9c0 0.3-0.1 0.5-0.2 0.8 0.4 0.3 0.9 0.6 1.4 0.9 0.4 0.3 0.9 0.7 1.4 0.9 0 0.1 0.1 0.1 0.2 0.2 0.1 0 0.1 0 0.1 0.1 0 0 0.1 0.1 0.1 0 0.1-0.2 0.1-0.5 0.2-0.7 -0.3-0.1-0.5-0.3-0.7-0.5 0.1-0.2 0.1-0.5 0.2-0.7 0.1-0.3 0.1-0.5 0.2-0.7 0.3 0 0.5-0.1 0.8-0.1 0.1-0.2 0.1-0.5 0.2-0.8C27.3 50.4 26.2 50.7 24.9 50.9zM46.9 49.6c0.1 0.2-0.2 0-0.1 0.2v5.6c0 0.1-0.1 0.3 0.1 0.3 0.1 0 0.1 0 0.1-0.1v-0.3 -7.8c0 0 0 0-0.1 0C46.9 48 47 48.8 46.9 49.6zM72.3 49.3c0 0.3 0.2 0.8 0.3 0.9 0 0 0 0.1 0.1 0.1 0.2 0.2 0.4 0.4 0.6 0.5 0.8 0.4 1.9-0.1 2.3-0.6 0.1-0.1 0.1-0.1 0.1-0.2 0.1-0.2 0.1-0.3 0.2-0.4 0-0.6-0.1-0.9-0.2-1.3 -0.2-0.5-0.4-0.7-0.9-0.9 -0.2-0.1-0.7-0.2-0.9-0.1C72.9 47.5 72.2 48.1 72.3 49.3zM45.8 47.3c0 0 0 0.1 0 0.1 -0.2 0.5-0.4 1-0.6 1.5 0 0.1-0.1 0.2-0.1 0.2 0 0.1-0.1 0.2 0 0.2 0.1 0 0.1-0.2 0.1-0.2 0.1-0.2 0.2-0.4 0.2-0.5 0-0.1 0.1-0.2 0.1-0.3 0.1-0.1 0.1-0.3 0.2-0.4 0-0.1 0-0.1 0-0.2 0-0.1 0.1-0.2 0.1-0.2C45.9 47.4 45.9 47.3 45.8 47.3L45.8 47.3zM48.2 47.5c0.1 0.3 0.2 0.6 0.3 0.8 0 0.1 0.1 0.2 0.1 0.3 0 0.1 0.1 0.2 0.1 0.2 0 0.1 0 0.2 0.1 0.3 -0.2-0.7-0.4-1.2-0.6-1.9 -0.1-0.1 0-0.2-0.1-0.2C48 47.1 48.2 47.4 48.2 47.5zM44.8 46.7c-0.5 0.5-1 1-1.5 1.5 0.2-0.1 0.3-0.2 0.4-0.3 0.1-0.1 0.3-0.2 0.4-0.4 0.2-0.2 0.4-0.3 0.6-0.5 0.1-0.1 0.2-0.1 0.2-0.2C44.8 46.7 44.8 46.7 44.8 46.7zM50.5 47.7c-0.1-0.1-0.1-0.1-0.2-0.2 -0.3-0.3-0.7-0.7-1-1 0 0-0.2-0.2-0.2-0.1 0 0 0 0 0 0.1 0.2 0.2 0.5 0.5 0.7 0.7 0.1 0.1 0.2 0.2 0.4 0.4 0.1 0.1 0.2 0.3 0.4 0.4C50.6 47.8 50.5 47.8 50.5 47.7zM43.1 46.2c-0.2 0.1-0.5 0.2-0.7 0.3 -0.1 0-0.2 0-0.2 0.1 0.1 0 0.3-0.1 0.3-0.1 0.5-0.2 0.9-0.4 1.3-0.5 0.1 0 0.2 0 0.2-0.1C43.7 45.9 43.4 46.1 43.1 46.2zM49.6 45.4c0.1 0.1 0.3 0.1 0.5 0.2 0.2 0.1 0.3 0.2 0.5 0.2 0 0 0.1 0 0.1 0 0.1 0 0.2 0.1 0.2 0.1 0.1 0.1 0.2 0.1 0.4 0.2 0 0 0.2 0.1 0.2 0 -0.6-0.3-1.3-0.6-2-0.8C49.6 45.4 49.6 45.4 49.6 45.4zM38.6 45.2v10.3c-0.1 0.2 0.1 0.1 0.2 0.1 0.2 0 0.1 0 0.1-0.2 0-0.1 0-0.2 0-0.3 0-0.7 0-1.4 0-1.9v-7.8c0-0.1 0.1-0.3-0.1-0.3h-0.2C38.6 45.1 38.6 45.2 38.6 45.2zM43.5 45c-0.7 0-1.5 0-2.2 0 0 0 0 0.1 0 0.1 -0.6 0.1-1.3 0-2 0v10.5h6.8v-6c0-0.1 0.2 0 0.1-0.1 0-0.5 0-1.1 0-1.6 0-0.2 0.1-0.4-0.1-0.5 0 0-0.1 0-0.2 0 0 0 0 0.1 0 0.1 -0.1 0.1-0.1 0.2-0.1 0.2 0 0.1 0 0.2-0.1 0.3 0 0.1-0.1 0.2-0.1 0.2 0 0.1 0 0.2-0.1 0.3 -0.1 0.3-0.3 0.5-0.3 0.8 -0.1 0 0.2 0.1 0.1 0.1 0 0.1 0 0.2-0.1 0.2 -0.3-0.1-0.6-0.2-0.9-0.3 -0.1-0.1-0.3 0-0.3-0.2 0-0.1 0-0.2 0.1-0.2 0-0.1 0.1 0.1 0.2 0 0.2-0.6 0.5-1.2 0.7-1.8 0-0.1 0.1-0.2 0-0.2 -0.1-0.1-0.2 0-0.2 0 -0.1 0-0.1 0.2-0.2 0.2 -0.4 0.4-0.8 0.8-1.1 1.1 -0.1 0.1 0.1 0.1 0.1 0.2 -0.1 0-0.1 0.1-0.2 0.2 -0.2-0.1-0.3-0.3-0.5-0.4 -0.1-0.1-0.3-0.3-0.4-0.5 0.1 0 0.1-0.1 0.2-0.2 0.1 0.1 0.1 0.1 0.2 0 0.1-0.1 0.2-0.2 0.3-0.3 0.3-0.3 0.7-0.7 1-1 0.1-0.1 0.1-0.1 0-0.2 -0.2-0.1-0.4 0.1-0.5 0.1 -0.5 0.2-1 0.4-1.5 0.6 -0.1 0 0.1 0.1 0 0.2 -0.1 0-0.1 0.1-0.2 0.1 -0.1-0.4-0.3-0.7-0.4-1 0 0-0.1-0.1 0-0.1 0.1 0 0.1 0 0.2-0.1 0.1 0 0.1 0.1 0.2 0.1 0.1-0.1 0.2-0.1 0.3-0.2 0.1 0 0.2-0.1 0.3-0.1 0 0 0.1 0 0.1 0 0.1 0 0.2-0.1 0.2-0.1 0.1 0 0.2 0 0.3-0.1 0.1 0 0.2-0.1 0.2-0.1 0.1-0.1 0.4-0.1 0.4-0.3C43.7 45 43.6 45 43.5 45zM62.5 45c-0.1 0.5-0.3 0.9-0.5 1.4 -0.1 0.2-0.1 0.5-0.2 0.7 -0.1 0.2-0.2 0.5-0.2 0.7 0.1 0 0.1-0.2 0.2-0.3 0.3-0.9 0.5-1.8 0.8-2.6 0 0-0.1-0.1-0.1-0.1C62.5 44.9 62.5 45 62.5 45zM63.5 44.9v3.2 0.2c0 0.1 0 0.2 0.1 0.2 0.1 0 0.1-0.1 0.1-0.2 0-0.1 0-0.2 0-0.2 0-1 0-2.2 0-3.1 0 0 0-0.2-0.1-0.2h-0.1V44.9zM61.4 44.7c-0.1 0.1-0.2 0.2-0.2 0.3 -0.1 0.1-0.1 0.2-0.2 0.3 -0.1 0.1-0.2 0.2-0.2 0.3 -0.1 0.1-0.2 0.2-0.2 0.3 -0.2 0.2-0.4 0.4-0.5 0.6 -0.1 0.1-0.1 0.2-0.2 0.2 0 0-0.1 0.1-0.1 0.1 0 0.1 0.1 0.1 0.1 0.2 0.1 0 0.1-0.1 0.2-0.2 0-0.1 0.1-0.1 0.1-0.2 0.1-0.1 0.1-0.1 0.1-0.2 0 0 0.1 0 0.1 0 0 0 0-0.1 0-0.1 0.3-0.4 0.7-0.8 1-1.2 0-0.1 0.2-0.2 0.2-0.3 0-0.1-0.1-0.1-0.1-0.2C61.4 44.6 61.4 44.6 61.4 44.7zM27.3 47.8c0.5 0.1 1 0.6 1.7 0.4 0.1 0 0.2-0.1 0.2-0.1 0 0 0.1 0 0.1 0 0 0 0-0.1 0-0.1 0 0 0.1 0 0.1 0 0.1-0.1 0.3-0.4 0.4-0.6 0.1-0.2 0.2-0.5 0.3-0.7 0.1-1-0.7-1.2-1.3-1.5 -0.5-0.2-0.9-0.4-1.4-0.6h-0.1c-0.1 0.2-0.2 0.5-0.3 0.7 0.4 0.2 0.8 0.4 1.3 0.6 0.3 0.1 1.1 0.4 1.1 0.7 0.1 0.3-0.2 0.7-0.3 0.8 0 0 0 0.1 0 0.1 0 0-0.1 0-0.1 0 0 0-0.1 0.1-0.1 0.1 0 0-0.2 0-0.2 0 -0.2 0-0.4-0.1-0.6-0.2 -0.1 0-0.2-0.1-0.3-0.1 -0.5-0.2-1.1-0.5-1.5-0.7 -0.1 0.2-0.2 0.4-0.3 0.7C26.5 47.4 26.9 47.6 27.3 47.8zM60.3 44.4c-0.5 0.2-1 0.2-1.5 0.4 -0.2 0-0.4 0.1-0.4 0.2 0.1 0.1 0.3 0 0.5 0 0.4-0.1 0.7-0.2 1-0.2 0.2 0 0.4 0 0.5-0.1C60.3 44.6 60.5 44.4 60.3 44.4L60.3 44.4zM57.8 44.1H52c0 0 0 0 0 0.1 -0.1 0.2 0.2 0.1 0.3 0.1h5.5c0.1 0 0.3 0.1 0.3-0.1C58.1 44 57.9 44.1 57.8 44.1zM73.2 46.4c0.5 0.2 0.9-0.2 1-0.4 0.2-0.4 0-0.9-0.1-1.3 -0.2-0.5-0.7-1.2-0.8-1.5 0 0 0 0 0 0 0 0-0.1 0-0.1 0.1 -0.4 0.2-1 0.5-1.4 0.7 0 0-0.1 0.1-0.1 0.1 -0.2 0.1-0.5 0.2-0.7 0.4 -0.2 0.1-0.5 0.2-0.7 0.4 0.2 0.2 0.2 0.4 0.4 0.6 0.4-0.2 0.8-0.4 1.3-0.7 0.1 0.2 0.2 0.4 0.2 0.6 0 0.3-0.2 0.5-0.3 0.8 -0.1 0.3-0.3 0.6-0.3 0.8 0.1 0.3 0.3 0.5 0.4 0.7 0.3-0.6 0.6-1 0.7-1.8C72.8 46.1 73 46.3 73.2 46.4zM57.8 43.3c0.5 0.2 1 0.5 1.5 0.7 0 0 0.2 0.2 0.2 0 -0.5-0.4-1.1-0.7-1.7-1V43.3zM47.2 42.9c-0.4 0.5 0.1 1.1 0.6 1 0.3 0 0.6-0.3 0.5-0.7 -0.1-0.3-0.4-0.5-0.7-0.5C47.4 42.7 47.3 42.8 47.2 42.9zM42.2 42.4c0.2 0.1 0.4 0.2 0.6 0.3 0.1 0 0.1 0 0.1 0 0.1 0 0.2 0.1 0.2 0.1 0.1 0 0.2 0 0.3 0.1 0.1 0 0.2 0.1 0.2 0.1 0.1 0 0.2 0.1 0.3 0.1 0.1 0 0.2 0.1 0.2 0 -0.7-0.3-1.4-0.5-2-0.8h-0.1C42.1 42.4 42.1 42.4 42.2 42.4zM57.1 43.4c0 0.2 0 0.4 0.1 0.4 0.1-0.2 0-0.5-0.1-0.8 0-0.1 0-0.3 0-0.4 0-0.1 0-0.3-0.1-0.4C57.1 42.6 57.1 43 57.1 43.4zM29.6 40.9C29.6 40.9 29.6 40.9 29.6 40.9c-0.2 0.2-0.3 0.4-0.4 0.6 0.3 0.2 0.6 0.4 0.8 0.5 0.1 0.1 0.2 0.2 0.3 0.2 0.1 0.1 0.3 0.2 0.4 0.2 0.1 0.1 0.2 0.1 0.2 0.2 0 0 0.1 0 0.1 0.1h-2.7c-0.1 0.2-0.3 0.4-0.4 0.6 0.2 0.1 0.4 0.3 0.5 0.4 0.1 0 0.1 0.1 0.2 0.1 0 0 0.1 0.1 0.1 0.1 0.1 0 0.1 0.1 0.2 0.1 0.1 0 0.1 0.1 0.2 0.1 0.1 0 0.1 0.1 0.2 0.1 0.1 0 0.1 0.1 0.1 0.1 0.1 0.1 0.3 0.2 0.4 0.2 0.1 0.1 0.2 0.1 0.3 0.2 0.2 0.1 0.3 0.2 0.4 0.3 0.1 0 0.1 0.1 0.2 0.1 0.1-0.2 0.3-0.4 0.4-0.6 -0.5-0.3-0.9-0.7-1.4-0.9 0 0 0-0.1 0-0.1 -0.1-0.1-0.3-0.1-0.3-0.3 0.9 0 1.8 0 2.6 0 0.1-0.2 0.3-0.4 0.4-0.6C31.4 42.2 30.5 41.5 29.6 40.9zM43.3 40.7c0.5 0.5 1 1 1.5 1.5 0.1 0.1 0.1 0.2 0.2 0.1 0.1-0.1-0.1-0.2-0.1-0.2 -0.2-0.2-0.4-0.4-0.6-0.6L43.8 41C43.6 40.9 43.5 40.7 43.3 40.7 43.2 40.6 43.2 40.7 43.3 40.7zM71 40c-0.2 0.1-0.3 0.2-0.4 0.3 0.2 0.4 0.5 0.6 0.6 0.9 -0.8 0.5-1.5 1.1-2.3 1.7 0.1 0.2 0.3 0.4 0.4 0.6 0.2-0.1 0.4-0.3 0.6-0.4 0.2-0.1 0.4-0.3 0.6-0.4 0.4-0.2 0.7-0.6 1.2-0.8 0.2 0.3 0.4 0.6 0.7 0.9 0.1-0.2 0.3-0.2 0.4-0.4C72.2 41.5 71.6 40.7 71 40zM45.1 39.9C45.1 39.9 45.1 39.9 45.1 39.9c0 0.1 0 0.1 0.1 0.1 0 0.2 0.2 0.5 0.3 0.7 0 0.1 0.1 0.1 0.1 0.2 0 0.1 0 0.2 0.1 0.3 0 0.1 0.1 0.1 0.1 0.2 0 0.1 0.1 0.4 0.3 0.3 0-0.1-0.1-0.3-0.1-0.4 -0.1-0.1-0.2-0.3-0.2-0.4 -0.1-0.3-0.3-0.6-0.4-0.8C45.2 39.9 45.1 39.9 45.1 39.9 45.1 39.9 45.1 39.9 45.1 39.9 45.1 39.8 45 39.9 45.1 39.9zM30.3 40c0.2 0.2 0.4 0.4 0.6 0.5 0.1 0.1 0.2 0.2 0.3 0.3 0.1 0.1 0.2 0.2 0.3 0.3 0 0 0.1 0 0.1 0 0 0 0 0.1 0.1 0.1 0 0 0.1 0 0.1 0 0 0 0 0.1 0.1 0.1 0.1 0.1 0.2 0.2 0.3 0.3 0.1 0.1 0.2 0.2 0.3 0.3 0.1 0.1 0.2 0.2 0.3 0.3 0.1-0.2 0.3-0.4 0.4-0.5 0-0.1-0.1-0.1-0.1-0.1 0-0.1-0.1-0.1-0.2-0.1 -0.4-0.3-0.7-0.7-1.1-1 -0.4-0.3-0.8-0.6-1.1-0.9 0 0 0 0 0 0C30.6 39.7 30.5 39.8 30.3 40zM47 39.2c0 0.7 0 1.5 0 2.1 0 0.1-0.1 0.3 0.1 0.3 0.1-0.8 0-1.7 0-2.5H47V39.2zM70.2 39c-0.6-0.6-1.2-1.1-1.7-1.7 0 0 0 0-0.1 0 -0.4 0.4-0.7 0.7-1.3 1.2 -0.2 0.2-0.4 0.4-0.6 0.6 -0.1 0.1-0.6 0.5-0.6 0.6 0 0 0.2 0.2 0.3 0.2 0.6 0.6 1.2 1.2 1.8 1.8 0.1-0.2 0.3-0.2 0.4-0.4 -0.4-0.4-0.8-0.7-1.1-1.1C67.2 40 67.1 40 67 39.8c0.1-0.1 0.2-0.2 0.3-0.3 0.1 0 0.3-0.3 0.3-0.3 0 0 0.2 0.3 0.3 0.3 0.3 0.3 0.8 0.7 1 1 0.2-0.1 0.3-0.2 0.4-0.4 -0.4-0.5-0.9-0.9-1.3-1.3 0.1-0.1 0.2-0.2 0.3-0.3 0.1-0.1 0.2-0.3 0.3-0.3 0 0 0.1 0.1 0.2 0.2 0.2 0.2 0.4 0.4 0.5 0.5 0.3 0.3 0.5 0.6 0.7 0.7 0.1-0.1 0.2-0.3 0.4-0.3C70.4 39.2 70.3 39.1 70.2 39zM33.8 36.5c0 0-0.1 0.1-0.1 0.1 -0.1 0-0.2 0.2-0.3 0.2 0 0.1-0.2 0.1-0.2 0.3 0.3 0.7 0.6 1.4 0.9 2.1 0 0.1 0.1 0.2 0.1 0.3 -0.8-0.4-1.6-0.8-2.4-1.1 -0.1 0.1-0.2 0.2-0.3 0.3 -0.1 0.1-0.3 0.2-0.2 0.3 0.3 0.1 0.5 0.2 0.8 0.4 0.1 0 0.1 0 0.2 0.1 0.8 0.3 1.5 0.7 2.3 1 0.2-0.2 0.4-0.4 0.6-0.6C34.6 38.8 34.2 37.6 33.8 36.5zM62.1 45.2C62.1 45.2 62.1 45.2 62.1 45.2c-0.1 0.1-0.3 0.3-0.4 0.5 -0.4 0.5-0.9 1.1-1.4 1.7 -0.1 0.1-0.1 0.2-0.3 0.3 -0.2-0.1-0.4-0.1-0.4-0.2 -0.1-0.1-0.3-0.2-0.3-0.4 0.1-0.2 0.2-0.3 0.3-0.4 0.2-0.2 0.3-0.4 0.5-0.6 0 0 0-0.1 0.1-0.1 0-0.1 0.1-0.1 0.2-0.2 0.1-0.1 0.2-0.2 0.2-0.3 0-0.1 0.1 0 0.1-0.1 0.1 0 0.1-0.1 0-0.1h-0.5c-0.7 0.3-1.3 0.5-2 0.8 -0.2-0.2-0.3-0.4-0.4-0.8H52c-0.1 0 0-0.2-0.2-0.1 -0.6 0-1.3-0.1-1.9 0 0 0-0.2 0-0.2 0.1 0 0.1 0.1 0.1 0.2 0.2 0 0 0.1 0.1 0.1 0.1 0 0 0.1 0 0.1 0 0.1 0 0.1 0.1 0.2 0.1 0.1 0 0.2 0 0.3 0.1 0.1 0 0.2 0.1 0.2 0.1 0.1 0 0.2 0 0.3 0.1 0.1 0 0.2 0.1 0.2 0.1 0.1 0 0.2 0 0.2 0.1 0.1 0 0.1-0.1 0.2-0.1 0 0.1 0.1 0.1 0.2 0.1 -0.1 0.4-0.3 0.6-0.3 0.9 -0.1 0 0 0.2-0.2 0.2 0-0.1-0.2-0.1-0.2-0.1 -0.1 0 0.1-0.2-0.1-0.2 -0.6-0.3-1.2-0.5-1.8-0.7 -0.1 0-0.2-0.1-0.2 0 -0.1 0 0 0.2 0.1 0.2 0.4 0.4 0.7 0.8 1.1 1.1 0.1 0 0.1 0.1 0.1 0.2 0.1 0 0.1 0.1 0.2 0 0 0.1 0.1 0.1 0.2 0.2 0 0.1-0.1 0.2-0.2 0.3 -0.1 0.1-0.3 0.3-0.5 0.5 -0.1 0.1-0.1 0.2-0.2 0.1 0-0.1-0.2-0.1-0.2-0.2 0.1-0.1 0.1-0.1 0-0.2 -0.1-0.1-0.3-0.2-0.4-0.4 -0.1-0.1-0.2-0.2-0.3-0.3 -0.1-0.1-0.1-0.1-0.2-0.2 0 0 0-0.1-0.1-0.1 0 0-0.1 0-0.1-0.1 0 0 0-0.1-0.1-0.1 -0.1-0.1-0.3-0.3-0.4-0.2 0 0.2 0.1 0.3 0.1 0.5 0 0.1 0.1 0.2 0.1 0.2 0 0.1 0 0.2 0.1 0.3 0.1 0.3 0.3 0.6 0.4 1 0.1 0.1 0.1 0.1 0.2 0.1 0 0.1 0.1 0.1 0.1 0.3 -0.2 0.1-0.4 0.2-0.6 0.2 -0.2 0.1-0.4 0.2-0.6 0.2 0-0.1 0-0.2-0.1-0.2 0-0.1 0.2 0 0.1-0.2 -0.1-0.3-0.3-0.7-0.4-1 -0.1-0.2-0.1-0.3-0.2-0.5 -0.1-0.1-0.1-0.4-0.3-0.3 -0.1 0 0 0.1-0.1 0.2v1.9c-0.1 0.1 0.2 0 0.1 0.1v6c0.5 0 1.1 0 1.5 0 0.1 0.1 0.1 0.1 0.2 0.2 0.2 0.3 0.1 1.1 0.1 1.7 0 0.6 0 1.3-0.1 1.7 -0.1 0.1-0.2 0.2-0.3 0.3h-1.4V61h0.8c0.2 0.4 0.4 0.7 0.6 1h1.5v-1.9c0.8-0.4 1.6-0.8 2.4-1.2 1.5 0.2 3 0.4 4.5 0.5 0.2-0.5 0.4-0.9 0.5-1.4 -0.4-0.3-0.7-0.5-1-0.8 -0.2 0-0.2-0.2-0.3-0.2 -0.2-0.2-0.4-0.4-0.6-0.6 -0.1 0-0.1-0.2-0.2-0.2 0 0-0.1 0-0.1 0 -0.1 0-0.1-0.1-0.1-0.2 0 0-0.2 0-0.1-0.1 0.1-0.8 0.1-1.6 0.1-2.5 0.4-0.5 0.8-1 1.2-1.6 0.2-0.1 0.4-0.2 0.6-0.3 0-0.3 0-0.6 0.1-0.8 -0.3 0.1-0.5 0.3-0.8 0.4 -0.1 0.4-0.3 0.8-0.4 1.2 0.1-0.6 0.2-1 0.3-1.6 0.4-0.3 0.8-0.5 1.1-0.8 0.1-1 0.2-2 0.2-3.1 0.1-0.1 0.1-0.2 0.2-0.2 0-0.1 0.1-0.1 0.1-0.1 0 0 0-0.1 0.1-0.1 -0.1 1-0.2 2.1-0.3 3.2 0 0.5-0.1 1.1-0.1 1.6 -0.1 0.9-0.3 1.7 0.1 2.3 0.1-0.3 0.3-0.5 0.4-0.8 0-2.2 0.1-4.4 0.2-6.5 0.1 0.1 0.1 0.1 0.1 0.2 0 0.1 0 0.1 0.1 0.2 0 0.2 0 0.4 0 0.5 0 1 0.1 2.2 0.1 3.2 0.1 0.1 0.1-0.1 0.2-0.1 0.2-0.1 0.3-0.3 0.5-0.4 0.3 0 0.5 0 0.7 0 0.2 0.1 0.4 0.3 0.5 0.4 0.2 0.1 0.4 0.3 0.5 0.4 -0.1 0.4-0.1 0.9-0.2 1.4 -0.1 0.2-0.3 0.4-0.4 0.6 0.1 0.2 0.2 0.3 0.2 0.5 -0.2 0-0.5 0-0.6 0.1 0.1 0.1 0.3 0.1 0.4 0.2 -0.3-0.1-0.7 0-1.1-0.1 -0.1 0.4-0.3 0.9-0.4 1.3 -0.1-0.5-0.1-1.1-0.2-1.6 0-0.1 0.1-0.2-0.1-0.2 -0.1 0-0.1 0-0.2 0 -0.1 0-0.1 0.3-0.2 0.4 -0.2 0.5-0.4 1.1-0.6 1.7 0.1 0.1 0.2 0.3 0.3 0.4 0.1 0.1 0.2 0.2 0.3 0.3 0.3-0.2 0.7-0.4 1.1-0.5 0.4 0.1 0.8 0.3 1.1 0.4 0.1-0.1 0.2-0.2 0.3-0.3 0.1-0.1 0.2-0.2 0.2-0.3 -0.1-0.3-0.3-0.6-0.3-0.9 0.9-0.1 1.8-0.3 2.7-0.4 -0.4 0-0.9-0.1-1.3-0.1 -0.4 0-0.9 0-1.2-0.2 0.8 0 1.6-0.1 2.4-0.1 0.1-0.5 0.1-1 0.2-1.6 0-0.5 0.1-1.1 0.1-1.6 0.4-0.2 0.8-0.3 1.2-0.4 0.1 0 0.2-0.2 0.3-0.1 -0.1 0.3-0.3 0.5-0.6 0.7 -0.1 0.1-0.2 0.1-0.3 0.2 0 0-0.1 0.1-0.1 0.1 0.2 0.7 0.4 1.4 0.6 2.1 -0.5 1.7-1 3.3-1.4 5 -0.7 0.5-1.3 1-2 1.5 -0.2-0.2-0.5-0.4-0.7-0.6 -0.1-0.1-0.2-0.2-0.3-0.3 -0.1-0.1-0.3-0.1-0.3-0.3 0.2-0.4 0.4-0.7 0.5-1.1 -0.1 0-0.2-0.1-0.3-0.2 -0.2 0-0.3 0.2-0.4 0.3 -0.3 0.3-0.7 0.7-1 1 0.2 0.2 0.5 0.4 0.7 0.6 0.1 0.1 0.2 0.2 0.3 0.3 0.1 0.1 0.3 0.1 0.3 0.3 -0.2 0.4-0.4 0.9-0.5 1.5 -0.1 0.2-0.1 0.3-0.2 0.5 -0.1 0.5 0 0.9 0 1.4v1.4c0 0.1-0.1 0.3 0.1 0.3 0.2 0 0.1-0.2 0.2-0.3 0.3-0.8 0.7-1.6 1-2.4 0.3-0.8 0.6-1.6 1-2.4 -0.2 1.6-0.4 3.2-0.5 4.8 -0.3 0.2-0.6 0.4-0.9 0.6 -0.1 0.1-0.2 0.1-0.3 0.2v2.4c0 0.1-0.1 0.3 0.1 0.3h0.2c0.1-0.2 0.1-0.5 0.2-0.7 0.1-0.5 0.2-1 0.4-1.5 0.1-0.2 0.1-0.5 0.2-0.7 0.1 0.5 0.2 1.1 0.2 1.6 -0.3 1.4-0.6 2.9-0.8 4.3 0.8 0.1 1.6 0.2 2.4 0.4 0.6 0.1 1.4 0.2 2 0.4 0.1 0 0.2 0 0.2 0.1C63.6 71 61.8 71 60 71c-0.3 0-0.6 0-0.9 0 -1.9 0.1-3.7 0.2-5.4 0.4 -1.7 0.2-3.4 0.5-5 0.8 -2.8 0.6-5.4 1.4-7.7 2.4 -0.1 0.1-0.2 0.1-0.4 0.2 -0.2 0.1-0.4 0.2-0.6 0.3 2.8 1.6 5.9 2.7 10.1 2.9 0.4 0 0.8 0 1.3 0 3.3-0.1 6-0.9 8.4-2 2.3-1.1 4.3-2.5 6.1-4.3 0.3-0.4 0.7-0.7 1-1.1 0 0 0.1 0 0.1 0 0.1-0.2 0.3-0.4 0.4-0.6 0.1-0.1 0.2-0.2 0.3-0.4 0.1-0.1 0.2-0.2 0.2-0.3 0 0 0-0.1 0-0.1 0-0.1 0.1-0.1 0.2-0.2 0-0.1 0.1-0.1 0.1-0.2 0 0 0.1 0 0.1 0 0 0 0-0.1 0-0.1 0 0 0.1 0 0.1 0 0 0 0-0.1 0-0.1 0 0 0.1 0 0.1 0 0 0 0-0.1 0-0.1 0 0 0.1 0 0.1 0 0 0 0-0.1 0-0.1 0 0 0.1 0 0.1 0 0 0 0-0.1 0-0.1 0 0 0.1 0 0.1 0 0.1-0.3 0.4-0.7 0.6-1 0.3-0.5 0.5-1 0.8-1.5 0-0.1 0.1-0.1 0.1-0.2 1.1-2.4 1.9-5.3 1.9-8.5 0-5.8-2-10.2-4.7-13.5 -0.3-0.4-0.6-0.7-0.9-1 -0.3-0.4-0.7-0.8-1.1-1.1 -0.1-0.1-0.2-0.2-0.3-0.3 -0.1-0.1-0.3-0.3-0.5-0.4 -0.1-0.1-0.2-0.2-0.3-0.3 -0.2-0.2-0.5-0.4-0.7-0.5 0 0 0-0.1 0-0.1 0 0-0.1 0-0.1 0 0 0 0-0.1 0-0.1 -0.1 0-0.2-0.1-0.3-0.2 0 0-0.1-0.1-0.1-0.1 -0.1 0-0.1-0.1-0.2-0.1 0 0 0-0.1 0-0.1 0 0-0.1 0-0.1 0 0 0 0-0.1 0-0.1 -0.2-0.1-0.4-0.2-0.6-0.4 -1.6-1-3.4-1.8-5.4-2.3 -1.4-0.4-2.9-0.6-4.4-0.7 -2.3-0.1-4.6 0.2-6.5 0.7 -0.1 0-0.1 0-0.2 0.1 -0.1 0-0.1 0-0.2 0 -0.1 0-0.2 0.1-0.3 0.1 -0.1 0-0.3 0.1-0.4 0.1 -0.2 0.1-0.5 0.2-0.7 0.3 -0.1 0-0.3 0.1-0.4 0.1 -0.1 0-0.2 0.1-0.3 0.2 -0.3 0.1-0.7 0.3-1 0.4 -1.3 0.6-2.5 1.4-3.7 2.2 -3 2.3-5.4 5.2-6.9 8.9 -0.4 0.9-0.7 1.9-1 3 -0.2 0.8-0.3 1.6-0.4 2.5 0 0.3-0.1 0.6-0.1 0.9 -0.2 2.4 0.1 5 0.7 7.1 0.7 2.5 1.7 4.6 3 6.4 0 0.1 0.1 0.1 0.1 0.1 0 0 0 0.1 0 0.1 0 0 0.1 0 0.1 0 0 0 0 0.1 0 0.1 0.1 0.1 0.3 0.3 0.4 0.5 0.1 0.1 0.1 0.1 0.2 0.2 0.1 0.1 0.2 0.2 0.3 0.3 0 0.1 0.1 0.1 0.1 0.2 0 0 0 0 0.1 0.1 0.1 0.1 0.2 0.2 0.3 0.3 0.3 0.3 0.6 0.7 0.9 1 0.2 0.2 0.3 0.4 0.5 0.5 1.8-0.6 3.7-1.1 5.7-1.5v-2.9c-0.4-0.2-0.8-0.3-1.2-0.5 0-0.7 0-1.4 0-2.1 -0.1-0.2-0.4-0.4-0.5-0.6 -0.2-0.2-0.4-0.4-0.5-0.6V61c1.2-0.1 2.5 0 3.7 0v-2.4c0.1-0.1 0.2-0.3 0.3-0.3 0.7-0.1 1.6 0 2.4 0v-1.3c-2.6 0-5.3 0-7.8 0 -0.1-0.1-0.2-0.2-0.2-0.3 -0.1-4.1 0-8.3 0-12.4 0.1-0.1 0.2-0.3 0.3-0.3 0.9-0.1 1.9 0 2.9 0 0.1 0 0 0.2 0.1 0.1 0.6 0 1.3 0 1.9 0 0.2 0 0.5 0.1 0.4-0.2 0.1-0.1-0.1-0.1-0.2-0.1 -0.6-0.2-1.2-0.5-1.8-0.7 -0.1-0.1-0.1 0.1-0.2 0.1 -0.1 0-0.1-0.1-0.2-0.1 0.1-0.3 0.3-0.6 0.4-0.9 0.1-0.1 0-0.2 0.2-0.2 0 0.1 0.1 0.1 0.2 0.1 0 0.1-0.1 0.2 0 0.2 0.6 0.3 1.3 0.5 1.9 0.8 0.1 0 0.2 0.1 0.2 0 0.1-0.1 0-0.2-0.1-0.2 -0.4-0.4-0.8-0.9-1.3-1.3 -0.1-0.1-0.2-0.2-0.3-0.2 0 0 0 0.1-0.1 0.1 0-0.1-0.1-0.1-0.2-0.2 0.2-0.2 0.4-0.5 0.7-0.7 0.1-0.1 0.2-0.2 0.3-0.2 0 0.1 0.1 0.1 0.1 0.2 -0.1 0.1 0.1 0.2 0.2 0.4 0.3 0.3 0.7 0.7 1 1 0.1 0.1 0.2 0.4 0.4 0.3 0.1-0.1 0-0.2 0-0.2 -0.2-0.7-0.5-1.3-0.8-2 0-0.2-0.1 0.1-0.2 0 0-0.1-0.1-0.2-0.1-0.2 0.3-0.2 0.6-0.3 0.9-0.4 0.1 0 0.2-0.2 0.3-0.1 0 0.1 0.1 0.2 0.1 0.2 -0.1 0.1-0.2 0-0.1 0.2 0.3 0.6 0.5 1.3 0.8 1.9 0.1 0.1 0 0.2 0.2 0.2 0.1 0 0.1-0.1 0.1-0.2v-2.1c0-0.1-0.1 0-0.2-0.1v-0.3c0.4 0 0.9 0 1.3 0 0 0.1 0 0.2 0 0.2 0 0.1-0.2 0-0.1 0.1v2.3c1.4 0.3 2.2 1.2 2.5 2.5h2.1c0.1 0.1 0-0.2 0.1-0.1h4.1v-2.9c0.1 0 0.4 0 0.4 0 0 0.8-0.1 1.8 0 2.6 0 0.1-0.1 0.3 0.1 0.3 0.1 0 0-0.2 0.1-0.3v-2.3c0-0.1-0.1-0.3 0.1-0.3 0.2-0.1 0.2 0.1 0.2 0.2 0.1 0.3 0.2 0.5 0.3 0.7 0 0.1 0.1 0.1 0.2 0.2 0.1 0.1 0.2 0.2 0.3 0.3 0.2 0.2 0.3 0.4 0.5 0.5 0.1 0.1 0.1 0.1 0.2 0.2 0 0 0.1 0.1 0.1 0.1 0.1 0.1 0.2 0.1 0.3 0.1 0.1 0.1 0.2 0.1 0.3 0.1 0.4 0.2 0.8 0.3 1.3 0.4 0.7 0.1 1.5 0 2.3 0 0.7 0 1.3 0 2 0 0 0 0.2-0.1 0.2 0.1v0.2c-1.3 0.1-2.6 0-4 0h-0.3c-0.1 0-0.2 0-0.1 0.1 0 0.1 0.2 0.1 0.2 0.1 1.3 0.1 2.8 0 4.1 0v0.8h-0.4c0 1.3 0 2.6 0 3.8 -0.3 0.1-0.9 0.1-1.1-0.1V47c0-0.6 0-1.2 0-1.8 -0.2 0.9-0.5 1.7-0.8 2.5 -0.1 0.3-0.2 0.6-0.3 0.8 -0.2 0-0.4 0-0.6-0.1 -0.2-0.1-0.3-0.1-0.4-0.3C61.4 47.2 61.8 46.2 62.1 45.2zM65.9 37.8c0.3 0 0.5 0 0.7-0.1 0.2-0.1 0.2-0.1 0.4-0.3 0.1-0.1 0.2-0.2 0.2-0.3 0.1-0.3 0-0.8-0.1-0.9 0 0 0-0.1 0-0.1 0-0.1-0.1-0.1-0.2-0.1 0 0 0-0.1-0.1-0.1 0 0-0.1 0-0.1-0.1 0 0 0-0.1-0.1-0.1 0 0-0.1 0-0.1-0.1 -0.3-0.3-0.8-0.6-1-0.8 0 0 0 0 0 0 -0.7 0.9-1.4 1.8-2 2.7 0.2 0.1 0.4 0.3 0.6 0.4 0.3-0.3 0.5-0.7 0.8-1C65.1 37.3 65.5 37.6 65.9 37.8zM36.7 34.4c0 0-0.1 0.1-0.1 0.1 -0.2 0.1-0.5 0.3-0.7 0.4 -0.1 0.1-0.2 0.1-0.3 0.2 -0.1 0-0.1 0.1-0.1 0.1 -0.4 0.3-0.8 0.5-1.1 0.8 0.3 0.3 0.5 0.7 0.7 1 0.2 0.4 0.5 0.7 0.7 1 0.1 0.1 0.1 0.3 0.2 0.3 0.1 0.1 0.1 0.3 0.3 0.3 0.2-0.1 0.3-0.3 0.5-0.3 0 0 0 0 0.1-0.1 0 0 0.1 0 0.2-0.1 0 0 0-0.1 0-0.1 0 0 0.1 0 0.1 0 0 0 0-0.1 0-0.1 0 0 0.1 0 0.1 0 0.1-0.1 0.2-0.1 0.2-0.2 0 0 0.1 0 0.1 0 0 0 0-0.1 0-0.1 0 0 0.1 0 0.1 0 0.1-0.1 0.2-0.1 0.2-0.2 0 0 0.1 0 0.1 0 0 0 0-0.1 0-0.1 0 0 0.1 0 0.1 0 0.2-0.1 0.3-0.2 0.4-0.3 0-0.1-0.1-0.1-0.1-0.3 -0.1 0-0.1-0.2-0.2-0.2 -0.6 0.4-1.1 0.8-1.7 1.2 -0.2-0.3-0.4-0.5-0.5-0.8 0.5-0.3 1-0.7 1.5-1 0-0.1-0.1-0.2-0.1-0.3 -0.1-0.1-0.1-0.2-0.2-0.2 -0.2 0.1-0.4 0.3-0.6 0.4 0 0 0 0.1 0 0.1 0 0-0.1 0-0.1 0 0 0 0 0.1 0 0.1 -0.3 0.2-0.5 0.4-0.8 0.5 -0.1-0.2-0.3-0.4-0.4-0.6 0.6-0.4 1.1-0.8 1.7-1.1C37 34.7 36.8 34.5 36.7 34.4zM41 33.5c0-0.3-0.3-0.5-0.4-0.6 -0.2-0.1-0.4-0.2-0.6-0.1 -0.8 0.3-1.4 0.7-2.2 1 0.5 1 1 2.1 1.5 3.1 0.2-0.1 0.4-0.2 0.6-0.3 -0.2-0.5-0.4-0.8-0.6-1.3 0.2-0.1 0.4-0.2 0.7-0.2 0.5 0.2 0.9 0.5 1.4 0.7 0.3-0.1 0.6-0.2 0.8-0.4 -0.6-0.3-1-0.7-1.8-0.8C40.8 34.3 41.1 34 41 33.5zM59.2 35.5c0.2 0.1 0.4 0.2 0.7 0.3 0.1-0.3 0.3-0.7 0.5-1 0.1-0.1 0.1-0.3 0.2-0.3 0.4 0.3 1 0.4 1.4 0.7 0-0.2 0.2-0.3 0.2-0.5 -0.5-0.2-1-0.4-1.4-0.7 0.2-0.2 0.2-0.5 0.4-0.7 0.3 0.1 0.5 0.2 0.8 0.4 0.3 0.1 0.5 0.3 0.8 0.4 0.1-0.2 0.2-0.3 0.2-0.5 -0.8-0.3-1.6-0.7-2.4-1.1C60.2 33.4 59.7 34.4 59.2 35.5zM43.9 31.5c-1-0.1-1.8 0.2-2.1 0.8 -0.2 0.7 0.3 1.1 0.9 1.2 0.6 0.1 1.6-0.3 1.7 0.2 0 0.2-0.1 0.4-0.2 0.5 -0.2 0.2-0.5 0.2-0.9 0.2 -0.2-0.1-0.4-0.2-0.5-0.4 -0.2 0.1-0.4 0.2-0.6 0.3 0 0.1 0.1 0.1 0.1 0.2 0 0.1 0.1 0.2 0.1 0.2 0 0 0.1 0.1 0.2 0.1 0.2 0.2 0.6 0.3 1 0.2 0.5-0.1 1.1-0.4 1.4-0.6 0 0 0-0.1 0.1-0.2 0-0.1 0.1-0.1 0.1-0.1 0.1-0.5-0.1-0.8-0.2-1 -0.2-0.2-0.5-0.3-0.9-0.3 -0.6 0-1.3 0.3-1.5-0.2 0.1-0.3 0.6-0.6 1-0.5 0.2 0 0.2 0.2 0.4 0.3 0.2-0.1 0.4-0.1 0.6-0.2C44.5 31.8 44.2 31.6 43.9 31.5zM55.6 33.5c0 0.1 0.1 0.3 0.1 0.4 0.4 0.7 1.6 1.2 2.5 0.9 0.1 0 0.2-0.1 0.3-0.2 0 0 0.1 0 0.1 0 0.1-0.1 0.3-0.3 0.3-0.4 0 0 0.1 0 0.1 0 0-0.1 0.1-0.2 0.1-0.3 0.1-0.3 0.2-0.7 0.2-1 0-0.4-0.2-0.7-0.3-0.8 -0.1-0.1-0.3-0.3-0.4-0.3 0 0 0-0.1 0-0.1 -0.3-0.2-1-0.4-1.4-0.3 -0.4 0-0.7 0.2-1 0.4C55.7 32.2 55.5 32.9 55.6 33.5zM45.3 31c0.2 0.8 0.3 1.8 0.5 2.6 0.1 0.3 0.1 0.6 0.2 0.8 0.2-0.1 0.5-0.1 0.7-0.1 -0.2-1.1-0.4-2.3-0.7-3.4C45.8 30.9 45.6 30.9 45.3 31zM50.4 30.5c0.4 0.6 0.8 1.3 1.2 1.9 0 0.5 0 1-0.1 1.5 0.3 0 0.5 0 0.7 0 0-0.4 0.1-0.9 0.1-1.4 0.2-0.3 0.5-0.6 0.7-1 0.1-0.2 0.2-0.3 0.4-0.5 0.1-0.2 0.3-0.3 0.4-0.5 -0.3 0-0.5-0.1-0.8 0 -0.4 0.4-0.6 0.9-1 1.3 -0.3-0.5-0.5-0.9-0.8-1.4C51 30.4 50.6 30.3 50.4 30.5 50.4 30.4 50.4 30.5 50.4 30.5zM46.8 30.7c0 0.2 0 0.4 0 0.6 0.4 0 0.8-0.1 1.1-0.1 0.1 0.9 0.2 1.9 0.3 2.8 0.2 0 0.5-0.1 0.7-0.1 -0.1-0.9-0.2-1.9-0.3-2.8 0.4 0 0.8-0.1 1.1-0.1 0-0.2 0-0.4-0.1-0.6C48.8 30.5 47.8 30.6 46.8 30.7zM70.8 36.2c0.1 0.1 0.3 0.3 0.4 0.4 0.1 0.1 0.2 0.3 0.4 0.4 0.2 0.2 0.4 0.4 0.6 0.6 0.1 0.1 0.1 0.2 0.2 0.2 0.1 0.1 0.2 0.2 0.3 0.3 0.1 0.1 0.2 0.2 0.3 0.3 0.1 0.1 0.1 0.2 0.2 0.2 0.1 0.1 0.2 0.3 0.4 0.4 0.1 0.2 0.3 0.4 0.4 0.6 0.1 0.1 0.1 0.1 0.2 0.2 0.1 0.1 0.1 0.1 0.2 0.2 0.1 0.1 0.1 0.1 0.2 0.2 0.2 0.2 0.4 0.6 0.6 0.8 0.1 0.2 0.2 0.3 0.3 0.5 0 0 0 0.1 0.1 0.1 0.1 0.1 0.2 0.2 0.2 0.4 0.1 0.3 0.3 0.5 0.4 0.8 0.6 1 1.1 2.2 1.6 3.3 0.1 0.2 0.1 0.4 0.2 0.6 0 0.1 0.1 0.2 0.1 0.3 0.1 0.2 0.1 0.4 0.2 0.6 0.2 0.7 0.4 1.5 0.6 2.2 0.1 0.3 0.2 0.7 0.2 1 0.1 0.3 0.1 0.7 0.2 1 0.1 0.5 0.1 0.9 0.2 1.4 0.4 3.1 0.2 6.3-0.4 9 -0.5 2.2-1.2 4.3-2 6.1 -0.2 0.4-0.3 0.8-0.5 1.1 -0.1 0.2-0.2 0.3-0.3 0.5 -0.1 0.2-0.2 0.4-0.3 0.5 -0.4 0.7-0.8 1.3-1.3 2 -0.1 0.1-0.1 0.2-0.2 0.4 0 0.1-0.1 0.1-0.2 0.2 -0.1 0.1-0.2 0.2-0.3 0.3 -0.2 0.3-0.5 0.6-0.7 0.9 -0.5 0.6-1 1.2-1.5 1.7 -0.3 0.3-0.5 0.5-0.8 0.8 -0.3 0.3-0.5 0.6-0.8 0.8 -0.1 0.1-0.2 0.1-0.2 0.2 -0.1 0.1-0.1 0.1-0.2 0.2 -0.3 0.2-0.6 0.5-0.9 0.7 -0.2 0.1-0.4 0.3-0.6 0.4 0 0-0.1 0-0.1 0.1 -0.1 0.1-0.1 0.2-0.2 0.2 0 0-0.1 0-0.1 0.1 -0.1 0.1-0.1 0.1-0.2 0.2 0 0-0.1 0.1-0.1 0.1 0 0-0.1 0-0.2 0.1 -0.1 0-0.1 0.1-0.1 0.1 -0.1 0.1-0.2 0.1-0.4 0.2 0 0-0.1 0.1-0.1 0.1 -0.1 0.1-0.2 0.1-0.3 0.1 0 0-0.1 0.1-0.1 0.1 0 0-0.1 0-0.1 0.1 -0.2 0.1-0.3 0.2-0.5 0.3 -0.1 0.1-0.2 0.1-0.2 0.2 -0.2 0.1-0.4 0.2-0.5 0.3 0 0-0.1 0.1-0.1 0.1 -0.1 0.1-0.3 0.1-0.4 0.2 -1 0.6-2.2 1.1-3.3 1.5 -0.7 0.3-1.4 0.5-2.1 0.7 -0.3 0.1-0.7 0.2-1 0.3 -0.4 0.1-0.9 0.2-1.3 0.3 -2.9 0.6-6.4 0.7-9.7 0.3 -0.2 0-0.4-0.1-0.7-0.1 -0.5-0.1-0.9-0.1-1.4-0.2 -2.6-0.6-5-1.5-7.2-2.6 -0.2-0.1-0.4-0.2-0.5-0.3 -0.7-0.4-1.4-0.7-2-1.2 0 0 0-0.1-0.1-0.1 0 0-0.1 0-0.1 0 -0.1 0-0.1-0.1-0.1-0.1 0 0-0.1 0-0.1 0 0 0 0-0.1-0.1-0.1 0 0-0.1 0-0.1 0 0 0-0.1-0.1-0.2-0.2 -0.2-0.2-0.5-0.4-0.8-0.6 -0.1-0.1-0.2-0.1-0.3-0.2 0 0-0.1-0.1-0.1-0.1 -0.1-0.1-0.2-0.1-0.3-0.2 0 0 0-0.1-0.1-0.1 0 0-0.1 0-0.1 0 -0.1-0.1-0.2-0.2-0.3-0.3 0 0-0.1-0.1-0.2-0.1 0 0-0.1-0.1-0.1-0.1 -0.1 0-0.1-0.1-0.2-0.1 -0.1-0.1-0.3-0.3-0.4-0.4 -0.1-0.1-0.2-0.1-0.3-0.2 -0.1-0.1-0.2-0.2-0.2-0.3 -0.2-0.2-0.4-0.3-0.6-0.5 -0.1-0.1-0.1-0.2-0.2-0.3 -0.1-0.1-0.2-0.2-0.3-0.2 -0.2-0.2-0.3-0.4-0.5-0.6 -0.1-0.1-0.2-0.2-0.3-0.3 0 0 0-0.1 0-0.1 0 0-0.1-0.1-0.1-0.1 -0.1-0.1-0.2-0.2-0.3-0.3 -0.2-0.2-0.3-0.4-0.5-0.6 0 0-0.1 0-0.1-0.1 0 0-0.1-0.1-0.1-0.2 0 0-0.1-0.1-0.2-0.2 -0.3-0.4-0.7-1-1-1.5 0-0.1-0.1-0.1-0.1-0.2 0 0 0-0.1 0-0.1 0-0.1-0.1-0.1-0.1-0.1 0 0 0-0.1 0-0.1 0-0.1-0.1-0.2-0.2-0.2 -0.1-0.1-0.2-0.3-0.2-0.4 -0.5-0.8-0.9-1.7-1.3-2.5 -0.9-2-1.6-4.1-2.1-6.4 -0.5-2.4-0.7-5.4-0.5-7.9 0.3-3.3 1.1-6.2 2.1-8.8 0.1-0.2 0.2-0.5 0.3-0.7 0.5-1.1 1.1-2.2 1.8-3.3 1.1-1.8 2.3-3.4 3.7-4.8 2.4-2.5 5.1-4.5 8.4-6 0.3-0.2 0.7-0.3 1.1-0.5 0.1-0.1 0.3-0.1 0.5-0.2 0.1 0 0.2-0.1 0.3-0.1 0 0 0.1-0.1 0.1-0.1 0.1 0 0.1 0 0.2-0.1 0.5-0.2 1.1-0.4 1.7-0.6 1.8-0.5 3.8-1 6-1.2 1.2-0.1 2.4-0.1 3.6-0.1 3.9 0.1 7.4 1.1 10.2 2.3C65.6 31.9 68.5 33.9 70.8 36.2zM57.2 31.9c0.7-0.1 1.2 0.2 1.4 0.7 0 0.5 0 0.7-0.2 1 -0.1 0.3-0.2 0.4-0.5 0.5 -0.1 0-0.2 0.1-0.4 0.1 -0.4 0-0.9-0.3-1-0.6 -0.2-0.5 0-1 0.3-1.5C56.9 32.1 57 31.9 57.2 31.9zM39 34.7c-0.1-0.3-0.3-0.5-0.3-0.8 0.3-0.2 0.7-0.3 1-0.5 0 0 0.2 0 0.3 0 0.1 0.1 0.3 0.2 0.3 0.4 0 0.3-0.3 0.4-0.5 0.5C39.5 34.5 39.2 34.7 39 34.7zM65.6 35.8c0.3 0.3 0.7 0.4 0.9 0.8 0 0.5-0.3 0.7-0.6 0.6 -0.3-0.1-0.7-0.4-0.9-0.6C65.2 36.3 65.4 36 65.6 35.8zM45.1 39.9 45.1 39.9C45.1 39.9 45.1 39.9 45.1 39.9 45.1 39.9 45.1 39.9 45.1 39.9zM45.1 39.9C45.1 39.9 45.2 39.9 45.1 39.9 45.1 40 45.1 40 45.1 39.9zM43.3 40.7 72.4 44.5c0.2-0.1 0.5-0.2 0.7-0.4 0.1 0 0.1 0 0.1 0 0 0.1 0.2 0.3 0.3 0.6 0.1 0.2 0.3 0.5 0.2 0.6 0 0.3-0.4 0.5-0.7 0.3C72.8 45.3 72.5 44.9 72.4 44.5zM62.1 45.2 75.3 49.4c-0.2 0.6-0.8 0.9-1.7 0.8 -0.5-0.2-0.7-0.5-0.7-1.2 0-0.1 0.1-0.2 0.1-0.3 0.1-0.1 0.1-0.2 0.2-0.3 0.1-0.1 0.6-0.3 0.8-0.3C74.9 48 75.4 48.5 75.3 49.4zM59.6 50.8c0.1 0 0.3-0.1 0.3 0.1L59.6 50.8 59.6 50.8zM27 51.3c0 0.4-0.1 0.7-0.2 1 -0.3-0.2-0.6-0.4-0.8-0.6 -0.1-0.1-0.2-0.1-0.2-0.2C26.1 51.4 26.5 51.3 27 51.3zM57.3 56.5C57.3 56.5 57.3 56.6 57.3 56.5 57.3 56.6 57.2 56.6 57.3 56.5zM57.3 56.6 51.4 63.8C51.4 63.7 51.4 63.7 51.4 63.8 51.5 63.7 51.4 63.8 51.4 63.8zM57.6 63.8 51.5 67c0 0 0.1 0 0.1 0C51.6 67 51.5 67 51.5 67zM65.4 71.2 65.5 71.2C65.5 71.2 65.5 71.2 65.5 71.2 65.6 71.2 65.5 71.2 65.5 71.2zM48.4 73.4v2.5h-0.7v-1.6c-0.2 0.1-0.4 0.3-0.7 0.3V74c0.4-0.1 0.7-0.3 0.9-0.7H48.4zM49.7 74c-0.1 0.4 0.1 0.6 0.3 0.6 0.3 0 0.4-0.6 0.1-0.8C49.9 73.7 49.8 73.9 49.7 74zM49.1 75.3c0.2 0 0.4 0 0.6-0.1 0.1 0 0.1 0.1 0.1 0.2 0 0.1 0.1 0.1 0.2 0.1 0.3 0 0.4-0.3 0.4-0.6 0-0.1-0.1 0.1-0.2 0.1 -0.1 0.1-0.5 0.1-0.7 0.1 -0.2-0.1-0.4-0.3-0.5-0.6V74c0.1-0.1 0-0.1 0.1-0.2 0 0 0.1 0 0.1 0 0.1-0.3 0.5-0.5 1-0.4 0.1 0 0.3 0 0.4 0.1 0.4 0.2 0.6 0.8 0.5 1.5 -0.1 0.5-0.4 1-1 1 -0.3 0-0.5-0.1-0.7-0.2C49.2 75.6 49 75.4 49.1 75.3zM55 74.5c0.1 0.1 0.2 0.1 0.3 0.2 0.1 0.2 0.1 0.5 0 0.7 -0.1 0.3-0.5 0.5-0.9 0.5 -0.5 0-1-0.2-1.1-0.7 0-0.1 0.3 0 0.3-0.1 0.2 0 0.2-0.1 0.4 0 0 0.2 0.1 0.4 0.3 0.4 0.3 0 0.5-0.5 0.1-0.7 -0.1 0-0.2 0-0.3 0 0-0.2 0-0.4 0-0.5 0.2 0 0.3-0.1 0.4-0.2 0.1-0.5-0.5-0.4-0.5 0 -0.2-0.1-0.5-0.1-0.7-0.1 0.1-0.5 0.6-0.7 1.2-0.6 0.1 0 0.4 0.1 0.4 0.1C55.4 73.7 55.4 74.3 55 74.5zM53.1 73.4V74h-1c-0.1 0 0 0.2-0.1 0.3 0.1 0 0.2-0.1 0.3-0.1 0.1 0 0.2 0 0.2 0 0.2 0 0.4 0.1 0.5 0.2 0 0 0 0.1 0 0.1 0 0 0.1 0.1 0.1 0.2 0 0.1 0 0.2 0 0.2 0 0.6-0.5 1-1 1 -0.2 0-0.5-0.1-0.7-0.2 -0.1-0.1-0.3-0.3-0.4-0.5 0.2 0 0.4-0.1 0.6-0.1 0.1 0 0.1 0.2 0.1 0.2 0.1 0.1 0.1 0.1 0.2 0.1 0.4 0 0.5-0.8 0.1-0.8 -0.2 0-0.3 0.1-0.4 0.2 -0.2 0-0.4-0.1-0.6-0.1 0.1-0.4 0.1-0.9 0.2-1.4H53.1zM66.1 75.1C66.2 75.1 66.2 75 66.1 75.1 66.2 75.1 66.2 75.1 66.1 75.1zM66.1 75.1 36.2 75.5c0.1 0.1 0.2 0.1 0.4 0.2 -0.2 0.1-0.5 0.1-0.7 0.2C36 75.7 36.1 75.6 36.2 75.5zM40.8 78.7c0-0.1 0.1 0 0.2 0 0 0.2 0.1 0.4 0.1 0.7C41 79.4 41 79.2 41 79 40.9 78.9 40.9 78.8 40.8 78.7zM40.9 79.3c-0.3 0.2-0.8 0.2-1.2 0.3 0.1-0.1 0.3-0.1 0.5-0.2 0.2-0.1 0.4-0.1 0.6-0.2C40.8 79.2 40.8 79.3 40.9 79.3zM65.9 79.5C65.9 79.5 65.9 79.5 65.9 79.5 66 79.5 65.9 79.5 65.9 79.5zM41.8 79.6C41.8 79.5 41.9 79.6 41.8 79.6 41.9 79.6 41.8 79.6 41.8 79.6zM41.9 79.7C41.9 79.7 41.9 79.7 41.9 79.7 41.9 79.8 41.9 79.8 41.9 79.7zM39.2 79.9C39.2 79.9 39.3 79.9 39.2 79.9 39.3 79.9 39.2 79.9 39.2 79.9zM39.3 80 41.4 80C41.4 80 41.5 80 41.4 80 41.5 80 41.4 80 41.4 80zM56.1 81.1c0 0.2-0.1 0.3-0.2 0.4 -0.1 0.1-0.1 0.2-0.2 0.3 0 0 0 0.1 0 0.1 0 0-0.1 0-0.1 0 0 0 0 0.1-0.1 0.1 -0.1 0.1-0.1 0.1-0.2 0.2 0 0 0 0 0 0 0 0.1-0.1 0.2-0.2 0.2 -0.1 0-0.2-0.2-0.2-0.3 0-0.2 0.2-0.2 0.2-0.3 0.1-0.1 0.1-0.2 0.2-0.4 0-0.3-0.3-0.3-0.3-0.6C55.5 80.7 56 80.8 56.1 81.1zM54.5 80.9c0.1 0.1 0 0.4 0.1 0.6 -0.1 0.1-0.3 0-0.3 0.1 0 0.2 0.3 0.3 0.4 0.4 0 0.1 0.1 0.3 0.1 0.4 0 0.1-0.1 0.1-0.1 0.2 0 0.1 0 0.2 0 0.2 -0.1 0.1-0.1 0.1-0.2 0.1 -0.1 0-0.3 0-0.4 0 -0.2-0.1-0.5-0.3-0.6-0.5 -0.1-0.3 0.1-0.5 0.1-0.8 0.1-0.1 0.2-0.2 0.3-0.2 0.2-0.2 0.4-0.4 0.6-0.6H54.5z"/><path fill-rule="evenodd" clip-rule="evenodd" fill="#E60012" d="M162.1 40.4c-0.7 0.4-1.6 0.5-2.1 1.1 -0.3 0.3-0.5 0.8-0.8 1.2 -0.5 0.8-1 1.6-1.6 2.4 -0.3 0.5-0.8 1-1 1.5 -0.4 0.7-0.9 1.3-1.4 2 -0.5 0.8-0.9 1.6-1.6 2.3 -0.2 0.8-0.8 1.6-1.3 2.5 -0.9 1.6-1.9 3-3.1 4.5 -0.8 0.9-1.4 2.2-2.4 2.7 -0.8 0.4-1.8 0.3-2.8 0.3 0.4-0.6 1-0.8 1.5-1.2 0.5-0.4 1-0.8 1.4-1.2 1-1.2 2.1-2.4 3-3.7 1-1.3 1.7-2.7 2.7-4.1 1.8-2.6 3.6-5.4 5-8.3 -1.3-0.5-3.9-0.5-4.3-2.3 2.6 0.8 4.9-0.6 6.1-2.2C160.9 38 161.8 38.9 162.1 40.4zM217.2 43.9c0-0.1 0.1-0.1 0.2 0 -0.1-0.3 0.2-0.3 0.1-0.6 -0.1-0.1-0.3-0.7-0.5-0.4C217.3 43.3 216.9 43.7 217.2 43.9zM213.3 38c1.3 0.5 2.4 1.3 3.8 1.7 -0.1 0.6 0 1.8 0.2 2.5 0.9 0.2 1.3 1.5 2.2 1.1 0.3 0.8 1.3 1.2 1.1 2.1 0.2 0.3 0.6 0.4 0.8 0.8 -0.4 0.4-0.4 1.2-0.8 1.6 -0.4 0.5-1 0.5-1.7 0.9 -0.5 0.9-2.1 0.8-1.8 2.6 -0.4 0.2-0.8 0.4-1.1 0.7 -0.2 0.9-1 2.2-0.6 3.7 -0.7 0.4-1.5 0.7-2 1.3 -0.4 0.5-0.4 1.2-0.8 1.7 -1.3 0.1-1.9 0.9-2.7 1.5 -0.7-0.3-1 0.3-1.5 0.5 -0.3-0.1-0.5-0.3-0.5-0.7 -0.4 0-0.3 0.4-0.9 0.3 0-0.7 0.4-0.9 0.7-1.2 0-0.8 0.6-1 0.9-1.3 0.1-0.4 0.1-0.3 0.1-0.9 0.6-0.3 0.9-0.9 1.2-1.5 0.8 0.4 1.1-0.6 1.4-0.9 0-0.3-0.3-0.4-0.5-0.6 0-0.4 0.2-0.6 0.4-0.9 -0.1-0.7-0.8-0.8-1-1.3 -0.2 0-0.3 0.2-0.6 0.1 -0.6-0.7-1.6-0.8-1.7-1.9 1.4 0.4 3.3 0.2 4.2-0.8 0.2-0.2 0.2-0.5 0.4-0.9 0.3-0.5 0.7-0.9 0.9-1.8 -0.2-0.8 0.1-1.8 0-3 0.2-0.2 0.4-0.1 0.6-0.2 0-0.3-0.4-0.7-0.1-0.9 -0.4-0.3-0.6-0.9-0.7-1.4 0-0.3 0.2-0.7 0.2-1C213.5 39.1 213 38.6 213.3 38zM188.2 46.6c-0.8 1.1-2.3 1.7-3.4 2.6 -0.8-0.2-1.5 0.6-2.1 0.9 0 1.1-0.9 1.8-1 2.8 0 0.4 0.2 0.6 0.3 0.9 0.1 0.2 0 0.5 0 0.6 0.2 0.4 0.8 1 1.3 1.5 0.5 0.5 1.1 1.2 1.5 1.3 0.2 0.1 0.5 0 0.8 0 0.9 0.1 1.5 0.2 2-0.4 0.2-0.2 0-0.6 0.2-0.9 0.2-0.5 0.8-0.6 0.9-1 0.1-0.5-0.2-1.1-0.1-1.8 -0.6-0.6-2.9-2.4-1.3-3 0.4 0.2 0.5 0.1 1 0.1 0.5-0.8 0.5-2 0.7-3.2C188.7 46.8 188.6 46.5 188.2 46.6zM194.2 52.6c0.8-0.9 1.1-1.4 1.8-2.4 0.3-0.4 0.8-0.9 0.8-1.2 0-0.6-1.4-1.7-1.8-1.9 -0.7-0.3-2.5-0.5-2.9-0.5 -0.1 0-0.1 0.1-0.1 0.2 -0.3 1.1 1.1 2.1 1 3.2 0 0.3-0.2 0.4-0.5 0.8 -0.2 0.3-0.3 0.6-0.5 0.9 -0.4 0.6-1.3 0.9-1.5 1.4 -0.4 0.7-0.2 1.4 0.3 2.3C192.1 54.6 193.3 53.6 194.2 52.6zM189.2 38.5c0.4 0.4 0.9 0.3 1.4 0.5 0.9 1.9 0.8 3.6 0.8 6.5 0.4 0.4 1.4 0.7 2.1 0.6 0.6 0.5 1.8 0.4 2.8 0.8 0.5 0.2 0.9 0.5 1.4 0.6 0.3 0.5 1.5 1.4 1.5 2.1 0 0.5-0.4 1.2-0.9 1.6 -0.3 0.4-1 0.5-1.3 0.9 -0.3 0.3-0.4 0.9-0.7 1.2 -0.2 0.3-0.5 0.8-0.8 1 -0.5 0.4-1.7 0.8-1.7 1.6 0 0.6 0.7 1 0.8 1.7 0.1 0.5-0.1 0.7-0.2 1.4 -1.3 0.2-3.7 0.6-5-0.1 -1.1 0.4-1.8 1.1-2.9 0.5 -0.3-0.2-0.9-0.7-1.2-1 -0.1-0.1-0.1-0.4-0.3-0.5 -0.4-0.3-0.8-0.4-1.1-0.8 -0.6-0.6-1.7-1.4-2.4-2 -0.1-0.8-0.6-1.3-0.8-2.1 -0.2-0.5-0.9-0.4-1-0.9 0.3-2.5 3.1-3.3 4.9-4.5 1.4-0.9 2.5-2.1 4.2-2.2C189.4 43.4 188.9 40.7 189.2 38.5zM131 40.9c-0.2 0.5 0.1 0.9 0.1 1.5 -0.6 0.3-1.2 0.5-1.7 0.4 -1-0.3-1.4-2-2.2-2.5 0-0.3 0.3-0.2 0.2-0.6 0.4-0.1 0.5 0.2 0.9 0.1 0-0.1 0.2-0.1 0.2-0.2C129.4 40.1 130.4 40.3 131 40.9zM179 41.1c0.2 0 0.2 0.1 0.3 0.1 0.5 1.4 1.4 2.7 1.2 4.4 -0.2 0.1-0.4 0.3-0.6 0.4 -0.7-0.3-1.2-0.8-2.2-0.9 0.5-1 1.3-2.1 0.9-3.6C178.9 41.4 179.1 41.4 179 41.1zM116.7 42.6c0.1 0 0.2 0 0.2 0.1 0.7 1.2 0.5 2.7 0.6 4.2 0.1 2.1 0.2 3.9 0.3 5.8 0.1 1-0.1 2 0 2.9 0.1 0.8 0.8 1.8 0.2 2.6 -0.4 0.1-1.4-0.6-1.6-1 -0.2-0.5-0.1-1.9-0.1-3.1 0-3 0.2-6.4 0.3-8.6C116.6 44.4 116.5 43.5 116.7 42.6zM241.1 44.9c0.2 0 0.2 0.3 0.1 0.4C241 45.2 241 45 241.1 44.9zM241.4 45.2c0.3 0.2 0.6 0.6 1 0.4 -0.1 0.4-0.5 0.5-1 0.5V45.2zM94.1 50.9c-1.7-0.2-2.2-1.5-3.5-2.1 -2.1-0.6-4.3-1-5.4-2.5 0-0.2 0.1-0.2 0.1-0.3 0.1 0 0.1-0.1 0.2-0.1 0.7 0.1 1.7 0.1 2.5 0.4 0 0 0.1 0.2 0.1 0.2 0.1 0 0.2-0.1 0.2-0.1 0.5 0.2 0.9 0.5 1.4 0.7 0.6 0.2 1.1 0.4 1.6 0.7 0.4 0.2 0.7 0.6 1.1 0.9 0.5 0.3 1.3 0.5 1.6 1.1C94.2 50.1 94.2 50.5 94.1 50.9zM247.6 52.4c1.7-0.3 3.6 0.3 3.3 1.6 -0.1 0.6-0.8 0.5-1.2 0.9 -0.6-0.3-1.2 0.1-1.6 0.5 -0.1 1.2 0.2 2.2 0 3.1 -0.1 0.5-0.5 1.2-0.8 1.7 -0.3 0.7-0.8 1.1-1.2 1.7 -0.7-0.1-1 0.9-1.7 1.1 -1.4 0.6-3.2-0.3-4.2 0 -0.7-0.3-1.6-0.5-2.2-0.9 -0.1-0.3-0.1-0.8-0.2-1 1.5 0.6 4.3 0.1 5.9-0.9 1.5-0.9 2.4-2.3 2.2-4.2 -0.5-0.8-1.8-0.4-2.6-0.7 -0.4 0.2-0.8 0.4-1.3 0.7 -1.8 0.9-2.9-0.9-3.3-2.4 0.6 0.6 1.6 0.4 2 0.5 0.6-0.3 1.6-0.5 2.6-0.7 0.7-0.1 1.6 0.1 1.9-0.6 0-0.7-0.6-0.3-1.1-0.5 -1.2-1-0.3-2.9 0.4-3.8 -0.5-0.3-1 0.5-1.6 0.6 -1.1 0.2-2.3 0-2.5-1 0.8 0.5 1.3 0.3 2.4-0.1 0.9-0.3 1.5-0.5 2-1.1 1.3 0 2.3 0.3 3.2 0.7 1.1 1.3-1.4 1.8-1.2 3.3C246.8 51.6 247.3 51.6 247.6 52.4zM176 48.5c0.1 0 0.2 0 0.2 0.1 0.1 0.9-0.3 1.3-0.2 2 0.1 0.7 0.4 1.5 0.7 2.1 0.3 0.5 0.7 0.7 0.9 1.4 0.1 0.5-0.2 1-0.1 1.6 0.2 0.2 0.4-0.1 0.6 0.2 -0.5 1.7 1 3.7-0.2 4.6 -0.9-0.3-1.1-1-1.6-1.9 -0.1-0.2-0.4-0.4-0.5-0.6 -0.5-1.2-0.7-3.2-0.6-4.6 0-0.4 0.3-0.8 0.3-1.2 0-0.7-0.1-1.3 0-1.9C175.5 49.7 175.9 49 176 48.5zM221.2 59.5c-0.7-0.5-1.4-1-1.7-1.9 0.5-1-0.1-2.6 0.6-3.4 0.3 0.2 1 0.2 1.5 0.4 0.2 0.1 0.3 0.3 0.7 0.6 0.2 0.2 0.6 0.3 0.8 0.4 0.3 0.2 0.6 0.7 0.9 0.9 0.6 0.6 1.1 0.6 0.8 1.7 -0.1 0.5-1 1.6-1.6 1.7C222.2 60 221.8 59.2 221.2 59.5zM241.4 46c0.5 0 1-0.1 1-0.5 -0.5 0.3-0.7-0.2-1-0.4V46zM241.2 45.3c0.1-0.1 0.1-0.4-0.1-0.4C241 45 241 45.2 241.2 45.3zM247.5 38.7c0.2 0.2 0.6 0.3 0.9 0.5 0.3-0.5 0.1-1.4 0.1-1.7 -0.6-0.4-1.5-0.6-2-1 0-0.2 0.5 0 0.7-0.1 0.4-0.4 1.2-0.5 1.6-0.9 1.5 0.2 4.3 1.8 2.1 3 -0.2 0.5-0.4 1.1-0.8 1.5 0 1-0.5 2-0.3 2.9 0 0.4-0.3 0.5-0.2 0.9 1.8-0.1 4.5-0.6 5.5 1 -0.3 0.6-1.3 0.9-2 0.9 -0.1-0.3 0.3-0.1 0.3-0.3 -0.1-0.2-0.6 0.1-0.9 0.1 -0.4-0.3-1.2-0.2-1.5-0.6 0.8 0.1 1.1-0.4 1.7-0.5 -0.2-0.5-0.8 0-1.2 0 -0.8 0.1-1.5-0.1-2 0.2 -0.7 0.4-0.5 1.3-0.9 1.9 -0.8-0.2-1.4-0.5-1.3-1.6 -0.7-0.1-1.3 0.3-2.1 0.6 -1.2 0.4-2.6 0.6-3.6 1.2 -0.1 0.4 0 0.4 0 0.9 -0.4-0.1-0.5-0.5-0.9-0.7 -0.6 0.1-1 0.4-1.5 0.7 -0.1 0.7 0.2 1 0.3 1.5 -0.5-0.4-0.8-0.9-1-1.4 -1.6 0.5-3.3 1-4.3 2.1 -0.2 1.1-1.1 1.4-1.7 2.1 -1-0.1-2-0.8-1.8-1.3 0.2-0.7 1.4-1.7 1.5-2.6 0.2 0 0.2-0.1 0.3-0.2 0.7 0.2 1.1 0.1 1.7 0.5 1.5-0.3 2.9-0.7 4.3-1.1 0.1-2.8-1.3-4.9-2.8-6.5 -0.5-0.2-0.9-0.6-1.2-1 3 0.4 4 4.5 4.5 7.2 0.4 0.1 1-0.3 1.5-0.5 0.2-2.5-0.7-7.2-2.7-8.2 2.8 0.3 2.9 4.1 3.6 6.8 0.7-0.5 0.7-1.3 1.2-1.9 -0.3-0.5-0.7-0.9-1.2-1.2 0.4-0.2 0.9 0.7 1.3 0.5 0.3-0.8 0.6-1.6 0.6-2.5 -0.3-0.2-0.4 0.3-0.9 0.2 -0.7-0.5-1.2-1-1.4-2 0.4-0.4 0.9-1.5 0.3-2.2 1 0.2 1.7 0.7 2.1 1.5 0.8 0.3 2.1 0.6 2.7 1.1 0.9 1 0 1.5-0.6 2.5 -0.4 0.7-0.4 1.4-0.9 1.7 -0.1 0.3 0.1 0.5 0 0.9 -0.8 0.3-0.8 1.4-1.5 1.7 0.5 0.3 0.9-0.2 1.4-0.4 0.8-0.3 2-0.4 2.8-0.7 0.3-0.1 0.8-0.2 0.8-0.7 0-0.4-0.4-0.4-0.6-0.6 -0.4-0.6-0.6-1.2-0.9-1.8 0.6 0.6 1.1 0.3 1.9 0.4 0.3-0.2 0.1-0.8 0.3-1 -0.7-0.5-1.6-1.5-1.2-2.5 0.1 0.2 0.3 0.3 0.6 0.5C248 38.9 247.8 38.6 247.5 38.7zM126.7 47.7c-1.1 0.4-1.1-1.1-1.7-1.5 -0.1 0 0 0.1 0 0.3 -0.2 0-0.2-0.3-0.4-0.3 0-0.3 0.3-0.4 0.5-0.6 0.8 0.8 1.6 1.6 2.1 2.8C126.7 48.4 126.9 47.9 126.7 47.7zM124.8 50.6c-1.3 0.6-2.2 1.6-3.4 2.4 0-0.1 0-0.1 0.1-0.1 0.9-1.2 2.4-2.4 3.6-3.5 0-0.5 0.3-0.6 0.4-0.9 0.3-0.1 0.3 0.2 0.6 0.1C125.8 49.4 125.1 49.8 124.8 50.6zM122.4 46.4c0-0.3 0.1-0.3 0.4-0.3C122.7 46.3 122.6 46.4 122.4 46.4zM131.2 52.7c-0.4-0.9-0.8-1.6-0.9-2.5 0.2-0.8 1.2-1 1.3-1.7 0.2-1.1-1-1.6-2-1.9 -0.1 0.7-0.3 1.3-0.7 1.7 -1.2-1-2.2-2.1-2.9-3.6 0.1-0.5 0.6-0.4 0.7-0.9 0.1-1.6-1.1-1.3-2.4-1.4 -0.2 0-0.4-0.3-0.6-0.3 -0.2 0-0.2 0.1-0.4 0.1 -0.5-0.1-0.8-0.5-1.1-0.5 -0.2 0.6-1.7 0.8-0.9 1.6 0.4-0.2 0.8-0.3 1.1-0.2 -0.5 0.7-1.6 0.3-2.2 0.4 0.7 0.4 1.4 0.8 1.9 1.4 -0.6 0.7-1.5 1.1-2.1 1.8 -0.3 0.1-0.3-0.2-0.6-0.1 -0.5 1-0.1 2.7 0.9 2.8 0.4 0 1.7-1.1 2-1.4 0.3-0.2 0.6-0.3 0.9-0.5 0.1-0.1 0-0.4 0.2-0.4 0.4 0 0.5-0.8 0.9-0.6 0.1 0.9-0.2 1-0.4 1.7 -0.8 0.3-0.9 0.9-1.5 1.4 -0.4 0.3-0.9 0.6-1.2 0.9 -0.1 0.1-0.2 0.4-0.4 0.7 -0.5 0.7-1.5 1.4-1.8 1.9 -0.4 0.5-0.4 1.7 0.3 1.8 0.7-0.2 1-0.7 1.8-0.8 0.2-0.6 0.8-0.4 1.2-0.6 1.3-0.6 2.6-2 3.5-2.7 0.4-0.3 0.5-0.5 0.8-0.9 0.4-0.6 0.7-1.1 1-1.6 0.3 0.3 0.5 0.5 0.6 0.9 -0.7 1.5-2 2.6-2.9 3.9 -1.1 0.7-2.2 2.1-3.9 1.7 -0.3-0.1-0.5-0.4-0.8-0.3 1.1 1.3 2.1 2.4 3.9 2.3 0.8-0.1 1.4-0.6 1.9-0.9 0.6-0.3 1.6 0.2 2.1-0.5 -0.3-0.3-0.1-1-0.4-1.3 -0.3-0.2-1.1 0.1-1.1-0.4 1-0.6 1.6-1.8 2.6-2.5 0.9 1.1 0.7 3.3 2.2 3.9C132.1 54.5 131.7 53.8 131.2 52.7zM100.3 43.6c-0.3 0.7-0.4 1.9-0.3 2.6 0.7-0.1 0.5-1 1.1-1.1 0.1-0.8 0.7-1 0.9-1.8C101.4 43.3 100.8 43.5 100.3 43.6zM96.3 35.4c1.5 0.1 2.7 0.4 3.4 1.3 0.2 0.3 0.4 0.8 0.5 1 0.2 1.5-0.5 2.8 0.1 4.1 1.3-0.1 2.7-0.7 3.6-0.9 0.2-0.1 0.2-0.5 0.5-0.7 1.9 0.3 6 0.7 4.8 3.1 -2 1-4.1 1.8-5.2 3.6 0.3 0.6 1.1 0.9 0.9 1.7 -1.7 0.4-3.4 0.8-4.5 1.9 0 1.3-0.6 2.6-0.7 4 0 0.4 0.1 0.8 0.1 1.1 0 0.3-0.2 0.6-0.2 0.9 -0.1 0.8 0.1 1.6 0 2.4 0 0.3-0.3 0.6-0.3 0.9 -0.1 0.7-0.1 1.3-0.2 1.9 -0.1 0.6 0 1.2-0.1 1.6 -0.1 0.2-0.3 0.4-0.4 0.6 -0.1 0.3 0.1 0.8-0.3 1 -0.9-0.6-0.5-2-0.6-3 0-0.4-0.2-0.8-0.2-1.2 -0.2-2.9 0.4-6.6 0-8.6 -0.2-1.2-2.1-1.9-1-3.5 0.1-0.1 0.5-0.1 0.8-0.1 0.4-1 0.4-3.2 0.1-4.2 -0.8 0.1-1.8 0.8-3 0.9 -0.9 0-2.2-0.1-2.7-0.8 1-0.4 1.8-0.7 2.7-0.9 0.6-0.2 1.3-0.3 2-0.6 0.5-0.2 0.9-0.2 1.1-0.7 0.2-0.4 0.1-1.3 0.1-1.9 -0.1-0.9-0.4-1.8-0.6-2.7 -0.1-0.5 0.1-0.9 0-1.1C96.9 36 96.4 36 96.3 35.4zM136 62c-2.3 1-3.6-1.1-4.7-2.3 -0.5-0.5-1.2-0.8-1.2-1.4 -0.1-0.3 0.3-0.2 0.4-0.1 0.3-0.3-0.5-0.4-0.4-0.9 0.2 0.5 0.8 0.3 1 0.4 0.2 0.1 0.3 0.4 0.5 0.5 0.5 0.3 1.1 0.5 1.8 0.8 0.8-0.4 0.5-1.4 0.9-2.1 -0.2-3.7-0.5-7.6-0.9-12 -0.1-1.2-0.3-2.3-0.7-3.5 -0.3-1.2-0.6-3-1.3-3.4 -1.5-0.1-2.7 0.4-3.8 0.8 -0.5 0.1-1 0.2-1.4 0.4 -0.7 0.3-1.4 0.9-2.1 1.2 -1.1 0.6-2.3 1.2-3.7 1.1 0.5-0.6 1.3-1 2.2-1.4 1.6-0.7 3.1-1.4 4.9-2 0.9-0.3 2-0.7 2.8-0.8 2.5-0.3 3.6 0.9 5.3 1.6 0.3 0.6 0.9 1 0.9 1.8 0 0.6-0.7 0.9-0.8 1.4 -0.2 0.9 0.1 2.4 0.2 3.5 0 0.6-0.1 1.2 0 1.8 0.1 0.6 0.3 1.1 0.3 1.7 0.1 1.3 0 2.5 0.2 3.6 0.1 0.6 0.1 1.3 0.2 1.8 0.1 0.4 0.1 0.7 0.1 1.2 0 0.2 0.2 0.4 0.2 0.7C137 58.6 136.3 60.1 136 62zM163.2 49.9c1.8 0.5 4.3 0.4 4.2 3.4 -0.7 0.4-1.3 0.8-2 1.4 -0.2 0.2-0.5 0.4-0.7 0.7 -0.1 0.1-0.6 1.5-0.6 1.8 0 0.3 0.3 0.6 0.3 0.9 -0.1 0.5-0.6 0.8-0.9 1 -1.1-0.3-2 0.3-2.5 1 -1.3-0.1-1.4-1.4-2.7-1.5 -0.4-0.5-0.7-1.1-1.1-1.6 -0.4-0.5-0.7-1.2-1.1-1.5 -0.5-0.4-1.3-0.5-1.8-0.9 -0.4-0.4-0.7-0.9-0.9-1.4 1.2 0.1 2.3 0.4 3.1 0.9 0.6 1.5 1.4 2.8 2.6 3.7 0.4-0.2 0-1.1 0.4-1.5 0.2-0.2 0.2-0.1 0.6-0.1 0.9-0.6 1.4-1.6 1.7-2.8 -0.4-0.9-1.7-1-2.4-1.7C160.6 51.5 162.8 51.3 163.2 49.9z"/><path fill-rule="evenodd" clip-rule="evenodd" fill="#0C3B5D" d="M93.4 79.2c-0.4 1-1 1.6-1.9 1.6 -1.4-0.1-2.2-1.2-2.3-3.2 0.1-1.9 0.8-2.9 2.2-3 0.9 0 1.5 0.6 1.8 1.7h0.4l-0.1-2h-0.2c0 0.1-0.1 0.1-0.2 0.1 0 0-0.1 0-0.3-0.1 -0.5-0.2-1-0.3-1.4-0.3 -2.1 0.2-3.3 1.4-3.5 3.7 0.2 2.2 1.3 3.4 3.3 3.5 0.3 0 0.6 0 1-0.1 0.3 0 0.5 0 0.6 0 0.2 0 0.4 0 0.5 0 0.3-0.6 0.4-1.3 0.5-2H93.4zM99.2 80.8v0.4h2.9v-0.4h-0.1c-0.5 0-0.7-0.2-0.7-0.8v-4.5c0-0.6 0.2-0.8 0.7-0.8h0.2v-0.4h-2.9v0.4h0.1c0.5 0 0.8 0.2 0.7 0.8v1.7h-3v-1.8c0-0.6 0.2-0.8 0.7-0.8h0.1v-0.4H95v0.4h0.1c0.4 0 0.7 0.3 0.7 0.8V80c0 0.6-0.2 0.8-0.7 0.8H95v0.4h2.9v-0.4h-0.1c-0.5 0-0.7-0.3-0.7-0.8v-2h3v2c0 0.6-0.2 0.9-0.7 0.9H99.2zM103.1 74.7h0.1c0.5 0 0.7 0.2 0.7 0.8V80c0 0.5-0.2 0.8-0.7 0.8h-0.1v0.4h2.9v-0.4h-0.1c-0.5 0-0.7-0.2-0.7-0.8v-4.4c0-0.6 0.2-0.8 0.7-0.8h0.1v-0.4h-2.9V74.7zM108.3 75.7l4.3 5.6h0.5v-5.9c0-0.4 0.2-0.6 0.7-0.6h0.1v-0.4h-2.3v0.4h0.1c0.4 0 0.6 0.1 0.7 0.2 0.1 0.1 0.1 0.4 0.1 0.8v3.4l-3.7-4.8H107v0.4c0.3 0 0.5 0.1 0.7 0.2v5.2c0 0.5-0.2 0.7-0.7 0.7H107v0.4h2.2v-0.4c-0.6 0.1-0.9-0.2-0.9-0.9V75.7zM118.7 78.7l0.4 1.3c0.1 0.3 0.1 0.5 0.1 0.6 -0.1 0.1-0.2 0.2-0.5 0.2h-0.3v0.4h2.9v-0.4c-0.4 0-0.7-0.3-0.9-1l-1.8-5.7h-1.3l0.1 0.3 -1.6 5.3c-0.2 0.7-0.5 1.1-0.9 1.1h-0.1v0.4h2.4v-0.4h-0.1c-0.4 0-0.6-0.1-0.7-0.2 -0.1-0.1-0.1-0.3 0-0.7l0.4-1.3H118.7zM118.5 78.1h-1.6l0.8-2.6L118.5 78.1zM129 74.7h0.1c0.5 0 0.8 0.3 0.7 1.1v2.7c0 1.3-0.6 2-1.8 2.1 -1.1 0-1.6-0.6-1.6-1.8v-3.3c0-0.5 0.2-0.7 0.6-0.7h0.1v-0.4h-2.8v0.4h0.2c0.4 0 0.7 0.2 0.6 0.7v3.3c0 1.7 0.9 2.5 2.6 2.5 1.7 0 2.5-1 2.5-2.9v-2.8c0-0.6 0.2-0.9 0.8-0.9h0.1v-0.4H129V74.7zM133.4 75.7l4.3 5.6h0.5v-5.9c0-0.4 0.2-0.6 0.7-0.6h0.1v-0.4h-2.3v0.4h0.1c0.4 0 0.6 0.1 0.7 0.2 0.1 0.1 0.1 0.4 0.1 0.8v3.4l-3.7-4.8h-1.8v0.4c0.3 0 0.5 0.1 0.7 0.2v5.2c0 0.5-0.2 0.7-0.7 0.7h-0.1v0.4h2.2v-0.4c-0.6 0.1-0.9-0.2-0.9-0.9V75.7zM140.1 74.7h0.1c0.5 0 0.7 0.2 0.7 0.8V80c0 0.5-0.2 0.8-0.7 0.8h-0.1v0.4h2.9v-0.4h-0.1c-0.5 0-0.7-0.2-0.7-0.8v-4.4c0-0.6 0.2-0.8 0.7-0.8h0.1v-0.4h-2.9V74.7zM146.9 81.3h0.6l1.9-5.4c0.3-0.8 0.6-1.2 1.1-1.2h0v-0.4h-2.3v0.4h0.2c0.5 0 0.7 0.2 0.6 0.6l-1.4 4.1 -1.4-3.8c-0.1-0.3-0.2-0.6-0.1-0.7 0.1-0.1 0.3-0.2 0.7-0.2h0.1v-0.4h-3.1v0.4h0.1c0.3 0 0.4 0.1 0.6 0.2 0.1 0.1 0.2 0.3 0.4 0.7L146.9 81.3zM155.4 74.9c0.4-0.1 0.6 0.3 0.6 1h0.4l-0.1-1.6h-5v0.4h0.1c0.5 0 0.8 0.2 0.8 0.8V80c0 0.6-0.2 0.8-0.7 0.8h-0.4v0.4h5.4l0.1-1.7h-0.4c-0.1 0.8-0.5 1.2-1 1.1h-1.5c-0.3 0.1-0.4-0.1-0.4-0.6v-2h1.3c0.6-0.1 0.9 0.2 0.8 0.8h0.4v-2.2h-0.4c0 0.6-0.2 0.8-0.7 0.8h-1.5v-2.5H155.4zM159.8 78.3h0.7c0.2 0.2 0.6 0.7 1 1.4 0.3 0.5 0.5 0.8 0.6 1 0.2 0.3 0.5 0.5 0.7 0.6 0.3 0.1 0.7 0.1 1.2 0.1 0.2 0 0.4 0 0.6 0v-0.3c-0.5 0-0.9-0.3-1.2-0.7 -0.2-0.2-0.4-0.6-0.7-1.1 -0.3-0.6-0.6-0.9-0.8-1.2 0.9-0.3 1.3-0.9 1.3-1.8 0-0.5-0.1-0.9-0.4-1.3 -0.4-0.6-1.2-0.8-2.5-0.8 -0.3 0-0.8 0-1.5 0.1 -0.2 0-0.5 0-0.9 0 -0.1 0-0.2 0-0.2 0v0.4h0.2c0.5 0 0.8 0.2 0.7 0.8V80c0 0.6-0.2 0.9-0.8 0.8h-0.1v0.4h3.1v-0.4h-0.3c-0.5 0-0.7-0.3-0.7-0.8V78.3zM159.8 74.6h0.5c1 0 1.6 0.6 1.6 1.6 0 1.1-0.6 1.6-1.7 1.6h-0.4V74.6zM165.8 81.2h0.2c0-0.1 0.1-0.2 0.2-0.2 0 0 0.2 0 0.3 0.1 0.5 0.1 0.9 0.2 1.2 0.2 1.2-0.1 1.8-0.7 1.9-2 0-0.5-0.2-1-0.5-1.5 -0.3-0.4-0.8-0.7-1.4-1.1 -0.7-0.5-1.1-0.9-1.1-1.3 0-0.5 0.3-0.8 0.9-0.8 0.7 0 1.2 0.5 1.5 1.5h0.4l-0.2-1.8h-0.2c0 0-0.1 0 0 0 -0.1 0.1-0.1 0.1-0.2 0.1 0 0-0.1 0-0.2-0.1 -0.4-0.1-0.8-0.2-1.1-0.2 -1.2 0.1-1.8 0.7-1.8 1.8 0.1 1.1 0.7 1.8 1.6 2.2 0.8 0.4 1.2 0.9 1.3 1.6 0 0.7-0.4 1.1-1 1.1 -0.8 0-1.3-0.6-1.6-1.7h-0.4L165.8 81.2zM171 74.7h0.1c0.5 0 0.7 0.2 0.7 0.8V80c0 0.5-0.2 0.8-0.7 0.8H171v0.4h2.9v-0.4h-0.1c-0.5 0-0.7-0.2-0.7-0.8v-4.4c0-0.6 0.2-0.8 0.7-0.8h0.1v-0.4H171V74.7zM178.6 74.9h1.1c0.4 0 0.6 0.1 0.7 0.2 0.1 0.1 0.2 0.5 0.3 1.1h0.4l-0.1-2.1h-0.3c-0.1 0.2-0.2 0.2-0.4 0.2h-4.3c-0.1 0-0.2 0-0.2 0 0 0-0.1-0.1-0.2-0.2h-0.3l-0.2 2.1h0.4c0.1-0.6 0.2-1 0.3-1.1 0.1-0.1 0.3-0.2 0.7-0.2h1.1V80c0 0.6-0.2 0.8-0.7 0.8h-0.3v0.4h3.2v-0.4h-0.2c-0.6 0-0.8-0.2-0.8-0.8V74.9zM186 78.4l1.5-2.9c0.2-0.3 0.3-0.5 0.4-0.6 0.1-0.1 0.3-0.1 0.6-0.2v-0.4h-2.2v0.4h0.1c0.3 0 0.4 0.1 0.5 0.2 0 0.1 0 0.4-0.1 0.7l-1.1 2.1 -1.4-2.4c-0.1-0.2-0.1-0.3 0-0.4 0.1-0.1 0.2-0.1 0.4-0.1h0.1v-0.4h-3v0.4h0.1c0.2 0 0.4 0 0.5 0.1 0.1 0.1 0.2 0.2 0.3 0.4l1.9 3.2V80c0 0.5-0.2 0.8-0.7 0.8h-0.2v0.4h3.1v-0.4h-0.1c-0.6 0-0.8-0.2-0.8-0.8V78.4zM192.1 77.9c0.2 2.2 1.3 3.3 3.3 3.5 2.1-0.1 3.3-1.3 3.4-3.7 -0.1-2.2-1.2-3.4-3.2-3.5C193.4 74.2 192.2 75.5 192.1 77.9zM193.4 77.4c0.1-1.8 0.7-2.7 1.9-2.8 1.3 0.1 2 1.3 2.1 3.5 -0.1 1.9-0.7 2.8-1.9 2.9C194.2 80.8 193.5 79.6 193.4 77.4zM202.1 74.9h1.8c0.4-0.1 0.6 0.3 0.6 1h0.3v-1.6h-4.6v0.4h0.1c0.4 0 0.6 0.3 0.6 1v4.5c0 0.5-0.2 0.7-0.5 0.7h-0.1v0.4h2.7v-0.4h-0.2c-0.4 0.1-0.6-0.3-0.6-1v-1.8h1.4c0.4 0 0.7 0.2 0.6 0.8h0.4v-2.2h-0.4c0 0.6-0.2 0.8-0.8 0.8h-1.3V74.9zM210.5 78.3c0.1 0 0.3 0.1 0.4 0.1 0.1 0 0.3 0 0.6 0 1.5-0.1 2.2-0.8 2.3-2.1 -0.1-1.4-0.9-2.2-2.5-2.2 -0.5 0-1 0-1.4 0 -0.6 0-1.1 0.1-1.4 0.1v0.4h0.2c0.5 0 0.7 0.2 0.6 0.7v4.8c0 0.5-0.2 0.7-0.6 0.7h-0.1v0.4h3.1v-0.4h-0.2c-0.6 0.1-0.8-0.2-0.8-0.8V78.3zM210.5 74.7c0.2-0.1 0.4-0.1 0.6-0.1 0.8 0 1.3 0.6 1.3 1.6 0 1.1-0.5 1.7-1.3 1.7 -0.2 0-0.4 0-0.6-0.1V74.7zM218.9 74.9c0.4-0.1 0.6 0.3 0.6 1h0.4l-0.1-1.6h-5v0.4h0.1c0.5 0 0.8 0.2 0.8 0.8V80c0 0.6-0.2 0.8-0.7 0.8h-0.4v0.4h5.4l0.1-1.7h-0.4c-0.1 0.8-0.5 1.2-1 1.1h-1.5c-0.3 0.1-0.4-0.1-0.4-0.6v-2h1.3c0.6-0.1 0.9 0.2 0.8 0.8h0.4v-2.2h-0.4c0 0.6-0.2 0.8-0.7 0.8h-1.5v-2.5H218.9zM225 74.9h1.1c0.4 0 0.6 0.1 0.7 0.2 0.1 0.1 0.2 0.5 0.3 1.1h0.4l-0.1-2.1h-0.3c-0.1 0.2-0.2 0.2-0.4 0.2h-4.3c-0.1 0-0.2 0-0.2 0 0 0-0.1-0.1-0.2-0.2h-0.3l-0.2 2.1h0.4c0.1-0.6 0.2-1 0.3-1.1 0.1-0.1 0.3-0.2 0.7-0.2h1.1V80c0 0.6-0.2 0.8-0.7 0.8h-0.3v0.4h3.2v-0.4h-0.2c-0.6 0-0.8-0.2-0.8-0.8V74.9zM230.5 78.3h0.7c0.2 0.2 0.6 0.7 1 1.4 0.3 0.5 0.5 0.8 0.6 1 0.2 0.3 0.5 0.5 0.7 0.6 0.3 0.1 0.7 0.1 1.2 0.1 0.2 0 0.4 0 0.6 0v-0.3c-0.5 0-0.9-0.3-1.2-0.7 -0.2-0.2-0.4-0.6-0.7-1.1 -0.3-0.6-0.6-0.9-0.8-1.2 0.9-0.3 1.3-0.9 1.3-1.8 0-0.5-0.1-0.9-0.4-1.3 -0.4-0.6-1.2-0.8-2.5-0.8 -0.3 0-0.8 0-1.5 0.1 -0.2 0-0.5 0-0.9 0 -0.1 0-0.2 0-0.2 0v0.4h0.2c0.5 0 0.8 0.2 0.7 0.8V80c0 0.6-0.2 0.9-0.8 0.8h-0.1v0.4h3.1v-0.4h-0.3c-0.5 0-0.7-0.3-0.7-0.8V78.3zM230.5 74.6h0.5c1 0 1.6 0.6 1.6 1.6 0 1.1-0.6 1.6-1.7 1.6h-0.4V74.6zM236.2 77.9c0.2 2.2 1.3 3.3 3.3 3.5 2.1-0.1 3.3-1.3 3.4-3.7 -0.1-2.2-1.2-3.4-3.2-3.5C237.5 74.2 236.4 75.5 236.2 77.9zM237.6 77.4c0.1-1.8 0.7-2.7 1.9-2.8 1.3 0.1 2 1.3 2.1 3.5 -0.1 1.9-0.7 2.8-1.9 2.9C238.4 80.8 237.7 79.6 237.6 77.4zM249.6 79.3h-0.4c0 0.1-0.1 0.1-0.2 0.3 -0.4 0.8-0.8 1.2-1.2 1.1h-1.2c-0.3 0-0.5-0.1-0.5-0.5v-4.6c0-0.5 0.2-0.8 0.7-0.8h0.3v-0.4h-3.1v0.4h0.2c0.5 0 0.7 0.2 0.7 0.8V80c0 0.6-0.2 0.8-0.7 0.8h-0.2v0.4h4.9L249.6 79.3zM254.3 74.9c0.4-0.1 0.6 0.3 0.6 1h0.4l-0.1-1.6h-5v0.4h0.1c0.5 0 0.8 0.2 0.8 0.8V80c0 0.6-0.2 0.8-0.7 0.8H250v0.4h5.4l0.1-1.7h-0.4c-0.1 0.8-0.5 1.2-1 1.1h-1.5c-0.3 0.1-0.4-0.1-0.4-0.6v-2h1.3c0.6-0.1 0.9 0.2 0.8 0.8h0.4v-2.2h-0.4c0 0.6-0.2 0.8-0.7 0.8h-1.5v-2.5H254.3zM261.1 74.7h0.1c0.5 0 0.8 0.3 0.7 1.1v2.7c0 1.3-0.6 2-1.8 2.1 -1.1 0-1.6-0.6-1.6-1.8v-3.3c0-0.5 0.2-0.7 0.6-0.7h0.1v-0.4h-2.8v0.4h0.2c0.4 0 0.7 0.2 0.6 0.7v3.3c0 1.7 0.9 2.5 2.6 2.5 1.7 0 2.5-1 2.5-2.9v-2.8c0-0.6 0.2-0.9 0.8-0.9h0.1v-0.4h-2.3V74.7zM267.7 81.2h0.2l2-5.7 0 0 0.2 4c0 0.2 0 0.3 0 0.5 0 0.6-0.2 0.8-0.7 0.7h-0.1v0.4h2.8v-0.4c-0.4 0-0.6-0.1-0.6-0.2 -0.1-0.1-0.1-0.4-0.1-0.9l-0.2-4.2c0-0.4 0-0.6 0-0.7 0-0.1 0.2-0.1 0.6-0.1v-0.4h-1.9l-1.7 4.7 -1.8-4.7h-1.9v0.4c0.3 0 0.5 0.1 0.5 0.2 0.1 0.1 0.1 0.3 0.1 0.7l-0.2 4.1c0 0.5 0 0.8-0.1 1 -0.1 0.1-0.3 0.2-0.6 0.2v0.4h2v-0.4c-0.3 0-0.5-0.1-0.6-0.2 -0.1-0.1-0.1-0.4-0.1-0.9l0.2-4 0 0L267.7 81.2z"/><path fill="#E60012" d="M259.1 57.7c-0.4 0.7-0.7 1.3-0.9 2.1 -0.3 0.9-0.4 1.7-0.4 2.6 0 0.8 0.1 1.7 0.4 2.6 0.2 0.7 0.5 1.4 0.9 2.1h-0.7c-0.4-0.6-0.8-1.3-1-2.1 -0.3-0.9-0.4-1.7-0.4-2.6 0-0.9 0.1-1.8 0.4-2.6 0.2-0.7 0.6-1.4 1-2.1H259.1zM260.5 61.4l-0.2-0.7c1.2-0.8 2.2-1.7 2.7-2.8l0.6 0.3c-0.3 0.6-0.7 1.1-1.1 1.6V63h-0.7v-2.6C261.4 60.7 261 61 260.5 61.4zM264.3 63.8v-1h0.7v1h4v0.7h-4V67h-0.7v-2.5h-3.9v-0.7H264.3zM265.9 62.7c-0.6 0-0.9-0.3-0.9-0.9V61c-0.5 0.2-1 0.4-1.5 0.6l-0.4-0.6c0.7-0.2 1.3-0.5 1.9-0.7V58h0.7v2c1-0.5 1.9-1.1 2.5-1.7l0.5 0.5c-0.9 0.7-1.9 1.4-3 1.9v0.9c0 0.2 0.1 0.3 0.4 0.3h1.5c0.3 0 0.4 0 0.6-0.2 0.1-0.1 0.2-0.5 0.3-1.2l0.7 0.2c-0.1 0.8-0.2 1.4-0.5 1.5 -0.2 0.2-0.5 0.2-0.9 0.2H265.9zM273.1 64.1c-0.7 0.9-1.5 1.7-2.4 2.4l-0.5-0.6c1-0.6 1.7-1.4 2.4-2.2L273.1 64.1zM273 59c0.2-0.4 0.4-0.8 0.5-1.3l0.7 0.2c-0.2 0.4-0.3 0.8-0.5 1.1h5.1v0.7h-5.4c-0.5 0.9-1 1.8-1.6 2.5h2.7v-1.5h0.7v1.5h3.1v0.7h-3.1v3.2c0 0.6-0.3 0.9-1 0.9h-1l-0.2-0.7c0.3 0 0.6 0 0.9 0 0.3 0 0.5-0.1 0.5-0.4v-3h-3.5l-0.2-0.6c0.6-0.7 1.2-1.5 1.7-2.5h-2.1V59H273zM279.2 66l-0.5 0.5c-0.5-0.8-1.3-1.6-2.2-2.4l0.5-0.5C277.8 64.4 278.6 65.2 279.2 66zM281.2 57.7c0.4 0.6 0.8 1.3 1 2.1 0.3 0.9 0.4 1.7 0.4 2.6 0 0.9-0.2 1.7-0.4 2.6 -0.3 0.7-0.6 1.4-1 2.1h-0.7c0.4-0.7 0.7-1.4 0.9-2.1 0.3-0.9 0.4-1.7 0.4-2.6 0-0.9-0.1-1.7-0.4-2.6 -0.2-0.7-0.5-1.4-0.9-2.1H281.2z"/></svg>