<?xml version="1.0" encoding="utf-8"?>
<!-- Generator: Adobe Illustrator 19.2.1, SVG Export Plug-In . SVG Version: 6.00 Build 0)  -->
<svg version="1.2" baseProfile="tiny" id="图层_1"
	 xmlns="http://www.w3.org/2000/svg" xmlns:xlink="http://www.w3.org/1999/xlink" x="0px" y="0px" viewBox="0 0 100 100"
	 xml:space="preserve">
<g>
	<path fill="#FFFFFF" d="M11,12.7c0,0,18.4-7.9,32.8-9.8c10.7,0.2,28.5,2.1,43.3,9.6c0,0,0,40.6-0.4,42.7c-0.2,3.4-4,21.8-15.3,30.3
		c-4.4,4-17.2,11.7-22.2,11.9c-2.5-0.4-24.9-7.1-32.6-24.5c-1-2.5-4.8-11.3-5-18.8L11,12.7z"/>
	<g>
		<path fill="#2D2685" d="M49.2,2C29.9,2,10.5,12.6,10.5,12.6s0,38.9,1,45.6C16.4,91.8,49.2,98,49.2,98s32.7-6.2,37.7-39.8
			c1-6.7,1-45.6,1-45.6S68.5,2,49.2,2z M85.8,58C81,90.9,49.2,96.9,49.2,96.9S17.3,90.9,12.6,58c-1-6.6-1-44.8-1-44.8S30.4,3,49.2,3
			C68,3,86.8,13.2,86.8,13.2S86.8,51.4,85.8,58z"/>
		<path fill="#2D2685" d="M49.2,4.2c-18.2,0-36.4,9.9-36.4,9.9s0,37.2,1,43.6c4.6,31.7,35.5,38.1,35.5,38.1S80,89.5,84.7,57.7
			c0.9-6.3,1-43.6,1-43.6S67.4,4.2,49.2,4.2z M84.3,57.7c-4.6,31.5-35.1,37.7-35.1,37.7s-30.5-6.3-35.1-37.7
			c-0.9-6.3-0.9-43.3-0.9-43.3s18.1-9.8,36-9.8c18,0,36,9.8,36,9.8S85.2,51.4,84.3,57.7z"/>
		<path fill-rule="evenodd" fill="#1F2B6A" d="M18.4,23.7l0.4,1.2H20L19,25.6l0.4,1.2l-1-0.7l-1,0.7l0.4-1.2l-1.1-0.7H18L18.4,23.7
			L18.4,23.7z"/>
		<path fill-rule="evenodd" fill="#1F2B6A" d="M80,23.7l0.4,1.2h1.3l-1.1,0.7l0.4,1.2l-1-0.7l-1,0.7l0.4-1.2l-1.1-0.7h1.3L80,23.7
			L80,23.7z"/>
		<path fill="#1F2B6A" d="M74.7,24.8c0,0-12.8-6.5-25.5-6.5c-12.7,0-25.5,6.5-25.5,6.5s0,29.5,0.7,34C27.6,81,49.2,84.5,49.2,84.5
			S70.8,81,74,58.8C74.7,54.4,74.7,24.8,74.7,24.8z"/>
		<path fill="#1F2B6A" d="M18.2,31.2l0,1.1c0,0.4,0,1.2-0.8,1.2c-0.8,0-0.8-0.8-0.8-1.1l0-1.1L18.2,31.2z M16.1,30.5l0,1.8
			c0,0.3,0,0.6,0.2,1c0.2,0.4,0.6,0.7,1.2,0.7c0.4,0,0.9-0.1,1.1-0.9c0.3,0.6,0.8,0.6,1,0.6c0.3,0,0.7-0.2,0.9-0.4
			c0.3-0.3,0.3-0.8,0.3-1.1l0-1.7L16.1,30.5z M20.1,31.2l0,0.9c0,0.5,0,1.1-0.7,1.1c-0.7,0-0.7-0.6-0.7-1.1l0-1L20.1,31.2z"/>
		<path fill="#1F2B6A" d="M20.7,35.5l0,3.3l-0.5,0l0-2.7l-1.4,0l0,2.6l-0.6,0l0-2.6l-1.6,0l0,2.8l-0.5,0l0-3.4L20.7,35.5z"/>
		<path fill="#1F2B6A" d="M20.8,40.5l0,0.6l-4.6,0.1l0-0.6L20.8,40.5z"/>
		<path fill="#1F2B6A" d="M17.6,43.2c-0.3,0-0.9,0.1-0.9,0.7c0,0.7,0.6,0.7,1,0.7l3.2-0.1l0,0.6l-3.1,0.1c-0.4,0-1.6,0.1-1.6-1.2
			c0-0.4,0-1.1,1-1.2c0.2,0,0.3,0,0.4,0L17.6,43.2z"/>
		<path fill="#1F2B6A" d="M21,46.8l0,0.6l-4.6,0.2l0-0.6L21,46.8z"/>
		<path fill="#1F2B6A" d="M21.1,49.2l0,0.6l-3.5,2.6v0l3.6-0.2l0,0.6L16.6,53l0-0.6l3.5-2.6v0L16.5,50l0-0.6L21.1,49.2z"/>
		<path fill="#1F2B6A" d="M19.2,56.7l0.1,1.9l-1.7,0.1c-0.2-0.2-0.8-0.9-0.8-1.9c-0.1-1.4,0.7-2.4,2.2-2.5c0.9-0.1,2.4,0.3,2.6,2.2
			c0.1,1.5-0.9,1.9-1.2,2L20.1,58c0.3-0.1,1-0.3,0.9-1.4C20.9,55,19.5,55,19.1,55c-0.5,0-1,0.2-1.3,0.5c-0.3,0.3-0.5,0.9-0.4,1.3
			c0,0.7,0.5,1.2,0.6,1.3l0.9-0.1l-0.1-1.4L19.2,56.7z"/>
		<path fill="#1F2B6A" d="M22.6,64.4l1,2.9l-0.5,0.2l-0.8-2.4l-1.4,0.5l0.7,2l-0.5,0.2l-0.7-2.1l-2,0.7l-0.2-0.6L22.6,64.4z"/>
		<path fill="#1F2B6A" d="M22.2,70c0.1-0.1,0.7-0.4,1.3-0.4c0.5,0,0.9,0.4,1.2,0.8c0.4,0.7,0.3,1.6-0.9,2.3c-1.1,0.6-2,0.3-2.4-0.5
			C20.9,71.4,21.2,70.5,22.2,70z M21.9,69.4c-1,0.6-1.7,1.8-1,3.1c0.6,1.1,1.8,1.5,3.2,0.8c1.3-0.7,1.6-2,1-3.1
			C24.5,69.1,23.3,68.6,21.9,69.4z"/>
		<path fill="#1F2B6A" d="M26.8,73.9l0.9,1.1c0.2,0.2,0.3,0.3,0.3,0.6c0,0.2,0,0.5-0.3,0.7c-0.2,0.2-0.5,0.2-0.8,0.1
			c-0.2-0.1-0.4-0.3-0.6-0.5l-0.8-1L26.8,73.9z M23.2,76l0.4,0.5l1.6-1.3l0.5,0.5c0.3,0.4,0.4,0.6,0,1.8l-0.4,1.1l0.5,0.6l0.5-1.4
			c0.2-0.6,0.2-0.9,0.1-1.2l0,0c0.6,0.5,1.2,0.7,1.8,0.2c0.4-0.3,0.6-0.8,0.4-1.3c-0.1-0.3-0.3-0.5-0.5-0.8l-1.3-1.6L23.2,76z"/>
		<path fill="#1F2B6A" d="M30.1,76.9l2.5,2.2l-0.4,0.4l-2-1.8l-0.9,1l1.9,1.7l-0.4,0.4l-1.9-1.7l-1,1.2l2.1,1.9l-0.4,0.4L27,80.3
			L30.1,76.9z"/>
		<path fill="#1F2B6A" d="M33.8,80.1l0.5,0.4l-2.8,3.7l-0.5-0.4L33.8,80.1z"/>
		<path fill="#1F2B6A" d="M36.2,84.4l1.7,1L37,86.9c-0.3,0-1.2,0.1-2-0.4c-1.2-0.7-1.5-2-0.8-3.3c0.5-0.8,1.6-1.8,3.2-0.8
			c1.3,0.8,1,1.8,0.9,2.1l-0.5-0.2c0.1-0.3,0.3-1-0.6-1.5c-1.3-0.8-2.2,0.3-2.4,0.7c-0.3,0.4-0.4,0.9-0.3,1.4
			c0.1,0.5,0.4,0.9,0.8,1.1c0.6,0.4,1.3,0.3,1.4,0.3l0.4-0.7l-1.2-0.7L36.2,84.4z"/>
		<path fill="#1F2B6A" d="M40.3,84.2l0.6,0.3l0.6,4.3l0,0l1.5-3.3l0.5,0.2l-2,4.2L41,89.6l-0.6-4.3l0,0l-1.5,3.3l-0.5-0.2L40.3,84.2
			z"/>
		<path fill="#1F2B6A" d="M48.7,91.1c0,0.1,0.1,0.3,0.3,0.4c0.4,0.4,1,0.3,1.4,0.2c0.6-0.2,1-0.6,0.9-1.1c-0.2-0.5-0.6-0.5-1.6-0.5
			c-0.6,0-1.5,0.1-1.8-0.8C47.6,88.7,48,88,49,87.7c1-0.3,1.8,0,2.1,0.8l-0.6,0.2c-0.1-0.3-0.4-0.8-1.3-0.5c-0.4,0.1-1,0.4-0.8,1
			c0.1,0.4,0.4,0.5,1.3,0.4c0.9-0.1,1.9-0.1,2.1,0.8c0.2,0.7-0.2,1.5-1.3,1.8c-1.1,0.3-1.7,0-2.1-0.4c-0.2-0.2-0.2-0.4-0.3-0.5
			L48.7,91.1z"/>
		<path fill="#1F2B6A" d="M53.1,86.9l-1.4,0.6L51.5,87l3.4-1.3l0.2,0.5l-1.4,0.6l1.5,3.8l-0.6,0.2L53.1,86.9z"/>
		<path fill="#1F2B6A" d="M59,83.6l1.2,2.4c0.3,0.5,0.9,1.8-0.7,2.6c-1.6,0.8-2.2-0.3-2.5-1l-1.2-2.4l0.5-0.3l1.2,2.4
			c0.2,0.5,0.7,1.3,1.7,0.8c1-0.5,0.8-1.1,0.4-1.9l-1.2-2.4L59,83.6z"/>
		<path fill="#1F2B6A" d="M61,83.1l0.8-0.5c0.3-0.2,0.7-0.4,1.1-0.4c0.6,0.1,0.9,0.5,1.2,0.9c1,1.5,0.1,2.1-0.4,2.4l-0.8,0.5
			L61,83.1z M62.6,86.9l1.4-0.9c0.5-0.3,0.9-0.7,1-1.2c0.1-0.5,0-1.2-0.4-1.9c-0.5-0.8-1-1-1.4-1.2c-0.7-0.2-1.3,0.1-1.7,0.4
			L60.2,83L62.6,86.9z"/>
		<path fill="#1F2B6A" d="M64.3,80.2l0.5-0.4l2.8,3.7l-0.5,0.4L64.3,80.2z"/>
		<path fill="#1F2B6A" d="M65.9,79.1l2.5-2.2l0.4,0.4l-2,1.8l1,1l1.9-1.7l0.4,0.4L68,80.5l1,1.2l2.1-1.9l0.4,0.4L69,82.5L65.9,79.1z
			"/>
		<path fill="#1F2B6A" d="M71.7,77.7c0.1,0.1,0.2,0.2,0.4,0.2c0.5,0.1,1-0.3,1.3-0.6c0.4-0.5,0.5-1.1,0.1-1.4
			c-0.4-0.4-0.8-0.1-1.6,0.5c-0.5,0.4-1.2,0.9-2,0.3c-0.6-0.5-0.6-1.3,0.1-2.1c0.6-0.8,1.5-1,2.2-0.4l-0.3,0.5
			c-0.3-0.2-0.8-0.4-1.4,0.3c-0.3,0.3-0.6,0.9-0.2,1.3c0.3,0.3,0.6,0.2,1.3-0.4c0.7-0.5,1.5-1.1,2.3-0.5c0.6,0.5,0.6,1.4,0,2.2
			c-0.7,0.8-1.4,1-2,0.8c-0.3-0.1-0.4-0.2-0.5-0.3L71.7,77.7z"/>
		<path fill="#1F2B6A" d="M74.7,67.6l2.4,1.2c0.5,0.3,1.8,0.9,1,2.5c-0.8,1.6-1.9,1.1-2.6,0.7l-2.4-1.2l0.3-0.5l2.4,1.2
			c0.5,0.2,1.3,0.7,1.8-0.4c0.5-1,0-1.4-0.8-1.8l-2.4-1.2L74.7,67.6z"/>
		<path fill="#1F2B6A" d="M75.1,66.5l0.2-0.6l4.2-1.3l0,0L76,63.6l0.2-0.6l4.4,1.3L80.4,65l-4.2,1.3v0l3.5,1l-0.2,0.6L75.1,66.5z"/>
		<path fill="#1F2B6A" d="M76.4,61.8l0.1-0.6L81,62l-0.1,0.6L76.4,61.8z"/>
		<path fill="#1F2B6A" d="M76.6,60.3l0-0.6l3.4-0.9l0.1,0c0.3-0.1,0.3-0.1,0.7-0.1v0c-0.3-0.1-0.5-0.2-0.7-0.3l-3.2-1.5l0-0.6
			l4.5,2.2l-0.1,0.6L76.6,60.3z"/>
		<path fill="#1F2B6A" d="M77,55.2l0.2-3.3l0.6,0l-0.2,2.7l1.4,0.1l0.1-2.6l0.5,0l-0.1,2.6l1.6,0.1l0.2-2.8l0.6,0l-0.2,3.4L77,55.2z
			"/>
		<path fill="#1F2B6A" d="M77.8,49.9l0.1-1.5c0-0.2,0-0.4,0.2-0.6c0.1-0.2,0.4-0.3,0.6-0.3c0.3,0,0.5,0.2,0.6,0.4
			c0.1,0.3,0.1,0.5,0.1,0.7L79.3,50L77.8,49.9z M81.9,50.7l0-0.6l-2-0.1l0-0.7c0-0.5,0.1-0.7,1.1-1.3l1-0.6l0-0.8l-1.3,0.7
			c-0.6,0.3-0.8,0.6-0.9,0.8l0,0c-0.1-0.8-0.4-1.3-1.2-1.3c-0.5,0-1,0.2-1.2,0.7c-0.1,0.3-0.1,0.6-0.2,0.9l-0.1,2L81.9,50.7z"/>
		<path fill="#1F2B6A" d="M80.6,45.2c0.1,0,0.3,0,0.5-0.1c0.5-0.2,0.6-0.9,0.6-1.2c0-0.6-0.2-1.2-0.7-1.2c-0.5,0-0.7,0.4-0.9,1.4
			c-0.2,0.6-0.4,1.5-1.3,1.5c-0.7,0-1.3-0.6-1.2-1.7c0-1,0.5-1.7,1.4-1.7l0,0.6c-0.3,0-0.9,0.1-0.9,1.1c0,0.4,0.1,1.1,0.7,1.1
			c0.4,0,0.6-0.2,0.8-1.1c0.2-0.8,0.5-1.8,1.5-1.8c0.8,0,1.4,0.7,1.3,1.8c0,1.1-0.5,1.6-1.1,1.8c-0.2,0.1-0.4,0.1-0.6,0.1L80.6,45.2
			z"/>
		<path fill="#1F2B6A" d="M77.6,40.7l0-0.6l4.6,0.1l0,0.6L77.6,40.7z"/>
		<path fill="#1F2B6A" d="M78.2,37.5l0,1.5l-0.5,0l0.1-3.7l0.5,0l0,1.5l4.1,0.1l0,0.6L78.2,37.5z"/>
		<path fill="#1F2B6A" d="M80.4,33l-2.6,1.8l0-0.7l1.4-0.9c0.4-0.2,0.5-0.3,0.8-0.5c-0.3-0.2-0.8-0.5-0.8-0.5l-1.4-0.9l0-0.7
			l2.7,1.8l2,0V33L80.4,33z"/>
		<path fill="#1F2B6A" d="M21.3,20.1l0.1-0.1L20.7,18l-0.9,0.4c-0.1,0-0.3,0.2-0.7,0.3c0-0.1,0-0.2-0.1-0.2c0,0,0-0.1,0-0.1
			c0,0-0.1-0.1-0.2-0.3c0.2-0.1,0.5-0.2,0.7-0.3l0.9-0.4l-0.3-0.7l-0.3-0.6l-0.3-0.7c0.2-0.1,0.4-0.1,0.4-0.1c0,0,0.1-0.1,0.4-0.2
			c0.1,0.3,0.2,0.6,0.3,0.7c0.1,0.2,0.1,0.4,0.2,0.5l1.4,3.5c0.1,0.3,0.2,0.5,0.3,0.7l0.2,0.5c-0.2,0.1-0.3,0.1-0.4,0.1
			c0,0-0.2,0.1-0.3,0.2c-0.1-0.1-0.1-0.3-0.1-0.4c0-0.1-0.1-0.2-0.1-0.2l-0.2-0.4l-0.4,0.4c-0.4,0.3-0.7,0.7-1,0.9
			c-0.2-0.2-0.3-0.3-0.3-0.4l-0.2-0.2C20.4,20.7,21,20.4,21.3,20.1z M21.4,14.8c0,0,0.1-0.1,0.3-0.2c0.1,0.3,0.2,0.5,0.2,0.6
			c0.1,0.2,0.1,0.3,0.2,0.6l0.5,1.3l0.1-0.2c0.4-0.4,0.6-0.9,0.9-1.3l0.1-0.1c0.2,0.2,0.4,0.3,0.7,0.4l-0.4,0.4L23.6,17L23,17.7
			l0.7,1.8c0.1,0.2,0.2,0.3,0.2,0.4c0.1,0,0.2,0,0.3-0.1l0.3-0.1c0.2-0.1,0.4-0.2,0.4-0.2c0-0.1,0.1-0.2,0.1-0.2c0-0.1,0-0.2,0-0.3
			L25,18.7l0-0.1c0.2,0.1,0.3,0.1,0.4,0.1c0.1,0,0.3,0,0.4,0l0,0.1c0,0,0,0.1,0,0.3c0,0.2,0,0.3,0,0.4c0,0.1-0.1,0.2-0.1,0.3
			c-0.1,0.1-0.2,0.2-0.4,0.3l-0.8,0.3c-0.2,0.1-0.4,0.1-0.5,0.2c-0.2,0-0.3,0-0.4-0.1c-0.1-0.1-0.2-0.3-0.3-0.6l-1.6-3.9
			c-0.1-0.2-0.2-0.4-0.2-0.5l-0.3-0.6C21.3,14.9,21.4,14.8,21.4,14.8z"/>
		<path fill="#1F2B6A" d="M29.3,14.6l3.1-1l0.3,1l-3.1,1L29.3,14.6z M28.7,18.2l0.4,0.1c0,0,0.1,0,0.2,0.1l0.1-0.1
			c0-0.1,0.1-0.2,0.3-0.5c0.2-0.2,0.3-0.5,0.4-0.7c0.1-0.2,0.2-0.4,0.3-0.4l0.1-0.2c-0.2,0-0.4-0.1-0.6-0.2l-0.1,0.2
			c-0.3,0.6-0.6,1.1-1,1.6L28.7,18.2z M27.3,13.7c0,0,0,0.1,0,0.1c0,0,0,0.1,0,0.2c0.5-0.2,0.8-0.3,0.9-0.3l4.4-1.4
			c0.1,0,0.5-0.1,1-0.2c-0.1-0.2-0.1-0.3-0.1-0.3c0,0,0-0.1,0-0.1c0-0.1,0-0.1,0-0.2c-0.5,0.2-0.8,0.3-0.9,0.3l-1.8,0.6l-0.5-0.8
			c-0.2,0.1-0.5,0.2-0.7,0.3l0.4,0.5c0,0,0.1,0.1,0.1,0.2l-2,0.6c-0.1,0-0.4,0.1-0.9,0.2C27.2,13.5,27.3,13.6,27.3,13.7z M29.9,16
			l1.1-0.3l0.5,1.4c0,0.1,0.1,0.3,0,0.4c0,0.1-0.2,0.2-0.5,0.2l-0.2,0l0.2,0.2c0,0,0.1,0.1,0.3,0.4c0.4-0.2,0.7-0.3,0.8-0.4
			c0.1-0.1,0.1-0.2,0.2-0.2c0-0.1,0-0.2,0-0.3l-0.6-1.9l1.1-0.3c0.1,0,0.2,0,0.3-0.1c0.1,0,0.3-0.1,0.4-0.1l-0.1-0.2
			c0-0.1-0.1-0.2-0.1-0.3l-0.3-1c0-0.1,0-0.1-0.1-0.2c0-0.1-0.1-0.2-0.1-0.4c-0.3,0.1-0.5,0.2-0.7,0.3l-2.8,0.9
			c-0.2,0.1-0.4,0.1-0.8,0.2l0.1,0.3c0.1,0.2,0.1,0.3,0.1,0.3l0.3,1c0,0,0,0.1,0.1,0.2c0,0.1,0,0.2,0.1,0.3
			C29.6,16.1,29.8,16,29.9,16z M32.7,16.1c0.7,0.2,1.2,0.5,1.5,0.7l0.1,0.1c0.1-0.2,0.3-0.4,0.4-0.7l-1.8-0.7
			c-0.1,0.2-0.2,0.4-0.4,0.5L32.7,16.1z"/>
		<path fill="#1F2B6A" d="M36.8,13l0.1-0.2c0.3-0.4,0.4-0.8,0.5-1.2c0.1-0.4,0.1-0.7,0.1-0.8c0-0.1,0-0.3,0-0.5c0-0.3,0-0.4,0-0.5
			l0-0.4c0.3,0,0.5,0.1,0.8,0.1L38.4,10l-0.1,0.4l-0.1,0.3l0.9-0.2c0.2,0,0.4-0.1,0.7-0.2c0,0.2,0,0.4,0,0.5l0,0.7c0,0.3,0,0.6,0,1
			c0,0.4-0.1,0.8-0.4,1.3c-0.2,0.5-0.7,1.1-1.3,1.7l-0.1,0.1c-0.2-0.2-0.3-0.3-0.4-0.3l-0.3-0.1l0.2-0.2c0.3-0.2,0.5-0.4,0.8-0.7
			c0.3-0.3,0.5-0.7,0.7-1c-0.3-0.3-0.6-0.5-0.8-0.6L38,12.7c0.2-0.2,0.3-0.3,0.5-0.5l0.3,0.2l0.3,0.2l0.3,0.2c0-0.1,0-0.3,0.1-0.5
			c0-0.2,0-0.6-0.1-1.2l-1.1,0.2c0,0.1-0.1,0.3-0.2,0.6c-0.1,0.3-0.1,0.5-0.2,0.7L37.6,13l-0.1,0.3C37.3,13.1,37.1,13.1,36.8,13z
			 M41.2,10.7c0.2-0.1,0.4-0.3,0.5-0.5c0.6,0.6,1.2,1.2,1.9,1.8c-0.2,0.2-0.5,0.4-0.7,0.6l-0.1-0.2c-0.1-0.2-0.3-0.4-0.6-0.7
			c-0.3-0.3-0.5-0.6-0.8-0.7L41.2,10.7z M41.4,15.4c0-0.3-0.1-0.5-0.1-0.7c0-0.2-0.1-0.4-0.1-0.6l-0.8-3.8c-0.1-0.3-0.1-0.5-0.2-0.7
			L40,8.9c0.2,0,0.3,0,0.3,0c0,0,0.2,0,0.4-0.1c0,0.3,0.1,0.6,0.1,0.8c0,0.2,0.1,0.4,0.1,0.6l0.8,3.8c0,0.2,0.1,0.4,0.2,0.6l0.2,0.7
			C41.9,15.3,41.6,15.3,41.4,15.4z"/>
		<path fill="#1F2B6A" d="M47.5,8.7l4.4,0.1l-0.1,4.8l-4.4,0L47.5,8.7z M48.4,12.8l2.5,0c0.2,0,0.4,0,0.7,0c0-0.2,0-0.3,0-0.3
			c0,0,0-0.1,0-0.1c0,0,0-0.1,0-0.2c-0.3,0-0.6,0-0.7,0l-0.1,0c0.1-0.1,0.3-0.2,0.5-0.2l-0.6-0.9c-0.2,0.1-0.3,0.2-0.5,0.3l0.2,0.2
			c0.1,0.2,0.3,0.4,0.3,0.6l-0.8,0l0-1.3l0.6,0c0.1,0,0.4,0,0.7,0l0-0.2c0,0,0,0,0-0.1v-0.1c0,0,0-0.1,0-0.2c-0.3,0-0.5,0-0.7,0
			l-0.6,0l0-0.8l0.7,0c0.2,0,0.5,0,0.8,0.1c0-0.2,0-0.3,0-0.3c0,0,0-0.1,0-0.1c0,0,0-0.1,0-0.2c-0.5,0-0.8,0-0.8,0l-1.8,0
			c-0.2,0-0.5,0-0.8-0.1c0,0.2,0,0.3,0,0.3c0,0,0,0.1,0,0.1c0,0,0,0.1,0,0.2c0.3,0,0.6,0,0.8,0l0.5,0l0,0.8l-0.6,0
			c-0.1,0-0.3,0-0.6-0.1c0,0.2,0,0.3,0,0.3c0,0,0,0.1,0,0.1c0,0,0,0.1,0,0.2c0.2,0,0.4,0,0.6,0l0.6,0l0,1.3l-0.9,0
			c-0.2,0-0.4,0-0.7-0.1c0,0.2,0,0.3,0,0.3c0,0,0,0.1,0,0.3C47.9,12.8,48.2,12.8,48.4,12.8z M47.2,14.4c0.1,0,0.1,0,0.3,0
			c0-0.2,0-0.3,0-0.3v-0.2l4.4,0v0.3c0,0.1,0,0.2,0,0.3c0.2,0,0.5,0,0.7,0l0-0.5c0-0.2,0-0.4,0-0.7l0.1-4.1c0-0.2,0-0.3,0-0.5
			c0-0.2,0-0.4,0-0.7c-0.4,0-0.6,0-0.8,0l-4.2,0c-0.1,0-0.4,0-0.8-0.1l0,0.6c0,0.3,0,0.5,0,0.6l0,4.1c0,0.1,0,0.3,0,0.4
			c0,0.2,0,0.4,0,0.6C47,14.4,47.1,14.4,47.2,14.4z"/>
		<path fill="#1F2B6A" d="M60,11.5l1.1,0.3l-0.3,0.8l-1.2-0.3L60,11.5z M56.1,10.9c0,0.1,0,0.1,0,0.1c0,0,0,0.1-0.1,0.2
			c0.2,0,0.4,0.1,0.6,0.1l0.2,0.1l-0.5,2.3c0,0.1-0.1,0.3-0.1,0.4c0,0.1-0.2,0.2-0.3,0.3c0.1,0.2,0.2,0.4,0.3,0.6l0.2-0.1l0.4-0.2
			c0.4-0.3,0.7-0.5,0.8-0.5l0.3-0.1l-0.1-0.2c0,0-0.1-0.2-0.1-0.5c-0.2,0.2-0.4,0.3-0.5,0.4l-0.3,0.2l0.5-2.1c0-0.1,0.1-0.2,0.1-0.3
			c0-0.1,0.1-0.3,0.1-0.5c-0.2,0-0.4-0.1-0.6-0.1l-0.3-0.1c-0.2,0-0.4-0.1-0.6-0.2C56.1,10.8,56.1,10.9,56.1,10.9z M57.1,9.4
			c0.1,0.3,0.2,0.5,0.2,0.8l0.1,0.3c0.1,0,0.3-0.1,0.7-0.2l-0.4-1.3C57.5,9,57.3,9.1,57,9.2L57.1,9.4z M58.7,12.6l2.8,0.6
			c0.1,0,0.3,0.1,0.9,0.2c0-0.1,0-0.2,0-0.2c0,0,0-0.1,0-0.1c0-0.1,0-0.1,0.1-0.2c-0.3-0.1-0.6-0.1-0.9-0.2l-0.2,0l0.3-0.8l0.2-0.6
			c-0.2,0-0.5-0.1-0.7-0.1l-0.9-0.2l0.3-0.7l1,0.2c0.1,0,0.4,0.1,1,0.3c0-0.2,0-0.3,0-0.3c0,0,0-0.1,0-0.1c0,0,0-0.1,0.1-0.2
			c-0.4-0.1-0.7-0.1-1-0.2l-1.9-0.4c-0.3-0.1-0.7-0.2-1-0.3c0,0.2,0,0.3-0.1,0.3c0,0,0,0.1,0,0.1c0,0,0,0.1-0.1,0.2
			c0.6,0.1,1,0.2,1,0.2l0.4,0.1l-0.3,0.7l-0.3-0.1c-0.2-0.1-0.5-0.1-0.7-0.2l0,0.2c0,0,0,0,0,0.1c0,0,0,0.1,0,0.1c0,0,0,0.1-0.1,0.2
			c0.3,0,0.6,0.1,0.8,0.1l0.2,0.1l-0.4,0.7l-0.3-0.1c-0.5-0.1-0.8-0.2-0.9-0.2c0,0.2,0,0.3,0,0.3c0,0,0,0.1-0.1,0.3
			C58.3,12.5,58.6,12.6,58.7,12.6z M58,15.7c0,0,0.1,0,0.3,0.1l0-0.2c0-0.1,0-0.2,0-0.2l0-0.2l2,0.4l0,0.1c0,0,0,0.1-0.1,0.3
			c0.2,0,0.4,0.1,0.7,0.1l0.1-0.4c0,0,0-0.2,0.1-0.3l0.2-1c0-0.1,0.1-0.2,0.1-0.3c0-0.1,0.1-0.2,0.1-0.4c-0.3,0-0.6-0.1-0.8-0.2
			l-1.5-0.3c-0.3-0.1-0.5-0.1-0.9-0.2l-0.1,0.4c0,0.1,0,0.2-0.1,0.4l-0.2,0.9c0,0.2-0.1,0.3-0.1,0.4c0,0.1-0.1,0.2-0.1,0.4
			C57.9,15.6,58,15.6,58,15.7z M58.7,13.8l2,0.4l-0.2,1l-2-0.5L58.7,13.8z"/>
		<path fill="#1F2B6A" d="M64.2,16.5l0.2,0c0.5,0,1.1-0.1,1.6-0.2c0.5-0.2,0.9-0.4,1.1-0.6c0.2-0.3,0.4-0.5,0.6-0.7
			c0.1-0.2,0.3-0.4,0.4-0.7l-1.5-0.5c0,0-0.4-0.1-1-0.3c0-0.1,0.1-0.1,0.1-0.2c0-0.1,0-0.1,0.1-0.1c0,0,0-0.1,0-0.1l0.1-0.3
			c0.5,0.2,0.8,0.3,0.9,0.3l1.6,0.5c0-0.1,0.1-0.2,0.1-0.3c0-0.1,0.1-0.2,0.2-0.5l0.1-0.3c0-0.1,0-0.1,0.1-0.2l0.2-0.6
			c0.2,0.1,0.3,0.1,0.4,0.2c0.1,0,0.2,0.1,0.4,0.1l-0.3,0.7c-0.1,0.1-0.1,0.3-0.2,0.4c-0.1,0.2-0.1,0.3-0.2,0.4l-0.1,0.3l1.7,0.5
			c0.1,0,0.4,0.1,0.9,0.3c0,0.1-0.1,0.2-0.1,0.2c0,0,0,0.1-0.1,0.1c0,0,0,0.1-0.1,0.3c-0.4-0.2-0.7-0.3-0.9-0.3L69,14.5
			c0,0.1,0,0.2-0.1,0.4c0,0.2,0,0.5,0.1,1c0.1,0.5,0.2,0.9,0.4,1.2c0.2,0.3,0.4,0.5,0.6,0.7c0.2,0.2,0.4,0.4,0.6,0.5l0.2,0.1
			c-0.4,0-0.6,0.1-0.7,0.3L69.8,19l-0.1-0.2c0,0-0.2-0.2-0.5-0.6c-0.3-0.4-0.5-0.8-0.7-1.3c-0.1-0.5-0.2-1-0.2-1.7
			c-0.1,0.1-0.2,0.2-0.2,0.4c-0.1,0.1-0.1,0.2-0.2,0.3c0,0.1-0.1,0.2-0.3,0.3c-0.1,0.1-0.3,0.3-0.5,0.4c-0.2,0.1-0.4,0.3-0.7,0.4
			c-0.3,0.1-0.5,0.2-0.6,0.2c-0.1,0-0.5,0.1-1,0.2l-0.1,0c0-0.1-0.1-0.2-0.1-0.3C64.6,16.9,64.4,16.7,64.2,16.5z"/>
		<path fill="#1F2B6A" d="M73.5,18.6c0.1-0.2,0.1-0.3,0.1-0.3c0-0.1,0-0.1,0-0.1l0.1-0.2c0.4,0.2,0.6,0.3,0.9,0.4l1.9,0.8l0.1-0.1
			l0,0l0-0.1l0.1-0.2l0.1,0c0.2,0,0.5,0,0.9,0L76.2,18c-0.1,0-0.4-0.2-1-0.3c0-0.1,0.1-0.1,0.1-0.1c0,0,0-0.1,0.1-0.1l0-0.1l0.1-0.2
			c0.5,0.2,0.8,0.4,0.9,0.4l2,0.8c0.2,0.1,0.5,0.2,0.8,0.3c-0.1,0.1-0.1,0.2-0.1,0.2L79.1,19c0,0.1,0,0.1,0,0.1L79,19.3l-0.3,0
			c-0.3-0.1-0.7-0.1-1.2,0l-0.2,0l-0.1,0.2l1.6,0.6c0.2,0.1,0.6,0.2,1,0.4c-0.1,0.1-0.1,0.1-0.1,0.2c0,0,0,0.1-0.1,0.1
			c0,0,0,0.1-0.1,0.3c-0.6-0.3-0.9-0.4-1-0.5L77,20l-0.5,1.1c-0.1,0.1-0.1,0.2-0.2,0.3c-0.1,0.1-0.5,0-1.1-0.2c0-0.1,0-0.1,0-0.2
			c0-0.1,0-0.1,0-0.2c0-0.1,0-0.2-0.1-0.5l0.1,0.1c0.1,0.1,0.2,0.1,0.3,0.1c0.2,0.1,0.3,0.1,0.3,0.1c0,0,0.1,0,0.1-0.1
			c0,0,0.1-0.2,0.2-0.4l0.2-0.5L74.4,19C74.4,18.9,74.1,18.8,73.5,18.6z M74.4,16.9c0.1-0.2,0.2-0.3,0.2-0.4l0.2-0.5
			c0-0.1,0.1-0.2,0.2-0.5c0.4,0.2,0.6,0.3,0.7,0.3l3,1.2c0.4-0.3,0.8-0.6,1.3-1l0.2-0.2c0.1,0.2,0.3,0.4,0.4,0.6l-0.2,0.1L80,16.7
			L79.6,17l-0.4,0.3l0.8,0.3c0.1,0,0.4,0.1,0.7,0.2c-0.1,0.1-0.1,0.2-0.2,0.3c0,0.1-0.1,0.1-0.1,0.2l-0.2,0.5c0,0,0,0.1-0.1,0.2
			l-0.1,0.2c-0.2-0.1-0.4-0.2-0.6-0.3c0.1-0.1,0.1-0.2,0.1-0.2c0,0,0-0.1,0.1-0.1l0.2-0.4l-4.6-1.9l-0.2,0.4c0,0.1-0.1,0.2-0.1,0.2
			L75,17.1c-0.1,0-0.2-0.1-0.2-0.1C74.7,17,74.6,16.9,74.4,16.9z M76,14.8c0.2,0,0.4,0,0.6,0L77,16c-0.2,0-0.3,0-0.3,0l-0.4,0l0-0.2
			c0-0.1,0-0.2-0.1-0.3c0-0.2-0.1-0.3-0.1-0.4L76,14.8z M78.5,15.2l0,1.2c-0.2-0.1-0.4-0.1-0.7-0.1l0-0.2c0-0.2,0-0.3,0-0.4l0-0.5
			l0-0.1C78.1,15.2,78.3,15.2,78.5,15.2z"/>
		<g>
			<path fill-rule="evenodd" fill="#F3C800" d="M27.9,30.6h14.5v26.9c0,0,0,5.8,3.7,8c3.8,2.3,7.9-1,7.9-1s-3.3,9-12.2,8.9
				c-8.4-0.1-13.3-7.7-13.7-15.7L27.9,30.6z"/>
			<path fill-rule="evenodd" fill="#FFFFFF" d="M56.2,30.6h14.3V57c0,0-0.2,12-10.6,17.2c-10.4,5.2-18.8,0.5-18.8,0.5
				s7.5,0.6,11.9-5.9c3.7-5.5,3.4-11.1,3.4-11.1L56.2,30.6z"/>
			<path fill-rule="evenodd" fill="#1F2B6A" d="M39.8,41c-0.3-0.6-0.9-1-1.6-1.2c0.5-0.3,0.9-0.5,1.1-0.9c0.4-0.6,0.6-1.3,0.6-2.1
				c0-0.9-0.3-1.8-0.8-2.4c-0.5-0.7-1.3-1-2.3-1h-6V47h5.5c0.2,0,0.7-0.1,1.4-0.2c0.6-0.1,0.9-0.2,1.2-0.4c0.5-0.4,0.8-0.8,1-1.3
				c0.2-0.6,0.4-1.2,0.4-1.9C40.3,42.3,40.1,41.6,39.8,41z M34,36.2h1.4c0.5,0,0.9,0.1,1.1,0.3c0.2,0.2,0.3,0.5,0.3,0.9
				c0,0.4-0.1,0.7-0.3,0.9c-0.2,0.2-0.6,0.4-1.1,0.4H34V36.2z M36.7,43.7c-0.2,0.3-0.6,0.4-1.1,0.4H34v-2.7h1.6
				c0.5,0,0.9,0.1,1.1,0.4c0.2,0.2,0.4,0.5,0.4,0.9C37.1,43.1,37,43.4,36.7,43.7z"/>
			<path fill-rule="evenodd" fill="#1F2B6A" d="M58.6,42.5l3.3-0.2c0.1,0.7,0.2,1.1,0.5,1.5c0.3,0.6,0.9,0.8,1.5,0.8
				c0.5,0,0.9-0.1,1.1-0.4c0.2-0.3,0.4-0.6,0.4-1c0-0.3-0.1-0.7-0.4-0.9c-0.3-0.2-0.8-0.5-1.8-0.8c-1.5-0.4-2.6-0.9-3.2-1.6
				c-0.7-0.7-1-1.6-1-2.6c0-0.7,0.2-1.3,0.5-2c0.3-0.6,0.9-1.1,1.5-1.5c0.7-0.3,1.6-0.5,2.7-0.5c1.4,0,2.5,0.3,3.3,1
				c0.7,0.6,1.2,1.7,1.3,3.1l-3.2,0.2c-0.1-0.6-0.3-1-0.5-1.3c-0.3-0.3-0.7-0.4-1.2-0.4c-0.4,0-0.7,0.1-0.9,0.3
				c-0.2,0.2-0.3,0.5-0.3,0.8c0,0.2,0.1,0.4,0.2,0.6c0.2,0.2,0.6,0.3,1.1,0.5c1.5,0.4,2.6,0.8,3.3,1.2c0.7,0.4,1.1,0.9,1.4,1.5
				c0.3,0.6,0.5,1.3,0.5,2c0,0.9-0.2,1.7-0.6,2.4c-0.4,0.7-0.9,1.3-1.7,1.7c-0.7,0.4-1.6,0.5-2.7,0.5c-1.9,0-3.2-0.4-4-1.3
				C59.1,45,58.7,43.9,58.6,42.5z"/>
			<polygon fill-rule="evenodd" fill="#FFFFFF" points="45.1,50.2 45.1,30.6 53.9,30.6 53.9,33.9 48.5,33.9 48.5,38.5 53.1,38.5 
				53.1,41.9 48.5,41.9 48.5,50.2 			"/>
		</g>
		<g>
			<path fill-rule="evenodd" fill="#FFFFFF" d="M39.3,23.1c-0.3,0.2-0.5,0.3-0.7,0.4v0.7c0.4-0.1,0.8-0.3,1.1-0.6v2.8h0.9v-3.9h-0.7
				C39.8,22.8,39.6,23,39.3,23.1z"/>
			<path fill-rule="evenodd" fill="#FFFFFF" d="M46.1,22.5c-0.4,0-0.8,0.1-1,0.4c-0.3,0.2-0.4,0.6-0.4,0.9c0,0.4,0.1,0.7,0.4,0.9
				c0.3,0.2,0.6,0.3,0.9,0.3c0,0,0.1,0,0.1,0c0.3,0,0.5-0.1,0.7-0.3c0,0.5-0.1,0.7-0.2,0.9c-0.1,0.1-0.2,0.2-0.4,0.2
				c-0.2,0-0.2,0-0.4-0.1c-0.1,0-0.1-0.2-0.2-0.3l-0.8,0c0,0.3,0.2,0.6,0.4,0.7c0.2,0.2,0.5,0.2,0.9,0.2c0,0,0.1,0,0.1,0
				c0.4,0,0.9-0.2,1.2-0.4c0.3-0.3,0.4-0.9,0.4-1.6c0-0.7-0.2-1.2-0.4-1.5C47,22.7,46.6,22.5,46.1,22.5z M46.6,24.4
				c-0.1,0.1-0.2,0.2-0.4,0.2c-0.2,0-0.3,0-0.4-0.2c-0.1-0.1-0.2-0.3-0.2-0.6c0-0.2,0-0.4,0.2-0.5c0.1-0.1,0.2-0.2,0.4-0.2
				c0,0,0,0,0,0c0.2,0,0.3,0.1,0.4,0.2c0.1,0.1,0.2,0.3,0.2,0.6C46.7,24.1,46.7,24.3,46.6,24.4z"/>
			<path fill-rule="evenodd" fill="#FFFFFF" d="M58.8,22.5c-0.1,0.2-0.2,0.5-0.5,0.6c-0.3,0.2-0.5,0.3-0.7,0.4v0.7
				c0.4-0.1,0.8-0.3,1.1-0.6v2.8h0.9v-3.9H58.8z"/>
			<path fill-rule="evenodd" fill="#FFFFFF" d="M53.5,22.5h-0.7l-0.6,0.8L50.8,25v0.6h1.4h0.5v0.8h0.8v-0.8h0.6V25h-0.6V22.5z
				 M52.7,25h-0.5h-0.5l0.5-0.7l0.5-0.7V25z"/>
		</g>
	</g>
</g>
</svg>
