<svg xmlns="http://www.w3.org/2000/svg" width="100" height="100" viewBox="0 0 100 100">
  <title>bupt</title>
  <path d="M50.4-.1a50,50,0,1,1-50,50A50,50,0,0,1,50.4-.1Z" transform="translate(-0.4 0.1)" style="fill: #00a0e9;fill-rule: evenodd"/>
  <path d="M50.4,1.2A48.6,48.6,0,1,1,1.8,49.9,48.7,48.7,0,0,1,50.4,1.2Z" transform="translate(-0.4 0.1)" style="fill: #fff;fill-rule: evenodd"/>
  <g>
    <path d="M50.4,11.1A38.8,38.8,0,1,1,11.7,49.9,38.8,38.8,0,0,1,50.4,11.1Z" transform="translate(-0.4 0.1)" style="fill: #00a0e9;fill-rule: evenodd"/>
    <path d="M50.4,11.7A38.2,38.2,0,1,1,12.2,49.9,38.3,38.3,0,0,1,50.4,11.7Z" transform="translate(-0.4 0.1)" style="fill: #fff;fill-rule: evenodd"/>
  </g>
  <path d="M12,50.4a4.3,4.3,0,0,1,.1,1h54L59.7,37.9c-0.3-.5-0.2-1,0.7-0.4s2.7,1.9,5.5,7.8l3-1.3c0.5-.2.5-0.5,0.1-1.3s-1.7-3.2-2.8-4.9a18,18,0,0,0-3.3-3.5c-0.3-.3-0.6-0.4,1-1.6l1.7,1.5a16.4,16.4,0,0,1,2.4,2.5,42.2,42.2,0,0,1,3.5,5.9l4-1.9a1.9,1.9,0,0,0-.2-1.1,30.5,30.5,0,0,0-1.9-3.7c-1.3-2.2-2-3.2-6.1-7-0.7-.6-0.2-0.9.2-1.4s0.8-1,1.7-.2a21.5,21.5,0,0,1,3.6,3.6c1.9,2.4,4.3,7.1,6.4,12.6l5.7-1.3a35,35,0,0,0-8-15.9A34.5,34.5,0,0,0,50,14.8a33.6,33.6,0,0,0-22,8c-0.2.3-.4,0.5,0.3,0.7a24.2,24.2,0,0,1,11.4,6.5,11.7,11.7,0,0,1,2.4,3.1,21,21,0,0,1,2.5,6.5,6.9,6.9,0,0,1-3.7,7.6,12,12,0,0,1-9.3,1c-2.8-.6-5.4-2-8-1.9s-4,.4-7.6,3.1A4.4,4.4,0,0,1,12,50.4ZM27,75.9l4.3-4.5a29.2,29.2,0,0,0,19,7.1A23.3,23.3,0,0,0,62,75.7l-1.7-3.8,2.2-1.1c0.3-.2.6-0.1,0.9,0.5s1.1,2.8,1.8,3.3a41.2,41.2,0,0,0,5.2-4.1,27.9,27.9,0,0,0,8.4-14.7,30.6,30.6,0,0,0,.7-8.5l6.1-.5a52.4,52.4,0,0,1-1.7,13,33.5,33.5,0,0,1-2.2,5.1,38.2,38.2,0,0,1-3,5.3A31.9,31.9,0,0,1,63.2,82.2c-1,.4-16,6.1-30.2-2.1A31.3,31.3,0,0,1,27,75.9Zm30.7-9.1,1.2,2.6L61.6,68l-1.2-2.5Zm-2-4,1.2,2.6,2.7-1.2-1.2-2.6Zm-2-4.1,1.2,2.5,2.6-1.2-1.2-2.5ZM24.6,79.3L19,85.3l-0.9-.9L17.8,84a1.1,1.1,0,0,1,0-.5,2.1,2.1,0,0,1,.2-0.6l0.5-.7,0.6-.6,0.7-.4h0.3a3.8,3.8,0,0,1,.1-0.6,2.2,2.2,0,0,1,.3-0.7l0.6-.8,0.7-.7,0.6-.3h0.9l0.4,0.3Zm-2.9,2.3,1.8-1.9L23,79.3,22.7,79H22.4l-0.4.2-0.5.4-0.4.5-0.2.5a0.4,0.4,0,0,0,0,.3l0.2,0.3Zm-0.7.8L20.4,82l-0.3-.2H19.8l-0.4.2-0.4.4-0.3.4v0.3a0.5,0.5,0,0,0,0,.3l0.2,0.3,0.5,0.5Zm-4.2-4.2,0.8-.7,1.1,1.2,2-1.8-1.2-1.4,0.8-.7,1.6,1.8-6.1,5.5-1.6-1.8,0.8-.7L16.2,81l1.7-1.5Zm2.1-5.1,0.3,0.4-6.5,4.9L12.4,78Zm-4-1.5-4.8,3.1-0.3-.5,4.9-3.1,0.6-.3,0.7-.3H17l0.4,0.3a0.8,0.8,0,0,1,.1.6l-0.3.6-0.6.6L16,73l-0.3-.5,0.4-.3,0.3-.3,0.2-.3a0.4,0.4,0,0,0,0-.3l-0.2-.2H15.9l-0.5.2Zm0.6-4,0.3,0.5L8.6,72l-0.3-.5Zm-6.6.5,5.7-2.4,0.2,0.5L7.2,69.5,7,68.9l4.8-4.1L6.3,67.2l-0.2-.5,7.5-3.2L13.8,64Zm-2.1-7,0.2,0.6L6.4,62,6,62.4a0.6,0.6,0,0,0-.1.5l0.2,0.3,0.4,0.2H8.2l0.9-.2L9.8,63l0.9-.4,0.7-.5,0.3-.5a0.9,0.9,0,0,0,0-.4V61l-0.2-.5L9.6,61l0.2,0.7L8.7,62,8.4,60.8l4-1.2,0.3,0.8V61a1.3,1.3,0,0,1-.1.7,1.9,1.9,0,0,1-.5.7l-0.8.6-0.9.4-1.1.3L7.9,64H5.9l-0.6-.3a1,1,0,0,1-.4-0.5,1,1,0,0,1,0-.6l0.4-.5,0.5-.4,0.6-.3Zm-3.7-8V52.7l5.4-.5H10l0.7,0.2,0.5,0.4a1,1,0,0,1,.2.6,0.9,0.9,0,0,1-.1.6l-0.5.5-0.6.3L9.5,55H8.7l-5.3.5V55.1l5.2-.5H9.4l0.6-.3,0.3-.4a0.9,0.9,0,0,0,0-.4,0.6,0.6,0,0,0-.2-0.4l-0.4-.2H8.2ZM5,50.3h6.2v0.6H3V50.3l6.1-1.9h-6V47.8h8.3v0.5Zm6.4-4.6v0.6l-8.1-.8V44.8Zm0.4-2.9H3.6V42H10L4.1,39.9V39.3l7.7,3v0.4ZM8.5,36.3l1,0.3L9.1,38.2l2.6,0.8,0.5-1.7,1,0.3-0.7,2.2L4.7,37.4l0.7-2.2,1,0.3L5.9,37.2l2.2,0.7Zm5.3-.4-0.2.5L6.1,33.4l0.5-1.3,0.3-.4,0.5-.2H8.1L9,31.9l0.8,0.4,0.4,0.4,0.2,0.2h0.6l0.7,0.2L14.6,34l-0.2.5-2.8-.9H10.7l-0.2.3-0.3.7ZM7.2,33.3l2.1,0.8,0.3-.7a0.6,0.6,0,0,0,0-.3l-0.2-.4-0.6-.3H7.7l-0.2.3ZM12.9,32l0.2-.5h1.3l0.2-.2V31.2a0.6,0.6,0,0,0,0-.3V30.7l-0.2-.3-0.4-.3-0.4-.2H12.9l-0.6.4-0.6.3H11.1l-0.8-.2-1-.5-0.6-.4-0.3-.4-0.2-.4a1,1,0,0,1,0-.4V28.1a0.8,0.8,0,0,1,.4-0.5h2l-0.2.5h-1l-0.3.2v0.2a0.8,0.8,0,0,0,0,.4v0.4l0.3,0.3L10,29.8,10.4,30h0.7l0.4-.2,0.5-.3,0.5-.2h0.6l0.6,0.2,0.5,0.2,0.8,0.6,0.5,0.6a1.3,1.3,0,0,1,.2.5,1,1,0,0,1-.1.5l-0.3.4-0.5.2H13.8l-0.6-.2H12.9Zm4.6-3.3-0.3.5-6.9-4.4,0.3-.5Zm-4.9-5.6-0.8-.6,0.9-1.2,0.9-1.2,0.8,0.6-0.7,1,2.8,2.1,2.9,2.2-0.3.5-2.9-2.2-2.8-2.1Zm9.4-.2-0.4.4-2.8-2.6-4.2-1.9,0.4-.5,3.2,1.5-1.7-3,0.5-.5,2.3,4.1ZM34,5.5l1.2-.4h0.5l0.5,0.3,0.4,0.6,0.3,0.6L37,7a5.3,5.3,0,0,1,.2,1,2.6,2.6,0,0,1,0,.8,1.1,1.1,0,0,1-.2.6l-0.4.3L36,9.7,37.1,13l-0.5.2Zm1.7,3.2,0.6-.2,0.3-.2V8a1.2,1.2,0,0,0,0-.4V7.1l-0.3-.6-0.3-.3H35.6l-0.7.3Zm4.1-5a1.2,1.2,0,0,1,.9.3,4,4,0,0,1,1,1.4,9.2,9.2,0,0,1,.7,2,8.9,8.9,0,0,1,.2,2.1,4.1,4.1,0,0,1-.3,1.6,1,1,0,0,1-.7.7,1.2,1.2,0,0,1-1-.4,4.4,4.4,0,0,1-.9-1.4,8.8,8.8,0,0,1-.7-2A8.9,8.9,0,0,1,38.8,6a3.7,3.7,0,0,1,.3-1.6A1.1,1.1,0,0,1,39.8,3.7ZM40,4.8a0.8,0.8,0,0,0-.5.5,2.7,2.7,0,0,0-.2,1.2A7.6,7.6,0,0,0,39.6,8,6.7,6.7,0,0,0,40,9.4a3.3,3.3,0,0,0,.7,1,0.8,0.8,0,0,0,.7.3,0.7,0.7,0,0,0,.5-0.5A3.1,3.1,0,0,0,42,9.1a6.9,6.9,0,0,0-.2-1.5,7.8,7.8,0,0,0-.5-1.5,3,3,0,0,0-.7-1A0.8,0.8,0,0,0,40,4.8Zm7.8-1.2V2.6h2.9V3.6H49.5l0.2,7.2H49.2L49,3.6H47.9ZM63.1,4.2h0.5c-0.1,1.4-.1,2.8-0.2,4.2s-0.2,2.8-.3,4.2l-0.6-.2V10.4l-0.8-.2L61,9.9,60,11.9l-0.5-.2L61.3,8ZM62.7,9.3V5.9L62.2,7.5,61.4,9,62,9.2Zm4.1-1.8-2.3,5.7L64,13,67,5.5l0.5,0.2L67,11.9l2.2-5.5,0.5,0.2-3.1,7.5-0.5-.2Zm0.9,7,3.8-7.2,0.9,0.5,0.4,0.3,0.4,0.6a1.6,1.6,0,0,1,.1.8,4.3,4.3,0,0,1-.1.9l-0.3.9-0.5,1.1-0.7,1.1-0.8,1.1-0.7.6-0.6.2H69.2L68.6,15Zm3.8-6-2.9,5.4L69,14.1l0.7,0.2h0.6l0.6-.4,0.5-.7,0.6-1,0.5-1a3.6,3.6,0,0,0,.2-0.8,1.8,1.8,0,0,0,0-.7l-0.2-.5-0.3-.3-0.3-.2Zm7.4,4.6,0.7-.8,1.1,0.9,1.1,0.9-0.7.8-0.9-.8L77.9,17l-2.3,2.7-0.4-.4,2.3-2.7,2.3-2.8Zm3.4,6.2-0.8.8-1.1-1.1-1.9,1.9,1.3,1.3-0.8.8-1.7-1.7,5.8-5.9L84.8,17l-0.7.8-1.2-1.3-1.6,1.6Zm-2.5,4.4,6.2-5.2,0.4,0.4-5.4,4.6,1.2,1.4-0.8.7Zm7.5,1.8-0.9.6-0.9-1.3-2.2,1.6,1,1.4-0.9.6-1.4-1.9,6.8-4.8,1.4,1.9-0.9.6-1-1.4-1.9,1.3ZM90.8,29l-0.3-.5,0.3-.2,0.3-.3,0.2-.4a0.7,0.7,0,0,0-.1-0.4,0.7,0.7,0,0,0-.5-0.4H89.9l-0.9.3-1.1.5-1,.6-0.7.6a1.7,1.7,0,0,0-.4.7,0.8,0.8,0,0,0,.1.6l0.4,0.3h0.5l0.7-.3,0.3,0.5-0.4.2-0.6.2H86l-0.7-.2-0.4-.4a1.2,1.2,0,0,1-.1-0.7,1.8,1.8,0,0,1,.4-0.9l0.9-.9,0.9-.7,0.9-.5,1.2-.6,1.1-.3h1l0.7,0.2,0.4,0.5a0.9,0.9,0,0,1,.1.8l-0.4.7-0.6.5Zm3.5,2.1a1.1,1.1,0,0,1-.1,1,3.8,3.8,0,0,1-1.1,1.2l-1.8,1.1-2,.6a4.4,4.4,0,0,1-1.7,0,0.9,0.9,0,0,1-.7-1.6A4.1,4.1,0,0,1,88,32.3l1.8-1,2-.6a4,4,0,0,1,1.7,0A1.2,1.2,0,0,1,94.3,31.1Zm-1,.4a0.8,0.8,0,0,0-.6-0.4H91.5l-1.5.5-1.3.7a3.2,3.2,0,0,0-.9.8,0.7,0.7,0,0,0-.1.7,0.7,0.7,0,0,0,.6.4h1.2l1.5-.5,1.4-.8a2.8,2.8,0,0,0,.9-0.9A0.7,0.7,0,0,0,93.3,31.6Zm2.3,3.1,0.2,0.7-5.9,3.2,6.7-.5,0.2,0.7-7.9,2.3V40.4l6-1.7-6.4.5V38.7l5.6-3-6,1.7-0.2-.5Zm1.6,6v0.7l-6.3,2.3L97.8,44v0.7l-8.2,1.2V45.4l6.2-.9-6.4-.3V43.6l6-2.2-6.2.9V41.9ZM98.2,49v0.6l-5.4.2H91.3l-0.7-.3L90.1,49a1,1,0,0,1-.2-0.6,0.9,0.9,0,0,1,.2-0.6l0.5-.5,0.6-.3h1.6l5.3-.2v0.6l-5.2.2h-1l-0.6.2L91,48a0.9,0.9,0,0,0,0,.4,0.7,0.7,0,0,0,.1.4l0.4,0.2H93Zm-2.1,2.8-6.2-.4V50.9l8.2,0.5V52L92,53.5l6,0.4v0.6l-8.2-.5V53.4Zm-6.7,4.3V55.6l8.1,1.2v0.6Zm4.9,6V61.6h0.7l0.4-.2,0.3-.3a0.7,0.7,0,0,0-.1-0.6L95.1,60l-0.9-.4-1.1-.3L91.9,59H91l-0.8.2a0.8,0.8,0,0,0-.4.5,0.6,0.6,0,0,0,.1.5l0.3,0.3,0.7,0.3v0.6H90.4L89.8,61l-0.7-.5a1.5,1.5,0,0,1-.4-0.6,1,1,0,0,1,0-.6,1.2,1.2,0,0,1,.4-0.6l0.9-.4h1.2l1.1,0.2,1,0.2,1.2,0.4,1,0.5,0.7,0.6a1.4,1.4,0,0,1,.3.6,1.3,1.3,0,0,1,0,.6,0.9,0.9,0,0,1-.5.6l-0.8.2H94.3Zm1,3.9-0.2.4-8.3-1.2,0.2-.6,2.2,0.3,0.6-1.5-1.9-1.1,0.2-.5Zm-5-.9,3.4,0.5-2.9-1.8Zm2.6,4.1,1,0.5-1.3,2.6-1-.5,0.6-1.1-6.4-3.3,0.3-.5,6.4,3.3ZM84,70.5l0.3-.5,7,4.3-0.3.5Zm4.8,7.6a1.1,1.1,0,0,1-.9.4,3.8,3.8,0,0,1-1.6-.4l-1.8-1.1a8.8,8.8,0,0,1-1.5-1.4,4.2,4.2,0,0,1-.8-1.4,1.1,1.1,0,0,1,.1-1,1.1,1.1,0,0,1,1-.4,4.2,4.2,0,0,1,1.6.4l1.8,1A8.9,8.9,0,0,1,88,75.7a3.9,3.9,0,0,1,.8,1.4A1.2,1.2,0,0,1,88.8,78.2Zm-0.9-.7a0.8,0.8,0,0,0,0-.7,2.8,2.8,0,0,0-.6-1l-1.1-1.1L84.9,74l-1.1-.3a0.8,0.8,0,0,0-.7.2,0.7,0.7,0,0,0,0,.7,3.3,3.3,0,0,0,.6,1l1.1,1,1.3,0.8,1.2,0.3A0.8,0.8,0,0,0,87.9,77.5ZM84.7,80l-4.5-4.2,0.4-.4,6,5.6-0.4.4-5.7-2.7,4.4,4.1-0.4.4-6-5.6,0.4-.4Zm-5.4.1-0.4.4-0.3-.2-0.3-.2L78,79.8H77.4l-0.2.2-0.2.2v0.2a0.7,0.7,0,0,0,.1.3l0.3,0.4,0.3,0.4,0.4,0.3h2.5l0.7,0.4,0.8,0.8,0.4,0.6,0.2,0.5a1.6,1.6,0,0,1,0,.4v0.4l-0.2.3-0.6.3H80.9l-0.6-.3L79.9,85l-0.2-.2,0.4-.4,0.2,0.2,0.3,0.2h0.7l0.2-.2,0.2-.4a0.9,0.9,0,0,0,0-.4l-0.2-.4-0.3-.3-0.4-.3H78.3l-0.5-.3L77.2,82l-0.4-.5-0.5-.8a1.8,1.8,0,0,1-.1-0.6,1.2,1.2,0,0,1,.1-0.5l0.3-.4,0.5-.3h0.5l0.5,0.2,0.5,0.3,0.4,0.4ZM50.4,11.3A38.6,38.6,0,1,1,11.9,49.9,38.7,38.7,0,0,1,50.4,11.3Zm0-.4a39,39,0,1,1-39,39A39,39,0,0,1,50.4,10.9Zm0-10.3A49.3,49.3,0,1,1,1.1,49.9,49.4,49.4,0,0,1,50.4.6Zm0,0.6A48.7,48.7,0,1,1,1.8,49.9,48.8,48.8,0,0,1,50.4,1.2ZM28.1,86.7l0.7,0.4,0.9,0.4L30.4,86l0.3-.7,0.6,0.3-0.4.6-1.2,2.5-1.2,2.5-0.3.8-0.6-.3,0.5-1H26.2V89.9l1,0.3,1.1,0.2,0.6-1.1,0.5-1.1-0.9-.4-0.8-.3Zm4.1-.6,0.6,0.3-0.3.6-1,2h0.9l1.1-.2a4,4,0,0,0,.1.9H31.1l-0.6,1.2-0.5,1.2a0.4,0.4,0,0,0,.2.6l0.6,0.3h0.5l0.5-.7a1,1,0,0,0,.4.6l-0.7.7H31l-1.2-.5a0.7,0.7,0,0,1-.3-1.1l1.2-2.6,1.2-2.6Zm6.2,7.9,0.6-.3,0.5,0.7,0.6,0.9-0.6.5ZM36,92.7l0.4,0.6-2,1.1L34,93.9A7.8,7.8,0,0,0,36,92.7Zm0.1-2.9L40.5,91a9.8,9.8,0,0,0-.7,2.3L38,92.8l-0.5,2a0.7,0.7,0,0,1-.4.6h-1a2.3,2.3,0,0,0-.1-0.9l0.7,0.2q0.2,0,.3-0.4l0.4-1.7-1.9-.5L35.8,91Zm0.4,0.8-0.3,1.2,3.2,0.8,0.3-1.2Zm1.8-2.6H39c0,0.1,0,.2,0,0.4s0,0.4,0,.7l1.5,0.4,1.2,0.3-0.2.6c-2-.6-4.2-1.2-6.2-1.6V88.2l1.2,0.4,0.9,0.3,0.8,0.2V88.7C38.3,88.5,38.3,88.3,38.3,88.1Zm8,9.1V95.5l0.3-3.7c0-.4,0-0.7.1-0.9V90.1h2.4l-0.2.6v0.4l-0.6,1.7,0.5,0.9,0.2,0.6a2.5,2.5,0,0,1,0,.6,1.8,1.8,0,0,1-.2.7l-0.4.5-0.9.2c0-.1,0-0.2,0-0.3V95.8l-0.2-.5h0.5a0.5,0.5,0,0,0,.6-0.6s0-.1,0-0.2a1.6,1.6,0,0,0,0-.3V93.9L48,93.5l-0.3-.6L48,92l0.3-1.2H47.4l-0.3,4.8c0,0.2,0,.5,0,0.9v0.8H46.3Zm-1.7-4.4h0.8V91.3H44.8v1.5ZM44.4,95h0.8V93.5H44.6V95Zm-1.2-2.3h0.8V91.2H43.4v1.5ZM43,94.9h0.8V93.3H43.2v1.6Zm-0.2-4.4h1.4V89H45v1.6h1.4v1.4l-0.3,3v1.3H45.1V95.6L43,95.5v0.9H42.3V94.9l0.3-3.1V90.5Zm8,0.3h2.2V89.4h0.8c0,0.2,0,.4,0,0.5v0.8H56c0,0.2,0,.3,0,0.4v0.4l0.2,2.5v0.9H55.6a1,1,0,0,1,0-.1h0V94.3H54v1.1a1.7,1.7,0,0,0,.1.4l0.2,0.2h1.8l0.3-.2V95.5a6.1,6.1,0,0,0,0-.6l0.3,0.3,0.6,0.2-0.2.4-0.2.4-0.3.3-0.5.2H53.9a0.5,0.5,0,0,1-.4-0.3V94.5H51.8v0.3h0v0.2H51.2V94l-0.2-2.4V90.8ZM51.8,94h1.6v-1H51.7v1Zm-0.1-1.6h1.6V91.3H51.6v0.9ZM54,93.8h1.6v-1H53.9v1Zm-0.1-1.6h1.6V91.2H53.8v0.9Zm5,3.6h0.2a4.7,4.7,0,0,0,1.3-1.1,2.9,2.9,0,0,0,.6-1.3,7,7,0,0,0,.1-1,8.9,8.9,0,0,0,0-.9l-1.6.4-1,.3V91.6h0V91.2l1-.2,1.7-.4V89.2l-0.2-.7h0.8v2.2l1.7-.4,1-.3v0.8l-1,.2-1.6.4,0.2,0.5,0.6,1a3.2,3.2,0,0,0,1,1l0.9,0.4,0.8,0.2h0.2a1.4,1.4,0,0,0-.5.7v0.3H64.8l-0.7-.3a4.5,4.5,0,0,1-1.3-.9,5.7,5.7,0,0,1-1.1-1.5c0,0.2,0,.3,0,0.5s0,0.3,0,.3v0.4l-0.2.7-0.4.7-0.5.6-0.8.8H59.7l-0.2-.3Zm7.9-3V92.4h0V92l0.9-.3,2-.7V90.9H69.3V90.5h0.1l0.7-.7-1.7.6-1,.4V90.4h0V90l1-.3,2.1-.8,0.8-.4V89h0v0.2H71l-0.9.9-0.2.2v0.3l1.6-.6,1-.4v0.4l0.2,0.3-1.1.3-1.6.6,0.5,1.3a0.9,0.9,0,0,1,.1.4,2.1,2.1,0,0,1-1,.7V93.5l-0.4-.3h0.4l0.3-.2a0.3,0.3,0,0,0,0-.2V92.3l-0.2-.6-2,.7Zm-0.7-2.1-0.2-.5-0.2-.6L65.5,89l0.8-.2,3.1-1.1a8.5,8.5,0,0,0,.2-1.8V85.6l0.7,0.2v1.7l0.9-.3,0.7-.3v0.6L71.8,88v0.4l-0.7.2V88.2l-0.2-.5-4.7,1.7,0.2,0.5v0.5H66.5Zm-0.3-3,0.4-.5L67.3,88l-0.3.2-0.2.3-0.2-.2-0.3-.2L66,87.8H65.8Zm2.1-1.4,0.8,1.1-0.6.4V87.5l-0.3-.4-0.3-.4H67.3ZM44.5,8.8c0.1,0.6.5,1.7,1.4,1.1l0.2-.2V9.5c0.1-1.8-.4-1.6-1.3-2.1L44.4,7,44,6.4c-0.6-1-.8-3.4.8-3.6s1.4,1.2,1.5,2H45.8c-0.2-.6-0.7-1.4-1.3-0.9a1.4,1.4,0,0,0-.2,1.6l0.2,0.4,0.3,0.3,0.5,0.3a2.2,2.2,0,0,1,1.5,1.7,7.8,7.8,0,0,1,.1.8,3.6,3.6,0,0,1,0,1,2,2,0,0,1-.3.7l-0.4.4H45.6c-1,0-1.5-1.3-1.6-2.3h0.5Zm8.1-.4c-0.1.6,0.1,1.7,1.1,1.4H54l0.2-.3c0.5-1.7,0-1.7-.8-2.3l-0.5-.5L52.6,6c-0.4-1.1-.1-3.4,1.5-3.4S55.1,4,55.2,4.8H54.7c0-.6-0.4-1.5-1.2-1.1A1.4,1.4,0,0,0,53,5.2V5.6l0.2,0.3,0.4,0.4a2.2,2.2,0,0,1,1.1,2,7.9,7.9,0,0,1,0,.8,3.6,3.6,0,0,1-.2.9l-0.4.6-0.5.3H53.3c-1-.1-1.2-1.6-1.2-2.5h0.5ZM23.2,11.2a1.1,1.1,0,0,1,1,0l0.7,0.3L25.6,12l0.7,0.7L27,13.6l0.6,0.9L28,15.4a4,4,0,0,1,.3,1.6,1,1,0,0,1-.4.9,1.1,1.1,0,0,1-1,0,4.1,4.1,0,0,1-1.4-.9,9.2,9.2,0,0,1-1.4-1.6l-0.6-.9-0.4-.9a3.8,3.8,0,0,1-.3-1.6A1.1,1.1,0,0,1,23.2,11.2Zm0.6,0.9a0.8,0.8,0,0,0-.2.6,2.7,2.7,0,0,0,.3,1.2,7.5,7.5,0,0,0,.8,1.4l1,1.1,1,0.7a0.8,0.8,0,0,0,.7,0,0.7,0.7,0,0,0,.3-0.6,3,3,0,0,0-.3-1.1,6.6,6.6,0,0,0-.8-1.3l-1-1.2-1-.7A0.8,0.8,0,0,0,23.8,12.1Zm5.1,0.8,1.9,3.2-0.5.3L26.1,9.2l2-1.1,0.6,1-1.5.8,1.1,2,1.4-.8,0.5,0.9Z" transform="translate(-0.4 0.1)" style="fill: #00a0e9;fill-rule: evenodd"/>
</svg>
