<?xml version="1.0" encoding="utf-8"?>
<!-- Generator: Adobe Illustrator 19.2.1, SVG Export Plug-In . SVG Version: 6.00 Build 0)  -->
<svg version="1.2" baseProfile="tiny" id="图层_1"
	 xmlns="http://www.w3.org/2000/svg" xmlns:xlink="http://www.w3.org/1999/xlink" x="0px" y="0px" viewBox="0 0 100 100"
	 xml:space="preserve">
<g>
	<path fill-rule="evenodd" fill="#004CA1" d="M50.4,0.1c27.6,0,50,22.4,50,50c0,27.6-22.4,50-50,50c-27.6,0-50-22.4-50-50
		C0.4,22.5,22.7,0.1,50.4,0.1z M50.4,14.9c-19.5,0-35.2,15.8-35.2,35.2s15.8,35.2,35.2,35.2c19.5,0,35.2-15.8,35.2-35.2
		C85.6,30.7,69.8,14.9,50.4,14.9z"/>
	<path fill-rule="evenodd" fill="#004CA1" d="M50.4,15.6c-19.1,0-34.5,15.5-34.5,34.5c0,19.1,15.5,34.5,34.5,34.5
		c19.1,0,34.5-15.5,34.5-34.5C84.9,31.1,69.4,15.6,50.4,15.6z M50.4,16.1c-18.8,0-34.1,15.3-34.1,34.1c0,18.8,15.3,34.1,34.1,34.1
		c18.8,0,34.1-15.3,34.1-34.1C84.4,31.3,69.2,16.1,50.4,16.1z"/>
	<path fill-rule="evenodd" fill="#004CA1" d="M47.4,71.5l2.3,1.4c0.9,0.6,1.1,0.5,2,0l1.9-1.2c0.6-0.3,1.1-0.6,1.8-0.6
		c1,0,3,0.2,4,0.3c0.8,0.1,1.6,0.2,2.4,0.2c2.1,0.2,4.2,0.4,6.3,0.7c0.8,0.1,2.9,0.2,3,1.3c0,0.3-0.3,0.6-0.6,1
		c-0.2,0.2-0.6,0.7-0.8,0.8c-0.3,0.2-0.7,0.3-1.4,0.3c-0.5,0-1,0.1-1.4,0.1c-4.1,0.1-8.3,0.1-11.8,0.3c-0.3,0-1.1,0-1.2,0.3
		c0,0.1,0,0.3,0.1,0.5c0.1,0.3,0.4,0.6-0.1,1c-0.5,0.4-1.3,0.4-1.9,0.5c-1.1,0.1-2.1,0.1-3.2,0c-0.9-0.1-1.6-0.3-1.4-1.1
		c0.1-0.3,0.3-0.7,0-1C47,76,46.4,76.1,46,76.1c-3.3-0.1-6.5-0.1-9.9-0.2c-0.8,0-1.6,0-2.5-0.1c-0.6-0.1-1.3-0.1-1.9-0.3
		c-0.4-0.2-0.6-0.6-0.9-0.9c-0.2-0.2-0.4-0.4-0.5-0.7c-0.5-1.1,1.9-1.4,2.5-1.5c2.8-0.4,7.4-0.6,10.9-1c0.7-0.1,1.7-0.3,2.5-0.2
		C46.8,71.2,47.1,71.3,47.4,71.5z M50.2,74.2L47,72.4c-1-0.6-2.1-0.1-3.2,0c-2.8,0.3-5.5,0.3-8.2,0.6c-1,0.1-2.2,0.2-3.2,0.4
		c-0.5,0.1-1.1,0.2-1,0.5c0,0.1,0.2,0.4,0.5,0.5c0.5,0.3,0.9,0.3,1.5,0.3c4.4,0.2,8.8,0.3,12.9,0.3c0.9,0,2.3,0,2.4,1.2l0,0.8
		c1.2,0.1,2.4,0.1,3.6,0c0.1-1.6,0.6-1.9,2.6-2c3.9,0,7.9-0.1,11.7-0.2c0.7,0,1.8,0,2.5-0.3c0.4-0.2,0.6-0.5,0.7-0.7
		c0.1-0.2-0.2-0.3-0.4-0.4c-0.6-0.1-0.9-0.1-1.6-0.2c-0.1,0-0.2,0-0.3,0c-3.5-0.4-7-0.6-10.5-1.1c-1.1-0.1-1.9-0.3-2.8,0.2L51.6,74
		C51.1,74.2,50.8,74.4,50.2,74.2z"/>
	<g>
		<path fill-rule="evenodd" fill="#FFFFFF" d="M74.2,16c-0.1,0-0.2,0-0.3,0c-0.1,0-0.3,0-0.4,0c-0.1,0-0.1,0-0.2,0.1
			c-0.1,0-0.1,0.1-0.1,0.2c0,0.1,0,0.1,0.1,0.2c0.1,0.1,0.1,0.1,0.2,0.2c0.1,0,0.2,0.1,0.2,0.1c0,0,0.1,0,0.2,0
			c0.1,0,0.2-0.1,0.3-0.2c0.1,0,0.2,0,0.2-0.1c0.1,0,0.1-0.1,0.1-0.1c0,0,0-0.1,0-0.1c0-0.1-0.1-0.1-0.2-0.2
			C74.3,16,74.3,16,74.2,16z M74,14.5c-0.1,0-0.1,0-0.2,0c-0.1,0-0.2,0-0.2,0.1c-0.1,0.1,0,0.1-0.1,0.2c0,0.1-0.1,0.1-0.1,0.2
			c0,0.1-0.1,0.1,0,0.2c0,0,0.1,0.1,0.1,0.1c0.1,0,0.1,0,0.2,0c0.1,0,0.1-0.1,0.1-0.1c0-0.1,0-0.1,0-0.2c0-0.1,0.1-0.1,0.1-0.1
			c0.1-0.1,0.1-0.1,0.2-0.2C74.1,14.6,74.1,14.5,74,14.5z M72.7,17.3c0.1,0,0.2,0,0.4,0c0.1,0,0.2,0,0.4,0.1c0.1,0,0.2,0.1,0.3,0.2
			c0.1,0,0.1,0,0.2,0c0.2,0.1,0.3,0.3,0.5,0.4c0.1,0,0.1-0.1,0.2-0.1c0,0,0.1-0.1,0.1-0.2c0-0.1,0-0.2-0.1-0.2
			c-0.1-0.2-0.2-0.2-0.1-0.3c0.1-0.2,0.4-0.2,0.6-0.2c0.1,0,0.2,0,0.3,0c0.1-0.1,0.2-0.2,0.2-0.3c0-0.1,0-0.2-0.1-0.3
			c-0.1-0.1-0.2-0.2-0.3-0.3c-0.1-0.1-0.4-0.2-0.3-0.4c0.1-0.2,0.2-0.2,0.4-0.3c0.1-0.1,0.1-0.1,0.2-0.2c0.2-0.1,0.7,0.1,0.8,0.1
			c0.1,0.1,0.3,0.1,0.4,0.2c0.1,0.1,0.2,0.2,0.4,0.3c0.1,0,0.2,0,0.3-0.1c0.1-0.1,0.2-0.2,0.2-0.3c0-0.1-0.1-0.3-0.1-0.4
			c-0.1-0.1-0.1-0.3-0.2-0.4c-0.1-0.1-0.2-0.2-0.3-0.2c-0.2-0.1-0.6,0-0.6-0.3c0,0,0-0.1,0-0.1c0.1-0.1,0.1-0.1,0.2-0.2
			c0.1-0.1,0.1-0.2,0.1-0.3c0-0.2-0.1-0.4-0.2-0.5c0-0.1-0.1-0.2-0.2-0.2c-0.1,0-0.1,0-0.2,0c-0.2,0.1-0.4,0.4-0.5,0.6
			c-0.1,0.1-0.2,0.1-0.2,0.2c-0.1,0.1-0.1,0.2-0.2,0.3c-0.4,0.2-0.8-0.3-1.1-0.4c-0.2-0.1-0.4-0.1-0.5-0.1c-0.2,0-0.1,0.2-0.1,0.3
			c0,0.1,0,0.2,0.1,0.3c0,0.1,0.2,0.3,0.1,0.4c-0.2,0.1-0.5,0-0.6,0.1c-0.2,0.1-0.3,0.3-0.4,0.5c-0.1,0.1-0.1,0.2-0.2,0.4
			c0,0.1,0,0.2-0.1,0.3c0,0.1-0.2,0.2-0.2,0.3c0,0.2,0.1,0.3,0.1,0.5c0,0.1,0.1,0.2,0.2,0.3c0.1,0.1,0.2-0.1,0.2,0.1
			c0,0.1,0,0.2,0,0.3c0,0.1,0,0.2,0,0.4C72.6,17.3,72.6,17.3,72.7,17.3z"/>
		<path fill-rule="evenodd" fill="#FFFFFF" d="M56,7.2C56,7.1,55.9,7,55.8,6.9c0-0.1,0-0.2-0.1-0.3c0-0.1-0.2-0.1-0.1-0.3
			c0-0.1,0.2-0.2,0.2-0.2C56,6,56,5.8,56.3,5.9c0.2,0,0.3,0.1,0.4,0.2c0,0,0,0.1,0,0.1c0,0.1,0,0.1,0,0.2c0,0,0,0.1,0,0.1
			c0,0.1,0,0.1,0,0.2c0,0.1,0.1,0.1,0.1,0.1c0,0.1,0,0.2,0,0.3c0,0.1,0.1,0.2,0.1,0.3c0,0.2-0.1,0.4-0.1,0.6c0,0.1,0,0.3,0,0.4
			c0,0.1,0,0.1,0,0.2c0,0.2,0,0.5-0.2,0.7c-0.1,0.1-0.3,0.2-0.4,0.3c-0.2,0.1-0.5,0.2-0.7,0.2c-0.1,0-0.3,0-0.4,0
			c-0.1,0-0.3-0.1-0.4-0.2c-0.1-0.1-0.2-0.2-0.2-0.3c0-0.1,0-0.1,0-0.2c0-0.1,0-0.1,0.1-0.2C54.7,9,54.7,9,54.8,8.9
			c0.1-0.1,0.1-0.1,0.1-0.2c0.1-0.1,0.2-0.2,0.3-0.3c0.1-0.1,0.2-0.2,0.3-0.3c0,0,0.1,0,0.1,0c0.1,0,0.1,0,0.1,0
			c0,0,0.1,0.1,0.1,0.1c0,0.1,0,0.2,0,0.2c0,0.1-0.1,0.1-0.1,0.2c0,0.1,0,0.1,0,0.2c0,0.1-0.1,0.1-0.1,0.2c0,0.1,0,0.2,0,0.2
			c0,0,0,0,0.1,0c0.1,0,0.1,0,0.2,0C55.9,9.2,56,9.1,56.1,9c0.1-0.1,0.2-0.2,0.3-0.3c0.1-0.1,0-0.2,0.1-0.3c0,0,0.1-0.1,0.1-0.1
			c0-0.1,0-0.1,0-0.2c0-0.1-0.1-0.3-0.2-0.4C56.2,7.5,56.1,7.4,56,7.2z M53.5,9.8c0-0.1,0-0.2,0-0.3c0-0.2,0.1-0.4,0.1-0.7
			c0-0.1,0.1-0.1,0.1-0.2c0-0.2,0-0.5,0.1-0.7c0-0.1,0.1-0.2,0.2-0.3c0.1-0.1,0.1-0.3,0.2-0.4c0.1-0.1,0.2-0.2,0.3-0.3
			c0.1-0.1,0.2-0.1,0.3-0.2c0,0,0.1,0,0.1,0c0,0.1,0,0.2,0,0.2c0,0.1-0.1,0.3-0.1,0.4c-0.1,0.1-0.1,0.2-0.2,0.3
			C54.5,7.9,54.5,8,54.4,8c-0.1,0-0.1,0-0.2,0c-0.1,0-0.1,0.1-0.2,0.1C54,8.3,54,8.4,54,8.5c0,0.1,0,0.2,0,0.3c0,0,0,0.1,0,0.1
			c0,0.1,0,0.2,0,0.2c0,0.1,0.1,0.2,0.2,0.3c0,0.1,0,0.2,0,0.3c0,0.1,0,0.2,0,0.4c0,0.1,0.1,0.1,0.1,0.1c0.1,0.1,0.1,0.1,0.2,0.2
			c0.1,0.1,0.2,0.1,0.3,0.2c0.1,0,0.2,0.1,0.4,0.1c0.1,0,0.2-0.1,0.4,0c0.3,0,0.6,0.1,0.9,0.1c0.1,0,0.1-0.1,0.2-0.1
			c0.2,0,0.3,0,0.5,0c0.1,0,0.2-0.1,0.2-0.1c0,0,0.1-0.1,0.1-0.2c0-0.2,0-0.4,0-0.6c0-0.1,0-0.1,0-0.2c0-0.3,0.1-0.5,0.1-0.8
			c0-0.1,0-0.1-0.1-0.2c0-0.3,0-0.6,0-0.9c0-0.2,0-0.3-0.1-0.5c0-0.1,0-0.2,0-0.4c0-0.1-0.1-0.2-0.1-0.3c0-0.2-0.1-0.3-0.2-0.5
			c-0.1-0.1-0.1-0.2-0.2-0.3c-0.1-0.1-0.2-0.1-0.3-0.2c-0.1,0-0.2-0.1-0.3-0.1c-0.1,0-0.2,0-0.3,0c-0.1,0-0.3,0-0.4,0.1
			c-0.1,0-0.2,0.1-0.3,0.2c0,0-0.1,0-0.1,0c-0.1,0-0.1-0.1-0.1-0.1C55.1,5.3,55,5.1,55,4.9c-0.1-0.1-0.1-0.3-0.2-0.4
			c-0.1,0-0.1-0.1-0.2,0c-0.1,0-0.1,0.1-0.2,0.2c0,0.1-0.1,0.2-0.1,0.3c0,0.1,0,0.2,0.1,0.3c0.1,0.1,0.2,0.2,0.2,0.4
			c0,0.1,0,0.1,0,0.2c0,0.1-0.1,0.1-0.1,0.2c-0.2,0.2-0.4,0.3-0.6,0.5c-0.1,0.1-0.2,0.1-0.3,0.2c0,0-0.1,0-0.1,0
			c0,0-0.1-0.1-0.1-0.2c0-0.1,0-0.1-0.1-0.2c0,0-0.1,0-0.1,0c-0.1,0.1-0.3,0.1-0.3,0.3c-0.1,0.1-0.2,0.3-0.3,0.5
			c-0.1,0.1,0,0.3-0.1,0.4c-0.1,0.2-0.2,0.4-0.3,0.5C52.1,8.1,52,8.3,52,8.4c-0.1,0.3-0.1,0.7-0.1,1.1c0,0.1-0.1,0.1-0.1,0.2
			c0,0.1-0.1,0.2-0.1,0.3c0,0.2,0.1,0.3,0.2,0.5c0.1,0.2,0.1,0.3,0.2,0.4c0,0.1,0.1,0.1,0.2,0.1c0,0,0.1,0,0.1,0
			c0.1-0.1,0.1-0.2,0.2-0.3c0.1-0.1,0.2-0.1,0.3-0.2c0-0.1,0-0.1,0-0.2c0-0.1,0.1-0.1,0.2-0.2c0.1-0.1,0.2-0.1,0.4-0.2
			C53.5,9.9,53.5,9.8,53.5,9.8z"/>
		<path fill-rule="evenodd" fill="#FFFFFF" d="M65.1,12.5c0,0-0.1,0-0.1,0.1c0,0,0,0,0,0.1c0,0,0,0.1,0,0.1c0,0,0,0.1,0,0.1
			c0,0.1,0,0.2-0.1,0.2c0,0.1-0.1,0.1-0.2,0.1c-0.1,0.1-0.1,0.2-0.2,0.2c0,0.1-0.1,0.1-0.1,0.2c0,0-0.1,0.1-0.1,0.1
			c0,0-0.1,0.1-0.1,0.1c-0.1,0.2,0,0.2,0.2,0.2c0.1,0,0.2,0,0.3,0c0.1,0,0.2,0,0.2-0.1c0.1-0.1,0.2-0.2,0.3-0.3
			c0.1-0.1,0.1-0.2,0.2-0.2c0-0.1,0-0.2,0.1-0.3c0-0.1,0.1-0.2,0.1-0.3c0-0.1,0-0.2,0-0.2c0,0,0-0.1,0-0.1c0,0-0.1,0-0.1-0.1
			C65.2,12.6,65.1,12.5,65.1,12.5z M67.6,11.8c0,0.1-0.1,0.1-0.2,0.2c-0.1,0.1-0.1,0.2-0.2,0.4c-0.1,0.1-0.2,0.2-0.3,0.3
			c-0.1,0.1-0.3,0.1-0.4,0.2c-0.1,0.1-0.2,0.1-0.3,0.2c-0.1,0.1-0.3,0.1-0.2,0.3c0.1,0.1,0.2,0.2,0.2,0.2c0.1,0.2,0.3,0.3,0.4,0.5
			c0.1,0.1,0.1,0.2,0.2,0.3c0,0.1,0,0.2,0,0.3c0,0.1,0,0.2-0.1,0.2c0,0-0.1,0-0.2,0c-0.1,0-0.1,0-0.2-0.1c-0.1,0-0.1-0.1-0.1-0.2
			c0-0.1-0.1-0.2-0.1-0.2c0-0.1,0-0.2,0-0.2c0-0.1-0.1-0.2-0.1-0.3c-0.1-0.1-0.3-0.3-0.4-0.2c-0.1,0.1-0.1,0.2-0.1,0.2
			c-0.1,0.1-0.2,0.3-0.3,0.4c-0.1,0.1-0.3,0.1-0.4,0.2c-0.1,0-0.1,0.1-0.2,0.1c-0.1,0-0.2,0-0.2,0c-0.1,0-0.2,0.1-0.3,0.1
			c-0.1,0-0.1,0-0.2,0c-0.1,0-0.1-0.1-0.2-0.2c-0.1-0.1-0.1-0.3-0.2-0.5c0-0.1-0.1-0.1-0.2-0.2c-0.1-0.1-0.1-0.2-0.1-0.3
			c0,0-0.1,0-0.1-0.1c0,0-0.1,0-0.1,0c-0.1,0-0.1,0.1-0.2,0c-0.1,0-0.1-0.1-0.1-0.1c0-0.1,0-0.1,0-0.2c0,0,0-0.1,0.1-0.1
			c0.1-0.1,0.3-0.1,0.4-0.1c0.1-0.1,0.2-0.2,0.3-0.3c0.1-0.1,0.2-0.2,0.2-0.2c0,0,0-0.1,0-0.1c0,0-0.1-0.1-0.1-0.1
			c0,0,0-0.1,0.1-0.1c0,0,0.1,0,0.1,0c0.1,0,0.1,0.1,0.2,0.1c0.1,0.1,0.1,0.1,0.2,0.2c0,0.1,0,0.2,0,0.3c0,0.1-0.1,0.2-0.1,0.2
			c-0.1,0.1-0.2,0.2-0.3,0.2c0,0-0.1,0.1-0.1,0.1c0,0,0,0.1,0,0.1c0,0.1,0,0.1,0.1,0.1c0,0,0.1,0,0.1,0c0,0,0.1,0,0.1,0
			c0.1,0,0.1-0.1,0.1-0.1c0.1-0.1,0.2-0.2,0.3-0.4c0.1-0.1,0.1-0.1,0.1-0.2c0.1-0.2,0.2-0.3,0.2-0.5c0-0.1,0-0.1,0-0.2
			c0,0,0,0,0-0.1c0.1-0.1,0.1-0.1,0.2-0.2c0.1-0.1,0.2-0.1,0.3-0.2c0.1-0.1,0.1-0.3-0.1-0.2c-0.1,0-0.2,0-0.3,0.1
			c-0.1,0-0.1,0.1-0.2,0.1c0,0-0.1,0-0.1,0c0,0,0-0.1,0-0.1c0,0,0-0.1,0.1-0.1c0,0,0.1,0,0.1-0.1c0.1-0.1,0.1-0.3,0.2-0.4
			c0,0,0.1,0,0.2-0.1c0.1-0.1,0.3-0.1,0.4-0.1c0.1,0,0.2-0.1,0.3-0.1c0.1-0.1,0.2-0.1,0.3-0.2c0,0,0-0.1,0-0.1
			c0-0.2-0.2-0.1-0.3-0.1c-0.1,0-0.1,0-0.2,0c-0.1,0-0.2,0-0.2,0c-0.1,0-0.2,0.1-0.3,0.1c-0.1,0-0.2-0.1-0.2-0.1
			c0-0.1-0.1-0.1-0.1-0.2c0,0,0,0,0,0c0.1,0,0.2-0.1,0.3-0.1c0,0,0.1,0,0.1-0.1c0.1-0.1,0.1-0.2,0.1-0.2c0-0.1,0-0.2,0-0.3
			c0,0,0-0.1-0.1-0.1c0,0-0.1-0.1-0.1-0.1c-0.1,0-0.2,0-0.4,0.1c-0.2,0-0.3,0.1-0.5,0.2c-0.1,0-0.2,0.1-0.4,0.2
			c-0.2,0.1-0.3,0.2-0.5,0.4c-0.2,0.1-0.3,0.3-0.5,0.4c-0.1,0.1-0.2,0.2-0.3,0.2c0,0-0.5,0.3-0.5,0.1c0-0.1,0.1-0.1,0.1-0.2
			c0,0,0-0.1,0.1-0.1c0.1-0.2,0.2-0.4,0.4-0.5c0.1-0.1,0.2-0.3,0.4-0.4c0.1-0.1,0.2-0.2,0.3-0.3c0,0,0.2-0.2,0.3-0.2
			c0.1,0.1,0,0.1,0.1,0.2c0.1,0.1,0.4-0.1,0.5-0.2c0.2-0.1,0.3-0.1,0.5-0.1C64.8,9,65,9,65.2,8.9c0.1,0,0.2,0,0.3-0.1
			c0.1,0,0.1-0.1,0.2-0.2c0.1-0.1,0.1-0.2,0.2-0.3C65.9,8.3,65.9,8.2,66,8c0-0.1-0.1-0.1-0.1-0.1c-0.1,0-0.3,0.1-0.4,0.1
			c-0.1,0-0.2,0-0.3,0c-0.1,0.1-0.2,0.1-0.4,0.2c-0.1,0.1-0.2,0.1-0.4,0.2c-0.1,0-0.1,0-0.2,0c0,0-0.1-0.1-0.1-0.1
			c0-0.1,0-0.2,0-0.2c0-0.1,0.1-0.2,0.1-0.3c0.1-0.1,0.2-0.2,0.3-0.2c0.1-0.1,0.2-0.1,0.2-0.2c0.1,0,0.1-0.1,0.2-0.1
			c0,0,0.1,0,0.1,0c0.1,0,0.2,0.1,0.3,0.2c0.1,0,0.1,0.1,0.2,0.1c0,0,0.1,0,0.1,0c0.1,0.1,0.4,0.2,0.5,0c0.1-0.1,0.1-0.2,0.1-0.3
			c0-0.1,0.1-0.1,0.2-0.2c0.1-0.2,0.1-0.4,0.2-0.5c0-0.1,0.1-0.2,0.2-0.3c0,0,0.1,0,0.1,0c0,0,0.1,0,0.1,0.1c0,0.1,0,0.2,0,0.2
			c0,0.1,0,0.2,0,0.2c0,0,0,0,0,0.1C67.1,6.9,67.1,6.9,67,7c-0.1,0.1-0.1,0.3-0.2,0.4c0,0.1-0.1,0.1-0.2,0.1c0,0.1-0.1,0.1-0.1,0.2
			c0,0.1,0.1,0.2,0.2,0.2c0.1,0,0.1,0,0.2,0c0.1,0,0.1-0.1,0.2-0.1c0-0.1,0.1-0.1,0.1-0.2c0.1-0.2,0.1-0.3,0.2-0.5
			c0,0,0.1-0.2,0.1-0.2c0.1-0.1,0.2-0.2,0.3-0.3c0.1-0.1,0.2-0.2,0.3-0.2c0.1,0,0.3,0.1,0.4,0.2c0.1,0,0.1,0,0.2,0.1
			c0.1,0,0.1,0.1,0.1,0.2c0,0.1-0.1,0.2-0.2,0.3c0,0.1-0.1,0.1-0.2,0.2c0,0,0,0.1-0.1,0.2c0,0.1-0.1,0.1-0.2,0.1
			c-0.1,0.1-0.1,0.1-0.2,0.2c0,0-0.1,0.1-0.1,0.2c0,0,0,0.1,0,0.1c0,0,0.1,0,0.1,0c0.1,0,0.1,0,0.2,0c0,0,0.1,0,0.1,0
			c0.1,0,0.2,0,0.3,0.1c0.1,0.1,0.2,0.1,0.2,0.2c0.1,0.1,0.1,0.2,0.1,0.3c0,0,0,0.1,0,0.2c0,0,0,0.1-0.1,0.1c-0.1,0-0.1,0.1-0.2,0.1
			c-0.1,0-0.1,0-0.2,0.1c0,0,0,0.1,0,0.1c0,0,0,0.1,0.1,0.1c0.1,0,0.1,0.1,0.2,0.1c0.1,0,0.1,0.1,0.2,0.1c0.1,0.1,0.1,0.1,0.1,0.2
			c0,0.1,0,0.2,0.1,0.3c0,0,0,0.1,0,0.1c0,0.1,0,0.1,0,0.1c0,0.1,0,0.2-0.1,0.3c0,0.1-0.1,0.3-0.2,0.4c-0.1,0.1-0.1,0.2-0.2,0.4
			c-0.1,0.1-0.2,0.2-0.3,0.3c-0.1,0.1-0.1,0.1-0.2,0.1c-0.1,0-0.1,0-0.2,0c-0.1-0.1-0.1-0.2-0.1-0.3c0-0.1-0.1-0.1-0.1-0.2
			c-0.1-0.1-0.2-0.1-0.2-0.2c-0.1-0.1-0.3-0.3,0-0.3c0.1,0,0.2,0.1,0.3,0.1c0.1,0,0.2,0,0.3,0c0.1,0,0.2,0,0.3-0.1
			c0.1,0,0.1,0,0.2,0c0,0,0-0.1,0-0.1c0-0.1,0-0.2,0.1-0.3c0-0.1,0.1-0.2,0.1-0.3c0-0.1,0-0.2-0.1-0.3c-0.1-0.2-0.1-0.3-0.3-0.3
			c-0.1,0-0.3,0-0.4-0.1c-0.1,0-0.2,0-0.3,0c-0.1,0-0.3,0-0.4-0.1c-0.2,0-0.4,0-0.5,0c-0.2,0-0.4,0-0.5-0.1c-0.1,0-0.2,0-0.3,0
			c-0.1,0-0.2,0-0.2,0.1c-0.1,0-0.1,0.1-0.1,0.2c0,0.1-0.1,0.2-0.1,0.3c0,0,0,0.1,0.1,0.1c0,0,0.1,0,0.1,0c0.1,0,0.1,0,0.2,0
			c0.1,0,0.2,0,0.2,0c0.1,0,0.1,0,0.2,0.1c0.1,0,0.1,0.1,0.2,0.2c0,0.1,0.1,0.2,0.1,0.2c0,0.1,0,0.2,0,0.4c0,0.1,0,0.1,0,0.2
			c0,0.1-0.1,0.1-0.2,0.2c-0.1,0.1-0.2,0.1-0.4,0.2c-0.2,0.1-0.2,0.2-0.2,0.4c0,0.1,0,0.2,0,0.3c0,0.1-0.1,0.1-0.1,0.2
			c0,0.1-0.1,0.2-0.1,0.3c0,0.1,0,0.1,0,0.2c0,0,0.1,0.1,0.1,0.1c0,0,0.1,0,0.2,0c0.1,0,0.1-0.1,0.2-0.1c0.1-0.1,0.3-0.1,0.4-0.2
			c0.1-0.1,0.2-0.2,0.3-0.2C66.9,12,67,12,67,11.9c0.1-0.1,0.1-0.2,0.2-0.2c0.1-0.1,0.1-0.1,0.2-0.1c0,0,0.1,0,0.1,0
			c0,0,0.1,0,0.1,0C67.7,11.6,67.6,11.8,67.6,11.8z M66.2,8.4c-0.1,0-0.1,0.1-0.1,0.1c0,0,0,0.1-0.1,0.1c0,0,0,0.1,0,0.1
			c0,0,0,0,0.1,0c0,0,0.1,0,0.1,0c0.1,0,0.1-0.1,0.2-0.1c0,0,0,0,0-0.1c0,0,0-0.1,0-0.1c0,0-0.1,0-0.1,0c0,0,0-0.1-0.1-0.1
			C66.4,8.5,66.3,8.4,66.2,8.4C66.3,8.4,66.3,8.4,66.2,8.4z"/>
		<path fill-rule="evenodd" fill="#FFFFFF" d="M83.9,21.3c0.2,0,0.3,0.1,0.5,0.1c0.1,0,0.3,0,0.4,0c0.2,0,0.5,0,0.7,0
			c0.1,0,0.1-0.2,0.1-0.3c0-0.1-0.1-0.2-0.2-0.3c-0.1-0.2-0.3-0.4-0.4-0.5c-0.1-0.1-0.3-0.3-0.5-0.4c-0.1-0.1-0.2-0.3-0.3-0.4
			c-0.1-0.1-0.1-0.2-0.2-0.3c-0.1-0.2-0.1-0.3-0.1-0.5c0-0.1,0-0.1,0-0.2c0,0,0-0.1-0.1-0.1c-0.1,0-0.1,0-0.2,0
			c-0.1,0-0.1,0.1-0.2,0.1c-0.1,0-0.1,0.1-0.1,0.1c-0.1,0.1-0.2,0.1-0.2,0.2C83,18.9,83,19,82.9,19.1c0,0.1-0.1,0.2-0.1,0.3
			c0,0.1,0,0.2,0.1,0.2c0,0.1,0.1,0.1,0.1,0.1c0.1,0.1,0.3,0.2,0.4,0.2c0.2,0.1,0.3,0.2,0.5,0.3c0.1,0.1,0.4,0.2,0.2,0.4
			c0,0-0.1,0.1-0.1,0.1c-0.1,0-0.2,0-0.3,0c-0.2,0-0.4-0.1-0.6-0.1c-0.2,0-0.4-0.1-0.5-0.1c-0.2,0-0.3,0-0.5,0c-0.1,0-0.2,0-0.3,0.1
			c-0.1,0-0.1,0.1-0.1,0.1c0,0.1,0,0.1-0.1,0.2c-0.1,0.1-0.1,0.2-0.2,0.2c-0.1,0-0.3,0-0.4,0c-0.1,0-0.1,0.1-0.2,0.1
			c-0.1,0.1-0.2,0.1-0.2,0.2c0,0-0.1,0.1-0.1,0.2c0,0.1,0,0.2,0,0.3c0,0-0.1,0.1-0.1,0.1c-0.1,0.1-0.2,0.1-0.3,0.2
			c0,0-0.1,0.1-0.1,0.1c0,0.1,0,0.4-0.1,0.3c-0.2-0.1-0.4-0.3-0.5-0.4c-0.1-0.1-0.2-0.2-0.3-0.3c-0.1-0.1-0.1-0.1-0.2-0.2
			c0-0.1-0.1-0.1-0.1-0.2c0-0.1,0-0.1,0.1-0.2c0.1-0.1,0.2-0.2,0.3-0.3c0.1-0.1,0.3-0.2,0.4-0.3c0.1-0.1,0.3-0.1,0.4-0.2
			c0.1,0,0.2-0.1,0.3-0.1c0.1-0.1,0.2-0.1,0.3-0.2c0.1,0,0.2-0.1,0.2-0.1c0.1,0,0.1-0.1,0.2-0.1c0.1-0.1,0.1-0.1,0.2-0.2
			c0.1,0,0.1-0.1,0.2-0.1c0.1,0,0.1,0,0.2,0c0,0,0.1,0,0.1,0c0,0,0.1-0.1,0.1-0.1c0-0.1,0-0.1,0-0.2c0-0.1-0.1-0.2-0.1-0.2
			c-0.1-0.1-0.1-0.1-0.2-0.2c-0.1,0-0.2,0-0.3,0c-0.2,0-0.4,0.1-0.5,0.2c-0.3,0.1-0.5,0.2-0.8,0.4c-0.3,0.2-0.5,0.3-0.7,0.5
			c-0.2,0.1-0.3,0.3-0.5,0.4c-0.1,0.1-0.2,0.2-0.3,0.4c-0.1,0.1-0.1,0.2-0.2,0.3c-0.1,0.1-0.1,0.2-0.1,0.4c0,0.1-0.1,0.3,0,0.4
			c0,0.2,0,0.3,0.1,0.5c0.1,0.1,0.2,0.3,0.3,0.4c0.2,0.2,0.3,0.4,0.5,0.5c0.2,0.2,0.4,0.3,0.7,0.5c0.1,0.1,0.3,0.1,0.4,0.2
			c0.1,0.1,0.2,0.2,0.3,0.3c0.1,0.1,0.3,0.3,0.4,0.4c0.1,0.1,0.2,0.1,0.3,0.1c0,0,0.1,0,0.1-0.1c0.1,0,0.1-0.1,0.1-0.2
			c0-0.1,0-0.1,0-0.2c0-0.1,0-0.2,0-0.3c0-0.2,0.1-0.3,0.3-0.3c0.1,0,0.2,0,0.2-0.2c0-0.1,0-0.2,0-0.3c0-0.1-0.1-0.3-0.1-0.4
			c0,0,0-0.1,0.1-0.1c0,0,0,0,0.1,0c0,0,0.1,0,0.1,0.1c0.1,0.1,0.1,0.2,0.2,0.2c0.1,0.1,0.2,0.1,0.3,0.1c0.1,0,0.1,0,0.1,0
			c0,0,0.1-0.1,0.1-0.1c0-0.1,0-0.2,0-0.2c0-0.1-0.1-0.2-0.1-0.3c-0.1-0.3,0.1-0.4,0.4-0.4c0.1,0,0.2,0.1,0.3,0.1
			c0.1,0,0.1,0.1,0.2,0c0,0,0.1-0.1,0.1-0.1c0-0.1,0.1-0.1,0.1-0.2c0-0.1,0-0.2-0.1-0.2c0-0.1-0.1-0.2-0.2-0.2
			c-0.1-0.1-0.2-0.1-0.3-0.1c-0.1,0-0.2,0-0.2,0c-0.1,0-0.2,0-0.3,0c0,0,0,0,0-0.1c0,0,0-0.1,0-0.1c0,0,0.1-0.1,0.2-0.1
			c0,0,0.1,0,0.2,0c0.2,0,0.4,0.1,0.5,0.1C83.6,21.2,83.7,21.3,83.9,21.3z M80.7,22.6c-0.1,0-0.2,0-0.3,0c-0.1,0-0.2,0.1-0.2,0.1
			c0,0.1,0.1,0.1,0.1,0.2c0.1,0.1,0.2,0.1,0.3,0.2c0.1,0.1,0.2,0.2,0.3,0.3c0.1,0.1,0.2,0,0.3-0.1c0,0,0-0.1,0-0.2
			c0-0.1,0-0.1,0-0.2C81.2,22.8,81,22.6,80.7,22.6z"/>
		<path fill-rule="evenodd" fill="#FFFFFF" d="M89.4,29.8c-0.1,0-0.2,0-0.3,0.1c-0.1,0-0.2,0.1-0.2,0.2c-0.1,0.1-0.2,0.2-0.2,0.3
			c0,0.1-0.1,0.2,0,0.2c0,0,0.1,0,0.1,0c0.1,0,0.2-0.1,0.3-0.1c0.1-0.1,0.3-0.1,0.4-0.2C89.9,30,89.7,29.8,89.4,29.8z M88.5,30.4
			c-0.1,0-0.2,0-0.3-0.1c-0.1,0-0.3,0-0.4,0c-0.1,0-0.3-0.1-0.4-0.1c-0.1,0-0.1,0-0.2,0.1c0,0,0,0.1,0,0.1c0,0,0,0.1,0.1,0.1
			c0,0,0.1,0,0.1,0c0.1,0.1,0.1,0.2,0.2,0.2c0,0,0.1,0.1,0.1,0.1c0.1,0,0.2,0,0.3,0c0.1,0,0.2-0.1,0.3-0.1c0.1,0,0.1-0.1,0.2-0.1
			C88.5,30.6,88.6,30.6,88.5,30.4C88.6,30.5,88.6,30.4,88.5,30.4z M86,30.4c0.2,0.1,0.3,0.1,0.5,0.2c0,0,0.1,0.1,0.1,0.1
			c0,0,0.1,0.1,0.1,0.1c0.1,0,0.1,0.1,0.2,0.1c0.2,0.1,0.3,0.2,0.1,0.4c0,0-0.1,0.1-0.2,0.1c-0.1,0.1-0.3,0.1-0.4,0.1
			c-0.1,0.1-0.3,0.1-0.4,0.2c-0.2,0.1-0.4,0.1-0.6,0.2c-0.2,0.1-0.4,0.2-0.5,0.3c-0.2,0.1-0.4,0.2-0.6,0.3c-0.1,0-0.1,0.1-0.2,0.1
			c-0.1,0.1-0.2,0.1-0.3,0.2c-0.1,0.1-0.1,0.1-0.2,0.2c-0.2,0.3,0.4,0,0.4,0c0.2-0.1,0.5-0.2,0.7-0.2c0.2-0.1,0.5-0.1,0.7-0.1
			c0.1,0,0.2-0.1,0.4-0.1c0.2,0,0.4,0,0.6-0.1c0.2,0,0.4-0.1,0.6-0.2c0.1,0,0.2-0.1,0.2-0.1c0.1,0,0.2,0,0.3-0.1
			c0.2-0.1,0.2-0.2,0.4-0.1c0.1,0,0.2,0.1,0.3,0.1c0.1,0.1,0.2,0.1,0.3,0.2c0.1,0,0.1,0,0.2,0c0.1,0,0.2-0.1,0.3-0.1
			c0.1-0.1,0.1-0.2,0.1-0.2c0-0.1,0-0.3,0.1-0.4c0-0.1,0.1-0.1,0.2-0.2c0.1,0,0.1-0.1,0.2-0.1c0.1,0,0.2,0,0.2-0.1
			c0.1,0,0.1-0.1,0.2-0.1c0.2-0.1,0.3-0.2,0.5-0.2c0.1,0,0.2-0.1,0.3-0.1c0.1,0,0.2-0.1,0.2-0.2c0.1-0.1,0.1-0.1,0.2-0.2
			c0.1-0.1,0.2-0.3,0.3-0.5c0.1-0.2-0.2-0.3-0.3-0.4c-0.1,0-0.2-0.1-0.3-0.2c-0.1,0-0.1,0-0.2,0c-0.1,0-0.2,0-0.3,0
			c-0.2,0-0.2-0.3-0.2-0.4c0-0.1,0-0.2,0-0.3c0,0-0.1-0.1-0.1-0.1c-0.1,0-0.1,0-0.2,0c-0.1,0-0.1,0.1-0.2,0.1
			c-0.1,0.1-0.1,0.2-0.2,0.3c0,0.1-0.1,0.1-0.2,0.1c-0.1,0-0.1,0-0.2,0c-0.1,0-0.2-0.1-0.3-0.1c-0.1,0-0.2-0.1-0.3-0.1
			c0,0-0.1,0-0.1,0.1c-0.1,0.1-0.1,0.2-0.2,0.2c-0.1,0.1-0.1,0.2-0.2,0.2c-0.1,0.1-0.1,0.1-0.2,0.1c-0.1,0-0.2,0.1-0.3,0
			c-0.1,0-0.2-0.1-0.4-0.1c-0.2,0-0.3-0.1-0.5-0.1c-0.1,0-0.3,0-0.4,0c-0.1,0-0.2,0.1-0.3,0.1c-0.1,0.1-0.2,0.1-0.3,0.2
			c0,0-0.1,0.1-0.1,0.2C85.7,30.3,85.9,30.4,86,30.4z M85.5,29.4c0.3-0.2,0.5-0.4,0.9-0.3c0.1,0,0.3,0.1,0.4,0.1
			c0.1,0,0.2,0.1,0.2,0c0.1,0,0.1-0.1,0.2-0.1c0,0,0-0.1,0-0.1c0,0-0.1-0.1-0.1-0.1c-0.1,0-0.2-0.1-0.3-0.1c-0.1-0.1,0-0.1,0.1-0.2
			c0.2-0.1,0.3,0,0.5,0c0.2,0.1,0.4,0.2,0.6,0.2c0.1,0,0.2,0,0.2,0c0,0,0.1-0.1,0.1-0.1c0,0,0-0.1-0.1-0.1c0,0-0.1,0-0.1-0.1
			c0,0,0-0.1,0-0.2c0-0.1,0-0.2,0-0.2c0-0.1,0-0.1-0.1-0.1c0,0-0.1-0.1-0.1-0.1c-0.1,0-0.3,0-0.4,0c-0.1,0-0.2,0-0.3-0.1
			c-0.2-0.1-0.2-0.2-0.3-0.3c-0.1-0.1-0.2-0.1-0.2-0.2c0-0.1,0-0.1,0-0.1c0-0.1-0.1-0.1-0.1-0.2c0,0-0.1-0.1-0.1-0.1
			c0-0.1,0.1-0.1,0.2-0.1c0.1,0,0.2,0,0.3,0.1c0.2,0.1,0.5,0.1,0.7,0.2c0.3,0.1,0.6,0.2,0.9,0.3c0.1,0,0.2,0,0.3,0
			c0.1,0,0.2,0,0.4,0.1c0.1,0,0.3,0.1,0.3,0.2c0,0,0,0.1,0.1,0.2c0,0,0.1,0,0.1,0c0.1,0,0.1-0.1,0.2-0.1c0.1-0.1,0.1-0.1,0.1-0.2
			c0.1-0.1,0.1-0.3,0.1-0.4c0-0.1,0-0.2-0.1-0.3c-0.1,0-0.2-0.1-0.3-0.1c-0.1,0-0.1,0-0.2,0c-0.1,0-0.2,0.1-0.3,0.1
			c-0.1,0-0.2,0-0.3,0c-0.2,0-0.4-0.1-0.6-0.1c-0.4-0.1-0.7-0.2-1.1-0.3c-0.3-0.1-0.6-0.2-0.8-0.2c-0.2,0-0.3-0.1-0.5-0.1
			c-0.1,0-0.1,0-0.2,0c-0.1,0-0.2,0.1-0.3,0.1c-0.1,0-0.1,0.1-0.2,0.2c0,0,0,0.1,0,0.1c0,0,0.1,0,0.1,0.1c0.1,0,0.2,0.1,0.3,0.1
			c0.1,0,0.1,0.1,0.2,0.2c0,0.1,0,0.1,0.1,0.2c0,0.1,0,0.1,0.1,0.2c0,0,0.1,0,0.1,0.1c0,0.1,0.1,0.2,0.1,0.3c0,0.1,0,0.1,0.1,0.2
			c0,0,0.1,0,0.1,0.1c0,0,0.1,0.1,0.1,0.1c0,0,0,0.1,0,0.2c0,0,0,0.1-0.1,0.1c0,0-0.1,0.1-0.1,0.1c0,0-0.1,0-0.1,0
			c-0.1,0-0.2,0.1-0.2,0.1c-0.2,0.1-0.3,0.2-0.5,0.1c-0.1,0-0.2-0.1-0.3-0.2c0-0.1-0.1-0.2,0-0.2c0.1-0.1,0.2-0.1,0.3-0.1
			c0.4-0.2,0-0.2-0.2-0.3c-0.1,0-0.2-0.1-0.3-0.1c-0.1-0.1-0.2-0.2-0.4-0.2c-0.1,0-0.1,0-0.2,0c-0.1,0-0.1,0.1-0.2,0.1
			c-0.1,0-0.1,0.1-0.2,0.1c-0.1,0-0.2,0-0.3,0.1c-0.1,0.1-0.2,0.1-0.3,0.2c0,0.1,0,0.2,0,0.2c0,0.1,0.1,0.1,0.2,0.1
			c0.1,0.1,0.2,0.1,0.3,0.2c0.1,0,0.2,0,0.3,0c0.1,0,0.2,0,0.3,0.1c0.1,0.1,0.4,0.2,0.4,0.3c0,0,0,0.1-0.1,0.1
			c0,0.1-0.1,0.1-0.2,0.1c-0.1,0.1-0.2,0.1-0.3,0.2c-0.1,0.1-0.2,0.2-0.3,0.3c-0.1,0.1-0.1,0.2-0.1,0.3c0,0.1,0,0.1,0.1,0.2
			c0,0,0.1,0.1,0.2,0.1c0.1,0,0.2,0,0.3,0c0.1,0,0.2-0.1,0.3-0.1c0.1-0.1,0.2-0.2,0.3-0.2C85.3,29.5,85.4,29.4,85.5,29.4z"/>
		<path fill-rule="evenodd" fill="#FFFFFF" d="M89.1,38.7c0.2,0,0.4-0.1,0.6-0.1c0.1,0,0.3,0,0.4,0c0.6,0,1,0.5,1.3,0.9
			c0.1,0.1,0.1,0.1,0.2,0.2c0.1,0.1,0.1,0.2,0.1,0.3c0,0.1,0,0.1,0.1,0.2c0,0.1,0.1,0.1,0.2,0.1c0.1,0,0.2,0,0.3,0
			c0.1-0.1,0.3-0.1,0.4-0.2c0.1-0.1,0.2-0.2,0.2-0.3c0-0.1,0.1-0.2,0.1-0.3c0-0.1,0-0.2-0.1-0.2c-0.1-0.1-0.2-0.2-0.3-0.3
			c-0.1-0.2-0.3-0.3-0.5-0.5c-0.1-0.1-0.3-0.3,0-0.3c0.1,0,0.3,0,0.4,0c0.1,0,0.3,0,0.4,0c0.1,0,0.2,0,0.2-0.1
			c0.1-0.1,0.2-0.2,0.2-0.3c0.1-0.1,0.1-0.3,0.1-0.4c0.1-0.2,0.1-0.3,0.2-0.5c0.1-0.1,0.2-0.3,0.2-0.4c0.2-0.3-0.1-0.4-0.4-0.4
			c-0.1,0-0.2,0.1-0.4,0.1c-0.1,0-0.2,0.1-0.4,0.1c-0.2,0.1-0.4,0.1-0.5,0.2c-0.1,0-0.1,0.1-0.2,0.1c-0.1,0-0.1,0-0.2,0
			c-0.1,0-0.1,0.1-0.2,0.1c-0.1,0-0.2,0.1-0.3,0.1c-0.3,0.2-0.3,0.1-0.6-0.1c-0.2-0.2-0.4-0.4-0.5-0.7c0-0.1-0.1-0.2,0-0.2
			c0-0.2-0.1-0.4-0.3-0.3c-0.1,0-0.1,0.1-0.2,0.2c-0.1,0.1-0.2,0.1-0.2,0.2c-0.3,0.3-0.3,0.6-0.2,1c0,0.2,0.2,0.5,0,0.6
			c-0.1,0.1-0.3,0.1-0.4,0.1c0,0-0.1,0-0.1-0.1c-0.1-0.2-0.1-0.3-0.3-0.1c-0.1,0.1-0.1,0.2-0.2,0.3c0,0.1,0,0.2,0,0.3
			c0,0-0.1,0.1-0.1,0.1c0,0,0,0.1,0,0.1c0,0.1,0.1,0.1,0.1,0.2c0.1,0.1,0.1,0.1,0.2,0.1c0.1,0,0.1,0.1,0.2,0.1c0.1,0,0.1,0,0.2,0
			C89,38.8,89.1,38.7,89.1,38.7z M88.9,41.1c0.1,0.1,0.1,0.2,0.2,0.2c0.1,0.1,0.2,0.1,0.3,0.1c0.1,0,0.2,0,0.3-0.1
			c0.1,0,0.2-0.1,0.3-0.2c0.1-0.1,0.1-0.1,0.2-0.2c0.1-0.1,0.1-0.2,0.2-0.4c0-0.1,0-0.2,0-0.3c0-0.1,0-0.2,0-0.3
			c0-0.1,0-0.2,0.1-0.3c0,0,0-0.1,0-0.1c-0.1,0-0.2,0-0.2,0c-0.2,0.1-0.3,0.1-0.5,0.2c-0.1,0-0.2,0.1-0.3,0.1c0,0,0,0-0.1,0
			c0,0,0-0.1-0.1-0.1c0,0-0.1,0-0.1,0.1c0,0.1,0,0.1-0.1,0.2c0,0.1-0.1,0.1-0.2,0.2c-0.1,0.2-0.2,0.3-0.2,0.6c0,0.1,0,0.2,0,0.3
			C88.8,41,88.8,41,88.9,41.1z"/>
		<path fill-rule="evenodd" fill="#FFFFFF" d="M92.9,48.4c0,0.1,0,0.1,0,0.2c0,0.1,0,0.2,0,0.3c0,0.1,0.1,0.1,0.2,0.2
			c0.1,0.1,0.2,0.2,0.3,0.2c0.1,0,0.2,0,0.3,0c0.1,0,0.3,0,0.4-0.1c0.1,0,0.3-0.1,0.4-0.1c0.1-0.1,0.2-0.1,0.2-0.2
			c0.1-0.1,0.3-0.5,0.5-0.3c0.2,0.2,0.3,0.4,0.4,0.7c0.1,0.3,0.3,0.4,0.6,0.4c0.2,0,0.4,0,0.5-0.3c0-0.1,0.1-0.2,0-0.3
			c0-0.1-0.1-0.4-0.3-0.3c0,0-0.1,0.1-0.1,0.1c0,0-0.1,0-0.1,0c-0.1,0-0.1,0-0.2-0.1c-0.1,0-0.1-0.1-0.2-0.2
			c-0.1-0.2-0.3-0.3-0.4-0.5c-0.1-0.2-0.2-0.4-0.4-0.6c-0.1-0.2-0.2-0.5-0.4-0.7c-0.1-0.2-0.2-0.3-0.2-0.5c-0.1-0.1-0.1-0.2-0.2-0.3
			c-0.1-0.1-0.2-0.2-0.2-0.2c0,0,0-0.1,0-0.2c0,0,0-0.1,0.1-0.1c0,0,0.1-0.1,0.1-0.1c0,0,0-0.1,0-0.1c0-0.1-0.1-0.2-0.2-0.2
			c-0.1-0.1-0.1-0.1-0.2-0.1c0,0-0.1-0.1-0.1-0.1c-0.1,0-0.2,0-0.3,0c-0.2,0-0.3,0.1-0.5,0.1c-0.1,0-0.2,0-0.2,0
			c-0.1,0-0.2,0-0.4,0.1c-0.1,0-0.2,0.1-0.2,0.2c0,0,0,0.1,0,0.1c0,0.1,0.1,0.1,0.1,0.1c0.1,0.1,0.2,0.2,0.3,0.2c0,0,0.1,0,0.2,0.1
			c0.1,0.1,0.2,0.1,0.3,0.2c0.2,0.1,0.3,0.1,0.5,0.2c0.3,0.1,0.4,0.2,0.5,0.4c0.1,0.2,0.2,0.3,0.3,0.5c0.1,0.1,0.2,0.3,0.2,0.4
			c0.1,0.2,0.1,0.3,0.1,0.5c0,0.1,0,0.1,0,0.2c0,0.1,0,0.1,0,0.2c0,0.1-0.1,0.2-0.1,0.3c-0.1,0.1-0.1,0.1-0.2,0.2
			c-0.1,0-0.2,0.1-0.2,0.1c-0.1,0-0.2,0-0.3,0c0,0-0.1,0-0.1,0c0,0-0.1-0.1-0.1-0.1c0-0.1,0-0.2-0.1-0.2c0,0-0.1-0.1-0.1-0.1
			C93,48.3,93,48.3,92.9,48.4z M92.2,48c0.1,0,0.2,0.1,0.2,0.1c0.1,0,0.1,0,0.2,0c0.1,0,0.2,0,0.3-0.1c0.1-0.1,0.1-0.1,0.1-0.2
			c0-0.1,0.1-0.3,0.1-0.4c0-0.1,0-0.3,0-0.4c0-0.1,0-0.3-0.1-0.4c0-0.1-0.1-0.3-0.2-0.4c-0.1-0.1-0.2-0.2-0.3-0.3
			c-0.1-0.1-0.2-0.1-0.3,0c0,0-0.1,0.1-0.1,0.1c0,0.1,0,0.1,0,0.2c0.1,0.3,0.2,0.5,0.1,0.8c0,0.1-0.1,0.2-0.1,0.3c0,0-0.1,0-0.1,0
			c0,0-0.1,0-0.1,0c-0.1,0-0.1-0.1-0.2-0.1c-0.1,0-0.2-0.1-0.4-0.1c-0.1,0-0.1,0-0.2,0c0,0-0.1,0-0.1,0.1c0,0,0,0.1,0,0.1
			c0,0.1,0,0.2,0,0.2c0,0,0,0.1-0.1,0.1c0,0-0.1,0-0.1,0c0,0-0.1,0-0.1-0.1c0-0.1-0.1-0.2-0.1-0.3c-0.1-0.3-0.1-0.5-0.1-0.8
			c0-0.2,0-0.5,0-0.7c0-0.1,0-0.3,0-0.4c0-0.1,0.1-0.2,0.1-0.3c0-0.1,0-0.2,0-0.3c0-0.1-0.1-0.2-0.2-0.3c0,0-0.1,0-0.2,0
			c-0.1,0-0.2,0-0.2,0.1c-0.1,0.1-0.1,0.2-0.1,0.3c0,0.2,0,0.4,0,0.5c0,0.5,0.1,0.9,0.2,1.4c0,0.2,0.1,0.4,0.1,0.6
			c0,0.1,0,0.1,0,0.2c0,0-0.1,0.1-0.1,0.1c-0.1,0-0.1,0-0.2,0c-0.1,0-0.1,0-0.2-0.1c-0.1-0.1-0.1-0.2-0.2-0.3c0-0.1-0.1-0.3-0.1-0.4
			c0-0.2,0-0.4,0-0.5c0-0.2,0.1-0.4,0.1-0.6c0-0.1,0-0.3-0.1-0.4c0,0,0-0.1-0.1-0.1c0,0-0.1,0-0.1,0c0,0-0.1,0.1-0.1,0.1
			c-0.1,0.2-0.1,0.3-0.2,0.5c0,0.1-0.1,0.3-0.1,0.4c0,0.1,0,0.3,0,0.4c0,0.1,0,0.3,0,0.4c0,0.1,0,0.3,0.1,0.4c0,0.1,0.1,0.2,0.2,0.4
			c0.1,0.1,0.2,0.2,0.3,0.3c0.1,0.1,0.3,0.1,0.4,0.2c0.1,0,0.2,0,0.3,0.1c0.1,0.1,0.1,0.3,0.1,0.4c0,0.2,0,0.5,0.1,0.7
			c0,0.1,0.2,0.2,0.3,0.1c0.2,0,0.2-0.2,0.2-0.4c0-0.1,0.1-0.1,0.1-0.2c0-0.1,0-0.2-0.1-0.3c0-0.1-0.1-0.2-0.1-0.2c0,0,0-0.1,0-0.2
			c0,0,0-0.1,0.1-0.1c0,0,0.1,0,0.1-0.1c0.1,0,0.1,0,0.2-0.1c0.1-0.1,0.1-0.1,0.2-0.2c0.1,0,0.1-0.1,0.2-0.1
			C91.9,47.8,92.1,47.9,92.2,48z M95.4,47c0,0.1,0,0.1,0,0.2c0,0.1,0,0.2,0.1,0.2c0.1,0.1,0.2,0.2,0.3,0.3c0.1,0.2,0.2,0.3,0.3,0.5
			c0.1,0.1,0.2,0.3,0.3,0.4c0.1,0.1,0.2,0,0.2-0.1c0-0.1,0-0.1,0-0.2c-0.1-0.1-0.1-0.3-0.2-0.5c-0.1-0.2-0.2-0.4,0-0.7
			c0-0.1,0.1-0.1,0.1-0.2c0-0.1,0-0.1,0-0.2c0,0,0-0.1-0.1-0.1c-0.1-0.1-0.2-0.1-0.3-0.1c-0.1,0-0.1,0-0.2,0c-0.1,0-0.1,0.1-0.2,0.1
			c-0.1,0.1-0.1,0.2-0.2,0.2C95.5,47,95.4,47,95.4,47z M94.8,45.6c0.1,0.1,0.1,0.1,0.2,0.2c0.1,0,0.1,0.1,0.2,0.1c0.1,0,0.2,0,0.2,0
			c0.1,0,0.2-0.1,0.2-0.1c0.1-0.1,0.2-0.2,0.3-0.4c0.1-0.1,0.3-0.3,0.4-0.4c0-0.1,0.1-0.1,0.1-0.2c0-0.3-0.5-0.2-0.7-0.2
			c-0.1,0-0.3,0-0.4,0c-0.1,0-0.2,0-0.2,0.1c-0.1,0.1-0.1,0.1-0.2,0.2c-0.1,0.1-0.1,0.2-0.1,0.3c0,0.1,0,0.2,0,0.2
			C94.8,45.5,94.8,45.5,94.8,45.6z"/>
	</g>
	<path fill-rule="evenodd" fill="#FFFFFF" d="M14.7,71.7c0.3-0.1,0.4-0.3,0.5-0.6c0.1-0.2,0-0.5-0.1-0.8l-0.3-0.5l-1.9,1l0.2,0.4
		c0.2,0.3,0.4,0.5,0.7,0.5C14.1,72,14.4,71.9,14.7,71.7z M12.3,75.1L11.7,74c0.3-0.5,0.5-0.9,0.7-1.3c0.2-0.4,0.4-0.8,0.5-1.2
		l-0.2-0.4l-1.4,0.8c-0.1,0-0.1,0.1-0.2,0.1c0,0.1-0.1,0.1,0,0.2c0,0,0,0.1,0.1,0.2c0,0.1,0.1,0.2,0.1,0.2L11,72.8l-1-1.8l0.2-0.1
		c0,0,0.1,0.1,0.1,0.2c0.1,0.1,0.1,0.1,0.1,0.2c0.1,0,0.1,0.1,0.2,0.1c0.1,0,0.1,0,0.2-0.1l3.1-1.7c0.1,0,0.1-0.1,0.2-0.1
		c0-0.1,0.1-0.1,0-0.2c0-0.1,0-0.1-0.1-0.2c0-0.1-0.1-0.2-0.1-0.2l0.2-0.1l1.1,2c0.1,0.2,0.2,0.4,0.2,0.5c0.1,0.2,0.1,0.4,0.1,0.5
		c0,0.2-0.1,0.3-0.2,0.5c-0.1,0.1-0.2,0.3-0.4,0.4c-0.2,0.1-0.3,0.1-0.5,0.2c-0.2,0-0.3,0-0.5,0c-0.1,0-0.3-0.1-0.4-0.2
		c-0.1-0.1-0.3-0.2-0.4-0.3c-0.2,0.4-0.3,0.7-0.4,0.9c-0.1,0.2-0.3,0.6-0.4,0.9c-0.1,0.2-0.1,0.3-0.1,0.4c0,0.1,0,0.2,0,0.3
		c0,0.1,0,0.1,0,0.2c0,0.1,0.1,0.2,0.1,0.2L12.3,75.1z M11.2,70.2l-1.4,0.5L8.1,67l0.2-0.1c0,0.1,0.1,0.1,0.1,0.2
		c0.1,0.1,0.1,0.2,0.1,0.2c0.1,0.1,0.1,0.1,0.2,0.1c0.1,0,0.1,0,0.2,0l3.2-1.5c0.1,0,0.1-0.1,0.2-0.1c0,0,0.1-0.1,0.1-0.2
		c0-0.1,0-0.2,0-0.3c0-0.1,0-0.2-0.1-0.2l0.2-0.1l1.6,3.5l-1.1,0.5L13,68.6c0.1-0.1,0.3-0.3,0.4-0.5c0.1-0.2,0.2-0.4,0.1-0.5
		c0-0.1-0.1-0.2-0.1-0.2c0-0.1-0.1-0.2-0.1-0.3l-0.3-0.7l-1.8,0.8l0.2,0.5c0.1,0.2,0.1,0.3,0.2,0.3c0.1,0.1,0.1,0.1,0.2,0.1
		c0.1,0,0.2,0,0.3,0c0.1,0,0.2,0,0.3-0.1l0.1,0.2l-1.8,0.8l-0.1-0.2c0.1-0.1,0.2-0.1,0.3-0.2c0.1-0.1,0.2-0.2,0.2-0.2
		c0.1-0.1,0.1-0.2,0.1-0.3c0-0.1-0.1-0.2-0.1-0.3l-0.2-0.5l-1.3,0.6C9.4,68,9.3,68,9.3,68.1c-0.1,0.1-0.1,0.1-0.1,0.2
		c0,0.1,0,0.2,0,0.3c0,0.1,0.1,0.2,0.2,0.4c0,0.1,0.1,0.2,0.1,0.3c0.1,0.1,0.1,0.2,0.1,0.3c0,0.1,0.1,0.2,0.2,0.2
		c0.1,0.1,0.1,0.1,0.2,0.1c0.1,0,0.3,0.1,0.6,0.1c0.3,0,0.4,0,0.5,0L11.2,70.2z M12.5,65.5c0-0.1-0.1-0.1-0.2-0.3
		c-0.1-0.1-0.1-0.2-0.2-0.2c-0.1-0.1-0.2-0.1-0.4,0c-0.2,0-0.4,0.1-0.6,0.2l-3.4,1.2L7.6,66l2.8-4.2l-2.4,0.8
		c-0.3,0.1-0.5,0.2-0.6,0.3c-0.1,0.1-0.2,0.2-0.3,0.3c0,0.1,0,0.2,0,0.4c0,0.2,0,0.3,0,0.3L7,64l-0.7-1.9L6.5,62
		c0,0.1,0.1,0.1,0.2,0.3c0.1,0.1,0.2,0.2,0.2,0.2c0.1,0.1,0.2,0.1,0.3,0.1c0.1,0,0.4-0.1,0.7-0.2l2.3-0.8c0.1,0,0.2-0.1,0.3-0.2
		c0.1-0.1,0.1-0.1,0.2-0.2c0-0.1,0.1-0.2,0.1-0.4c0-0.2,0-0.3,0-0.4l0.2-0.1l0.5,1.3l-2.6,3.9l2.2-0.8c0.3-0.1,0.5-0.2,0.6-0.3
		c0.1-0.1,0.2-0.2,0.2-0.3c0-0.1,0-0.2,0-0.3c0-0.2,0-0.3,0-0.3l0.2-0.1l0.7,1.9L12.5,65.5z M10.8,61.1c0-0.1-0.1-0.2-0.1-0.3
		c-0.1-0.1-0.1-0.2-0.2-0.3c-0.1-0.1-0.2-0.1-0.4-0.1c-0.2,0-0.4,0-0.6,0.1L6,61.4L6,61.2l3.2-3.9l-2.5,0.6C6.4,58,6.2,58,6.1,58.1
		s-0.2,0.2-0.3,0.2c0,0.1-0.1,0.2-0.1,0.4c0,0.2,0,0.3,0,0.3l-0.2,0.1l-0.5-2l0.2-0.1c0,0.1,0.1,0.2,0.1,0.3
		c0.1,0.1,0.1,0.2,0.2,0.2c0.1,0.1,0.2,0.1,0.3,0.1c0.1,0,0.4,0,0.7-0.1L9,57c0.1,0,0.2-0.1,0.3-0.1c0.1-0.1,0.2-0.1,0.2-0.2
		c0.1-0.1,0.1-0.2,0.1-0.4c0-0.2,0-0.3,0-0.4l0.2-0.1l0.3,1.4l-3,3.6l2.3-0.6c0.3-0.1,0.5-0.1,0.6-0.2c0.1-0.1,0.2-0.1,0.3-0.2
		c0-0.1,0-0.2,0.1-0.3c0-0.2,0-0.3,0-0.3l0.2-0.1l0.5,1.9L10.8,61.1z M5.1,56.9l-0.3-2.2l0.2,0c0,0.1,0,0.2,0.1,0.3
		c0,0.1,0,0.2,0.1,0.2c0,0.1,0.1,0.1,0.1,0.2c0.1,0,0.1,0,0.2,0l3.5-0.4c0.1,0,0.1,0,0.2-0.1c0.1,0,0.1-0.1,0.1-0.2
		c0-0.1,0-0.2,0-0.3c0-0.1,0-0.2,0-0.3l0.2,0l0.3,2.2l-0.2,0c0-0.1,0-0.2-0.1-0.3c0-0.1-0.1-0.2-0.1-0.3c0-0.1-0.1-0.1-0.2-0.2
		c-0.1,0-0.1,0-0.2,0l-3.5,0.4c-0.1,0-0.1,0-0.2,0.1c-0.1,0-0.1,0.1-0.1,0.2c0,0.1,0,0.1,0,0.2c0,0.1,0,0.2,0,0.3L5.1,56.9z
		 M42.2,92.9l-0.4-2l-1.1,1.7L42.2,92.9z M43.7,95.3l-2-0.4l0-0.2c0.2,0,0.3,0,0.5,0c0.1,0,0.2,0,0.2-0.1c0,0,0,0,0-0.1
		c0,0,0-0.1,0-0.1l-0.2-1.2l-1.7-0.3c-0.1,0.1-0.2,0.3-0.2,0.4c-0.1,0.1-0.1,0.2-0.2,0.3c0,0.1-0.1,0.2-0.1,0.2c0,0.1,0,0.1,0,0.1
		c0,0.1,0,0.2,0.2,0.3c0.1,0.1,0.3,0.1,0.5,0.2l0,0.2l-1.8-0.4l0-0.2c0.1,0,0.1,0,0.2,0c0.1,0,0.2,0,0.2,0c0.1,0,0.2-0.1,0.2-0.2
		c0.1-0.1,0.1-0.1,0.2-0.2c0.4-0.6,0.8-1.2,1.2-1.9c0.4-0.7,0.8-1.3,1.2-1.9l0.3,0.1l0.8,4.5c0,0.1,0,0.2,0.1,0.2
		c0,0.1,0.1,0.1,0.1,0.2c0,0,0.1,0.1,0.2,0.1c0.1,0,0.1,0.1,0.2,0.1L43.7,95.3z M39.1,94.2l-2.1-0.6l0.1-0.2c0.1,0,0.2,0,0.3,0.1
		c0.1,0,0.2,0,0.3,0c0.1,0,0.1,0,0.2-0.1c0,0,0.1-0.1,0.1-0.2l1-3.4c0-0.1,0-0.1,0-0.2c0-0.1-0.1-0.1-0.1-0.2
		c-0.1,0-0.1-0.1-0.2-0.1c-0.1-0.1-0.2-0.1-0.2-0.1l0.1-0.2l2.1,0.6l-0.1,0.2c-0.1,0-0.2,0-0.3,0c-0.1,0-0.2,0-0.3,0
		c-0.1,0-0.2,0-0.2,0.1c0,0.1-0.1,0.1-0.1,0.2l-1,3.4c0,0.1,0,0.1,0,0.2c0,0.1,0.1,0.1,0.1,0.2c0,0,0.1,0.1,0.2,0.1
		C39,93.9,39,94,39.1,94L39.1,94.2z M34.3,88c0.1,0.3,0.1,0.6,0.1,1c0,0.3-0.2,0.7-0.3,1c-0.2,0.3-0.4,0.6-0.7,0.9
		c-0.3,0.2-0.5,0.4-0.8,0.5c-0.3,0.1-0.6,0.1-0.9,0.1c-0.3,0-0.6-0.1-0.9-0.3c-0.3-0.2-0.6-0.4-0.7-0.6c-0.2-0.2-0.3-0.5-0.4-0.8
		c-0.1-0.3-0.1-0.6-0.1-1c0-0.3,0.2-0.7,0.3-1c0.2-0.4,0.4-0.6,0.7-0.9c0.3-0.2,0.5-0.4,0.8-0.5c0.3-0.1,0.6-0.1,0.9-0.1
		c0.3,0,0.6,0.1,0.9,0.3c0.3,0.2,0.5,0.4,0.7,0.6C34.1,87.4,34.2,87.7,34.3,88z M32.2,90.8c0.2-0.1,0.4-0.3,0.6-0.5
		c0.2-0.2,0.3-0.5,0.5-0.7c0.2-0.3,0.3-0.6,0.4-0.9c0.1-0.3,0.1-0.5,0.1-0.8c0-0.2-0.1-0.4-0.2-0.6c-0.1-0.2-0.3-0.3-0.5-0.5
		c-0.2-0.1-0.5-0.2-0.7-0.2c-0.2,0-0.5,0.1-0.7,0.2c-0.2,0.1-0.4,0.3-0.6,0.5c-0.2,0.2-0.3,0.5-0.5,0.7c-0.2,0.3-0.3,0.6-0.3,0.8
		c-0.1,0.3-0.1,0.5-0.1,0.8c0,0.2,0.1,0.5,0.2,0.6c0.1,0.2,0.3,0.3,0.5,0.5c0.2,0.1,0.4,0.2,0.7,0.2C31.8,91,32,90.9,32.2,90.8z
		 M37.5,92.2l-0.6,1.3l-3.6-1.4l0.1-0.2c0.1,0,0.1,0,0.2,0.1c0.1,0,0.2,0,0.2,0c0.1,0,0.1,0,0.2-0.1c0.1,0,0.1-0.1,0.1-0.2l1.3-3.3
		c0-0.1,0-0.1,0-0.2c0-0.1,0-0.1-0.1-0.2c0,0-0.1-0.1-0.2-0.2c-0.1-0.1-0.1-0.1-0.2-0.1l0.1-0.2l1.9,0.8L37,88.5
		c-0.1,0-0.1,0-0.2-0.1c-0.1,0-0.2,0-0.2,0c-0.1,0-0.2,0-0.2,0.1c-0.1,0.1-0.1,0.1-0.1,0.2l-1.2,3.1c-0.1,0.1-0.1,0.3-0.1,0.3
		c0,0.1,0,0.2,0,0.2c0,0.1,0.1,0.1,0.2,0.2c0.1,0.1,0.2,0.1,0.4,0.2c0.1,0,0.2,0.1,0.3,0.1c0.1,0,0.2,0.1,0.3,0.1c0.1,0,0.2,0,0.2,0
		c0.1,0,0.1,0,0.2,0c0.1-0.1,0.3-0.2,0.5-0.3c0.2-0.2,0.3-0.3,0.4-0.4L37.5,92.2z M29.7,88.4c-0.1,0-0.1-0.1-0.2-0.1
		c-0.1,0-0.2-0.1-0.2-0.1c-0.1,0-0.1,0-0.2,0c-0.1,0-0.1,0.1-0.2,0.2l-0.2,0.3c-0.2,0.2-0.3,0.4-0.3,0.5c0,0.1-0.1,0.2-0.1,0.2
		c-0.3-0.1-0.6-0.1-0.9-0.2c-0.3-0.1-0.6-0.2-0.8-0.4c-0.3-0.2-0.5-0.4-0.7-0.6c-0.2-0.3-0.3-0.5-0.4-0.8c-0.1-0.3-0.1-0.6,0-1
		c0.1-0.3,0.2-0.7,0.4-1c0.2-0.3,0.4-0.6,0.7-0.8c0.3-0.2,0.6-0.3,0.9-0.4c0.3-0.1,0.6-0.1,1,0c0.3,0.1,0.6,0.2,0.9,0.4
		c0.2,0.2,0.4,0.3,0.6,0.5c0.1,0.2,0.2,0.3,0.3,0.5l0.2-0.1l0.2,0.2L29.8,87l-0.2-0.2c0.1-0.2,0.1-0.4,0.2-0.6c0-0.2,0.1-0.4,0-0.6
		c0-0.2-0.1-0.4-0.2-0.5c-0.1-0.2-0.2-0.3-0.4-0.4c-0.2-0.1-0.4-0.2-0.6-0.2c-0.2,0-0.4,0-0.7,0.1c-0.2,0.1-0.4,0.2-0.7,0.4
		c-0.2,0.2-0.4,0.4-0.6,0.7c-0.2,0.3-0.3,0.5-0.4,0.8c-0.1,0.3-0.1,0.5-0.1,0.8c0,0.3,0.1,0.5,0.2,0.7c0.1,0.2,0.3,0.4,0.5,0.5
		c0.2,0.1,0.3,0.2,0.5,0.2s0.3,0,0.4,0c0.1-0.1,0.2-0.2,0.2-0.3c0.1-0.1,0.1-0.2,0.2-0.3l0.1-0.2c0.1-0.1,0.1-0.2,0.1-0.2
		c0-0.1,0-0.2,0-0.2c0-0.1-0.1-0.1-0.2-0.2c-0.1-0.1-0.2-0.2-0.2-0.2L28,87l1.8,1.2L29.7,88.4z M27.5,83.9c-0.1,0-0.1-0.1-0.3-0.1
		c-0.1-0.1-0.2-0.1-0.3-0.1c-0.1,0-0.2,0-0.3,0.2c-0.1,0.1-0.3,0.3-0.4,0.5L24,87.1l-0.2-0.2l0.1-5l-1.6,2c-0.2,0.2-0.3,0.4-0.4,0.6
		c-0.1,0.1-0.1,0.3-0.1,0.4c0,0.1,0.1,0.2,0.2,0.3c0.1,0.1,0.2,0.2,0.2,0.3l-0.2,0.2l-1.6-1.2l0.2-0.2c0.1,0,0.1,0.1,0.3,0.1
		c0.1,0.1,0.2,0.1,0.3,0.1c0.1,0,0.2,0,0.3-0.1c0.1-0.1,0.3-0.3,0.5-0.5l1.5-1.9c0.1-0.1,0.1-0.2,0.2-0.3c0-0.1,0-0.2,0-0.3
		c0-0.1-0.1-0.2-0.1-0.4c-0.1-0.1-0.2-0.2-0.2-0.3l0.2-0.2l1.1,0.9l-0.1,4.7l1.4-1.8c0.2-0.2,0.3-0.4,0.4-0.6
		c0.1-0.1,0.1-0.3,0.1-0.3c0-0.1-0.1-0.2-0.2-0.3c-0.1-0.1-0.2-0.2-0.2-0.3l0.2-0.2l1.6,1.2L27.5,83.9z M20.1,82.8
		c0.2-0.1,0.5-0.2,0.7-0.3c0.2-0.2,0.5-0.3,0.7-0.6c0.2-0.2,0.4-0.5,0.6-0.7c0.1-0.2,0.2-0.5,0.3-0.7c0-0.2,0-0.5,0-0.7
		c-0.1-0.2-0.2-0.4-0.4-0.6c-0.2-0.2-0.4-0.3-0.6-0.4c-0.2,0-0.5,0-0.7,0c-0.2,0.1-0.5,0.2-0.7,0.3c-0.2,0.2-0.5,0.3-0.7,0.6
		c-0.2,0.2-0.4,0.5-0.6,0.7c-0.1,0.2-0.2,0.5-0.3,0.7c-0.1,0.2,0,0.5,0,0.7c0.1,0.2,0.2,0.4,0.4,0.6c0.2,0.2,0.4,0.3,0.6,0.3
		C19.7,82.9,19.9,82.9,20.1,82.8z M22.9,80.7c0,0.3-0.1,0.6-0.2,0.9c-0.1,0.3-0.3,0.6-0.6,0.9c-0.3,0.3-0.6,0.5-0.9,0.6
		c-0.3,0.1-0.6,0.2-0.9,0.2c-0.3,0-0.6,0-0.9-0.2c-0.3-0.1-0.5-0.3-0.8-0.5c-0.2-0.2-0.4-0.5-0.5-0.8c-0.1-0.3-0.2-0.6-0.2-0.9
		c0-0.3,0.1-0.6,0.2-0.9c0.1-0.3,0.3-0.6,0.6-0.9c0.3-0.3,0.6-0.5,0.9-0.6c0.3-0.1,0.6-0.2,0.9-0.2c0.3,0,0.6,0,0.9,0.2
		c0.3,0.1,0.6,0.3,0.8,0.5c0.2,0.2,0.4,0.5,0.5,0.8C22.9,80,22.9,80.3,22.9,80.7z M16.8,80.8l-1.4-1.7l0.2-0.2
		c0.1,0.1,0.1,0.1,0.2,0.2c0.1,0.1,0.2,0.1,0.2,0.2c0.1,0,0.2,0,0.2,0c0.1,0,0.1,0,0.2-0.1l2.8-2.3l0,0l-4.3,1.3l-0.1-0.1l2.3-3.9
		l0,0L14.8,76c-0.2,0.2-0.4,0.3-0.5,0.5c-0.1,0.1-0.1,0.2-0.1,0.3c0,0.1,0,0.2,0.1,0.3c0.1,0.2,0.1,0.2,0.1,0.3l-0.2,0.2L13,76
		l0.2-0.2c0.1,0.1,0.2,0.1,0.2,0.2c0.1,0.1,0.2,0.1,0.3,0.1c0.1,0,0.2,0,0.3-0.1c0.1-0.1,0.3-0.2,0.6-0.4l2-1.6
		c0.1-0.1,0.2-0.2,0.2-0.3c0.1-0.1,0.1-0.2,0.1-0.3c0-0.1,0-0.2-0.1-0.3c0-0.1-0.1-0.2-0.2-0.3l0.2-0.2l1.1,1.3l-2,3.4l3.2-1
		c0.1,0,0.2-0.1,0.3-0.1c0.1-0.1,0.2-0.1,0.2-0.1l1,1.2l-0.2,0.2c0,0-0.1-0.1-0.2-0.2c-0.1-0.1-0.1-0.1-0.2-0.1
		c-0.1,0-0.1-0.1-0.2,0c-0.1,0-0.1,0.1-0.2,0.1l-2.8,2.2c-0.1,0.1-0.1,0.1-0.1,0.2c0,0.1,0,0.1,0,0.2c0,0,0,0.1,0.1,0.2
		c0.1,0.1,0.1,0.2,0.1,0.2L16.8,80.8z M73.5,87.6l0.6,1.3l-3.3,1.9l-0.1-0.2c0,0,0.1-0.1,0.2-0.1c0.1-0.1,0.1-0.1,0.2-0.1
		c0-0.1,0.1-0.1,0.1-0.2c0-0.1,0-0.1-0.1-0.2l-1.8-3.1c0-0.1-0.1-0.1-0.1-0.2c-0.1,0-0.1-0.1-0.2,0c-0.1,0-0.1,0-0.2,0
		c-0.1,0-0.2,0.1-0.2,0.1l-0.1-0.2l1.8-1l0.1,0.2c-0.1,0-0.1,0.1-0.2,0.2C70,86,69.9,86,69.9,86.1c-0.1,0.1-0.1,0.1-0.1,0.2
		c0,0.1,0,0.1,0.1,0.2l1.7,2.9c0.1,0.1,0.1,0.2,0.2,0.3c0.1,0.1,0.1,0.1,0.2,0.1c0.1,0,0.1,0,0.2,0c0.1,0,0.2-0.1,0.4-0.2
		c0.1,0,0.2-0.1,0.2-0.1c0.1-0.1,0.1-0.1,0.2-0.2c0.1-0.1,0.1-0.1,0.2-0.2c0-0.1,0.1-0.1,0.1-0.2c0-0.1,0-0.3,0-0.6
		c0-0.3,0-0.4,0-0.6L73.5,87.6z M68.3,89.8l-1.5-1.4l0.1,2L68.3,89.8z M70.9,90.8L69,91.7l-0.1-0.2c0.2-0.1,0.3-0.2,0.4-0.2
		c0.1-0.1,0.1-0.1,0.1-0.2c0,0,0,0,0-0.1c0,0,0,0-0.1-0.1L68.5,90l-1.6,0.7c0,0.2,0,0.3,0,0.5c0,0.1,0,0.2,0,0.3c0,0.1,0,0.2,0,0.2
		c0,0.1,0,0.1,0,0.1c0,0.1,0.1,0.1,0.3,0.1c0.2,0,0.3-0.1,0.5-0.1l0.1,0.2l-1.7,0.8l-0.1-0.2c0.1,0,0.1-0.1,0.2-0.1
		c0.1-0.1,0.1-0.1,0.2-0.2c0.1-0.1,0.1-0.2,0.1-0.3c0-0.1,0-0.2,0-0.3c0-0.7-0.1-1.4-0.1-2.2c0-0.8-0.1-1.6-0.1-2.2l0.3-0.1l3.2,3.2
		c0.1,0.1,0.1,0.1,0.2,0.2c0.1,0,0.1,0.1,0.2,0.1c0.1,0,0.1,0,0.2,0c0.1,0,0.2,0,0.2-0.1L70.9,90.8z M64.8,93.5
		c-0.3,0.1-0.6,0.1-0.9,0.1c-0.3,0-0.6-0.1-0.8-0.3c-0.3-0.1-0.5-0.3-0.7-0.6c-0.2-0.3-0.4-0.6-0.5-1c-0.1-0.4-0.2-0.7-0.2-1.1
		c0-0.3,0.1-0.7,0.2-0.9c0.1-0.3,0.3-0.5,0.6-0.7c0.2-0.2,0.5-0.4,0.8-0.5c0.2-0.1,0.5-0.1,0.7-0.1c0.2,0,0.4,0,0.6,0.1l0.1-0.3
		l0.3-0.1l0.6,1.7l-0.3,0.1c-0.1-0.2-0.2-0.3-0.3-0.5c-0.1-0.2-0.3-0.3-0.4-0.4c-0.2-0.1-0.3-0.2-0.5-0.2c-0.2,0-0.4,0-0.5,0
		c-0.2,0.1-0.4,0.2-0.6,0.3c-0.2,0.2-0.3,0.3-0.3,0.6c-0.1,0.2-0.1,0.5-0.1,0.8c0,0.3,0.1,0.6,0.2,1c0.1,0.3,0.2,0.6,0.4,0.8
		c0.2,0.2,0.3,0.4,0.5,0.6c0.2,0.1,0.4,0.2,0.6,0.3c0.2,0,0.5,0,0.7,0c0.2-0.1,0.3-0.1,0.5-0.2c0.1-0.1,0.2-0.2,0.3-0.3
		c0.1-0.1,0.1-0.3,0.2-0.4c0-0.1,0.1-0.3,0.1-0.5l0.3,0c0,0.5-0.2,0.9-0.4,1.2C65.6,93.1,65.2,93.3,64.8,93.5z M62.4,94.1l-2.2,0.6
		l-0.1-0.2c0.1,0,0.1-0.1,0.3-0.1c0.1,0,0.2-0.1,0.2-0.1c0.1,0,0.1-0.1,0.1-0.2c0-0.1,0-0.1,0-0.2L60,90.4c0-0.1,0-0.1-0.1-0.2
		c0,0-0.1-0.1-0.2-0.1c-0.1,0-0.2,0-0.3,0c-0.1,0-0.2,0-0.3,0l-0.1-0.2l2.2-0.6l0.1,0.2c-0.1,0-0.2,0-0.2,0.1
		c-0.1,0-0.2,0.1-0.2,0.1c-0.1,0-0.1,0.1-0.1,0.2c0,0.1,0,0.1,0,0.2l0.9,3.5c0,0.1,0.1,0.1,0.1,0.2c0,0,0.1,0.1,0.2,0.1
		c0.1,0,0.1,0,0.2,0c0.1,0,0.2,0,0.3,0L62.4,94.1z M58.9,92.4c-0.1-0.3-0.2-0.6-0.3-0.9c-0.1-0.2-0.3-0.5-0.5-0.6
		c-0.2-0.2-0.4-0.3-0.7-0.3c-0.2-0.1-0.5-0.1-0.8,0c-0.1,0-0.2,0-0.3,0.1c-0.1,0-0.2,0-0.3,0.1l0.7,3.7c0,0.2,0.1,0.3,0.3,0.4
		c0.1,0.1,0.3,0.1,0.6,0c0.3-0.1,0.5-0.1,0.7-0.3c0.2-0.1,0.3-0.3,0.5-0.5c0.1-0.2,0.2-0.5,0.2-0.7C59,93.1,59,92.8,58.9,92.4z
		 M59.8,92.3c0.1,0.4,0.1,0.8,0,1.1c-0.1,0.3-0.3,0.6-0.5,0.9c-0.2,0.2-0.5,0.4-0.8,0.6c-0.3,0.2-0.6,0.3-0.9,0.3l-2,0.4l0-0.2
		c0.1,0,0.2,0,0.3-0.1c0.1,0,0.2-0.1,0.2-0.1c0.1,0,0.1-0.1,0.1-0.2c0-0.1,0-0.1,0-0.2l-0.6-3.5c0-0.1,0-0.1-0.1-0.2
		c0-0.1-0.1-0.1-0.2-0.1c-0.1,0-0.2,0-0.2,0c-0.1,0-0.2,0-0.2,0l0-0.2l2.1-0.4c0.3-0.1,0.6-0.1,0.9,0c0.3,0,0.6,0.1,0.8,0.2
		c0.3,0.2,0.6,0.4,0.8,0.7C59.5,91.5,59.7,91.8,59.8,92.3z M55.3,94.1l0,1.5l-4.1,0.2l0-0.2c0.1,0,0.2,0,0.3,0c0.1,0,0.2,0,0.2-0.1
		c0.1,0,0.1-0.1,0.1-0.1c0-0.1,0-0.1,0-0.2l-0.2-3.5c0-0.1,0-0.1,0-0.2c0-0.1-0.1-0.1-0.2-0.1c-0.1,0-0.2,0-0.3-0.1
		c-0.1,0-0.2,0-0.3,0l0-0.2l3.8-0.2l0.1,1.2l-0.3,0c-0.1-0.2-0.2-0.4-0.3-0.5C54,91.1,53.8,91,53.7,91c-0.1,0-0.2,0-0.3,0
		c-0.1,0-0.2,0-0.3,0l-0.8,0l0.1,2l0.6,0c0.2,0,0.3,0,0.4-0.1s0.1-0.1,0.2-0.2c0-0.1,0.1-0.2,0.1-0.3c0-0.1,0-0.2,0.1-0.3l0.3,0
		l0.1,1.9l-0.3,0c0-0.1,0-0.2-0.1-0.3c0-0.1-0.1-0.2-0.1-0.3c-0.1-0.1-0.2-0.1-0.3-0.2c-0.1,0-0.2,0-0.4,0l-0.6,0l0.1,1.5
		c0,0.1,0,0.3,0.1,0.3c0,0.1,0.1,0.1,0.1,0.2c0.1,0,0.1,0.1,0.3,0.1c0.1,0,0.3,0,0.4,0c0.1,0,0.2,0,0.3,0c0.1,0,0.2,0,0.3,0
		c0.1,0,0.2,0,0.3-0.1c0.1,0,0.2-0.1,0.2-0.1c0.1-0.1,0.2-0.3,0.3-0.5c0.1-0.2,0.2-0.4,0.2-0.5L55.3,94.1z M50.8,95.8l-2.2-0.1
		l0-0.2c0.1,0,0.2,0,0.3,0c0.1,0,0.2,0,0.3,0c0.1,0,0.1-0.1,0.2-0.1c0-0.1,0.1-0.1,0.1-0.2l0.2-3.6l-0.1,0l-1.9,4.1l-0.2,0l-1.3-4.4
		l0,0L46,94.1c0,0.3,0,0.5,0,0.7S46,95,46.1,95c0,0.1,0.1,0.1,0.3,0.2c0.2,0.1,0.3,0.1,0.3,0.1l0,0.2l-2-0.1l0-0.2
		c0.1,0,0.2,0,0.3,0c0.1,0,0.2-0.1,0.3-0.1c0.1-0.1,0.1-0.2,0.2-0.3c0-0.1,0.1-0.4,0.1-0.7l0.2-2.5c0-0.1,0-0.3,0-0.4
		c0-0.1-0.1-0.2-0.1-0.2c-0.1-0.1-0.2-0.1-0.3-0.2c-0.1,0-0.2-0.1-0.3-0.1l0-0.2l1.7,0.1l1.2,3.8l1.4-3c0.1-0.1,0.1-0.2,0.1-0.3
		c0-0.1,0.1-0.2,0.1-0.2l1.6,0.1l0,0.2c-0.1,0-0.1,0-0.2,0c-0.1,0-0.2,0-0.2,0c-0.1,0-0.1,0.1-0.2,0.1c0,0.1-0.1,0.1-0.1,0.2
		l-0.2,3.5c0,0.1,0,0.1,0,0.2c0,0.1,0.1,0.1,0.2,0.2c0,0,0.1,0.1,0.2,0.1c0.1,0,0.2,0,0.3,0L50.8,95.8z M91.5,54c0,0,0,0.1,0,0.2
		c0,0.1,0,0.2,0,0.2c0,0.1,0.1,0.2,0.1,0.2c0,0,0.1,0.1,0.2,0.2c0.2,0.2,0.4,0.4,0.7,0.6c0.2,0.2,0.5,0.5,0.9,0.8
		c0.1,0.1,0.2,0.2,0.3,0.2c0.1,0,0.2,0.1,0.4,0.1l0.9,0.2c0.1,0,0.2,0,0.2,0c0.1,0,0.1-0.1,0.2-0.1c0,0,0.1-0.1,0.1-0.2
		c0.1-0.1,0.1-0.2,0.1-0.3l0.2,0l-0.5,2.3l-0.2,0c0-0.1,0-0.2,0-0.3c0-0.1,0-0.2,0-0.3c0-0.1-0.1-0.2-0.1-0.2
		c-0.1,0-0.1-0.1-0.2-0.1l-1.2-0.2c0,0-0.1,0-0.2,0c-0.1,0-0.2,0.1-0.4,0.1c-0.3,0.1-0.6,0.2-0.9,0.3c-0.3,0.1-0.6,0.2-0.9,0.3
		c-0.1,0-0.3,0.1-0.3,0.1c-0.1,0-0.1,0.1-0.2,0.2c0,0-0.1,0.1-0.1,0.2c0,0.1-0.1,0.1-0.1,0.2l-0.2,0l0.4-2.1l0.2,0
		c0,0.2-0.1,0.4-0.1,0.5c0,0.1,0,0.2,0.1,0.2c0,0,0,0,0.1,0c0,0,0.1,0,0.1,0c0.1,0,0.1,0,0.2-0.1c0.1,0,0.2,0,0.2-0.1
		c0.2-0.1,0.4-0.1,0.7-0.2c0.2-0.1,0.5-0.2,0.9-0.3c-0.5-0.5-0.9-0.8-1.2-1.1c-0.3-0.3-0.5-0.4-0.5-0.4c-0.1,0-0.1,0-0.1,0
		c0,0-0.1,0.1-0.1,0.1c0,0.1-0.1,0.1-0.1,0.2c0,0.1,0,0.1-0.1,0.2l-0.2,0l0.3-1.7L91.5,54z M91.8,58.2l-0.1,0.2c-0.1,0-0.2,0-0.3,0
		c-0.1,0-0.2,0-0.4,0.1c-0.1,0-0.2,0.1-0.3,0.1c-0.1,0.1-0.2,0.1-0.2,0.2c0,0.1-0.1,0.1-0.1,0.3c0,0.1-0.1,0.2-0.1,0.3l-0.1,0.2
		l3.8,1.1c0.1,0,0.1,0,0.2,0c0.1,0,0.1-0.1,0.2-0.1c0,0,0.1-0.1,0.1-0.2c0.1-0.1,0.1-0.2,0.1-0.3l0.2,0.1l-0.7,2.2l-0.2-0.1
		c0-0.1,0-0.2,0.1-0.3c0-0.1,0-0.2,0-0.3c0-0.1,0-0.1-0.1-0.2c0-0.1-0.1-0.1-0.2-0.1l-3.8-1.1L90,60.5c0,0.1,0,0.2-0.1,0.3
		c0,0.1,0,0.2-0.1,0.3c0,0.1,0,0.2,0.1,0.3c0.1,0.1,0.1,0.2,0.2,0.3c0.1,0.1,0.2,0.2,0.3,0.3c0.1,0.1,0.2,0.1,0.2,0.2l-0.1,0.2
		l-1.3-0.4l1.2-4.1L91.8,58.2z M94,63.3l-0.7,2.1L93,65.3c0-0.1,0-0.1,0.1-0.3c0-0.1,0-0.2,0-0.3c0-0.1,0-0.1-0.1-0.2
		c0,0-0.1-0.1-0.2-0.1l-3.4-1.2c-0.1,0-0.1,0-0.2,0c-0.1,0-0.1,0-0.2,0.1c0,0.1-0.1,0.1-0.2,0.2c-0.1,0.1-0.1,0.2-0.1,0.2l-0.2-0.1
		l0.7-2.1l0.2,0.1c0,0.1,0,0.2-0.1,0.3c0,0.1,0,0.2,0,0.3c0,0.1,0,0.2,0.1,0.2c0,0,0.1,0.1,0.2,0.1l3.4,1.2c0.1,0,0.1,0,0.2,0
		c0.1,0,0.1-0.1,0.2-0.1c0,0,0.1-0.1,0.1-0.2c0.1-0.1,0.1-0.2,0.1-0.3L94,63.3z M91,65c0.1-0.1,0.3-0.1,0.4-0.1c0.1,0,0.3,0,0.5,0.1
		c0.4,0.2,0.7,0.5,0.8,0.9c0.1,0.4,0.1,0.8-0.1,1.3c-0.1,0.2-0.2,0.4-0.4,0.6c-0.1,0.2-0.3,0.3-0.5,0.4l0.2,0.2l-0.1,0.3l-1.6-0.6
		l0.1-0.3c0.2,0,0.4,0,0.6,0c0.2,0,0.4,0,0.6-0.1c0.2-0.1,0.3-0.1,0.5-0.3c0.1-0.1,0.2-0.3,0.3-0.5c0.1-0.1,0.1-0.3,0.1-0.4
		c0-0.1,0-0.2,0-0.3c0-0.1-0.1-0.2-0.2-0.3c-0.1-0.1-0.2-0.1-0.3-0.2c-0.2-0.1-0.4-0.1-0.6-0.1c-0.2,0-0.4,0.1-0.6,0.3
		c-0.1,0.1-0.2,0.2-0.4,0.4c-0.1,0.2-0.3,0.3-0.4,0.4c-0.2,0.2-0.5,0.3-0.7,0.4c-0.2,0.1-0.5,0-0.8-0.1c-0.2-0.1-0.3-0.2-0.4-0.3
		c-0.1-0.1-0.2-0.3-0.3-0.5c-0.1-0.2-0.1-0.4-0.1-0.5c0-0.2,0.1-0.4,0.1-0.6c0.1-0.2,0.2-0.4,0.3-0.5c0.1-0.1,0.3-0.3,0.4-0.4
		l-0.2-0.2l0.1-0.3l1.5,0.6l-0.1,0.3c-0.2,0-0.4,0-0.6-0.1c-0.2,0-0.4,0-0.5,0c-0.2,0-0.3,0.1-0.4,0.2c-0.1,0.1-0.2,0.2-0.3,0.4
		c-0.1,0.2-0.1,0.4,0,0.6c0.1,0.2,0.2,0.3,0.4,0.4c0.2,0.1,0.4,0.1,0.5,0.1c0.2,0,0.3-0.1,0.5-0.3c0.1-0.1,0.3-0.2,0.4-0.4
		c0.1-0.1,0.2-0.2,0.4-0.4c0.1-0.1,0.2-0.2,0.3-0.3C90.7,65.1,90.8,65.1,91,65z M87.8,68.6c-0.3-0.1-0.5-0.2-0.8-0.1
		c-0.2,0.1-0.4,0.3-0.5,0.5l-0.3,0.5l1.9,0.9l0.2-0.4c0.1-0.3,0.2-0.6,0.1-0.9C88.3,68.9,88.1,68.7,87.8,68.6z M91.9,68.5l-0.6,1.2
		c-0.5,0.1-1,0.1-1.4,0.2c-0.4,0.1-0.8,0.2-1.3,0.3l-0.2,0.5l1.4,0.7c0.1,0,0.1,0.1,0.2,0.1c0.1,0,0.1,0,0.2-0.1
		c0,0,0.1-0.1,0.1-0.2c0.1-0.1,0.1-0.2,0.1-0.2l0.2,0.1l-0.9,1.9l-0.2-0.1c0-0.1,0-0.1,0.1-0.2c0-0.1,0.1-0.2,0.1-0.2
		c0-0.1,0-0.1-0.1-0.2c0-0.1-0.1-0.1-0.2-0.1l-3.2-1.5c-0.1,0-0.1-0.1-0.2-0.1c-0.1,0-0.1,0-0.2,0.1c0,0-0.1,0.1-0.1,0.2
		c-0.1,0.1-0.1,0.1-0.1,0.2l-0.2-0.1l1-2.1c0.1-0.2,0.2-0.4,0.3-0.5c0.1-0.1,0.3-0.3,0.4-0.4c0.1-0.1,0.3-0.1,0.5-0.2
		c0.2,0,0.4,0,0.5,0.1c0.2,0.1,0.3,0.2,0.4,0.3c0.1,0.1,0.2,0.2,0.2,0.4c0,0.1,0.1,0.3,0.1,0.5c0,0.2,0,0.3,0,0.5
		c0.4-0.1,0.7-0.1,1-0.2c0.3-0.1,0.6-0.1,1-0.2c0.2,0,0.3-0.1,0.4-0.1c0.1,0,0.2-0.1,0.3-0.2c0.1,0,0.1-0.1,0.2-0.2
		c0.1-0.1,0.1-0.1,0.1-0.2L91.9,68.5z M88.4,72.2l1.2,0.8l-2,3.6l-0.2-0.1c0-0.1,0.1-0.1,0.1-0.3c0-0.1,0.1-0.2,0.1-0.2
		c0-0.1,0-0.1,0-0.2c0-0.1-0.1-0.1-0.2-0.1l-3.1-1.7c-0.1,0-0.1-0.1-0.2-0.1c-0.1,0-0.1,0-0.2,0.1c-0.1,0-0.1,0.1-0.2,0.2
		c-0.1,0.1-0.1,0.1-0.2,0.2l-0.2-0.1l1.8-3.3l1,0.6l-0.1,0.2c-0.2,0-0.4,0-0.6,0c-0.2,0-0.4,0.1-0.5,0.2c0,0.1-0.1,0.1-0.1,0.2
		c-0.1,0.1-0.1,0.2-0.2,0.3l-0.4,0.7l1.7,1l0.3-0.5c0.1-0.2,0.1-0.3,0.1-0.4c0-0.1,0-0.2,0-0.3c0-0.1-0.1-0.2-0.2-0.2
		c-0.1-0.1-0.2-0.2-0.2-0.2l0.1-0.2l1.7,0.9l-0.1,0.2c-0.1,0-0.2-0.1-0.3-0.1c-0.1,0-0.2,0-0.3,0c-0.1,0-0.2,0.1-0.3,0.1
		c-0.1,0.1-0.1,0.2-0.2,0.3l-0.3,0.5l1.3,0.7c0.1,0.1,0.2,0.1,0.3,0.1c0.1,0,0.2,0,0.2,0c0.1,0,0.1-0.1,0.2-0.2
		c0.1-0.1,0.1-0.2,0.2-0.4c0-0.1,0.1-0.2,0.1-0.3c0.1-0.1,0.1-0.2,0.1-0.3c0-0.1,0.1-0.2,0.1-0.3c0-0.1,0-0.2,0-0.2
		c0-0.1-0.1-0.3-0.3-0.5c-0.1-0.2-0.3-0.4-0.3-0.4L88.4,72.2z M83.9,73.8c0,0.1-0.1,0.1-0.1,0.2c0,0.1,0,0.2,0,0.2
		c0,0.1,0,0.2,0,0.3c0,0.1,0.1,0.2,0.1,0.3c0.2,0.3,0.5,0.9,1,1.6c0.5,0.7,0.9,1.4,1.4,2.2l-0.2,0.2c-0.9-0.2-1.8-0.5-2.7-0.7
		c-0.9-0.2-1.4-0.4-1.7-0.4c-0.1,0-0.1,0-0.2,0c-0.1,0-0.1,0-0.2,0.1c-0.1,0-0.1,0.1-0.2,0.1c-0.1,0.1-0.1,0.1-0.2,0.2l-0.2-0.1
		l1.2-1.7l0.2,0.1c-0.1,0.1-0.2,0.3-0.2,0.4c0,0.1,0,0.2,0,0.2c0,0,0,0,0.1,0c0,0,0.1,0,0.1,0c0.2,0.1,0.6,0.2,1.1,0.3
		c0.5,0.1,1.3,0.3,2.3,0.6c-0.3-0.4-0.5-0.8-0.9-1.4c-0.3-0.5-0.6-0.9-0.7-1.1c-0.1-0.2-0.2-0.3-0.3-0.4c-0.1-0.1-0.1-0.1-0.2-0.1
		c0,0-0.1,0-0.2,0c-0.1,0-0.1,0.1-0.2,0.1c-0.1,0.1-0.1,0.1-0.2,0.2c-0.1,0.1-0.1,0.1-0.2,0.2l-0.2-0.1l1.1-1.5L83.9,73.8z
		 M84.7,80.2l-1.5,1.6L83,81.7c0,0,0.1-0.1,0.2-0.2c0.1-0.1,0.1-0.2,0.1-0.2c0-0.1,0-0.1,0-0.2c0-0.1-0.1-0.1-0.1-0.2l-2.6-2.5
		c-0.1-0.1-0.1-0.1-0.2-0.1c-0.1,0-0.1,0-0.2,0c-0.1,0-0.1,0.1-0.2,0.1c-0.1,0.1-0.2,0.1-0.2,0.2l-0.2-0.2l1.5-1.6l0.2,0.2
		c0,0.1-0.1,0.1-0.2,0.2c-0.1,0.1-0.1,0.2-0.1,0.2c0,0.1,0,0.2,0,0.2c0,0.1,0.1,0.1,0.1,0.2l2.6,2.5c0.1,0.1,0.1,0.1,0.2,0.1
		c0.1,0,0.1,0,0.2,0c0,0,0.1-0.1,0.2-0.1c0.1-0.1,0.2-0.1,0.2-0.2L84.7,80.2z M80.1,78.3c0,0-0.1,0.1-0.2,0.2
		c-0.1,0.1-0.1,0.2-0.1,0.3c0,0.1,0,0.2,0.1,0.4c0.1,0.1,0.2,0.3,0.4,0.5l2.4,2.7l-0.2,0.2l-4.9-1l1.7,1.9c0.2,0.2,0.3,0.4,0.5,0.5
		c0.1,0.1,0.2,0.1,0.3,0.1c0.1,0,0.2,0,0.3-0.1c0.2-0.1,0.3-0.1,0.3-0.2l0.2,0.2l-1.5,1.3l-0.2-0.2c0,0,0.1-0.1,0.2-0.3
		c0.1-0.1,0.1-0.2,0.1-0.3c0-0.1,0-0.2-0.1-0.3c-0.1-0.1-0.2-0.3-0.4-0.5l-1.6-1.8c-0.1-0.1-0.2-0.1-0.3-0.2
		c-0.1-0.1-0.2-0.1-0.3-0.1c-0.1,0-0.2,0-0.4,0.1c-0.1,0.1-0.2,0.1-0.3,0.2l-0.2-0.2l1.1-0.9l4.6,1L80,80c-0.2-0.2-0.4-0.4-0.5-0.5
		c-0.1-0.1-0.2-0.1-0.3-0.1c-0.1,0-0.2,0-0.3,0.1c-0.1,0.1-0.2,0.1-0.3,0.2l-0.2-0.2l1.5-1.3L80.1,78.3z M76.6,81.5
		c-0.1,0-0.1,0.1-0.2,0.2c-0.1,0.1-0.1,0.2-0.2,0.3c0,0.1,0,0.2,0.1,0.4c0.1,0.2,0.2,0.3,0.3,0.5l1.3,1.7c0.2,0.2,0.3,0.4,0.3,0.7
		c0,0.2,0,0.5-0.1,0.7c-0.1,0.2-0.2,0.4-0.3,0.6c-0.1,0.2-0.3,0.3-0.4,0.4c-0.2,0.2-0.5,0.3-0.7,0.4c-0.2,0.1-0.5,0.1-0.7,0.1
		c-0.2,0-0.4-0.1-0.6-0.2c-0.2-0.1-0.3-0.2-0.4-0.4l-1.7-2.4c0-0.1-0.1-0.1-0.2-0.1c-0.1,0-0.1,0-0.2,0c-0.1,0-0.1,0-0.2,0.1
		c-0.1,0-0.2,0.1-0.2,0.1l-0.1-0.2L74,83l0.1,0.2c-0.1,0-0.1,0.1-0.2,0.2c-0.1,0.1-0.1,0.1-0.1,0.2c0,0.1-0.1,0.1,0,0.2
		c0,0.1,0,0.1,0.1,0.2l1.6,2.2c0.1,0.1,0.2,0.2,0.3,0.3c0.1,0.1,0.2,0.2,0.4,0.2c0.1,0.1,0.3,0.1,0.5,0c0.2,0,0.4-0.1,0.6-0.3
		c0.2-0.1,0.4-0.3,0.4-0.5c0.1-0.2,0.1-0.3,0.1-0.5c0-0.2,0-0.3-0.1-0.4c0-0.1-0.1-0.3-0.2-0.4L76.3,83c-0.2-0.2-0.3-0.4-0.4-0.5
		c-0.1-0.1-0.2-0.2-0.3-0.2c-0.1,0-0.2,0-0.3,0.1c-0.1,0.1-0.2,0.1-0.3,0.1l-0.1-0.2l1.6-1.2L76.6,81.5z"/>
	<g>
		<path fill-rule="evenodd" fill="#E60012" d="M50.8,44.5c0.1-0.1,0.3-0.1,0.4-0.2c0.1,0,0.1-0.1,0.2-0.2c0.1,0,0.2,0,0.3,0
			c0.1,0,0.1,0,0.2,0.1c0.1,0.1,0.2,0.2,0.2,0.3c0.1,0,0.1,0.1,0.2,0c0.1,0,0.2-0.1,0.3-0.1c0.1-0.1,0.2-0.2,0.3-0.4
			c0,0,0.1,0,0.1-0.1c0.1,0,0.1,0,0.2,0c0.1,0,0.3,0.1,0.4,0.2c0.1,0,0.2,0,0.3,0c0.1,0,0.1-0.1,0.2-0.1c0.2-0.1,0.3-0.1,0.5-0.2
			c0.1-0.1,0.3-0.2,0.4-0.4c0.1-0.1,0.1-0.3,0.2-0.4c0-0.4-0.1-0.9-0.1-1.3c0-0.4,0-0.8,0.1-1.3c0.1-0.5,0.3-0.9,0.3-1.4
			c0.1-0.5,0.1-0.9,0.2-1.4c0.1-0.3,0.2-0.6,0.3-0.9c0.3-0.6,0.6-1.2,0.9-1.8c0.2-0.3,0.3-0.6,0.5-0.9c0.1-0.1,0.1-0.2,0.2-0.3
			c0.1-0.1,0.3-0.2,0.5-0.3c0.1,0,0.2-0.1,0.2-0.2c0.1-0.1,0-0.3,0.1-0.4c0-0.1,0.1-0.2,0.2-0.3c0-0.2,0-0.4,0.1-0.5
			c0-0.1,0.2-0.1,0.2-0.2c0.1-0.1,0.2-0.3,0.3-0.4c0.1-0.2,0.2-0.3,0.3-0.5c0.1-0.2,0.1-0.4,0.2-0.6c0-0.1,0.1-0.1,0.1-0.2
			c0.1-0.1,0.3-0.2,0.5-0.4c0.2-0.2,0.3-0.4,0.5-0.6c0.1-0.2,0.3-0.3,0.5-0.5c0.1-0.1,0.2-0.1,0.3-0.2c0,0,0.1-0.1,0.1-0.1
			c0-0.1,0-0.2,0-0.3c0-0.1,0-0.1,0.1-0.2c0.1-0.1,0.1-0.2,0.2-0.3c0-0.1,0.1-0.2,0-0.3c0-0.1-0.1-0.1-0.1-0.1c-0.1,0-0.2,0-0.4,0.1
			c-0.1,0.1-0.2,0.2-0.4,0.2c-0.1,0.1-0.2,0.1-0.4,0.2c-0.4,0.1,0-0.3,0.1-0.4c0.3-0.3,0.6-0.6,0.9-0.9c0.3-0.3,0.6-0.6,0.9-0.9
			c0.1-0.2,0.3-0.3,0.4-0.5c0.1-0.1,0-0.1-0.1-0.1c-0.1,0.1-0.2,0.1-0.3,0.2c-0.1,0.1-0.3,0.2-0.4,0.3c-0.2,0.1-0.4,0.1-0.6,0.2
			c-0.2,0.1-0.4,0.3-0.6,0.4c-0.4,0.3-0.9,0.7-1.3,1.1c-0.4,0.4-0.8,0.9-1.3,1.3c-0.5,0.5-0.9,1-1.4,1.5c-0.3,0.3-0.4,0.3-0.2-0.1
			c0.1-0.3,0.3-0.7,0.4-1c0.2-0.5,0.4-1,0.5-1.5c0.1-0.5,0.3-1,0.4-1.5c0.1-0.5,0.2-1.1,0.2-1.6c0-0.5,0.1-1,0.1-1.5
			c0-0.4-0.1-0.8-0.2-1.3c-0.1-0.4-0.2-0.9-0.4-1.3c-0.1-0.2-0.3-0.5-0.5-0.6c-0.2-0.2-0.5-0.2-0.8-0.3c-0.3-0.1-0.6-0.1-0.9-0.1
			c-0.4,0-0.9,0-1.3,0.1c-0.6,0.1-1.1,0.2-1.7,0.4c-0.6,0.2-1.3,0.4-1.9,0.7c-0.2,0.1-0.3,0.2-0.4,0.3c-0.6,0.5-1.1,1-1.7,1.5
			c-0.5,0.4-0.9,0.8-1.4,1.3c-0.3,0.3-0.5,0.6-0.7,0.9c-0.1,0.1-0.3,0.1-0.4,0.3c-0.3,0.3-0.5,0.7-0.8,1c-0.4,0.5-0.7,1-1.1,1.5
			c-0.3,0.4-0.5,0.8-0.7,1.2c-0.2,0.3-0.3,0.7-0.5,1c-0.1,0.1-0.1,0.3-0.2,0.4c-0.2,0.2-0.4,0.3-0.5,0.6c-0.1,0.2-0.2,0.4-0.3,0.6
			c-0.1,0.3-0.2,0.6-0.2,0.9c-0.1,0.4-0.1,0.7-0.2,1.1c-0.1,0.3-0.2,0.5-0.2,0.8c0,0.2,0,0.4,0,0.5c0,0.1,0.1,0.2,0.1,0.3
			c0,0.2,0.1,0.4,0.1,0.6c0,0.3,0,0.5,0,0.8c0,0.2-0.1,0.4-0.1,0.6c0,0.1-0.1,0.2-0.1,0.3c0,0.1,0,0.1,0.1,0.2
			c0.1,0.1,0.2,0.1,0.3,0.2c0.1,0,0.2,0,0.3,0c0.1,0,0.3-0.1,0.3-0.2c0.2-0.2,0.3-0.3,0.4-0.5c0.2-0.3,0.4-0.7,0.6-1.1
			c0.2-0.3,0.4-0.6,0.6-0.9c0.2-0.2,0.4-0.4,0.5-0.6c0.1-0.1,0.1-0.3,0.2-0.4c0.2-0.4,0.3-0.8,0.5-1.2c0.2-0.4,0.4-0.9,0.7-1.3
			c0.2-0.3,0.5-0.6,0.7-0.9c0.3-0.3,0.6-0.5,0.9-0.8c0.1-0.2,0.2-0.4,0.3-0.6c0.2-0.3,0.4-0.6,0.6-0.8c0.2-0.3,0.5-0.5,0.7-0.7
			c0.4-0.3,0.7-0.7,1.1-1c0.2-0.2,0.3-0.4,0.5-0.5c0.1-0.1,0.3-0.1,0.4-0.2c0.1-0.1,0.2-0.3,0.4-0.4c0.2-0.1,0.3-0.1,0.3,0.1
			c0,0.2,0,0.5-0.1,0.7c-0.2,0.4-0.4,0.7-0.6,1.1c-0.2,0.3-0.3,0.6-0.5,0.9c-0.1,0.2-0.1,0.4-0.1,0.7c0,0-0.1,0.1-0.1,0.1
			c-0.1,0-0.2-0.1-0.2-0.1c-0.1,0-0.2,0-0.2,0.1c-0.1,0.3-0.1,0.5-0.1,0.8c-0.1,0.3-0.1,0.7-0.2,1c-0.1,0.3-0.2,0.6-0.4,0.8
			c-0.1,0.1-0.3,0.1-0.4,0.2c-0.1,0.1-0.3,0.2-0.3,0.3c-0.1,0.2,0,0.4-0.1,0.6c-0.1,0.6-0.1,1.1-0.2,1.7c-0.1,0.3-0.2,0.7-0.3,1
			c-0.3,0.6-0.5,0.6-0.9,1.1c-0.1,0.1-0.1,0.3-0.1,0.4c-0.1,0.3-0.2,0.7-0.3,1c-0.2,0.5-0.4,0.9-0.6,1.3c-0.1,0.3-0.3,0.6-0.4,0.9
			c-0.1,0.4-0.2,0.7-0.3,1.1c-0.1,0.4,0,0.8-0.1,1.2c0,0.1-0.1,0.2-0.1,0.3c-0.1,0.1-0.1,0.3-0.2,0.4c0,0.1,0,0.2,0,0.2
			c0,0.2,0.1,0.4,0.1,0.5c0.1,0.2,0.1,0.4,0.2,0.6c0,0.1,0.2,0.1,0.2,0.1c0.2,0.1,0.3,0.3,0.4,0.4c0.1,0.1,0.2,0.3,0.3,0.4
			c0.1,0.2,0.3,0.4,0.5,0.5c0.1,0.1,0.2,0.2,0.4,0.2c0.2,0.1,0.4,0.1,0.6,0.1c0.2,0,0.3-0.1,0.5-0.1c0.3-0.1,0.5-0.3,0.8-0.4
			c0.1,0,0.2-0.1,0.4-0.1c0.2,0,0.4,0.1,0.6,0.1c0.2,0,0.4,0,0.6-0.1c0.1,0,0.2-0.1,0.2-0.2c0.1-0.1,0.1-0.3,0.2-0.4
			c0-0.1,0.1-0.1,0.1-0.1C50.6,44.5,50.7,44.5,50.8,44.5z"/>
		<path fill-rule="evenodd" fill="#008641" d="M45.2,59.4c0.1,0,0.2-0.1,0.3-0.1c0.1-0.1,0.2-0.1,0.2-0.2c0-0.1,0-0.2,0-0.3
			c0-0.1,0.1-0.2,0.1-0.3c0,0,0.1-0.1,0.1-0.1c0,0,0.1,0,0.1,0c0.1,0.1,0.1,0.2,0.2,0.2c0.1,0.1,0.2,0.1,0.3,0.1
			c0.1,0,0.2-0.1,0.2-0.1c0.1-0.1,0.1-0.1,0.1-0.2c0-0.1,0-0.1-0.1-0.1c0,0-0.1-0.1-0.1-0.1c0-0.1,0-0.1,0-0.2
			c0-0.1,0.1-0.1,0.2-0.1c0,0,0.1,0,0.1,0c0.1,0,0.1,0.1,0.2,0.1c0.1,0,0.1,0.1,0.2,0.1c0.1,0,0.2-0.1,0.2-0.1
			c0.2-0.2,0.3-0.4,0.5-0.6c0.2-0.2,0.4-0.4,0.6-0.6c0.2-0.2,0.4-0.3,0.6-0.5c0,0,0.1-0.1,0.1-0.2c0-0.1,0-0.3,0-0.4
			c0-0.1,0.1-0.2,0.1-0.2c0,0,0.1,0,0.2,0c0.1,0,0.3,0,0.4,0c0.1,0,0.3-0.1,0.4-0.2c0.2-0.1,0.4-0.3,0.6-0.4
			c0.1-0.1,0.2-0.1,0.3-0.1c0.1,0,0.2,0,0.3-0.1c0.1,0,0-0.1,0.1-0.2c0-0.1,0.1-0.2,0.1-0.3c0,0,0.1-0.1,0.1-0.1c0,0,0.1,0,0.1,0
			c0.1,0,0.1,0.1,0.2,0.2c0.1,0,0.1,0,0.2,0c0.1,0,0.1-0.1,0.1-0.1c0.1-0.2,0.1-0.4,0.2-0.6c0.1-0.1,0.2-0.2,0.3-0.3
			c0.1-0.1,0.2-0.1,0.3-0.1c0.1,0,0.3,0,0.4,0c0,0,0-0.1,0.1-0.1c0.1-0.1,0.1-0.3,0.2-0.4c0.1-0.1,0.3-0.2,0.4-0.3
			c0.2-0.1,0.4-0.2,0.5-0.2c0.2-0.1,0.4-0.2,0.7-0.3c0.2-0.1,0.4-0.3,0.6-0.5c0.1-0.1,0.1-0.2,0-0.3c0-0.1-0.1-0.2-0.2-0.3
			c0-0.1-0.1-0.1-0.1-0.2c0,0,0-0.1,0.1-0.1c0.2-0.1,0.5-0.2,0.7-0.3c0.1-0.1,0.2-0.1,0.3-0.2c0.1-0.1,0.1-0.2,0.2-0.3
			c0,0,0.1-0.1,0.1-0.1c0,0,0.1,0,0.1,0c0.1,0,0.1,0.1,0.1,0.2c0,0,0.1,0,0.1,0c0.1,0,0.1-0.1,0.1-0.2c0.1-0.1,0.2-0.1,0.2-0.1
			c0.1,0,0.1,0,0.2,0c0.1,0,0.2,0,0.3,0c0.1,0,0.1,0,0.1-0.1c0.1-0.1,0.2-0.3,0.3-0.4c0.2-0.2,0.4-0.4,0.7-0.6
			c0.3-0.2,0.5-0.5,0.8-0.7c0.1,0,0.1-0.1,0.2-0.1c0.1,0,0.3,0.1,0.4,0c0.1,0,0.1-0.1,0.2-0.2c0.2-0.2,0.3-0.3,0.4-0.5
			c0.1-0.1,0.1-0.1,0.2-0.1c0.1,0,0.2,0,0.2,0c0,0,0-0.1,0.1-0.1c0-0.1,0.1-0.2,0.1-0.3c0,0,0.1-0.1,0.1-0.1c0.2,0,0.3,0,0.5-0.1
			c0.2-0.1,0.4-0.3,0.5-0.4c0.2-0.1,0.4-0.3,0.6-0.4c0.1-0.1,0.2-0.1,0.3-0.1c0.2,0,0.4,0,0.5,0c0,0,0.1,0,0.1-0.1
			c0.1-0.1,0.1-0.3,0.2-0.4c0.1-0.1,0.2-0.2,0.3-0.2c0.1-0.1,0.3-0.1,0.4-0.1c0.2-0.1,0.5-0.2,0.7-0.4c0.3-0.2,0.5-0.5,0.8-0.7
			c0.3-0.3,0.5-0.5,0.8-0.8c0.2-0.2,0.4-0.4,0.7-0.6c0.2-0.1,0.3-0.2,0.5-0.3c0.1,0,0.1-0.1,0.1-0.2c0-0.1,0-0.3,0-0.4
			c0-0.1,0.2-0.2,0.2-0.4c0.1-0.3,0-0.6,0-0.9c0-0.4,0-0.8,0-1.2c0-0.3-0.1-0.7-0.2-1c-0.1-0.2-0.3-0.3-0.4-0.3
			c-0.2-0.1-0.3-0.1-0.5,0c-0.3,0-0.6,0.1-0.9,0.2c-0.2,0.1-0.5,0.2-0.7,0.4c-0.1,0.1-0.2,0.1-0.4,0.2c0,0-0.1,0-0.1,0
			c0,0-0.1-0.1-0.1-0.1c-0.1,0-0.2,0-0.2,0c-0.2,0.1-0.3,0.3-0.5,0.4c-0.2,0.1-0.5,0.2-0.8,0.3c-0.4,0.2-0.8,0.3-1.2,0.5
			c-0.2,0.1-0.3,0.2-0.4,0.3c-0.2,0.2-0.4,0.6-0.6,0.8c-0.1,0.1-0.2,0.2-0.3,0.2c-0.2,0.1-0.4,0.1-0.6,0.1c-0.3,0.1-0.6,0.2-0.8,0.3
			c-0.4,0.2-0.9,0.5-1.3,0.7c-0.3,0.1-0.6,0.1-0.9,0.2c-0.1,0.1-0.3,0.1-0.4,0.2c-0.3,0.3-0.6,0.6-0.9,0.9c-0.6,0.5-1.2,0.8-1.8,1.2
			c-0.7,0.5-1.5,0.9-2.1,1.4c-0.5,0.4-0.9,0.9-1.5,1.3c-0.4,0.3-0.8,0.5-1.2,0.8c-0.6,0.5-1.1,1-1.7,1.5c-0.2,0.1-0.3,0.2-0.5,0.4
			c-0.1,0.1-0.1,0.2-0.1,0.3c-0.1,0.1-0.1,0.3-0.3,0.4c-0.1,0.1-0.2,0.1-0.3,0.1c-0.1,0-0.2,0-0.3,0c-0.1,0-0.2,0.1-0.3,0.2
			c-0.1,0-0.2,0-0.3,0c-0.1,0-0.1-0.1-0.2-0.2c-0.1,0-0.2,0-0.3-0.1c-0.1,0-0.2-0.1-0.2-0.2c-0.1-0.1-0.1-0.3-0.2-0.4
			c-0.1-0.1-0.3-0.1-0.4-0.2c-0.1-0.1-0.3-0.2-0.4-0.3c-0.5-0.4-0.9-0.9-1.5-1.4c-0.8-0.6-1.6-1.2-2.4-1.8c-0.2-0.1-0.3-0.2-0.5-0.3
			c-0.2-0.1-0.4-0.1-0.6-0.2c-0.1,0-0.2-0.1-0.2-0.2c-0.1-0.1-0.1-0.4-0.2-0.5c-0.2-0.2-0.5-0.3-0.8-0.5c-0.2-0.2-0.3-0.4-0.5-0.6
			c-0.2-0.1-0.4-0.1-0.6-0.3c-0.3-0.2-0.6-0.5-0.9-0.8c-0.3-0.3-0.6-0.5-0.9-0.8c-0.1-0.1-0.2-0.1-0.3-0.2c-0.2-0.1-0.4-0.1-0.6-0.2
			c-0.1-0.1-0.3-0.2-0.4-0.3c-0.3-0.2-0.5-0.5-0.8-0.7c-0.1-0.1-0.3-0.2-0.5-0.2c-0.2,0-0.4,0-0.5,0c-0.1,0-0.2,0.1-0.2,0.1
			c-0.1,0.1-0.2,0.3-0.3,0.4c-0.1,0.1-0.2,0.1-0.2,0.1c-0.1,0-0.2,0-0.3,0.1c0,0,0,0.1,0,0.1c0,0.1,0,0.3-0.1,0.4
			c-0.1,0.1-0.1,0.2-0.2,0.3c-0.1,0.1-0.3,0.2-0.3,0.4c-0.1,0.1-0.1,0.2-0.1,0.4c0,0.2,0.1,0.4,0.2,0.6c0.1,0.2,0.2,0.4,0.3,0.6
			c0.1,0.2,0,0.3,0.1,0.5c0,0.1,0,0.2,0,0.4c0,0.1,0,0.1,0.1,0.2c0.1,0.1,0.2,0.1,0.2,0.2c0.2,0.2,0.4,0.5,0.5,0.7
			c0.2,0.2,0.3,0.5,0.5,0.7c0.1,0.1,0.2,0.2,0.3,0.3c0.1,0.1,0.2,0.1,0.3,0.2c0.2,0.1,0.5,0.2,0.7,0.3c0.3,0.2,0.6,0.4,1,0.6
			c0.3,0.2,0.6,0.5,1,0.7c0.2,0.1,0.4,0.2,0.6,0.3c0.2,0.1,0.3,0.1,0.5,0.2c0.1,0.1,0.3,0.1,0.4,0.2c0.1,0.1,0.2,0.2,0.3,0.3
			c0.1,0.1,0.3,0.1,0.4,0.1c0.2,0.1,0.3,0.2,0.5,0.3c0.1,0.1,0.1,0.2,0.2,0.2c0.2,0.1,0.3,0.1,0.5,0.1c0.2,0.1,0.3,0.1,0.4,0.3
			c0.2,0.1,0.3,0.3,0.5,0.5c0.2,0.2,0.4,0.4,0.6,0.6c0.2,0.2,0.4,0.3,0.6,0.5c0.4,0.3,0.9,0.6,1.4,0.9c0.2,0.1,0.4,0.3,0.5,0.5
			c0.1,0.1,0.2,0.3,0.2,0.4c0,0,0,0.1,0,0.1c0,0-0.1,0.1-0.1,0.1c-0.1,0.1-0.2,0-0.3,0.1c-0.1,0.1-0.1,0.3-0.1,0.5
			c-0.1,0.2-0.2,0.4-0.3,0.6c-0.2,0.2-0.4,0.4-0.7,0.6c-0.4,0.3-0.8,0.5-1.2,0.8c-0.3,0.2-0.5,0.4-0.7,0.6c0,0-0.1,0.1-0.1,0.2
			c0,0.1,0.1,0.2,0.1,0.2c0,0.1,0.1,0.1,0.1,0.2c0,0,0,0,0,0.1c-0.1,0-0.2,0-0.3,0c-0.1,0-0.3,0-0.4,0c-0.1,0-0.2,0-0.3,0.1
			c0,0,0,0.1,0,0.2c0,0.2,0,0.3,0,0.5c0,0.2-0.1,0.3-0.2,0.5c-0.1,0.2-0.3,0.3-0.5,0.4c-0.2,0.2-0.5,0.3-0.7,0.4
			c-0.1,0.1-0.2,0.3-0.3,0.4c-0.1,0.2-0.1,0.4-0.4,0.4c-0.2,0-0.5-0.1-0.6,0.1c-0.1,0.2,0,0.3-0.1,0.5c-0.1,0.4-0.4,0.2-0.6,0.3
			c-0.2,0.1-0.3,0.6-0.5,0.7c-0.2,0.2-0.4,0.2-0.6,0.4c-0.1,0.1-0.2,0.2-0.3,0.3c0,0-0.1,0.1-0.1,0.2c0,0,0,0.1,0,0.1
			c0,0.1,0.1,0.1,0.2,0.2c0.1,0.1-0.1,0.3-0.1,0.4c0,0.1,0,0.1,0,0.2c0.2,0.3,0.5,0.2,0.6,0.6c0,0.1,0,0.2,0,0.3
			c0,0.1-0.1,0.1-0.1,0.2c0,0-0.1,0.1-0.1,0.1c-0.1,0-0.1,0-0.2-0.1c0,0-0.1-0.1-0.1-0.1c-0.1-0.1-0.1-0.2-0.2-0.3c0,0-0.1,0-0.1,0
			c-0.1,0.1-0.2,0.3-0.3,0.4c-0.2,0.2-0.4,0.5-0.6,0.7c-0.1,0.1-0.3,0.3-0.3,0.5c-0.1,0.1,0,0.3-0.1,0.5c0,0.1,0,0.1,0,0.2
			c-0.1,0.1-0.2,0.1-0.3,0.2c-0.1,0.1-0.2,0.2-0.3,0.3c-0.1,0.1-0.1,0.3-0.2,0.4c-0.1,0.3,0.1,0.3,0.3,0.1c0.1-0.1,0.2-0.2,0.3-0.4
			c0.1-0.1,0.1-0.2,0.1-0.3c0-0.1,0-0.2,0.1-0.3c0,0,0.1,0,0.1,0c0.1,0,0.1,0,0.2,0.1c0.1,0.1,0.1,0.2,0.2,0.3c0,0,0.1,0.1,0.1,0
			c0.1-0.1,0.2-0.3,0.4-0.2c0.1,0,0.1,0.2,0.2,0.2c0.1,0,0.1,0,0.2,0c0.1,0,0.1-0.1,0.2-0.1c0.1-0.1,0.2-0.3,0.3-0.4
			c0.1-0.1,0.2-0.1,0.3-0.1c0.1,0,0.1,0,0.2,0c0.1,0,0.1,0.1,0.1,0.2c0,0,0,0.1,0.1,0.1c0,0,0.1,0,0.1,0c0.1,0,0.2-0.1,0.2-0.2
			c0-0.1,0-0.1,0-0.2c0,0,0-0.1-0.1-0.1c-0.1,0-0.2,0-0.2,0c-0.1,0-0.1,0-0.2-0.1c-0.1-0.1-0.1-0.2-0.1-0.3c0-0.1,0.1-0.2,0.1-0.2
			c0,0,0.1,0,0.1,0c0.1,0,0.2,0,0.3,0c0,0,0.1,0,0.1-0.1c0.1-0.1,0.1-0.2,0.2-0.3c0.1-0.1,0.2-0.2,0.3-0.2c0.1-0.1,0.3-0.1,0.5-0.1
			c0.1,0,0.2,0,0.3,0c0.1,0,0.1,0,0.2-0.1c0.1-0.1,0.3-0.2,0.4-0.3c0-0.1,0.1-0.1,0.1-0.2c0-0.1-0.1-0.1-0.2-0.2
			c-0.1,0-0.2,0-0.2-0.1c0,0-0.1-0.1-0.1-0.1c0-0.1,0-0.1,0-0.2c0,0,0.1,0,0.2,0c0.1-0.1,0.1-0.2,0.1-0.2c0,0,0.1-0.1,0.1-0.1
			c0.1,0,0.1,0,0.2,0c0.1,0,0.2,0.1,0.3,0.1c0.1,0,0.2,0,0.2-0.1c0.2-0.2,0.4-0.4,0.6-0.6c0.1-0.2,0.2-0.4,0.3-0.5
			c0.1-0.1,0.2-0.3,0.3-0.4c0.1-0.1,0.3-0.1,0.4-0.2c0.1-0.1,0.1-0.3,0.3-0.4c0.1-0.1,0.2-0.1,0.4-0.2c0.2-0.1,0.3-0.2,0.5-0.3
			c0.3-0.2,0.5-0.5,0.7-0.7c0.1-0.1,0.2-0.3,0.3-0.4c0,0,0.1-0.1,0-0.2c-0.1-0.1-0.2,0-0.3,0c-0.1,0-0.1-0.1-0.2-0.2
			c0-0.1,0-0.2,0-0.3c0-0.1,0.1-0.1,0.2-0.1c0,0,0.1,0,0.1,0c0.1,0,0.1,0.1,0.1,0.1c0,0.1,0,0.2,0.1,0.3c0,0.1,0.1,0.1,0.2,0.1
			c0,0,0.1,0,0.1-0.1c0.1-0.1,0.2-0.2,0.3-0.3c0.1-0.2,0.1-0.3,0.2-0.5c0.1-0.1,0.2-0.2,0.3-0.2c0.2-0.1,0.4-0.2,0.7-0.3
			c0.1,0,0.1-0.1,0.2-0.1c0-0.1,0-0.2,0.1-0.3c0,0,0-0.1,0.1-0.1c0.1,0,0.2,0,0.3,0c0,0,0.1,0,0.1-0.1c0.1-0.1,0.1-0.3,0.2-0.5
			c0.1-0.1,0.2-0.3,0.3-0.4c0.2-0.2,0.4-0.3,0.6-0.4c0.2-0.1,0.3-0.1,0.5-0.1c0.1,0,0.3,0,0.4,0c0.1,0,0.1,0.1,0.1,0.2
			c0,0.1-0.1,0.2-0.2,0.3c-0.1,0.2-0.3,0.3-0.5,0.4c-0.1,0.1-0.1,0.2-0.2,0.3c-0.1,0.1-0.2,0.1-0.4,0.2c-0.1,0.1-0.1,0.1-0.2,0.2
			c0,0-0.1,0-0.1,0c-0.1,0-0.1-0.1-0.1-0.1c-0.1,0-0.2-0.1-0.3-0.1c0,0-0.1,0-0.1,0.1c0,0.1-0.1,0.2-0.1,0.2
			c-0.1,0.2-0.1,0.3-0.2,0.5c0,0.1-0.1,0.2-0.1,0.3c-0.1,0.1-0.1,0.2-0.2,0.3C45,59.4,45.1,59.4,45.2,59.4z M42.7,62.1
			c0.1-0.1,0.2-0.2,0.3-0.3c0.1-0.1,0.2-0.3,0.3-0.5c0.1-0.2,0.3-0.5,0.5-0.6c0.2-0.1,0.5,0,0.7-0.2c0.1-0.1,0.1-0.1,0.1-0.2
			c0-0.1,0.1-0.3,0-0.4c0-0.1-0.1-0.1-0.1-0.1c-0.1,0-0.2,0.1-0.3,0.1c-0.1,0.1-0.2,0.3-0.4,0.4c-0.1,0.1-0.3,0.2-0.4,0.3
			c-0.1,0.1-0.2,0.2-0.4,0.3c-0.1,0.1-0.2,0.2-0.3,0.4c-0.1,0.1-0.2,0.3-0.2,0.4c0,0.1,0,0.2,0,0.3C42.6,62.1,42.6,62.1,42.7,62.1z"
			/>
	</g>
	<path fill-rule="evenodd" fill="#004CA1" d="M56.8,69.2c0,0.1,0,0.5,0.1,0.7c0.2,0.4,0.6,0.3,0.7-0.1c0.1-0.2,0.1-0.3,0.1-0.4
		c0-0.3,0-0.6-0.1-0.9c-0.2-0.4-0.6-0.3-0.7,0.1C56.9,68.8,56.8,69,56.8,69.2z M58.1,66.7c-0.5,0.2-1,0.7-1.1,1.3
		c0.4-0.2,0.9-0.2,1.2,0.2c0.5,0.6,0.4,1.3-0.1,1.9c-0.5,0.5-1.2,0.5-1.7-0.1c-0.2-0.3-0.4-0.7-0.4-1.2c0-1.3,0.9-2.3,2-2.5
		L58.1,66.7z M48.9,67.6c0-0.1,0-0.5-0.1-0.7c-0.2-0.4-0.6-0.3-0.7,0.1C48,67.1,48,67.3,48,67.4c0,0.3,0,0.6,0.1,0.9
		c0.2,0.4,0.6,0.3,0.7-0.1C48.8,68,48.9,67.7,48.9,67.6z M47.6,70.1c0.5-0.2,1-0.7,1.1-1.3c-0.4,0.2-0.9,0.2-1.2-0.2
		c-0.5-0.6-0.4-1.3,0.1-1.9c0.5-0.5,1.2-0.5,1.7,0.1c0.2,0.3,0.4,0.7,0.4,1.2c0,1.3-0.9,2.3-2,2.5L47.6,70.1z M51.8,68.3l0.2-1.8
		h1.7l-0.1,0.7h-1.3l-0.1,0.6c0.7,0,1.6,0,1.7,1.3c0,1-0.8,1.4-1.4,1.4c-0.2,0-0.4-0.1-0.5-0.2c-0.1-0.1-0.2-0.2-0.2-0.4
		c0-0.3,0.3-0.4,0.5-0.3c0.2,0.1,0.1,0.4,0.3,0.5c0.2,0.1,0.4,0,0.5-0.2c0.1-0.2,0.2-0.5,0.2-0.7c-0.1-0.5-0.5-0.9-0.9-0.7
		C52.1,68.5,51.8,68.6,51.8,68.3z M44.5,66.3v3.3c0,0.3,0.1,0.5,0.5,0.5l0,0.2h-1.8l0-0.3c0.4,0,0.6-0.2,0.6-0.5l0-2.1
		c0-0.3-0.3,0-0.6,0.1l-0.1-0.3l1.1-1L44.5,66.3z"/>
	<g>
		<path fill-rule="evenodd" fill="#FFFFFF" d="M20.5,16L20.5,16l-0.1-0.1L20,15.4c-0.1,0.1-0.2,0.2-0.2,0.3
			c-0.1,0.3,0.1,0.5,0.4,0.4C20.3,16.2,20.4,16.1,20.5,16z M21,19.8c-0.1,0.2,0.5,0.2,0.6,0.2c0.2-0.1,0.1-0.3,0-0.3
			C21.5,19.5,21.1,19.7,21,19.8z M21.4,20.4c-0.1,0.2,0.5,0.2,0.6,0.1c0.2-0.1,0.1-0.3,0-0.3C21.9,20.1,21.5,20.3,21.4,20.4z
			 M20.4,14.6l4.6,5.6l0,0.1c0.1,0.1,0,0.1-0.1,0.2c-0.1,0.1-0.2,0-0.3,0.1c-0.2,0.2-0.4,0.4-0.4,0.6c0,0.1,0,0.2,0.1,0.1
			c0.3-0.2,0.7-0.4,1-0.6c0.3-0.1,0.7-0.2,1-0.3c0.2,0,0.5-0.1,0.6-0.3c0.1-0.1,0.2-0.2,0.2-0.2c0.1,0,0.1,0,0.1,0.1
			c0,0.1-0.1,0.1-0.1,0.2c-0.1,0.1-0.2,0.3-0.2,0.4c-0.1,0.3-0.3,0.5-0.6,0.5c-0.4,0-0.8,0-1.2,0.1c-0.4,0.1-0.8,0.3-1.2,0.7
			c-0.1,0.1-0.3,0.2-0.3-0.1c0-0.5,0.2-0.8,0.5-1.1L24,20.2l-0.9,0.5c-0.2,0.1-0.2,0-0.1-0.1l0.7-0.7l0,0l-0.2-0.3L22.6,20
			c-0.2,0.1-0.2,0-0.1-0.1l0.6-0.7l-0.1-0.1l-0.2-0.2l-0.8,0.4c-0.2,0.1-0.2,0-0.1-0.1l0.6-0.7l-0.1-0.1l-0.2-0.2l-0.8,0.4
			c-0.2,0.1-0.2,0-0.1-0.1l0.6-0.7l-0.1-0.1l-0.2-0.2L20.9,18c-0.2,0.1-0.2,0-0.1-0.1l0.6-0.7l-0.1-0.1l-0.2-0.2l-0.9,0.5
			c-0.2,0.1-0.2,0-0.1-0.1l0.7-0.7l-0.1-0.1l-0.1-0.2c-0.3,0.3-0.6,0.4-0.9,0.4c-0.3,0-0.5-0.2-0.5-0.5c0-0.3,0.3-0.5,0.6-0.9l0,0
			l-0.1-0.2l-0.1-0.1l-0.8,0.5c-0.1,0.1-0.2,0-0.1-0.1c0.1-0.1,0.2-0.3,0.4-0.5c0.1-0.1,0.2-0.2,0.3-0.3c0.2-0.2,1.2-0.6,0.5-0.8
			c-0.1,0-0.7-0.3-0.3-0.4c0.5-0.1,1,0,1.2,0.2c0.3,0.3,0.1,0.5-0.2,0.6c-0.2,0.1-0.3,0.1-0.5,0.3C20.3,14.5,20.3,14.5,20.4,14.6z"
			/>
		<path fill-rule="evenodd" fill="#FFFFFF" d="M19.8,27.1c-0.1,0.1-0.2,0.2-0.3,0.3c-0.3,0.2-0.6,0-0.5-0.3c0-0.2,0.1-0.3,0.2-0.4
			L19.8,27.1z M18,26.9l0.4-0.8l-0.3-0.2l-0.7,0.7c-0.2,0.2-0.2,0.1-0.1-0.1l0.4-0.9l-0.4-0.3l-0.7,0.7c-0.2,0.2-0.2,0.1-0.1-0.1
			L17,25l-0.3-0.2L16,25.5c-0.2,0.2-0.2,0.1-0.1-0.1l0.4-0.9L16,24.3L15.3,25c-0.2,0.2-0.2,0.1-0.1-0.1l0.4-0.9l-0.3-0.2l-0.7,0.7
			c-0.2,0.2-0.2,0.1-0.1-0.1l0.4-0.9l-0.3-0.2l-0.7,0.7c-0.2,0.2-0.2,0.1-0.1-0.1l0.4-0.9l-0.4-0.3l-0.7,0.7
			C13,23.5,13,23.5,13,23.3l0.4-0.9l-0.4-0.3l-0.7,0.6c-0.1,0.1-0.2,0.1-0.1-0.1c0.1-0.1,0.1-0.2,0.2-0.4c0.1-0.2,0.1-0.3,0.2-0.4
			c0.1-0.1,0.5-0.4,0.6-0.7c0.1-0.2-0.1-0.2-0.2-0.3c-0.1,0-0.6-0.1-0.3-0.3c0.5-0.2,0.9-0.3,1.2-0.1c0.3,0.2,0.1,0.4-0.1,0.6
			c-0.2,0.2-0.1,0.2-0.3,0.4c0.2,0,0.2,0,0.3,0.1l5.8,4.2c0.3-0.4,0.6-0.6,0.8-0.6c0.2,0,0.4,0,0.5,0c0.5,0.3,0.3,1,0.1,1.4
			c-0.1,0.2-0.3,0.5-0.5,0.8c-0.1,0.2-0.3,0.2-0.2-0.1c0.2-0.4,0.7-1.2,0.4-1.5c-0.1-0.1-0.2-0.2-0.4-0.1c-0.2,0-0.4,0.1-0.6,0.4
			l0.7,0.5c-0.2,0.2-0.3,0.5-0.5,0.7c-0.3,0.3-0.5,0.5-0.7,0.6c-0.2,0.1-0.5-0.1-0.5-0.3c0-0.3,0.1-0.5,0.4-0.9l-0.3-0.2L18.1,27
			C17.9,27.1,17.9,27,18,26.9z M13,24.6c0,0.2,0.6,0.2,0.7,0.1c0.2-0.1,0.1-0.3,0-0.4C13.4,24.2,13,24.4,13,24.6z M14.4,25.6
			c0,0.2,0.5,0.1,0.6,0c0.1-0.1,0-0.3-0.1-0.3C14.8,25.3,14.4,25.5,14.4,25.6z M15,26.1c0,0.2,0.5,0.1,0.6,0c0.1-0.1,0-0.3-0.1-0.3
			C15.4,25.7,15,25.9,15,26.1z"/>
		<path fill-rule="evenodd" fill="#FFFFFF" d="M10.6,31l0.4-0.6l1.8,1.1c0.1,0.1,0.1,0.1,0,0.1c0,0-0.1,0-0.1,0.1
			c-0.2,0.2-0.2,0.3-0.2,0.6c0,0.1,0,0.4,0.2,0.2c0.1-0.1,0.3-0.4,0.4-0.5c0.2-0.3,0.5-0.5,0.8-0.7c0.4-0.3,0.8-0.5,0.8-0.9
			c0-0.1,0.2-0.1,0.2,0c0,0.1,0,0.1,0,0.2c0,0.2,0,0.5-0.1,0.7c0,0.3-0.1,0.4-0.4,0.5c-0.8,0.2-1.4,0.7-2,1.5
			c-0.2,0.3-0.4,0.3-0.5-0.1c-0.1-0.4,0.1-0.8,0.2-1.1l-0.4-0.2c-0.3,0.4-0.5,0.7-0.8,0.8c-0.2,0.1-0.4,0-0.5-0.1
			c-0.4-0.3-0.1-1.1,0.1-1.4L10.6,31z M11.6,31.6L11,31.2c-0.1,0.2-0.3,0.5-0.3,0.7c0,0.2,0.1,0.3,0.3,0.3
			C11.4,32.2,11.5,31.8,11.6,31.6z"/>
		<path fill-rule="evenodd" fill="#FFFFFF" d="M8.8,40.8c0,0.2,0.6,0,0.7-0.2c0.1-0.2,0-0.3-0.2-0.3C9.1,40.3,8.8,40.7,8.8,40.8z
			 M5.8,35.7c0-0.2,0-0.3,0.1-0.4c0.4,0.1,0.7-0.2,0.7-0.5c0-0.1,0-0.2-0.1-0.1c0,0.1-0.1,0.1-0.2,0.1c-0.3,0-0.5-0.1-0.6,0.3
			c0,0.2,0,0.4-0.1,0.6c0,0-0.1,0-0.1,0c-0.3,0.1-0.6,0.2-0.8,0.4c-0.1,0.1-0.1,0.1,0.1,0.1c0.2,0,0.4-0.1,0.6,0
			c0.2,0,0,0.3-0.1,0.6c-0.1,0.2-0.1,0.3-0.2,0.4c-0.1,0.2-0.6,1.4,0.1,0.6l0.4-0.6l0.2,0L6,37.3c-0.2,0.5-0.3,0.9-0.2,1.2
			c0.1,0.2,0.3,0.3,0.6,0.2c0.2-0.1,0.4-0.5,0.6-0.9l0.4,0.2l-0.2,1c-0.1,0.2,0,0.3,0.1,0l0.5-0.9l0.5,0.2c0,0.2,0,0.5,0,0.7
			c0,0.2,0.1,0.3,0.2,0.1c0-0.2,0.1-0.3,0.2-0.3c0.1-0.1,0-0.2-0.1-0.3c-0.2-0.5,0-0.7,0.3-0.8c0.3-0.1,0.8,0.1,0.5,0.8l0,0
			l-0.1,0.2l0.1,0l0,0.3c-0.1,0.3-0.1,0.5-0.1,0.8c0,0.2,0,0.3,0.2,0L10,39l0.4,0.2l-0.2,1c-0.1,0.2,0,0.3,0.1,0l0.5-0.9l0.4,0.2
			c-0.2,0.5-0.3,0.9-0.2,1.2c0.1,0.2,0.3,0.3,0.6,0.2c0.2-0.1,0.4-0.5,0.6-0.9l0.6,0.2c-0.1,0.5,0,1,0.3,1.4
			c0.1,0.1,0.2,0.2,0.3,0.1c0-0.1,0-0.2,0-0.4c0-0.3,0.1-0.6,0.1-0.7c0.1-0.6,0.4-0.9,0.9-1.1c0.1-0.1,0.1-0.3,0-0.3
			c-0.4-0.1-0.8-0.1-1-0.7c-0.1-0.1-0.1-0.1-0.2,0c-0.3,0.5,0.2,0.9,0.7,1.1c-0.3,0.3-0.4,0.5-0.5,0.9c0,0.2-0.1,0.3-0.1,0.5
			c0,0.1-0.1,0.3-0.2,0.1c-0.2-0.3-0.3-0.6,0-1.2c0-0.1,0.1-0.1,0.1-0.1c0,0,0-0.1,0-0.1c0,0-0.1-0.1-0.1-0.1l0,0l-3.5-1.4
			c0-0.3,0-0.5-0.1-0.7c-0.2-0.2-0.5-0.3-0.7-0.1c-0.1,0.1-0.2,0.2-0.3,0.3l-2.5-1c-0.4,0-0.3-0.2-0.1-0.4C6,36.1,6.1,36,6.1,35.9
			C6.1,35.7,6,35.7,5.8,35.7z M11.5,39.6l0.7,0.3c-0.1,0.2-0.2,0.3-0.3,0.5c-0.2,0.2-0.5,0.2-0.5-0.1C11.3,40,11.4,39.8,11.5,39.6z
			 M6.8,37.7l-0.7-0.3C6,37.6,6,37.8,6,38c0,0.3,0.3,0.4,0.5,0.1C6.6,38,6.7,37.9,6.8,37.7z M9.6,41.1c0,0.2,0.6,0,0.7-0.2
			c0.1-0.2,0-0.3-0.2-0.3C9.9,40.6,9.6,40.9,9.6,41.1z"/>
		<path fill-rule="evenodd" fill="#FFFFFF" d="M8.5,48.6c0,0.2,0,0.4,0.1,0.6c0.1,0.2,0.5,0.3,0.7,0.1c0.2-0.2,0.3-0.5,0.4-0.9
			l0.5,0.1c0,0.3-0.1,0.5-0.4,0.9c-0.1,0.1,0,0.1,0,0.1c0.4,0,0.4-0.2,0.5-0.3c0-0.1,0.1,0,0.1,0c0.1,0.1,0.1,0.2,0.1,0.3
			c0,0.1,0,0.2,0,0.3c0.1,0.2,0.1,0,0.1,0c0-0.1,0.1-0.3,0.1-0.3c0-0.1,0.2-0.2,0.1-0.3c-0.2-0.2-0.3-0.3-0.3-0.5
			c-0.1-0.3,0-0.5,0.1-0.8c0.1-0.2,0.3-0.3,0.5-0.3c0.2,0,0.3,0.2,0.3,0.6c0,0.1,0.1,0.1,0.2,0c0-0.1,0-0.3,0.1-0.3
			c0.3-1-0.8-1.2-1.2,0.1l-0.6-0.1c0.3-1.7-1.6-2-2-0.5l-3-0.7c-0.4,0-0.3-0.2-0.1-0.5c0.1-0.3,0.2-0.5-0.1-0.6
			c-0.4-0.1-0.7,0.2-1.1,0.7c-0.1,0.1,0,0.1,0.1,0.1c0.2-0.1,0.2-0.1,0.4-0.1c0.2,0,0.2,0,0.2,0.1c0,0.2-0.1,0.2-0.2,0.5
			c0,0.2-0.1,0.4-0.1,0.6c0,0.3-0.1,0.4-0.1,0.7c0,0.2,0.1,0.3,0.2,0l0.4-0.9l0.4,0.1c-0.1,0.5-0.1,0.9,0.1,1.2
			c0.1,0.2,0.4,0.3,0.6,0.1c0.2-0.2,0.4-0.5,0.5-1l0.4,0.1c0,0.5,0,0.9,0.2,1.5l0.4-0.4c-0.3-0.6-0.3-0.7-0.4-1l0.8,0.2
			c-0.1,0.5-0.1,0.9,0,1.2c0.1,0.2,0.4,0.3,0.6,0.1C8.4,49,8.4,48.8,8.5,48.6z M9.5,47.6l-0.5-0.1l-0.3,0.2l-0.2-0.3l-0.5-0.1
			C8.3,46.4,9.7,46.4,9.5,47.6z M9.5,48.2c0,0.2-0.1,0.4-0.1,0.5c-0.2,0.3-0.5,0.3-0.6,0c0-0.1,0-0.2,0-0.3c0-0.1,0-0.2,0.1-0.3
			L9.5,48.2z M8.5,48c0,0.2-0.1,0.3-0.1,0.4c-0.2,0.3-0.5,0.3-0.6,0c-0.1-0.2,0-0.4,0-0.6L8.5,48z M5.8,47.4l-0.7-0.2
			c0,0.2-0.1,0.4,0,0.6c0.1,0.3,0.4,0.3,0.6,0.1C5.7,47.8,5.8,47.6,5.8,47.4z"/>
		<path fill-rule="evenodd" fill="#FFFFFF" d="M41.7,6.5c-0.1,0.1,0.3,0.4,0.4,0.3c0.2,0,0.2-0.2,0.1-0.3
			C42.2,6.5,41.8,6.4,41.7,6.5z"/>
		<path fill-rule="evenodd" fill="#FFFFFF" d="M41.9,7.1c-0.1,0.1,0.3,0.4,0.4,0.3c0.2,0,0.2-0.2,0.1-0.3C42.4,7.1,42,7.1,41.9,7.1z
			 M43,3.4L43,3.4l0-0.2l-0.7,0.1L42,3.4c-0.2,0,0-0.2,0.1-0.2C42.3,3,42.8,3,43,2.9c0.2-0.1,0.4-0.2,0.7-0.2c0.1,0,0.3-0.2,0.1-0.2
			c-0.2,0-0.3,0-0.5,0c-0.2,0-0.3-0.1-0.5-0.2C42.7,2.2,42.8,2.1,43,2c0.1-0.1,0.2-0.1,0.3-0.1c0.3-0.1,0.2,0.1,0.2,0.3
			c0.1,0.4,0.5,0.2,0.8,0.2c0.4,0.1,0.4,0.4,0,0.5c-0.6,0.1-0.8,0.1-0.5,0.5l2.1,7.7c0.3-0.1,0.3,0,0.4-0.1c0.1,0,0.1,0,0-0.1
			c-0.1-0.3,0.1-0.5,0.5-0.5c0.1,0,0.2,0,0.1,0.1c-0.1,0-0.2,0.1-0.2,0.2c0,0.1,0,0.2,0.1,0.3c-0.4,0.1-0.7,0.1-0.9,0.2l0.1,0.4
			c0.1,0,0.3,0,0.4,0c0.5,0,0.7,0.2,0.7,0.4c0,0.2-0.4,0.4-1,0.5c-0.1,0-0.5,0.1-0.1-0.1c0.2-0.1,0.8-0.3,0.3-0.6
			c-0.1,0-0.2-0.1-0.3-0.1l0,0L45.3,12l0,0c-0.2,0.1-0.4,0.4-0.6,0.6l-0.6,0.1c0.3-0.5,0.7-0.7,1.1-0.9l-0.1-0.3l-0.9,0.1
			c-0.3,0-0.2-0.1,0-0.1l0.9-0.3l-0.1-0.5c-0.5,0.1-0.9,0.1-1.1,0c-0.2-0.1-0.3-0.3-0.2-0.5c0.2-0.2,0.5-0.4,1-0.5l-0.1-0.3
			l-0.9,0.1c-0.2,0-0.2-0.1,0-0.1L44.5,9l-0.1-0.4l-1,0.1c-0.3,0-0.3-0.1,0-0.1l1-0.3l-0.1-0.4l-1,0.1c-0.3,0-0.2-0.1,0-0.1l0.9-0.3
			L44,7.1l-0.9,0.1c-0.3,0-0.2-0.1,0-0.1l0.9-0.3l-0.1-0.4l-0.9,0.1c-0.3,0-0.3-0.1,0-0.1L43.7,6l-0.2-0.8c-0.2,0.1-0.4,0.2-0.6,0.4
			c-0.1,0.1-0.1,0.1-0.2,0.2c0,0,0,0.1-0.1,0.1c0,0-0.1,0-0.1,0.1c-0.1,0-0.1,0-0.2,0c-0.1,0-0.2,0-0.2,0C42.1,6,42,6,42,6
			c0,0,0-0.1,0-0.1c0-0.1,0.2-0.2,0.4-0.3c0.2-0.1,0.3-0.1,0-0.3c-0.2-0.1-0.3-0.3,0-0.3c0.6,0.1,0.6,0.2,1-0.2l-0.1-0.5
			c-0.5,0.1-0.9,0.1-1.1,0C42,4.4,41.9,4.2,42,4c0.2-0.2,0.6-0.3,1.1-0.5L43,3.4L43,3.4L43,3.4L43,3.4z M44.9,10.5l-0.2-0.7
			c-0.2,0-0.4,0.1-0.5,0.3c-0.2,0.2-0.1,0.4,0.2,0.5C44.5,10.5,44.7,10.5,44.9,10.5z M43.3,4.4l-0.2-0.6c-0.2,0-0.4,0.1-0.5,0.2
			c-0.2,0.2-0.1,0.4,0.2,0.4C42.9,4.4,43.1,4.4,43.3,4.4z M42.3,8.7c-0.1,0.1,0.3,0.4,0.4,0.3c0.2,0,0.2-0.2,0.1-0.3
			C42.8,8.7,42.4,8.6,42.3,8.7z M42.5,9.4c-0.1,0.1,0.3,0.4,0.4,0.3c0.2,0,0.2-0.2,0.1-0.3C42.9,9.3,42.5,9.3,42.5,9.4z"/>
		<path fill-rule="evenodd" fill="#FFFFFF" d="M35.5,13.2c0.4,0.1,0.7-0.1,1-0.3c0.3-0.2,0.6-0.3,0.9-0.5c0.3-0.2,0.4-0.5,0.2-0.8
			L37.1,11c-0.1,0-0.1-0.1-0.1-0.2c0-0.1,0-0.2,0-0.3c0.1-0.1,0.2-0.1,0.3-0.2c0.3-0.3,0.3-0.7-0.1-0.9c-0.3-0.1-0.6-0.2-0.9-0.1
			l-1.2-2.1l-0.7,0.4l0.1,0.2c-0.1,0.1-0.3,0.3-0.4,0.5C34,8.5,34,8.6,33.8,8.7c-0.1,0.1-0.5-0.3-0.5,0c0,0.1,0.1,0.3,0.1,0.4
			c0.1,0.1,0.2,0.2,0.3,0.3c0.3,0.1,0.4,0,0.5-0.2c0-0.1,0-0.3,0.1-0.4c0-0.2,0.1-0.4,0.4-0.6L35.2,9l-0.8,0.6
			c-0.2,0.1-0.1,0.3,0.1,0.2l0.9-0.4l0.2,0.3c-0.3,0.3-0.5,0.6-0.8,0.9c-0.1,0.2,0.2,0.2,0.3,0.2c0.2-0.1,0.3,0,0.4-0.1
			c0.1-0.4,0.3-0.8,0.8-0.9c0.3-0.1,1,0.2,0.6,0.6c-0.1,0.1-0.1,0.2-0.2,0.3c-0.1,0.1-0.2,0.1-0.4,0.2c-0.1,0-0.2,0-0.3,0.1
			c-0.1,0-0.1,0.1-0.2,0.2l-0.3,0.2c-0.2,0.2-0.1,0.3,0.1,0.2c0.3-0.1,0.4-0.2,0.7-0.3l0.4,0.7c0.2,0.4,0,0.6-0.4,0.8
			c-0.5,0.2-0.6,0.3-0.8,0.1c0-0.1-0.1-0.2-0.1-0.3c-0.1-0.1-0.2-0.1-0.3,0l-0.1,0.1c0,0-0.2,0.1-0.3,0.1
			C34.4,12.7,35.3,13.1,35.5,13.2z"/>
		<path fill-rule="evenodd" fill="#FFFFFF" d="M29.6,14.8c0.3-0.4,0.8-0.8,0.9-1.3c0.1-0.7-0.5-1.1-1-0.9c-0.4,0.1-0.6,0.3-0.8,0.6
			L28.4,13L28,13.5l0.1,0.1l-0.2,0.2c-0.3,0.5-0.3,0.8-0.1,1c0.3,0.4,0.8,0.1,1-0.1l0.3-0.3l0.4-0.5l-0.6-0.5
			c0.1-0.3,0.5-0.4,0.7-0.3c0.3,0.1,0.6,0.4,0.4,0.8c-0.1,0.3-0.4,0.6-0.5,0.9c0,0.1-0.1,0.2,0,0.2C29.4,15,29.5,14.9,29.6,14.8z
			 M28.8,14.2L28.8,14.2c-0.2,0.3-0.7,0.5-0.8,0.1c0-0.1,0-0.2,0.1-0.3l0.2-0.2L28.8,14.2z"/>
	</g>
</g>
</svg>
