<?xml version="1.0" encoding="utf-8"?>
<!-- Generator: Adobe Illustrator 19.2.1, SVG Export Plug-In . SVG Version: 6.00 Build 0)  -->
<svg version="1.1" id="图层_1" xmlns="http://www.w3.org/2000/svg" xmlns:xlink="http://www.w3.org/1999/xlink" x="0px" y="0px"
	 viewBox="0 0 32 32" style="enable-background:new 0 0 32 32;" xml:space="preserve">
<style type="text/css">
	.st0{fill:#FFFFFF;}
</style>
<path class="st0" d="M25.5,11.1l-9.3-3.5l-9.4,3.5l0.4,1l9-3.3l9,3.3L25.5,11.1z M6.8,12.4h18.8v1H6.8C6.8,13.5,6.8,12.4,6.8,12.4z
	 M6.8,20.2h18.8v1.1H6.8V20.2z M5.7,21.5h21v1h-21C5.7,22.6,5.7,21.5,5.7,21.5z M9.3,13.9h1.9v5.8H9.3V13.9z M12.3,13.9h1.9v5.8
	h-1.9V13.9z M15.3,13.9h1.9v5.8h-1.9C15.3,19.7,15.3,13.9,15.3,13.9z M18.3,13.9h1.9v5.8h-1.9V13.9z M21.3,13.9h1.9v5.8h-1.9V13.9z
	 M11.8,12.1l4.3-1.6l4.3,1.6h3l-7.2-2.7l0,0l-7.3,2.7H11.8z M26.8,23.1c-0.1,0-0.2,0-0.3,0h-2.8l0,0H8.5l0,0H5.8l0,0
	c-0.1,0-0.3,0-0.4,0c-2.3,0-4.2-1.9-4.2-4.2c0-0.5,0.1-1,0.3-1.5c0.4-1.2,1.4-2.2,2.6-2.6c-0.1-0.3-0.3-0.6-0.3-0.9l0,0
	c-0.1-0.4-0.2-0.9-0.2-1.3c0-2.7,2.2-5,5-5c0.7,0,1.3,0.1,1.9,0.4l0,0c0.3,0.1,0.7,0.3,1,0.5c0-0.4,0.1-0.7,0.2-1.1l0,0
	c0.5-1.9,2.3-3.3,4.4-3.3c2.2,0,4,1.4,4.6,3.4C20.9,8,20.9,8.5,21,9c0.4-0.4,0.9-0.6,1.4-0.8s1.1-0.3,1.6-0.3c2.6,0,4.8,2.1,4.8,4.8
	c0,0.5-0.4,1.5-0.4,1.5c-0.7,1.7-1.9,2.2-2.2,2.4c0.3,0.2,2.1,0.3,2.9-0.9c1.1,0.8,1.7,2,1.7,3.4C30.9,21.3,29.1,23.1,26.8,23.1
	L26.8,23.1z M29.5,14.6c0.2-0.6,0.3-1.3,0.3-2c0-3.2-2.6-5.8-5.8-5.8c-0.8,0-1.6,0.2-2.3,0.5C21,4.8,18.7,3,16.1,3s-4.7,1.7-5.5,4
	C9.9,6.7,9.2,6.6,8.4,6.6c-3.3,0-6,2.7-6,6c0,0.6,0.1,1.2,0.3,1.8c-1.5,0.9-2.6,2.6-2.6,4.5c0,2.9,2.3,5.2,5.2,5.3l0,0h21.4l0,0
	c2.9,0,5.2-2.3,5.2-5.2C32,17.1,31,15.5,29.5,14.6L29.5,14.6z"/>
</svg>
