<?xml version="1.0" encoding="utf-8"?>
<!-- Generator: Adobe Illustrator 19.2.1, SVG Export Plug-In . SVG Version: 6.00 Build 0)  -->
<svg version="1.2" baseProfile="tiny" id="图层_1"
	 xmlns="http://www.w3.org/2000/svg" xmlns:xlink="http://www.w3.org/1999/xlink" x="0px" y="0px" viewBox="0 0 100 100"
	 xml:space="preserve">
<g>
	<g>
		<path fill="#92202F" d="M36.9,85.2h-0.8L34.6,85c-0.3,0-0.6,0-0.9,0.2h1.2l1,0.2l0.9,0.3c0.1,0.1,0.2,0.3,0.2,0.5
			c0,0.2,0,0.4,0,0.6c-0.1,0.4-0.3,0.9-0.4,1.3l-0.4,1.2c-0.2,0.4-0.4,0.8-0.6,1.2c0,0.1-0.1,0.2-0.2,0.2L34.6,90
			c-0.1-0.2-0.1-0.5,0-0.8c0.3-0.1,0.5-0.3,0.8-0.4c0.2-0.3,0.1-0.4,0.5-1.2c0.4-0.8,0.5-1.1,0.3-1.4v0.1h-0.5
			c-0.1,0.3,0,0.6,0.2,0.8c0,0.4-0.2,0.7-0.5,1l0,0v0.3h-0.2V88H35c-0.1-0.2-0.1-0.4,0-0.6v-0.4c0.1-0.1,0.2-0.3,0.2-0.4
			c0-0.1-0.1-0.2-0.1-0.3c0-0.1,0-0.2,0-0.3c0-0.1-0.1-0.2-0.2-0.3c-0.3-0.1-0.3,0.6-0.5,0.9h-1c-0.1,0,0,0.1,0.1,0.2v0.2
			c0,0.1,0,0.1,0,0.2c-0.1,0.1-0.1,0.2-0.1,0.3h0.4c-0.2,0.1-0.3,0.2-0.5,0.3H34c0,0.1,0,0.3,0,0.4c-0.4,0.3-0.9,0.3-1.3,0.1
			c0.1-0.1,0.1-0.3,0.1-0.4L32.3,88H32c0.2-0.5,0.4-1,0.6-1.5c0.2-0.2,0.3-0.5,0.3-0.8c0-0.2,0-0.3-0.1-0.3
			c-0.5,0.3-0.8,0.7-1.1,1.2c-0.4,0.8-0.8,1.6-1.1,2.4c-0.1,0.2,0,0.4,0.2,0.4c0,0,0,0,0,0h0.4l0.4-1l0.9,0.3H34
			c0,0.1-0.1,0.2-0.1,0.3l-0.5,0.3h0.5c0,0.1,0,0.1,0,0.2c0,0.1,0,0.2-0.1,0.2h-0.2L33,89.6h-0.4c0,0,0-0.1,0.1-0.1l0.2-0.2h-0.8
			c-0.1,0.1-0.1,0.3-0.1,0.4C32,89.8,32,90,32,90.1h0.4l1.1,0.2l0.9,0.2l0.4,0.8c0,0.2,0.1,0.5,0.2,0.6c0,0.1-0.1,0.2-0.1,0.3h0.2
			l0.5-0.2c0.4-0.9,0.8-1.8,1.2-2.7c0.3-0.6,0.4-1.4,0.6-2.2c0.1-0.3,0.2-0.6,0.2-0.9c0-0.3,0-0.6-0.1-0.9
			C37.4,85.3,37.2,85.2,36.9,85.2z M48.1,93.8c-0.9-0.4-1.7-0.8-2.4-1.4c-1-0.8-1.6-1.6-1.8-1.5c0.2,0.4,0.4,0.7,0.8,1l1.1,1.1
			c0.3,0.4,0.7,0.8,1.1,1.2l0.9,0.2h0.8c0.2,0,0.2-0.2,0.1-0.3C48.4,94,48.3,94,48.2,94L48.1,93.8z M44.7,88.3h-0.3l-1.1,1.5l-1,1.3
			l-1.6,1.9v0.2c0,0.1-0.1,0.2,0,0.3H41l0.9-0.4l1.4-1.9l1-1.3c0.3-0.4,0.5-1,0.5-1.5L44.7,88.3z M27.8,82.3
			c-0.4,0.4-1.1,0.5-1.6,0.1c-0.1-0.1-0.4-0.1-0.4-0.3l1-1V81c0-0.2,0.1-0.3,0.2-0.4l0.4-0.4c0.1-0.1,0.1-0.2,0-0.3
			c-0.1-0.2-0.2-0.3-0.3-0.4l-0.3,0.2l-0.2,0.2l-0.5,0.4l-1.2-0.5c-0.1-0.2-0.1-0.4-0.1-0.5l-0.2-0.3h-0.1L24,79.5l-0.6,1.1h-0.1
			c0,0.1,0,0.2,0.1,0.2h0.2l0.9-0.8h0.2l0.4,0.3l0.3,0.3l-0.9,0.9c-0.5-0.3-0.4-0.2-0.6-0.2c0.1,0.2,0.2,0.4,0.2,0.5l-1.9,1.7
			l-0.5,0.6l-0.4,0.6c-0.1,0.1-0.1,0.2,0,0.3h0.1l0.6-0.2l0.6-0.6l1.5-1.3l0.5-0.4l0.6,0.3l0.5,0.2l0.4,0.2c0.6,0.5,0.8,0.5,0.9,0.5
			c0.2-0.1,0.4-0.3,0.4-0.5c0.2-0.2,0.3-0.6,0.2-0.9L27.8,82.3L27.8,82.3z M27,81.5l0.8,0.8v-0.2l-0.2-0.2c-0.3-0.3-0.6-0.5-1-0.8
			h-0.1L27,81.5z M69.7,90.4h-0.9c-0.6-0.2-1.2-0.4-1.7-0.8l-0.6-0.3l-0.8-0.5c-0.1-0.1-0.3-0.2-0.1-0.4l1-1l0.9-0.3h0.1
			c0-0.1,0-0.2-0.1-0.3h-1c-0.3,0.2-0.6,0.4-0.9,0.8l-0.4,0.4h-0.2c-0.2-0.5-0.3-1-0.3-1.5c0-0.1,0-0.2-0.1-0.3h-0.3
			c-0.2-0.1-0.5-0.1-0.6,0.1c0.1,0.4,0.3,0.9,0.4,1.2c0.2,0.4,0.2,0.9,0.2,1.3c-0.2,0.4-0.5,0.7-0.9,0.9h-0.6
			c-0.1,0.1-0.1,0.1-0.1,0.2c0,0.2,0.2,0.3,0.4,0.2c0,0,0,0,0,0h0.5l0.8-0.4c0.1,0,0.1,0.1,0.1,0.2c0.1,0.5,0.1,1,0,1.5
			c0,0.5-0.1,1-0.3,1.4c-0.1,0.2-0.1,0.4,0,0.4l0.3-0.3l0.5-0.5c0.1-0.3,0.2-0.7,0.2-1.1c0-0.6-0.1-1.2-0.2-1.7l0,0v-0.3l0.2-0.3
			l0.9,1l0.5,0.3l1.9,1.2c0.5,0,0.9-0.1,1.3-0.3l0.2-0.2C70.1,90.6,70.1,90.5,69.7,90.4z M73,80.7L73,80.7l-0.2,0.2h0.3L73,80.7z
			 M77.4,83.9l0.4-0.2h0.5c0.1-0.1,0.1-0.2,0-0.3c0,0,0,0,0,0H78l-0.8,0.5h-0.3l-0.2-0.3c0-0.1,0-0.3,0-0.4
			c-0.1-0.2-0.2-0.3-0.3-0.4c0-0.2,0-0.3,0.1-0.4l0.3-0.3h0.3l0.5-0.3c0.2-0.2,0.1-0.3-0.1-0.5c-0.3-0.2-0.7-0.3-1.1-0.2
			c-0.4-0.3-0.6-0.6-0.8-1.1l-0.3-0.6c-0.1-0.3-0.3-0.5-0.5-0.6l-0.3,0.2h-0.1c0.1,0.1,0.2,0.3,0.1,0.3c-0.2,0.1-0.3,0.3-0.3,0.5
			l-0.4,0.3h-0.1c-0.1-0.1-0.1-0.5-0.2-0.6l0,0c-0.1,0-0.1,0-0.1,0.1v0.5c0.1,0.2,0.1,0.4,0.1,0.5l-0.3,0.2c0,0.1,0,0.3,0,0.4v0.2
			l-0.3-0.5H73l-0.3-0.3h-0.3c0.3,0.6,0.6,1.1,1.1,1.5l0.9,1.5l-0.4,1.1l-0.3,0.3l-0.3-0.2h-0.4c0,0-0.2,0.1-0.1,0.2l0.3,0.6
			c0,0.1,0.5,1.4,0.5,1.4h0.3c0.2-0.1,0.3-0.2,0.3-0.4c-0.1-0.5-0.3-1-0.5-1.4l0.3-0.4c0.1-0.2,0.1-0.3,0.3-0.8l0.5-0.8
			c0.1-0.2,0.2-0.4,0.3-0.6l0.5-0.5l0.2-0.3l0.2-0.3h0.2c0.2,0,0.2,0,0.1,0.2c-0.2,0.3-0.3,0.6-0.3,1l-0.2,0.3l-0.2,0.3l-0.9,1
			c0,0.1,0,0.1,0.1,0.2c0.2,0.1,0.5,0,0.6-0.1c0.1-0.1,0.2-0.2,0.2-0.3c0-0.1,0.2-0.6,0.3-0.3l0.2,0.4l0.2,0.3L76.2,85l-0.8,0.9
			c-0.2,0.2-0.2,0.5-0.1,0.8c0.3-0.1,0.6-0.4,0.8-0.8l0.4-1c0-0.1,0.2-0.2,0.3-0.1c0,0,0,0,0,0c0.1,0.2,0.2,0.4,0.2,0.5
			c-0.1,0.3-0.3,0.6-0.6,0.6l-0.5,0.3h0.4l0.6-0.2l0.9-0.2c0.2-0.2,0.4-0.5,0.3-0.8c-0.2-0.4-0.4-0.8-0.8-1.1
			C77.3,83.9,77.3,83.9,77.4,83.9l0.1,0L77.4,83.9z M74,82.6h-0.2l-0.6-0.9v-0.3c0-0.1,0-0.1,0.3,0h0.3c0.1,0.4,0.1,0.8,0.1,1.2H74z
			 M74,81h-0.6c0-0.3,0-0.5,0-0.8l0.3-0.3h0.2c0,0.4,0,0.8,0,1.2L74,81z M74.3,79.5h0.2l0.2,0.5l-0.4,0.2c-0.1-0.2-0.1-0.4-0.1-0.6
			L74.3,79.5z M74.9,82.2h-0.1c0-0.1,0-0.1,0-0.2c0.1,0,0.1,0,0.1,0.1c0,0,0,0,0,0l0,0V82.2z M74.8,81.2L74.4,81
			c-0.1-0.2-0.1-0.4,0-0.5c0.1-0.2,0.3-0.3,0.5-0.3l0.2,0.6c0,0.5-0.1,0.8-0.4,0.5L74.8,81.2z M74.2,78.6h-0.1l-0.8,0.6h0.2
			L74.2,78.6z M73.3,83.5l0.1-0.1c-0.4-0.6-0.9-1.1-1.4-1.5c-0.3,0-0.5,0.1-0.8,0.2l0.5,0.4l1.2,1.1h0.3V83.5z M58.5,91.8
			c0,0.6-0.3,1.2-0.8,1.6l-0.4,0.2c-0.2-0.1-0.4-0.2-0.5-0.4c-0.3-0.4-0.5-1-0.5-1.5l0.8-0.5c0.2-0.2,0.3-0.4,0.3-0.6h-0.6L56,90.8
			l-0.3-0.3c-0.2-0.1-0.4-0.1-0.5,0c-0.1,0.4-0.1,0.7,0,1.1l-1,1c-0.1-0.8-0.1-1.7-0.1-2.5c0.5-0.1,1-0.2,1.5-0.2
			c0.2-0.3,0.4-0.7,0.5-1.1c0.2-0.3,0.2-0.6,0.1-0.9c0-0.1-0.2-0.2-0.3-0.2c-0.2,0-0.3,0.1-0.4,0.2h-0.6l-0.6,0.4
			c-0.2,0.1-0.3,0.3-0.2,0.3l1.1-0.4c0,0,0,0.1,0,0.2c0,0.3-0.2,0.6-0.3,0.9H54l-0.6-0.2c-0.2,0-0.4,0.1-0.4,0.3c0,0.5,0,1,0.1,1.5
			c0,1,0,2.2,0,2.9c0,0.2,0,0.3,0.1,0.4c0.3,0,0.6,0,0.9-0.1c0.1-0.4,0.2-0.8,0.1-1.2v-0.2c0.3-0.3,0.6-0.6,1-0.9
			c0.3,0.7,0.6,1.3,1.1,1.8c0.5,0.3,1.1,0.3,1.5,0C58.2,93.2,58.5,92.5,58.5,91.8c0-0.2,0-0.4,0-0.5c0.1,0.4,0,0.4-0.1,0.6
			L58.5,91.8z M35,87.8L35,87.8z"/>
		<path fill="#56AC49" d="M32.6,74.2"/>
		<g>
			<g>
				<path fill="#92202F" d="M43.3,74.9l1.3-0.8h1.1v5.2h-1.2v-4L43.3,76L43.3,74.9L43.3,74.9z"/>
				<path fill="#92202F" d="M48.2,78.1c0,0.3,0.2,0.6,0.5,0.6c0.6,0,0.8-0.5,0.8-1.6c-0.3,0.2-0.6,0.3-1,0.3
					c-0.9-0.1-1.5-0.8-1.5-1.6c0-1,0.8-1.7,1.7-1.7c0,0,0.1,0,0.1,0c1.3,0,1.9,0.8,1.8,2.3c0.1,0.8-0.1,1.6-0.4,2.4
					c-0.3,0.5-0.9,0.7-1.5,0.6c-1.2,0-1.7-0.4-1.7-1.3h1.1H48.2z M48.8,76.7c0.4-0.1,0.7-0.4,0.7-0.8c0,0,0,0,0,0
					c0.1-0.4-0.1-0.8-0.5-0.9c0,0-0.1,0-0.1,0c-0.4,0-0.8,0.3-0.8,0.7c0,0.1,0,0.2,0,0.2c-0.1,0.4,0.2,0.8,0.6,0.9
					C48.7,76.7,48.8,76.7,48.8,76.7L48.8,76.7z"/>
				<path fill="#92202F" d="M52.2,78c0,0.4,0.3,0.7,0.6,0.8c0.4-0.1,0.7-0.4,0.6-0.8c0-0.6-0.4-0.9-1.3-0.9v-0.8
					c0.9,0,1.3-0.3,1.3-0.9c0-0.4-0.3-0.6-0.6-0.6l0,0c-0.3,0-0.6,0.3-0.6,0.6H51c0.1-0.8,0.8-1.5,1.6-1.4c0,0,0.1,0,0.1,0
					c1.1,0.1,1.7,0.5,1.7,1.3c0.1,0.6-0.4,1.2-1,1.3c0.6,0.2,1,0.8,1,1.4c-0.1,0.8-0.7,1.2-1.8,1.3c-1.2,0.1-1.7-0.4-1.5-1.4H52.2z"
					/>
				<path fill="#92202F" d="M58.6,74.2v1L57,79.4h-1.1l1.6-4.3h-2.3v-0.9H58.6z"/>
			</g>
			<path fill="#92202F" d="M36.3,22.4c0.5,0,1,0.1,1.5,0.3c0.4,0.3,0.7,0.8,0.9,1.3c0.1,2.7-1.1,4.4-0.5,7.2
				c0.5,2.8,2.4,6.3,3.1,9.5c2.9-0.8,6.9-5.3,7.5-8.5c0.2-1.8,0-3.6-0.4-5.3c-0.4-1.2-0.4-2.4-0.1-3.6c0.3-0.9,1.2-1,2.2-1
				c1-0.1,2,0.5,2.4,1.4c0.5,1.7-1,2.8-0.5,6.3c0.4,3.5,2.3,9.3,3.8,10.6c2.6-1.9,6-4.8,6.8-8.3s-2.4-8-0.1-9.4c1-0.7,2.4-0.7,3.3,0
				c0.2,0.2,0.5,0.5,0.6,0.8c0.2,0.5,0.2,1.1,0.1,1.6c-0.1,0.8-0.4,1.5-0.6,2.5c-0.2,1.8-0.1,3.6,0.3,5.3c1,3.7,4.4,7.6,3.2,12.6
				c-1.2,5.1-4.5,5.9-5.5,13.2c-0.5,4.3,2.6,10,2.2,12.5c0,0.7-0.5,1.4-1.2,1.6c-0.7,0.2-1.5,0.1-2.1-0.3c-2.2-1.2-3.5-9.5-2.7-14.5
				c0.8-5,1.9-6.7,4.9-11.4c1.3-3.1,0.8-6.7-1.3-9.4c-2.3,2.8-5.2,5.2-8.3,7.1c-0.1,5-4.8,8-5.5,13.4c-0.2,2.7,0.2,5.5,1.1,8.1
				c1.2,3.3,1.6,5.7,0.3,6.6c-0.7,0.5-1.6,0.5-2.4,0.1c-0.8-0.3-1.7-2.6-2.4-5.5c-0.6-2.9-1-10,0.5-13.7c1.5-3.7,5.9-6.9,4.3-12.2
				c-0.3-1.4-0.9-2.7-1.6-4h-0.3c-1.3,2.7-5.3,5.6-8,7c-0.1,4.8-5.2,7.9-5.5,13.5c-0.3,5.6,2.3,9.4,2.1,13.4
				c-0.1,0.7-0.5,1.2-1.1,1.5c-0.6,0.3-1.3,0.3-1.9,0c-2.4-0.9-5-12.2-1.2-21.2c1-2.5,3.1-4.1,3.9-7c0.8-2.9-1.9-7.6-1.9-7.6
				s-6.3,7.8-9.7,7.5c-0.7-0.2-1.1-0.9-1.1-1.6c0-1.2,1.9-2.1,3.1-2.9s4.5-3.7,5.9-6.7c1.4-3-0.6-6-0.3-9.8
				C34,22.7,35,22.4,36.3,22.4z"/>
			<g>
				<path fill="#92202F" d="M12.9,59.5l0.3,1.4l-6.4,1.5l-0.6-2.8c-0.3-1.4,0.1-2.3,1.2-2.6c0.8-0.2,1.5,0.2,1.8,1l0,0
					c-0.1-0.7,0.4-1.4,1.1-1.5c0,0,0.1,0,0.1,0h0.2c0.5-0.1,1-0.3,1.4-0.6l0.3,1.5L10.7,58c-0.6,0.1-0.8,0.4-0.6,0.8l0.3,1.5
					L12.9,59.5z M9.2,60.4L9,59.2c0-0.5-0.5-0.8-0.9-0.8c0,0-0.1,0-0.1,0c-0.4,0-0.7,0.4-0.7,0.8c0,0.1,0.1,0.3,0.1,0.4l0.2,1.1
					L9.2,60.4z"/>
				<path fill="#92202F" d="M5.4,55.2l-0.3-4.4h1.1l0.2,3h1.5L7.7,51h1.1L9,53.8h1.7l-0.2-3.1h1.1l0.3,4.5H5.4z"/>
				<path fill="#92202F" d="M11.9,46l-5.6,2.2l0,0l5.4,0.4v1.3l-6.5-0.5v-2.1l5.3-2.1l0,0l-5.1-0.4v-1.4l6.5,0.5
					C11.9,44,11.9,46,11.9,46z"/>
				<path fill="#92202F" d="M13.2,39.4l-0.3,1.2l-5.9,0.2l0,0l5.4,1.5L12,43.6l-6.3-1.7l0.6-2.3h5l-4.2-2.7l0.5-2.2l6.3,1.7
					l-0.3,1.3l-5.4-1.5l0,0L13.2,39.4z"/>
				<path fill="#92202F" d="M15.2,33.9l-0.5,1.3l-6-2.7l0.5-1.3L15.2,33.9z"/>
				<path fill="#92202F" d="M17.8,29.3l-5.9-0.6l0,0l4.6,2.8l-0.6,1.1L10.3,29l1.1-1.8l5.7,0.5l0,0l-4.3-2.7l0.6-1.1l5.6,3.5
					L17.8,29.3z"/>
				<path fill="#92202F" d="M21.1,15.8l2.8,3c1.1,1.2,1,2.5-0.3,3.8c-1.3,1.3-2.6,1.4-3.8,0.2L17,19.7l1.1-1l2.5,2.6
					c0.3,0.4,0.8,0.8,1.3,1c0.4,0.1,0.9-0.1,1.2-0.4c0.4-0.3,0.6-0.7,0.5-1.2c-0.1-0.5-0.4-1-0.9-1.4l-2.5-2.6L21.1,15.8z"/>
				<path fill="#92202F" d="M29.3,18l-5.2-3l0,0l3,4.5L26,20.3l-3.7-5.4l1.7-1.2l5,2.9l0,0l-2.9-4.2l1.1-0.8l3.7,5.4L29.3,18z"/>
				<path fill="#92202F" d="M33.6,15.7l-1.3,0.6l-2.9-5.8l1.3-0.6L33.6,15.7z"/>
				<path fill="#92202F" d="M32.6,8.7L34,8.2l3.2,4.3l0,0V7.1l1.3-0.4l-0.2,7l-1.4,0.5L32.6,8.7z"/>
				<path fill="#92202F" d="M40.5,6.4l4.3-0.8L45,6.7l-2.9,0.4l0.2,1.5L45,8.2l0.2,1.1l-2.7,0.4l0.3,1.7l3-0.5l0.2,1.1l-4.4,0.8
					L40.5,6.4z"/>
				<path fill="#92202F" d="M48.3,12h-1.4V5.5h2.8c1.5,0,2.3,0.5,2.3,1.6c0,0.8-0.5,1.5-1.3,1.6l0,0c0.7,0.1,1.2,0.7,1.2,1.4
					c0,0,0,0,0,0v0.2c0,0.5,0.2,1,0.4,1.5h-1.5c-0.2-0.6-0.3-1.1-0.3-1.7c-0.1-0.6-0.3-0.9-0.6-0.9h-1.5v2.6L48.3,12z M48.2,8.3h1.2
					c0.5,0.1,0.9-0.3,1-0.7c0-0.1,0-0.2,0-0.2c0-0.4-0.3-0.8-0.7-0.8c-0.1,0-0.2,0-0.2,0h-1.2V8.3z"/>
				<path fill="#92202F" d="M56.8,7.8c0.1-0.6-0.3-1.2-0.9-1.3c-0.6-0.1-1.2,0.3-1.3,0.9c-0.1,0.5,0.2,0.9,1.1,1.1h0.2
					c1.5,0.5,2.2,1.2,2.1,2.1c-0.1,0.9-1.2,1.4-3,1.7c-1.7-0.2-2.5-1-2.3-2.5l1.4,0.2c-0.1,0.6,0.3,1.2,0.8,1.3c0,0,0.1,0,0.1,0
					c0.9,0.1,1.3-0.1,1.4-0.6c0.1-0.5-0.3-0.9-1.1-1.1h-0.2c-1.4-0.5-2-1.2-1.9-2.1c0.1-0.9,1.1-1.4,3-1.7c1.1,0.1,2,1,2,2.1
					c0,0,0,0.1,0,0.1L56.8,7.8z"/>
				<path fill="#92202F" d="M60.3,13.3L58.9,13l1.6-6.4l1.4,0.3L60.3,13.3z"/>
				<path fill="#92202F" d="M64.1,7.6l5,1.9l-0.4,1L67,9.9L64.9,15l-1.3-0.5l2.1-5.1l-1.8-0.8L64.1,7.6z"/>
				<path fill="#92202F" d="M70.5,15.4l0.4-5l1.4,0.9l-0.4,3.2l2.8-1.8l1.2,0.8l-4.2,2.6l-1.1,1.8l-1.2-0.8L70.5,15.4z"/>
				<path fill="#92202F" d="M78.1,19.4c1.7-1.5,3.2-1.5,4.6-0.1c1.4,1.4,1.3,3-0.3,4.6c-1.7,1.4-3.2,1.4-4.5,0
					C76.5,22.5,76.6,21,78.1,19.4z M79.2,20.5c-1.2,1.1-1.3,2-0.5,2.8c0.8,0.8,1.7,0.6,2.8-0.4c1.2-1.1,1.4-2,0.6-2.8
					C81.4,19.3,80.4,19.4,79.2,20.5z"/>
				<path fill="#92202F" d="M80.7,27.1l5.4-3.7l2.4,3.5l-0.9,0.6L86,25.2L84.7,26l1.5,2.2l-0.9,0.6l-1.5-2.2l-2.3,1.6L80.7,27.1z"/>
				<path fill="#92202F" d="M90.5,36.3c0.6-0.2,0.9-0.9,0.7-1.5c0,0,0-0.1,0-0.1c-0.3-0.7-1.2-0.8-2.7-0.3c-1.5,0.5-2.1,1.2-1.7,2.1
					c0.2,0.6,0.8,1,1.5,0.8c0.1,0,0.1,0,0.1-0.1l0.5,1.4c-1.4,0.4-2.4-0.2-3-1.8c-0.6-1.7,0.1-2.9,2.2-3.8c2.1-0.7,3.5-0.3,4.2,1.4
					c0.7,1.7,0.4,2.8-1.1,3.5L90.5,36.3z"/>
				<path fill="#92202F" d="M87,40l6.4-1.3l0.3,1.4l-2.5,0.5l0.5,2.5l2.5-0.5l0.3,1.4l-6.4,1.3L88,43.8l2.8-0.5l-0.5-2.5l-2.8,0.5
					L87,40z"/>
				<path fill="#92202F" d="M88.2,48.2v-1.4l6.5-0.4v1.4L88.2,48.2z"/>
				<path fill="#92202F" d="M88.1,53.6l5.6-2.2l0,0l-5.4-0.3v-1.4l6.5,0.4v2.1l-5.3,2.2l0,0l5.1,0.3v1.3l-6.5-0.4V53.6z"/>
				<path fill="#92202F" d="M87.8,56.5l5.7,4l-0.4,1.6l-6.9,0.5l0.3-1.4H88l0.6-2.5l-1.2-0.9L87.8,56.5z M89.1,61.1H92l-2.4-1.8
					L89.1,61.1z"/>
			</g>
		</g>
	</g>
	<path fill="#92202F" d="M50,13.6c-20.2,0-36.5,16.3-36.5,36.5S29.8,86.6,50,86.6s36.5-16.3,36.5-36.5S70.2,13.6,50,13.6L50,13.6z
		 M50,84.4c-19,0-34.3-15.4-34.3-34.3S31,15.8,50,15.8c19,0,34.3,15.4,34.3,34.3S69,84.4,50,84.4L50,84.4z"/>
	<path fill="#92202F" d="M50,2.3C23.6,2.3,2.2,23.7,2.2,50.1S23.6,97.9,50,97.9s47.8-21.4,47.8-47.8S76.4,2.3,50,2.3L50,2.3z
		 M50,96.7c-25.7,0-46.5-20.8-46.5-46.5C3.5,24.4,24.3,3.6,50,3.6c25.7,0,46.5,20.8,46.5,46.5c0,0,0,0,0,0
		C96.5,75.8,75.7,96.7,50,96.7z"/>
	<path fill="#92202F" d="M50,0C22.4,0,0,22.4,0,50s22.4,50,50,50s50-22.4,50-50S77.6,0,50,0L50,0z M50,99C23,99,1.1,77.1,1.1,50.1
		S23,1.2,50,1.2s48.9,21.9,48.9,48.9S77,99,50,99L50,99z"/>
</g>
</svg>
