<?xml version="1.0" encoding="utf-8"?>
<!-- Generator: Adobe Illustrator 19.2.1, SVG Export Plug-In . SVG Version: 6.00 Build 0)  -->
<svg version="1.2" baseProfile="tiny" id="upc" xmlns="http://www.w3.org/2000/svg" xmlns:xlink="http://www.w3.org/1999/xlink"
	 x="0px" y="0px" viewBox="0 0 100 100" xml:space="preserve">
<g>
	<path fill-rule="evenodd" fill="#0C3B5D" d="M75.7,9c-0.1-0.1-0.2-0.1-0.2-0.2c-0.2-0.1-0.4-0.2-0.6-0.3c-0.2-0.1-0.3-0.2-0.5-0.3
		c-0.2-0.1-0.4-0.2-0.6-0.3c0,0,0-0.1-0.1-0.1c0,0-0.1,0-0.2-0.1c-0.3-0.2-0.5-0.3-0.8-0.4c-1.4-0.8-2.9-1.5-4.4-2.1
		C68,5,67.3,4.8,66.8,4.6c-0.6-0.2-1.2-0.5-1.8-0.7c-3.2-1.1-6.8-1.8-10.7-2.2c-2-0.2-4.1-0.3-6.3-0.2C39.7,1.9,33,4,27.3,7
		c-1.9,1-3.7,2.1-5.5,3.3c-3.4,2.5-6.5,5.2-9.1,8.3c-1,1.2-1.9,2.4-2.8,3.7c-0.1,0.1-0.2,0.3-0.3,0.4c0,0-0.1,0.1-0.1,0.2
		c0,0-0.1,0.1-0.1,0.2c0,0-0.1,0.1-0.1,0.2c0,0-0.1,0.1-0.1,0.2c0,0-0.1,0.1-0.1,0.2c-0.1,0.1-0.2,0.3-0.3,0.4
		c-0.1,0.2-0.2,0.4-0.3,0.6c0,0-0.1,0-0.1,0.1C8.3,24.7,8.2,25,8.2,25c-0.1,0.1-0.1,0.2-0.2,0.3c-0.2,0.4-0.4,0.7-0.6,1
		c-0.6,1.1-1.3,2.3-1.8,3.4c0,0.1,0,0.1-0.1,0.2c-0.1,0.2-0.3,0.5-0.4,0.7c-0.1,0.3-0.3,0.7-0.4,1c0,0.1-0.1,0.1-0.1,0.2
		c-0.1,0.1-0.1,0.3-0.1,0.4c-0.2,0.5-0.4,1-0.6,1.5c-1.3,3.8-2.3,8-2.6,12.7C1,50.8,1.3,54.8,2,58.7C3.7,68.5,8,76.1,13.4,82.2
		c3.8,4.3,8.3,7.9,13.5,10.7c4.7,2.4,9.9,4.3,16,5.2c6.7,1,13.6,0.3,19.2-1.1c1.1-0.3,2.1-0.6,3.1-0.9c0.7-0.2,1.3-0.5,1.9-0.7
		c0.7-0.2,1.3-0.5,1.9-0.8c0.1,0,0.2-0.1,0.2-0.1c0.1,0,0.2,0,0.3-0.1c0.1-0.1,0.3-0.2,0.4-0.3c0.1,0,0.2,0,0.3-0.1
		c0.1,0,0.2-0.1,0.2-0.1c1.5-0.7,3-1.6,4.3-2.3c0.2-0.1,0.4-0.3,0.6-0.4c0.1,0,0.2-0.1,0.2-0.1c0.1-0.1,0.3-0.2,0.4-0.3
		c0.1-0.1,0.3-0.1,0.4-0.2c0.1-0.1,0.2-0.2,0.4-0.3c0,0,0.2-0.1,0.2-0.1c0.2-0.1,0.3-0.2,0.4-0.3c0.2-0.1,0.3-0.2,0.4-0.3
		c0.2-0.1,0.3-0.2,0.4-0.3c0.2-0.1,0.3-0.2,0.4-0.3c0.1,0,0.2-0.1,0.2-0.1c0.1-0.1,0.2-0.2,0.3-0.3c0.1-0.1,0.2-0.1,0.2-0.1
		c0.2-0.2,0.4-0.3,0.6-0.4c0.1-0.1,0.3-0.2,0.4-0.3c0.1-0.1,0.2-0.2,0.3-0.3c0.1-0.1,0.3-0.2,0.4-0.3c0.3-0.2,0.5-0.4,0.7-0.6
		c0.1-0.1,0.2-0.2,0.3-0.3c0.1-0.1,0.3-0.2,0.4-0.3c0.1-0.1,0.2-0.3,0.3-0.4c0.2-0.2,0.5-0.4,0.7-0.6l0.7-0.7
		c0.4-0.4,0.9-0.9,1.3-1.3c0.1-0.1,0.1-0.2,0.1-0.2c0.1-0.1,0.1-0.1,0.2-0.2c0.5-0.6,1.1-1.2,1.5-1.8c0.1-0.1,0.2-0.2,0.3-0.3
		c0.1-0.1,0.1-0.2,0.1-0.2c0,0,0.1,0,0.1-0.1c0,0,0-0.1,0.1-0.2c0.1-0.1,0.2-0.2,0.3-0.3c0.1-0.1,0.2-0.3,0.3-0.4
		c1.4-1.8,2.6-3.6,3.7-5.6c2.1-3.7,3.8-7.8,4.9-12.3c0.1-0.5,0.3-0.9,0.3-1.3c0.1-0.6,0.2-1.1,0.3-1.7c0-0.1,0.1-0.2,0.1-0.3
		c0.1-0.4,0.1-0.8,0.2-1.2c0.2-1.2,0.3-2.4,0.4-3.6c0.5-7.1-0.6-13.6-2.3-18.7c-0.3-0.8-0.6-1.7-0.9-2.4c-0.2-0.5-0.4-0.9-0.5-1.3
		c0,0-0.1-0.1-0.1-0.1c-0.1-0.3-0.3-0.6-0.4-0.9c-0.1-0.3-0.3-0.6-0.4-0.9c-0.1-0.3-0.2-0.6-0.4-0.9c-0.1-0.3-0.3-0.5-0.5-0.8
		c-0.2-0.3-0.3-0.6-0.4-0.9c-0.2-0.4-0.5-0.9-0.7-1.3c-0.2-0.3-0.3-0.6-0.5-0.8c-0.1-0.2-0.2-0.3-0.3-0.4c-1.4-2.1-2.9-4.1-4.6-6.1
		c-0.2-0.3-0.5-0.5-0.7-0.8c-0.2-0.3-0.6-0.5-0.7-0.8C82.1,13.6,79.1,11.1,75.7,9z M47.7,0.2h4.2c3.6,0.2,6.9,0.7,9.9,1.4
		c6,1.5,11.1,3.9,15.7,6.9c0.4,0.3,0.9,0.6,1.3,0.9c0.4,0.2,0.7,0.5,1,0.7c0,0,0.1,0,0.2,0.1c0,0,0.1,0.1,0.1,0.2
		c0.1,0,0.1,0,0.2,0.1c0.1,0.1,0.1,0.2,0.2,0.2c0.3,0.3,0.7,0.5,1,0.8c0.3,0.2,0.5,0.4,0.8,0.7c0,0,0.1,0.1,0.1,0.1
		c0,0,0.1,0,0.2,0.1c0.1,0.1,0.1,0.2,0.2,0.3c0.1,0.1,0.2,0.1,0.3,0.2c0.2,0.2,0.3,0.3,0.5,0.5c0.8,0.7,1.6,1.5,2.4,2.3
		c0.2,0.2,0.5,0.4,0.7,0.7c0.1,0.1,0.1,0.2,0.2,0.3c0.3,0.3,0.6,0.7,0.9,1c0.4,0.5,0.8,1,1.3,1.5c3.7,4.7,6.7,10.2,8.7,16.7
		c1.2,3.9,1.9,8.2,2.1,13v2.6c-0.3,7.7-2,14.2-4.6,19.8c-2.6,5.6-6,10.3-10,14.3c-4,4-8.8,7.4-14.3,10c-5.6,2.6-12.1,4.3-19.7,4.6
		h-2.6c-7.6-0.3-14.1-2-19.6-4.6c-3.6-1.7-6.8-3.7-9.9-6c-0.1-0.1-0.2-0.2-0.3-0.3c0,0-0.1,0-0.1-0.1c-0.3-0.2-0.5-0.5-0.8-0.7
		c0,0-0.1,0-0.2-0.1c-0.1-0.1-0.3-0.3-0.5-0.4c-0.5-0.5-1.2-1.1-1.8-1.6c-0.5-0.5-1-0.9-1.5-1.5c-0.1-0.1-0.2-0.3-0.3-0.4
		c-0.1-0.1-0.3-0.2-0.4-0.3c-0.2-0.3-0.5-0.5-0.7-0.8c-0.2-0.2-0.4-0.4-0.6-0.6c-0.2-0.2-0.4-0.6-0.7-0.8c-0.1-0.1-0.1-0.1-0.2-0.2
		c-0.1-0.1-0.3-0.2-0.4-0.4c0,0,0-0.1-0.1-0.2c0,0-0.1,0-0.1-0.1c-0.1-0.1-0.3-0.4-0.4-0.6c0-0.1-0.1-0.1-0.2-0.2
		c0-0.1-0.1-0.1-0.2-0.2c0-0.1-0.1-0.1-0.2-0.2c0-0.1-0.1-0.1-0.2-0.2c-0.1-0.1-0.3-0.3-0.4-0.5c-4.9-7-8.6-15.7-9.3-26.9v-4.2
		c0,0,0.1,0,0.1-0.1c0.2-6.1,1.6-11.5,3.4-16c0-0.1,0.1-0.3,0.1-0.4c0,0,0.1-0.1,0.1-0.1c0,0,0-0.1,0-0.2c0,0,0.1-0.1,0.1-0.1
		c0,0,0-0.1,0-0.2c0,0,0.1-0.1,0.1-0.1c0.2-0.6,0.4-1.1,0.7-1.6c0.1-0.2,0.2-0.3,0.3-0.5c0.2-0.4,0.3-0.7,0.4-1
		c0.2-0.3,0.4-0.6,0.6-0.9c0.2-0.3,0.3-0.7,0.5-1C7,24.2,8,22.7,9,21.3c3.3-4.7,7.3-8.6,11.9-11.9c2.3-1.7,4.8-3.1,7.5-4.4
		C33.9,2.3,40.3,0.6,47.7,0.2z"/>
	<path fill-rule="evenodd" fill="#0C3B5D" d="M46.1,90.7c-0.2,0.5-1,0-1.4,0.2c0.1,0.1,0.2,0.2,0.3,0.3c0.1,0.1,0.2,0.3,0.2,0.4
		c-0.2,0.3-0.5,0.7-1,0.6c-0.1,0.1-0.1,0.4-0.3,0.4c-0.1-0.4-0.4-0.7-0.3-1.3c-0.2-0.3-0.3-0.5-0.8-0.6c0.1,0.4,0.4,0.5,0.6,0.8
		c0.2,0.3,0.3,0.8,0.3,1.2c0.1,0.1,0.2,0.1,0.3,0.3c0.1,0.1,0.1,0.3,0.1,0.4c0.1,0,0.2,0.1,0.2,0.2c0.4-0.2,0.8,0.1,1.2-0.1
		c0.1-0.1,0.1-0.3,0.1-0.5c0.2-0.5,0.8-0.7,1.5-0.8C47.3,91.3,46.6,91,46.1,90.7z M51.8,91c0.1,0.6,0.2,1.3,0.3,1.9
		c0.3,0.4,0.5,1,1,1.1c0.1-0.1,0.1-0.3,0.1-0.5c-0.1-0.3-0.4-0.6-0.3-1c-0.1,0-0.2,0-0.2-0.1c0.1-0.1-0.1-0.2,0-0.4
		c-0.3-0.3-0.6-0.7-0.7-1.3c0-0.1,0.1-0.4-0.1-0.4C51.9,90.6,51.9,90.7,51.8,91z M68.1,88.6c-0.2-0.1-0.4-0.2-0.7-0.2
		c-0.1,0-0.3,0.1-0.5,0.1c0,0.5,0.2,0.7,0.3,1.2c0.2,0.1,0.5,0.3,0.9,0.2c0.2,0,0.4-0.2,0.6-0.2c0.1-0.2,0.1-0.5,0.1-0.8
		C68.6,88.7,68.4,88.6,68.1,88.6z M52.3,89.2c0.4-0.1,0.5,0.1,0.8,0.1c0.1-0.5-0.3-0.9-0.5-1.3c-0.1,0-0.1-0.1-0.2-0.1
		C52.4,88.3,52.5,88.9,52.3,89.2z M34.5,87.6C34.5,87.6,34.4,87.7,34.5,87.6C34.5,87.7,34.5,87.7,34.5,87.6z M30.9,87.5
		C30.9,87.5,30.8,87.5,30.9,87.5C30.9,87.5,30.9,87.5,30.9,87.5z M35.2,87.2C35.2,87.2,35.2,87.1,35.2,87.2
		C35.2,87.2,35.2,87.3,35.2,87.2z M35.2,87C35.2,86.9,35.1,86.9,35.2,87C35.1,87,35.2,87,35.2,87z M74.4,86.8
		C74.4,86.8,74.3,86.8,74.4,86.8C74.3,86.9,74.4,86.8,74.4,86.8z M55.8,88.7c-0.2,0.1-0.4,0.3-0.7,0.3c-0.3,0.4-0.7,0.6-1,1
		c-0.2,0.1-0.4,0.3-0.6,0.4c-0.2,0.2-0.4,0.4-0.3,0.7c0,0.3,0.3,0.2,0.4,0.4c0.1,0.3,0.3,0.4,0.5,0.7c0.3,0.1,0.6,0.3,0.9,0.5
		c0.2,0.1,0.5,0.3,0.6,0.4c0.3,0.1,0.5,0.1,0.7,0c0.1-0.1,0.1-0.2,0.3-0.2c0.7,0,1.1-0.1,1.5-0.3c0-0.5-0.3-0.6-0.4-1
		c0.3-0.4,0.7-0.7,0.8-1.3c0.3-0.2,0.5-0.4,0.6-0.8c-0.1-0.3-0.4-0.4-0.6-0.6c-0.6-0.2-1.4-0.1-2.1-0.2c-0.1-0.7-0.2-1.5-0.6-2
		c-0.2,0-0.4,0-0.4-0.1C55.6,87.3,55.7,88,55.8,88.7z M45,87.6c-0.6,0.6-1.3,1.1-1.9,1.6c-0.2,0.2-0.5,0.4-0.7,0.6
		c-0.7,0.5-1.4,1-2.1,1.4c-0.3,0.1-0.6,0.2-0.8,0.4c-0.2,0-0.4,0-0.5,0.2c0.3,0.1,0.5,0.3,0.9,0.2c0.3-0.2,0.6-0.3,0.8-0.4
		c0.3-0.2,0.6-0.4,0.9-0.5c0,0,0-0.1,0.1-0.1c0.2-0.2,0.4-0.3,0.6-0.4c0.3-0.2,0.6-0.5,0.8-0.6c0,0,0-0.1,0.1-0.1
		c0.3-0.2,0.6-0.4,0.8-0.6c0.1,0,0.2-0.1,0.2-0.1c0.7-0.4,1.2-0.9,1.9-1.4c0.3,0,0.5-0.1,0.8-0.1c0.1-0.5-0.1-0.9-0.4-1.1
		c-0.4,0.1-0.8,0.4-1.3,0.3c-0.3,0-0.6-0.2-0.9-0.3C44.2,87.2,44.6,87.3,45,87.6z M63,84.6c0.1,0.1,0.1,0.3,0.2,0.4
		c0.1,0.1,0.1,0.3,0.2,0.4c0.2,0.1,0.3,0.2,0.4,0.4c0,0.1-0.1,0.1-0.1,0.2c0.2,0.2,0.2,0.8,0.4,1.2c0,0.9-0.4,1.3-1.2,1.4
		c0.1,0.3,0.6,0.4,0.9,0.3c0,0.1,0.1,0.1,0.2,0.1c0,0.3,0.2,0.3,0.3,0.6c-0.1,0.1-0.1,0.2-0.1,0.4c-0.1,0-0.2,0.1-0.3,0.2v1.6
		c0.2,0,0.3-0.2,0.4-0.4c0.2-0.1,0.3-0.3,0.4-0.4c0.2,0,0.3-0.2,0.5-0.3c0-0.3,0.1-0.5,0.1-0.8c0.1-0.2,0.3-0.2,0.3-0.5
		c-0.1-0.3-0.3-0.5-0.3-0.8c0-0.3,0.3-0.6,0.3-0.9c0-0.2,0-0.3,0-0.6c0.1,0,0.1-0.1,0.1-0.2c0.1-0.2,0.3-0.2,0.3-0.4
		c0-0.1,0.1-0.1,0.1-0.2c0-0.1-0.1-0.3-0.1-0.4c-0.1,0-0.1-0.2-0.3-0.1c0-0.2-0.1-0.2-0.2-0.3c-0.3,0.1-0.5-0.1-0.8-0.1
		c0-0.3-0.2-0.5-0.3-0.7c-0.5,0-1-0.1-1.4-0.1C62.9,84.6,63,84.6,63,84.6z M35.3,84.5c0.2,0.3,0.1,0.8,0.4,1c0.1,0,0.3,0.1,0.4,0.1
		c0.4-0.5-0.2-1.2-0.7-1.3C35.4,84.4,35.2,84.3,35.3,84.5z M31,87.7C31,87.5,30.8,87.7,31,87.7c0.1,0.5,0.4,0.9,0.8,1.2
		c0.2,0,0.4,0,0.6-0.1c0.2,0.1,0.5,0.3,0.7,0.1c0-0.1,0-0.1,0.1-0.1c0-0.3-0.3-0.2-0.3-0.6c0.4,0,0.9-0.3,1.2-0.2
		c0,0.4-0.1,1.1,0,1.5c0.3-0.1,0.2-0.7,0.3-1.2c0.1-0.2,0.1-0.4,0.1-0.6c-0.5,0.1-1.1,0.2-1.5,0.2c0.5-0.3,1.3-0.3,1.8-0.6
		c0.1,0.2,0.1,0.3-0.1,0.4c0.2,0,0.3-0.1,0.4-0.1c0-0.3-0.1-0.5-0.2-0.8c-0.2,0-0.3,0.2-0.5,0.2c-0.2-0.3-0.3-1.1-0.3-1.5
		c0.4,0.1,0.5-0.3,0.5-0.5c0-0.2-0.6-0.6-0.9-0.8C33.5,84,33.3,83.7,33,84c0,0.3,0.5,0.2,0.3,0.4c-0.2,0-0.4-0.2-0.6-0.3
		c0,0.2,0.2,0.4,0.2,0.6c-0.2,0.2-0.9,0.3-1.2,0.1c-0.1,0.2-0.4,0.6-0.2,0.9c0.4,0,0.7-0.1,1.1-0.1c0.2,0,0.4-0.2,0.5-0.1
		c0.1,0.4-0.3,0.4-0.5,0.5c-0.6,0.3-1.6,0.4-2.3,0.6c0,0.2-0.2,0.2-0.2,0.4c0.3,0.2,0.8,0.1,1.2,0.1c0.9-0.1,1.8-0.3,2.4-0.6
		c0,0.2,0.1,0.2,0.1,0.4c-0.7,0.4-1.5,0.8-2.6,0.8C31.3,87.8,31.1,87.7,31,87.7z M33.3,83.5c0.5,0.3,1.3,0.3,2.1,0.4
		c0.7,0.1,1.6,0.2,1.7,0.8c0,0.2-0.2,0.5-0.3,0.8c-0.4,0.9-0.9,1.7-1.2,2.5c-0.3,0.8-0.7,1.5-1,2.1c-0.1,0.2-0.2,0.6-0.6,0.6
		c-0.2,0-0.3-0.3-0.4-0.5c-0.1-0.2-0.2-0.4-0.3-0.7c0-0.2-0.2,0.2-0.2-0.1c-0.1,0-0.1-0.2-0.2-0.3c0,0.4,0.1,1.1,0.2,1.4
		c0.2,0.6,0.5,1.3,0.8,1.4c0.3,0,0.5-0.3,0.6-0.5c0.2-0.1,0.3-0.4,0.4-0.6c0.1-0.2,0.3-0.4,0.4-0.6c0.1-0.2,0.2-0.5,0.3-0.7
		c0.1-0.2,0.3-0.4,0.4-0.7c0.3-0.7,0.6-1.4,1-2c0.1-0.2,0.3-0.4,0.4-0.7c0.2-0.2,0.5-0.3,0.6-0.6c0.1-0.2,0-0.5-0.1-0.7
		c-0.3-0.8-0.9-1-1.9-1.3c-0.9-0.2-1.8-0.4-2.8-0.4c0,0-0.1,0-0.1,0.1C33.2,83.4,33.2,83.5,33.3,83.5z M31.5,83.4c0,0,0,0.1-0.1,0.2
		c-0.1,0.1-0.1,0.1-0.2,0.2c-0.4,0.6-0.7,1.2-1,1.8c-0.1,0.3-0.3,0.5-0.4,0.8c-0.1,0.2-0.2,0.3-0.3,0.5c-0.1,0.2-0.2,0.3-0.3,0.6
		c0.1,0.1,0,0.5,0.3,0.4c0.2-0.2,0.2-0.4,0.3-0.6c0.4-0.8,0.8-1.6,1.2-2.3c0.2-0.4,0.4-0.7,0.6-1.1c0.1-0.2,0.2-0.4,0.2-0.7
		c0,0,0-0.1-0.1-0.1C31.7,83.4,31.6,83.4,31.5,83.4z M73.4,81.4c-0.1,0.6-0.4,0.9-0.8,1.2c0.2,0.1,0.5,0,0.6-0.1
		c0.1-0.1,0.2-0.3,0.3-0.4c0.1-0.1,0.1-0.3,0.2-0.3c0.1,0.4,0.1,1,0.6,1c0.3,0.1,0.4-0.2,0.6-0.1c-0.1,0.6-0.8,0.7-0.9,1.2
		c-0.2,0.1-0.4,0.3-0.6,0.3c0.2,0,0.2,0.2,0.4,0.2c0.1,0.1,0.4,0.1,0.6,0.1c0.4-0.4,0.5-1.1,1.2-1.2c1.2,0.7,0.1,2.5-0.7,2.9
		c0.1,0.1,0.2,0,0.2,0.2c-0.2,0.1-0.4,0.1-0.5,0.2c0.4,0,0.6-0.3,0.9-0.2c0-0.1,0.1-0.1,0.2-0.1c0.3-0.3,0.7-0.5,1-0.8
		c0-0.5,0.3-0.7,0.2-1.2c0-0.2-0.1-0.5-0.1-0.6c-0.2-0.4-0.7-0.6-0.7-1.1c0.1-0.3,0.5-0.4,0.5-0.8c-0.3-0.1-0.4-0.2-0.6-0.2
		c-0.3,0-0.5,0.4-0.7,0.4c-0.2,0-0.3-0.1-0.4-0.1c-0.3-0.3-0.2-0.6-0.1-1C74.3,80.7,73.7,81.1,73.4,81.4z M22.7,80.2
		c0.1,0.5,0.2,0.9,0.6,1c-0.1-1.2-0.6-2.1-1.4-2.6C22.1,79.2,22.4,79.6,22.7,80.2z M26.6,78c-0.4,0.5-0.6,1.2-1.2,1.5
		c-0.3-0.1-0.6-0.3-1-0.2c-0.1,0.1,0.1,0.2,0.2,0.3c0.2,0.2,0.6,0.2,0.6,0.4c-0.1,0.3-0.3,0.3-0.4,0.6c-0.2,0.1-0.3,0.4-0.5,0.5
		c-0.2,0-0.4,0.1-0.6,0.3v0.5c-1,1.3-2,2.7-3,4.1c0.4-0.2,0.7-0.6,1-0.9c0.3-0.3,0.7-0.6,1-0.9c0.1-0.1,0.1-0.2,0.2-0.3
		c0.1-0.1,0.2-0.1,0.3-0.2c0.2-0.2,0.3-0.4,0.4-0.6c0.1-0.2,0.3-0.3,0.5-0.4c0,0,0-0.1,0.1-0.2c0.1-0.1,0.3-0.3,0.4-0.3
		c0.5,0,0.9,0.2,1.4,0.3c0.2-0.2,0.1-0.4,0.2-0.6c0.3-0.1,0.8-0.1,1,0c0.1-0.2,0.2-0.4,0.4-0.4c0.1,0.2,0.4,0.2,0.5,0.4
		c-0.2,0-0.4,0-0.5,0.1c0.3,0.1,0.7,0.1,0.9-0.2c0-0.8-0.4-1.1-0.7-1.4c-0.1,0-0.3,0-0.3,0.1c-0.3-0.3-0.9-0.3-1.2-0.7
		c0.2-0.2,0.4-0.4,0.6-0.7c0.2-0.2,0.5-0.4,0.4-0.9C27.1,78.2,26.9,78.1,26.6,78z M74.8,79.6c-0.1,0-0.1,0-0.1,0.1c-0.1,0,0,0.1,0,0
		C74.8,79.7,74.8,79.6,74.8,79.6c0.5-0.1,0.9-0.3,0.9-0.9c-0.8-0.2-1.2,0.5-1.6,0.8c-0.3-0.4-0.5-0.8-0.7-1.2c0-0.3-0.1-0.5,0-0.8
		c-0.1-0.1-0.2-0.2-0.2-0.3c-0.4,0-0.6,0.1-1,0.2c-0.1,0,0,0.1-0.1,0.2c0,0.1-0.1,0.1-0.2,0.1c0,0.1,0,0.2,0,0.3
		c0,0-0.2,0.1-0.1,0.2c0.3,0,0.4-0.1,0.6-0.2c0.2,0.1,0.4,0.3,0.4,0.6c-0.2,0-0.2-0.1-0.4-0.1c0.1,0.2,0.4,0.5,0.7,0.3
		c0.1,0.1,0.2,0.2,0.2,0.4c-0.1,0.1-0.3,0.1-0.3,0.3c-0.1,0-0.2,0-0.2,0.1c0.2,0,0.3,0.1,0.4,0.2c0.2,0,0.4,0,0.4,0.2
		c-0.2,0.4-0.5,0.7-0.7,1c-0.1,0.1-0.1,0.3-0.3,0.3c0.1-0.2-0.1-0.5,0.1-0.7c0-0.2-0.2-0.1-0.2-0.3c0-0.5-0.2-0.8-0.1-1.2
		c-0.1,0,0-0.1-0.1-0.1c-0.4-0.3-0.9,0-1.2,0.1c-0.2-0.1-0.7-0.2-0.9,0.1c0.3,0,0.4,0.3,0.4,0.6c0.1,0.2,0.5,0.1,0.7,0.3
		c0.2,0,0.1-0.3,0.4-0.2c0.1,0.3,0.2,0.5,0.3,0.8c-0.2,0-0.3,0-0.3,0.1c0.2,0,0.4,0,0.4,0.1c0,0.1,0,0.2,0,0.2c0,0.1,0.1,0,0.1,0.1
		c0,0.1-0.1,0.3-0.1,0.4c-0.1-0.1-0.3-0.2-0.4-0.4c-0.1-0.1-0.3-0.3-0.4-0.4c0,0-0.1,0-0.2-0.1c0,0,0-0.1-0.1-0.1c0,0-0.1,0-0.2-0.1
		c0,0,0-0.1-0.1-0.1c-0.3-0.2-0.7-0.2-1-0.1h0.3c0.7,0.4,1.4,0.7,1.8,1.4c0.1,0.1,0.2,0.2,0.2,0.4c0,0.2-0.1,0.3-0.3,0.3
		c-0.2-0.2-0.4-0.4-0.7-0.6c-0.1,0-0.1-0.1-0.2-0.1c-0.3-0.2-0.7-0.6-1.4-0.4c-0.1,0-0.2,0-0.2,0.2c0.3,0,0.6,0,0.9,0.1
		c0.1,0,0.3,0.2,0.4,0.2c0.1,0,0.2,0,0.3,0.1c0.1,0,0.1,0.1,0.2,0.2c0.3,0.2,0.6,0.3,0.7,0.7c-0.2,0.5-0.5,0.8-0.8,1.2
		c-0.2,0.1-0.4,0.1-0.6,0.2c0,0.4,0.1,0.7,0.1,1.1c0.2,0.2,0.6,0.1,0.8-0.1c0.1-0.5,0-0.9,0.1-1.4c0.1-0.1,0.1-0.4,0.3-0.4
		c0.1-0.2,0.1-0.3,0.3-0.4c0.2,0,0.3,0.2,0.4,0.1c-0.2,0-0.3-0.2-0.3-0.3c0.1-0.2,0.2-0.5,0.6-0.4c0.1-0.2-0.2-0.1-0.2-0.3
		c0.3-0.6,0.8-1,1-1.5c0.2,0.1,0.4,0.4,0.7,0.2c0-0.3-0.1-0.4-0.1-0.7c0.1-0.2,0.3-0.3,0.4-0.4c0.1-0.1,0.2-0.4,0.4-0.3
		C75,79.3,74.9,79.4,74.8,79.6z M51,66.4c-0.1,0-0.2,0-0.2,0.1C50.9,66.4,51,66.4,51,66.4z M60.5,63.9c-0.5,0.1-0.9,0.2-1.4,0.2
		c-0.5,1.6-0.8,3.3-1.3,4.9c0.1,0.7,0.3,1.4,0.4,2.1c0.6,0,1.2,0.1,1.8,0.1c0.6,0,1.2,0.1,1.7,0.1C61.2,68.9,60.9,66.3,60.5,63.9z
		 M36.6,63.8c0.7,0.3,1.6,0.4,2.3,0.7c0.6,1.6,1.1,3.1,1.7,4.7c1.7-0.4,3.4-0.9,5.1-1.4c1.7-0.5,3.4-0.9,5.1-1.4
		c-3,0.4-5.8,0.9-8.8,1.3c-0.3-1.1-0.7-2.2-1-3.2c-0.2-0.5-0.3-1.2-0.5-1.6c0-0.1,0-0.3-0.2-0.3C39.1,63,37.9,63.4,36.6,63.8z
		 M50.7,61.1C50.7,61.1,50.7,61.2,50.7,61.1C50.7,61.2,50.8,61.2,50.7,61.1z M8.6,63.1c0,0.7,0.3,1.4,0.6,1.9
		c0.6,0.8,1.5,1.3,2.6,1.1c1.2-0.2,2.4-1.1,2.6-2.3c0.1-0.7-0.1-1.2-0.2-1.7c-0.2-0.4-0.4-0.7-0.7-0.9c-0.1-0.1-0.2-0.3-0.3-0.3
		c-0.1-0.1-0.3-0.1-0.4-0.2c-0.2-0.1-0.3-0.1-0.5-0.2h-0.6c0,0.4,0.1,0.7,0.1,1.2c0.4,0,0.8,0,0.9,0.1c0.2,0.1,0.5,0.4,0.6,0.7
		c0.3,0.7,0.1,1.4-0.3,1.7c-0.2,0.2-0.3,0.2-0.6,0.3c-0.1,0.1-0.3,0.2-0.4,0.2c-0.4,0.1-0.9,0.2-1.1,0.2c-0.3,0-0.5-0.2-0.7-0.3
		c0,0-0.1,0-0.2-0.1c-0.1-0.1-0.2-0.2-0.2-0.3c-0.2-0.3-0.3-0.7-0.2-1.2c0.1-0.1,0.1-0.3,0.2-0.4c0.1-0.2,0.3-0.2,0.3-0.4
		c-0.2-0.3-0.4-0.7-0.7-1C9,61.7,8.6,62.2,8.6,63.1z M60.7,61.3C60.7,61.5,60.9,61.3,60.7,61.3c-0.4-0.2-1.1-0.6-1.7-0.9
		c-0.2-0.1-0.5-0.2-0.6-0.2c-0.2,0-0.8,0.3-1,0.4c-0.2,0.1-0.5,0.2-0.7,0.3c-0.1,0.1-0.3,0.1-0.4,0.2c-0.1,0-0.3,0.1-0.4,0.2
		c-0.2,0.1-0.5,0.2-0.7,0.3c-0.1,0-0.3,0.1-0.4,0.2c-0.2,0.1-0.6,0.3-0.9,0.3c-0.2,0-0.5-0.1-0.8-0.2c-0.5-0.1-0.9-0.2-1.5-0.4
		c-0.2-0.1-0.4-0.2-0.7-0.1c1,0.5,1.9,1,2.9,1.4c1.6-0.6,3.2-1.2,4.8-1.8C59.2,61.1,59.9,61.2,60.7,61.3z M85.7,59.7
		c1.1,0.4,2.4,0.8,3.5,1.2c0.1,0,0.4,0,0.4,0.2c-1.4-0.1-2.9-0.1-4.3-0.2c-0.1,0.4-0.3,0.8-0.4,1.2c0.5,0.3,1.1,0.7,1.6,1
		c0.5,0.4,1.1,0.7,1.6,1.1c0.2,0.1,0.4,0.1,0.4,0.3c-1.3-0.4-2.7-0.9-4-1.3c-0.1,0.4-0.3,0.7-0.3,1.1c1.8,0.6,3.5,1.2,5.3,1.7
		c0.2-0.6,0.4-1.2,0.6-1.8c-0.9-0.6-1.9-1.3-2.8-1.9c-0.1-0.1-0.4-0.1-0.4-0.3c1.3,0.1,2.6,0.1,3.9,0.1c0.2-0.6,0.4-1.1,0.6-1.8
		c-1.8-0.5-3.5-1.1-5.3-1.7C85.9,59,85.7,59.3,85.7,59.7z M58.7,56.9c-0.3-0.1-0.9-0.3-1.1-0.3c-0.6,0.1-1.2,0.4-1.9,0.6
		c-0.6,0.2-1.3,0.4-1.9,0.6c-0.2,0.2-0.6,0.5-0.8,0.7c0,0-0.3,0.2-0.1,0.2c1.2-0.3,2.6-0.6,3.8-0.8c0.6-0.1,0.9,0,1.5,0.1
		c1,0.2,1.8,0.4,2.8,0.5c0.3-0.1,0.5-0.4,0.7-0.6C60.7,57.6,59.7,57.2,58.7,56.9z M63.1,56.5c-0.9-0.7-1.9-1.4-2.9-2.1
		c0,0,0-0.1-0.1-0.1c-0.3,0.4-0.8,0.6-1.1,1c1.3,0.6,2.5,1.3,3.7,1.9c0.3-0.1,0.4-0.4,0.8-0.4C63.5,56.6,63.3,56.6,63.1,56.5z
		 M39.8,56.7h2.3v-2.5h-2.3V56.7z M39.8,54.2 M38.8,56.7h0.4v-2.5h-0.4V56.7z M38.8,54.2 M12.1,54.2c-1.3,0.3-2.8,0.5-4,0.8
		c-0.5,0.1-1,0.1-1.3,0.3C6.9,55.5,6.9,56,7,56.4c0.7-0.2,1.4-0.3,2.1-0.4c0.1,0.8,0.3,1.6,0.4,2.4c-0.7,0.1-1.3,0.3-2.1,0.3
		c-0.1,0.3,0.1,0.8,0.2,1.2c1.9-0.3,3.6-0.7,5.5-0.9c0.1-0.3-0.1-0.8-0.2-1.2c-0.9,0.1-1.6,0.3-2.4,0.4c-0.1-0.8-0.3-1.6-0.4-2.4
		c0.8-0.2,1.6-0.3,2.4-0.4c0-0.2-0.1-0.4-0.1-0.7C12.2,54.6,12.4,54.2,12.1,54.2L12.1,54.2z M43.2,54.2v2c0.1,0.2-0.1,0.6,0.1,0.6
		h0.2c0.1-0.7,0-1.6,0.1-2.4c-0.1-0.2-0.2-0.3-0.4-0.4V54.2z M88.2,52.9C88.2,52.9,88.2,52.9,88.2,52.9c-0.4,0-0.7,0.2-0.9,0.3
		c0,0-0.1,0-0.2,0.1c-0.1,0,0,0.1-0.1,0.2c-0.2,0.2-0.3,0.2-0.4,0.5c-0.3,0.7-0.3,1.5-0.3,2.4c0.1,0.4,0.4,0.8,0.7,1
		c1.3,0.5,3,0.6,4.6,0.8c0.1-0.4,0.1-0.8,0.2-1.2c-0.9-0.1-2-0.3-2.9-0.4c-0.6-0.1-1.2-0.1-1.5-0.5c-0.3-0.4-0.2-1.1,0-1.5
		c0.3-0.6,1-0.5,1.8-0.4c1,0.1,2.1,0.3,2.9,0.4c0.1-0.4,0.2-0.8,0.2-1.2C91.2,53.2,89.4,53,88.2,52.9z M6.6,52.1
		c0,0.5,0.1,0.8,0.1,1.3c1.8-0.2,3.7-0.3,5.6-0.4c0-0.4-0.1-0.8-0.1-1.2C10.3,51.8,8.5,52,6.6,52.1z M44.2,52.2h0.9V50h-0.9V52.2z
		 M43.2,49.9v1.8c0,0.2-0.1,0.5,0.1,0.5h0.2c0.1-0.6,0-1.4,0.1-2c-0.1-0.2-0.2-0.3-0.4-0.4V49.9z M46.1,49.1
		c-0.1,0.1-0.2,0.2-0.3,0.2v2.8c-0.1,0.4,0.2,0.4,0.4,0.6C46.1,51.5,46.2,50.1,46.1,49.1z M86.9,47c0,1.6,0.1,3,0.1,4.6h0.9
		c0.1-1.2-0.2-2.4,0-3.5c0.5,0,1.1-0.1,1.5,0.1c0,1,0.1,2,0.1,3h0.9c-0.1-1-0.1-2-0.1-3.1c0.4,0,0.9-0.2,1.3,0c0,1.1,0,2.2,0.1,3.3
		c0.3,0,0.5-0.1,0.9-0.1c0-1.6-0.1-3-0.1-4.5C90.6,47,88.7,47,86.9,47z M6.7,45.4c-0.1,0.3,0,0.7-0.1,1.1c1.2,0.1,2.5,0.1,3.6,0.2
		c-1.3,0.8-2.5,1.6-3.8,2.3c0,0.4,0.1,0.9-0.1,1.2c1.9,0.1,3.7,0.1,5.6,0.3c0-0.4,0.1-0.7,0.1-1.2c-1.2-0.1-2.5,0-3.5-0.2
		c1.2-0.8,2.4-1.5,3.6-2.3c0.1-0.3,0-0.8,0.1-1.3C10.3,45.6,8.6,45.5,6.7,45.4z M60.2,49.4c0,0.1,0,0.1,0.1,0.1c0,0.1,0.1,0,0,0
		C60.3,49.5,60.3,49.4,60.2,49.4c-0.4-0.9-0.9-1.6-1.3-2.5c0-0.3,0-0.8-0.1-1.2c0-0.2,0-0.4-0.1-0.6c0-0.1,0-0.4-0.2-0.3
		c-0.1,0.7,0,1.7-0.1,2.5C59.1,48.1,59.6,48.8,60.2,49.4z M64.3,42.4v0.7h0.6c0.1-0.3,0.3-0.7,0.4-1c0-0.1,0.2-0.3,0-0.3
		C65,42.1,64.6,42.2,64.3,42.4z M86.1,42c0.3,1.4,0.5,2.9,0.7,4.2c0.3-0.1,0.6-0.1,0.9-0.2c-0.2-1-0.3-2-0.5-3
		c1.5-0.2,3-0.5,4.5-0.7c0-0.5-0.1-0.8-0.2-1.2C89.7,41.4,87.9,41.7,86.1,42z M63.9,40.4c-0.1,0-0.3-0.1-0.2,0.1v0.8
		c0.2,0,0.5-0.1,0.5,0.1v0.1c-0.1,0.1-0.3,0-0.5,0.1v0.7c0.6,0,0.7-0.5,1.2-0.6c0-0.5,0.2-0.9,0.2-1.5c-0.3-0.2-0.5-0.6-0.9-0.8
		h-0.3V40.4z M7.6,40.3c-0.1,0.4-0.2,0.9-0.3,1.3c0.7,0.5,1.5,1,2.2,1.5c0.7,0.5,1.4,1.1,2.2,1.5c0,0.2,0.2,0.1,0.3,0.3
		c0.1,0,0.1,0,0.2,0.1c0.1,0,0.1,0.1,0.1-0.1c0.1-0.4,0.2-0.8,0.3-1.2c-0.4-0.2-0.8-0.5-1.2-0.8c0.1-0.4,0.2-0.8,0.3-1.2
		c0.1-0.4,0.2-0.9,0.3-1.2c0.5,0,0.9-0.1,1.3-0.2c0.1-0.4,0.2-0.8,0.3-1.3C11.5,39.5,9.6,39.9,7.6,40.3z M43.4,38.1
		c0.1,0.3-0.4,0.1-0.2,0.4v9.1c0,0.2-0.1,0.5,0.2,0.4c0.2,0.1,0.2-0.1,0.2-0.2v-0.4V34.6c0,0,0-0.1-0.1-0.1
		C43.3,35.6,43.5,36.9,43.4,38.1z M84.8,37.6c0,0.4,0.3,1.3,0.6,1.5c0,0,0.1,0.1,0.1,0.2c0.3,0.3,0.6,0.7,1,0.9
		c1.3,0.6,3.2-0.2,3.7-0.9c0.1-0.1,0.1-0.2,0.2-0.4c0.1-0.3,0.2-0.4,0.3-0.7c0.1-0.9-0.1-1.5-0.4-2.1c-0.4-0.8-0.7-1.2-1.4-1.5
		c-0.3-0.1-1.2-0.3-1.5-0.1C85.7,34.7,84.6,35.7,84.8,37.6z M41.5,34.3c0,0.1,0,0.1-0.1,0.2c-0.3,0.8-0.7,1.6-1,2.4
		c-0.1,0.1-0.1,0.3-0.2,0.4c0,0.1-0.1,0.3,0,0.4c0.2,0,0.2-0.3,0.2-0.4c0.1-0.3,0.3-0.6,0.4-0.8c0.1-0.1,0.1-0.3,0.2-0.4
		c0.1-0.2,0.2-0.5,0.3-0.6c0-0.1,0-0.2,0.1-0.3c0-0.1,0.2-0.3,0.2-0.4c0.1-0.1,0.2-0.4,0-0.4H41.5z M45.5,34.8
		c0.2,0.5,0.4,0.9,0.6,1.3c0.1,0.2,0.1,0.3,0.2,0.5c0.1,0.1,0.2,0.3,0.2,0.4c0.1,0.2,0,0.4,0.2,0.4c-0.2-1.1-0.7-2-1-3.1
		c-0.1-0.1,0-0.4-0.2-0.4C45.1,34.1,45.4,34.5,45.5,34.8z M39.9,33.3c-0.8,0.9-1.6,1.6-2.4,2.5c0.3-0.1,0.5-0.4,0.7-0.6
		c0.2-0.2,0.5-0.3,0.7-0.6c0.4-0.3,0.7-0.6,1-0.9c0.1-0.1,0.3-0.2,0.3-0.3C40,33.5,40,33.3,39.9,33.3z M49.1,35
		c-0.1-0.1-0.2-0.2-0.3-0.3c-0.5-0.5-1.1-1.2-1.7-1.7c-0.1-0.1-0.3-0.4-0.3-0.2c-0.1,0,0,0.1,0,0.1c0.3,0.4,0.8,0.8,1.2,1.2
		c0.2,0.2,0.4,0.4,0.6,0.6c0.2,0.2,0.4,0.5,0.7,0.6C49.4,35.3,49.2,35.1,49.1,35z M37.1,32.6c-0.4,0.2-0.8,0.3-1.2,0.4
		c-0.1,0-0.3,0.1-0.3,0.2c0.2,0.1,0.4-0.1,0.6-0.2c0.7-0.3,1.5-0.6,2.1-0.9c0.1,0,0.3,0,0.3-0.2C38.1,32.1,37.6,32.4,37.1,32.6z
		 M47.8,31.3c0.2,0.2,0.5,0.2,0.8,0.3c0.3,0.1,0.5,0.3,0.8,0.4c0.1,0,0.2,0,0.2,0.1c0.1,0.1,0.3,0.1,0.4,0.2
		c0.2,0.1,0.4,0.2,0.6,0.3c0.1,0,0.3,0.2,0.4,0c-1.1-0.5-2.1-0.9-3.2-1.4C47.7,31.2,47.7,31.3,47.8,31.3z M29.8,31v16.7
		C29.7,48.1,30,48,30.1,48c0.3,0,0.2,0,0.2-0.3c0-0.2,0-0.3,0-0.6c0-1.1,0-2.3,0-3.1V31.3c0-0.1,0.1-0.5-0.1-0.4h-0.4
		C29.8,30.9,29.8,30.9,29.8,31z M37.9,30.6c-1.2-0.1-2.5,0.1-3.6,0c-0.1,0-0.1,0.1-0.1,0.2c-1,0.1-2.1,0-3.2,0.1V48h11.1v-9.7
		c0-0.1,0.3,0.1,0.2-0.2c0-0.8,0-1.8,0-2.6c0-0.3,0.1-0.6-0.1-0.8c-0.1,0-0.2,0-0.3,0c-0.1,0,0,0.2-0.1,0.2
		c-0.1,0.1-0.2,0.3-0.2,0.4c-0.1,0.1-0.1,0.3-0.1,0.4c-0.1,0.1-0.2,0.3-0.2,0.4c-0.1,0.1-0.1,0.3-0.1,0.4c-0.2,0.4-0.4,0.9-0.5,1.3
		c-0.2,0.1,0.3,0.1,0.1,0.2c0,0.1-0.1,0.3-0.2,0.4c-0.5-0.2-1-0.4-1.4-0.6c-0.1-0.1-0.4-0.1-0.4-0.3c0.1-0.1,0.1-0.3,0.2-0.3
		c0-0.1,0.2,0.2,0.3,0c0.3-1,0.8-1.9,1.1-2.9c0.1-0.1,0.2-0.3-0.1-0.3c-0.1-0.2-0.3,0-0.3,0.1c-0.1,0.1-0.2,0.3-0.3,0.3
		c-0.6,0.6-1.3,1.3-1.9,1.8c-0.2,0.1,0.1,0.1,0.1,0.3c-0.1,0.1-0.2,0.2-0.3,0.3c-0.3-0.2-0.5-0.5-0.8-0.7c-0.2-0.2-0.6-0.4-0.7-0.8
		c0.1-0.1,0.2-0.2,0.3-0.3c0.2,0.1,0.2,0.1,0.3,0c0.2-0.1,0.3-0.4,0.5-0.6c0.5-0.5,1.2-1.1,1.7-1.6c0.1-0.2,0.2-0.2,0.1-0.4
		c-0.3-0.1-0.6,0.1-0.8,0.2c-0.8,0.3-1.7,0.6-2.5,1c-0.1,0,0.1,0.2-0.1,0.3c-0.2,0-0.2,0.1-0.4,0.1c-0.2-0.6-0.5-1.2-0.7-1.7
		c0-0.1-0.1-0.1-0.1-0.2c0.1-0.1,0.2-0.1,0.3-0.2c0.2-0.1,0.1,0.2,0.3,0.2c0.2-0.1,0.4-0.2,0.6-0.3c0.2-0.1,0.3-0.1,0.4-0.2
		c0.1,0,0.1,0,0.2-0.1c0.1-0.1,0.3-0.2,0.4-0.2c0.1-0.1,0.3-0.1,0.4-0.1c0.1-0.1,0.3-0.2,0.4-0.2c0.2-0.1,0.7-0.1,0.7-0.4
		C38.2,30.6,38,30.6,37.9,30.6z M68.8,30.6c-0.2,0.8-0.5,1.5-0.8,2.3c-0.1,0.4-0.2,0.8-0.3,1.2c-0.1,0.4-0.4,0.8-0.3,1.2
		c0.2-0.1,0.2-0.3,0.3-0.5c0.5-1.4,0.9-2.9,1.4-4.2c-0.1,0-0.1-0.1-0.2-0.1C68.8,30.5,68.8,30.6,68.8,30.6z M70.5,30.5v5.3v0.4
		c0,0.1-0.1,0.3,0.1,0.3c0.2,0,0.1-0.2,0.1-0.3c0-0.1,0-0.3,0-0.4c0-1.7,0.1-3.5,0-5.1c0-0.1,0.1-0.4-0.1-0.3h-0.1V30.5z M66.9,30.1
		c-0.1,0.2-0.3,0.3-0.4,0.4c-0.1,0.2-0.2,0.3-0.3,0.5c-0.1,0.1-0.3,0.3-0.4,0.4c-0.1,0.2-0.3,0.3-0.3,0.5c-0.3,0.3-0.6,0.7-0.8,1
		c-0.1,0.1-0.2,0.3-0.3,0.4c0,0.1-0.2,0.1-0.2,0.2c0,0.1,0.1,0.1,0.2,0.3c0.2-0.1,0.2-0.2,0.3-0.3c0.1-0.1,0.2-0.2,0.2-0.3
		c0.1-0.1,0.1-0.2,0.2-0.3c0,0,0.1,0,0.1-0.1c0,0,0-0.1,0.1-0.2c0.5-0.7,1.1-1.3,1.6-2c0.1-0.2,0.3-0.3,0.3-0.5
		c-0.1-0.1-0.1-0.2-0.2-0.3C67,30.1,67,30.1,66.9,30.1z M11.4,35.3c0.8,0.2,1.7,1,2.7,0.7c0.1,0,0.3-0.2,0.3-0.2c0,0,0.1,0,0.2-0.1
		c0,0,0-0.1,0.1-0.1c0.1,0,0.1,0,0.2-0.1c0.2-0.2,0.4-0.6,0.6-1c0.2-0.4,0.4-0.8,0.4-1.2c0.2-1.7-1.1-2-2.1-2.5
		c-0.8-0.4-1.4-0.6-2.2-1h-0.1c-0.2,0.3-0.3,0.8-0.6,1.1c0.7,0.3,1.3,0.6,2.1,0.9c0.5,0.2,1.8,0.7,1.9,1.2c0.1,0.6-0.3,1.1-0.4,1.3
		c0,0,0,0.1-0.1,0.1c0,0-0.1,0-0.2,0.1c-0.1,0-0.1,0.1-0.2,0.2c-0.1,0-0.3,0.1-0.3,0.1c-0.3,0-0.7-0.2-1-0.3
		c-0.1-0.1-0.3-0.1-0.4-0.2c-0.8-0.4-1.7-0.8-2.4-1.1c-0.2,0.4-0.4,0.7-0.5,1.2C10.1,34.6,10.8,34.9,11.4,35.3z M65.1,29.7
		c-0.7,0.3-1.6,0.4-2.4,0.6c-0.3,0.1-0.6,0.1-0.7,0.3c0.2,0.1,0.6,0.1,0.8,0c0.6-0.1,1.1-0.3,1.7-0.4c0.3-0.1,0.6-0.1,0.8-0.2
		c-0.2,0,0.1-0.4-0.2-0.3H65.1z M61,29.2h-9.4c0,0-0.1,0-0.1,0.1c-0.1,0.3,0.3,0.2,0.5,0.2h9c0.2,0,0.5,0.1,0.4-0.2
		C61.6,29.1,61.2,29.3,61,29.2z M86.2,32.9c0.8,0.3,1.4-0.3,1.7-0.7c0.4-0.6,0.1-1.5-0.2-2c-0.4-0.7-1.1-2-1.3-2.5
		c0,0,0-0.1-0.1-0.1c-0.1,0-0.1,0.1-0.2,0.1c-0.7,0.4-1.6,0.8-2.2,1.2c-0.1,0-0.1,0.1-0.2,0.1c-0.4,0.2-0.8,0.4-1.2,0.6
		c-0.4,0.2-0.8,0.4-1.2,0.7c0.3,0.3,0.4,0.7,0.6,1c0.6-0.4,1.4-0.7,2-1.1c0.2,0.4,0.4,0.6,0.4,1c0,0.4-0.3,0.9-0.6,1.3
		c-0.2,0.5-0.4,0.9-0.6,1.3c0.2,0.4,0.4,0.8,0.7,1.2c0.5-0.9,1.1-1.7,1.2-2.9C85.5,32.5,85.8,32.8,86.2,32.9z M61.2,27.9
		c0.8,0.3,1.7,0.8,2.4,1.2c0,0,0.2,0.3,0.3,0.1c-0.9-0.6-1.8-1.1-2.7-1.7V27.9z M43.9,27.2c-0.6,0.8,0.1,1.8,1,1.7
		c0.4-0.1,0.9-0.5,0.8-1.2c-0.1-0.6-0.7-0.9-1.2-0.8C44.2,27,44.1,27,43.9,27.2z M35.7,26.4c0.3,0.1,0.7,0.3,1,0.4
		c0.1,0,0.1,0,0.2,0.1c0.1,0.1,0.3,0.2,0.4,0.2c0.1,0.1,0.3,0.1,0.4,0.1c0.1,0.1,0.3,0.2,0.4,0.2c0.1,0.1,0.3,0.1,0.4,0.2
		c0.1,0,0.3,0.2,0.4,0c-1.1-0.5-2.2-0.9-3.2-1.4h-0.2C35.5,26.4,35.5,26.4,35.7,26.4z M60,28c0,0.3,0,0.7,0.2,0.7
		c0.1-0.4-0.1-0.8-0.1-1.3c0-0.2,0-0.5-0.1-0.7c0-0.2,0-0.5-0.2-0.6C59.9,26.8,59.9,27.5,60,28z M15.2,24C15.2,24,15.1,24,15.2,24
		c-0.3,0.3-0.5,0.6-0.7,0.9c0.5,0.2,0.9,0.6,1.3,0.9c0.2,0.1,0.4,0.3,0.6,0.4c0.2,0.2,0.4,0.3,0.6,0.4c0.2,0.1,0.3,0.2,0.4,0.3
		c0,0,0.2,0.1,0.2,0.2h-4.5c-0.2,0.4-0.5,0.6-0.6,1c0.3,0.2,0.6,0.4,0.8,0.6c0.1,0.1,0.2,0.1,0.3,0.2c0.1,0.1,0.1,0.2,0.2,0.2
		c0.1,0.1,0.2,0.1,0.3,0.2c0.1,0.1,0.2,0.2,0.3,0.2c0.1,0.1,0.2,0.1,0.3,0.2c0.1,0.1,0.1,0.2,0.2,0.2c0.2,0.2,0.4,0.3,0.6,0.4
		c0.2,0.1,0.3,0.2,0.4,0.3c0.3,0.2,0.5,0.4,0.7,0.5c0.1,0.1,0.2,0.2,0.3,0.2c0.2-0.4,0.4-0.6,0.6-0.9c-0.8-0.4-1.5-1.1-2.3-1.5
		c0,0,0-0.1-0.1-0.1c-0.2-0.1-0.5-0.2-0.6-0.4c1.4,0,2.9,0,4.3-0.1c0.2-0.3,0.5-0.6,0.7-1C18.2,26,16.7,25,15.2,24z M37.4,23.6
		c0.8,0.8,1.6,1.7,2.4,2.5c0.1,0.2,0.2,0.3,0.3,0.1c0.1-0.2-0.1-0.3-0.2-0.4c-0.3-0.3-0.7-0.6-1-0.9l-0.7-0.7
		C38,23.9,37.8,23.6,37.4,23.6C37.4,23.5,37.4,23.6,37.4,23.6z M82.6,22.4c-0.3,0.1-0.4,0.4-0.7,0.5c0.3,0.6,0.7,1,1,1.5
		c-1.3,0.9-2.4,1.8-3.7,2.7c0.2,0.4,0.5,0.6,0.7,1c0.4-0.2,0.6-0.4,0.9-0.7c0.3-0.2,0.7-0.4,0.9-0.7c0.7-0.4,1.2-0.9,1.9-1.3
		c0.4,0.5,0.7,1,1.1,1.4c0.2-0.3,0.5-0.3,0.7-0.6C84.5,25,83.6,23.7,82.6,22.4z M40.4,22.3c0,0.1,0,0.1,0.1,0.1c0,0.1,0,0.1,0.1,0.1
		c0.1,0.4,0.3,0.8,0.4,1.2c0,0.1,0.1,0.2,0.2,0.3c0.1,0.1,0,0.3,0.1,0.4c0,0.1,0.1,0.2,0.2,0.3c0.1,0.2,0.1,0.6,0.4,0.5
		c0-0.2-0.1-0.5-0.2-0.7c-0.1-0.2-0.3-0.4-0.4-0.7c-0.2-0.5-0.4-1-0.7-1.4c0-0.1,0-0.1-0.1-0.1C40.5,22.3,40.4,22.3,40.4,22.3
		C40.4,22.2,40.3,22.3,40.4,22.3z M16.3,22.5c0.4,0.3,0.7,0.6,1,0.9c0.2,0.2,0.4,0.3,0.6,0.4c0.2,0.1,0.3,0.4,0.5,0.5
		c0,0,0.1,0,0.2,0.1c0,0,0.1,0.1,0.1,0.2c0,0,0.1,0,0.2,0.1c0,0,0.1,0.1,0.1,0.2c0.2,0.2,0.4,0.3,0.6,0.4c0.2,0.2,0.4,0.3,0.6,0.4
		c0.2,0.1,0.3,0.4,0.6,0.4c0.2-0.3,0.5-0.6,0.7-0.9c0-0.2-0.2-0.1-0.2-0.2c-0.1-0.1-0.1-0.2-0.3-0.2c-0.6-0.6-1.2-1.1-1.8-1.6
		c-0.6-0.5-1.2-1-1.9-1.5c0,0,0-0.1-0.1-0.1C16.9,21.9,16.6,22.2,16.3,22.5z M43.5,21.2c0,1.1,0,2.4,0,3.5c0,0.1-0.1,0.4,0.1,0.4
		c0.1-1.2,0-2.7,0.1-4.1h-0.2V21.2z M81.4,20.9c-0.9-0.9-1.9-1.8-2.8-2.8c-0.1,0-0.1-0.1-0.2-0.1c-0.7,0.6-1.2,1.1-2,2
		c-0.3,0.3-0.6,0.6-0.9,0.9c-0.2,0.2-0.9,0.9-0.9,1c0,0,0.3,0.3,0.4,0.4c1,1,2,2,2.9,2.9c0.2-0.3,0.5-0.4,0.6-0.7
		c-0.6-0.6-1.2-1.2-1.8-1.8c-0.1-0.3-0.5-0.4-0.6-0.7c0.2-0.1,0.3-0.3,0.6-0.5c0.1-0.1,0.5-0.5,0.6-0.5c0.1,0,0.4,0.4,0.5,0.6
		c0.5,0.5,1.2,1.2,1.6,1.6c0.3-0.2,0.5-0.4,0.7-0.7c-0.7-0.7-1.4-1.4-2.1-2.1c0.1-0.2,0.3-0.3,0.4-0.4c0.1-0.1,0.3-0.4,0.4-0.4
		c0,0,0.2,0.2,0.3,0.3c0.3,0.3,0.6,0.6,0.9,0.9c0.5,0.5,0.8,1,1.2,1.2c0.2-0.2,0.3-0.4,0.6-0.6C81.6,21.2,81.5,21.1,81.4,20.9z
		 M21.9,16.8c-0.1,0-0.1,0.1-0.2,0.2c-0.2,0-0.3,0.3-0.4,0.3c-0.1,0.2-0.3,0.2-0.3,0.4c0.6,1.1,1,2.3,1.5,3.4c0,0.2,0.2,0.4,0.1,0.5
		c-1.3-0.6-2.6-1.3-3.9-1.9c-0.1,0.2-0.3,0.3-0.5,0.5c-0.1,0.1-0.5,0.3-0.4,0.5c0.5,0.1,0.9,0.4,1.3,0.6c0.1,0,0.2,0.1,0.3,0.1
		c1.2,0.5,2.4,1.2,3.7,1.7c0.3-0.3,0.7-0.6,1-0.9C23.4,20.5,22.7,18.6,21.9,16.8z M68,31C68.1,30.9,68,30.9,68,31
		c-0.2,0.2-0.5,0.5-0.7,0.8c-0.7,0.9-1.5,1.9-2.2,2.8c-0.1,0.2-0.2,0.4-0.4,0.4c-0.3-0.1-0.6-0.2-0.7-0.4c-0.2-0.1-0.4-0.3-0.5-0.6
		c0.1-0.3,0.3-0.5,0.5-0.7c0.3-0.4,0.5-0.7,0.8-1c0-0.1,0.1-0.1,0.1-0.2c0.1-0.1,0.2-0.2,0.3-0.3c0.1-0.1,0.3-0.3,0.4-0.5
		c0-0.1,0.1-0.1,0.1-0.2c0.1,0,0.2-0.2,0-0.1h-0.9c-1.1,0.5-2.2,0.9-3.3,1.3c-0.3-0.3-0.5-0.7-0.6-1.3h-9.2c-0.2,0.1,0-0.3-0.3-0.2
		c-1,0.1-2.1-0.1-3.1,0c-0.1,0-0.3-0.1-0.3,0.1c0,0.2,0.2,0.2,0.3,0.3c0.1,0,0.1,0.1,0.2,0.1c0.1,0,0.1,0,0.2,0.1
		c0.1,0.1,0.2,0.2,0.4,0.2c0.1,0.1,0.3,0.1,0.4,0.1c0.1,0.1,0.2,0.2,0.4,0.2c0.1,0.1,0.3,0.1,0.4,0.1c0.1,0.1,0.3,0.2,0.4,0.2
		c0.1,0.1,0.3,0,0.4,0.2c0.2,0.1,0.1-0.2,0.3-0.2c0,0.1,0.2,0.1,0.3,0.2c-0.1,0.6-0.4,1-0.6,1.5c-0.2,0.1,0,0.4-0.3,0.4
		c-0.1-0.1-0.2-0.1-0.3-0.2c-0.1,0,0.2-0.3-0.1-0.3c-0.9-0.4-2-0.8-2.9-1.2c-0.1,0-0.3-0.2-0.3,0c-0.2,0.1,0,0.3,0.1,0.3
		c0.6,0.6,1.2,1.3,1.9,1.9c0.1,0.1,0.2,0.1,0.2,0.3c0.2,0.1,0.2,0.2,0.4,0c0.1,0.1,0.2,0.2,0.3,0.3c-0.1,0.2-0.2,0.3-0.3,0.4
		c-0.2,0.2-0.5,0.5-0.8,0.8c-0.1,0.1-0.2,0.3-0.4,0.2c0-0.2-0.3-0.1-0.3-0.3c0.2-0.1,0.1-0.1,0.1-0.3c-0.1-0.2-0.4-0.4-0.7-0.6
		c-0.2-0.2-0.3-0.3-0.5-0.5c-0.1-0.1-0.2-0.1-0.3-0.3c0-0.1-0.1-0.2-0.1-0.2c-0.1-0.1-0.2-0.1-0.2-0.1c0,0-0.1-0.1-0.1-0.2
		c-0.2-0.2-0.4-0.5-0.7-0.3c-0.1,0.3,0.1,0.5,0.2,0.8c0,0.1,0.1,0.3,0.2,0.4c0,0.1,0.1,0.3,0.1,0.4c0.2,0.5,0.5,1,0.6,1.6
		c0.1,0.1,0.1,0.2,0.3,0.1c0,0.2,0.1,0.2,0.1,0.4c-0.3,0.2-0.6,0.3-1,0.4c-0.3,0.1-0.6,0.4-0.9,0.3c-0.1-0.1-0.1-0.3-0.2-0.3
		c0-0.1,0.3,0,0.2-0.3c-0.2-0.5-0.4-1.1-0.7-1.7c-0.1-0.3-0.2-0.6-0.3-0.8c-0.1-0.2-0.1-0.7-0.5-0.6c-0.2-0.1-0.1,0.2-0.1,0.3v3
		c-0.1,0.2,0.3,0,0.2,0.2V48c0.8,0,1.8-0.1,2.5,0.1c0.1,0.1,0.2,0.2,0.3,0.3c0.3,0.5,0.2,1.7,0.2,2.7c0,1,0,2.1-0.1,2.7
		c-0.1,0.2-0.3,0.4-0.6,0.4h-2.3v2.5h1.4c0.3,0.6,0.6,1.1,0.9,1.7h2.4v-3.1c1.3-0.6,2.6-1.3,3.9-1.9c2.4,0.3,4.9,0.6,7.4,0.9
		c0.3-0.7,0.6-1.5,0.9-2.3c-0.6-0.4-1.1-0.9-1.6-1.4c-0.3-0.1-0.3-0.3-0.6-0.4c-0.3-0.4-0.7-0.6-1-0.9c-0.2-0.1-0.2-0.3-0.4-0.4
		c-0.1,0-0.1,0-0.2-0.1c-0.1-0.1-0.1-0.2-0.2-0.3c-0.1-0.1-0.3-0.1-0.2-0.2c0.1-1.3,0.2-2.6,0.2-4c0.6-0.9,1.3-1.7,1.9-2.5
		c0.4-0.1,0.6-0.4,0.9-0.5c0.1-0.4,0.1-0.9,0.2-1.3c-0.5,0.2-0.9,0.5-1.4,0.7c-0.2,0.7-0.4,1.4-0.7,1.9c0.1-0.9,0.3-1.7,0.4-2.6
		c0.6-0.4,1.2-0.9,1.9-1.3c0.1-1.7,0.3-3.3,0.4-5c0.1-0.1,0.2-0.3,0.3-0.4c0-0.1,0.1-0.2,0.2-0.2c0,0,0-0.2,0.2-0.2
		c-0.1,1.7-0.3,3.4-0.5,5.3c-0.1,0.8-0.1,1.8-0.2,2.6c-0.2,1.4-0.5,2.8,0.2,3.7c0.2-0.5,0.5-0.9,0.7-1.4c0.1-3.5,0.1-7.1,0.3-10.5
		c0.1,0.1,0.2,0.2,0.2,0.3c0.1,0.1,0.1,0.2,0.1,0.3c0.1,0.3,0,0.6,0.1,0.9c0.1,1.7,0.2,3.6,0.2,5.2c0.1,0.1,0.1-0.1,0.3-0.1
		c0.3-0.2,0.5-0.5,0.8-0.7c0.4,0,0.7,0,1.1-0.1c0.3,0.2,0.6,0.4,0.9,0.7c0.3,0.2,0.6,0.4,0.8,0.7c-0.1,0.7-0.2,1.5-0.3,2.3
		c-0.2,0.3-0.4,0.7-0.7,1c0.1,0.3,0.2,0.5,0.3,0.8c-0.3,0.1-0.8,0-1,0.1c0.2,0.1,0.5,0.1,0.6,0.3c-0.5-0.1-1.2-0.1-1.8-0.2
		c-0.2,0.7-0.4,1.5-0.7,2.1c-0.1-0.8-0.1-1.8-0.3-2.6c0-0.1,0.1-0.3-0.1-0.3c-0.2,0-0.2,0-0.3,0c-0.1,0-0.2,0.5-0.3,0.7
		c-0.3,0.9-0.6,1.8-0.9,2.8c0.1,0.2,0.3,0.4,0.4,0.6c0.1,0.2,0.3,0.4,0.5,0.5c0.6-0.3,1.1-0.7,1.8-0.9c0.7,0.2,1.2,0.5,1.9,0.7
		c0.2-0.2,0.3-0.3,0.5-0.5c0.1-0.2,0.3-0.4,0.4-0.6c-0.2-0.5-0.4-1-0.6-1.5c1.5-0.2,2.9-0.4,4.4-0.7c-0.7,0-1.4-0.2-2.1-0.2
		c-0.7-0.1-1.4-0.1-2-0.3c1.3,0,2.6-0.2,4-0.2c0.2-0.8,0.2-1.7,0.3-2.6c0.1-0.9,0.2-1.8,0.2-2.6c0.6-0.2,1.3-0.5,1.9-0.7
		c0.2-0.1,0.4-0.3,0.6-0.2c-0.2,0.6-0.6,0.9-1,1.2c-0.2,0.1-0.3,0.2-0.5,0.4c-0.1,0.1-0.2,0.1-0.2,0.2c0.4,1.1,0.7,2.3,1,3.5
		c-0.8,2.7-1.6,5.4-2.3,8.1c-1.1,0.8-2.1,1.6-3.2,2.4c-0.4-0.3-0.8-0.6-1.2-0.9c-0.2-0.2-0.4-0.3-0.6-0.5c-0.2-0.1-0.4-0.2-0.5-0.5
		c0.3-0.6,0.6-1.1,0.8-1.8c-0.2-0.1-0.3-0.2-0.5-0.3c-0.3,0-0.4,0.3-0.6,0.5c-0.5,0.5-1.1,1.1-1.6,1.7c0.4,0.3,0.7,0.6,1.1,0.9
		c0.2,0.1,0.4,0.3,0.6,0.5c0.2,0.2,0.4,0.2,0.5,0.5c-0.3,0.7-0.6,1.5-0.9,2.4c-0.1,0.3-0.2,0.5-0.3,0.8c-0.1,0.7,0,1.5,0,2.3v2.3
		c0,0.2-0.1,0.5,0.1,0.5c0.3,0,0.2-0.3,0.3-0.4c0.5-1.3,1.1-2.6,1.7-4c0.6-1.3,1.1-2.7,1.7-3.9c-0.3,2.6-0.6,5.2-0.9,7.8
		c-0.5,0.3-1,0.7-1.4,1c-0.1,0.1-0.4,0.2-0.4,0.4v3.9c0,0.1-0.1,0.5,0.1,0.4h0.4c0.2-0.4,0.2-0.8,0.3-1.2c0.2-0.8,0.4-1.6,0.6-2.5
		c0.1-0.4,0.1-0.8,0.3-1.2c0.2,0.9,0.3,1.8,0.4,2.6c-0.5,2.3-0.9,4.6-1.3,7c1.3,0.1,2.7,0.4,4,0.6c1.1,0.2,2.2,0.4,3.3,0.7
		c0.1,0,0.4,0,0.4,0.2c-2.7-0.3-5.7-0.4-8.5-0.3c-0.5,0-1,0-1.5,0c-3,0.1-6,0.4-8.8,0.7c-2.8,0.3-5.5,0.8-8.1,1.3
		c-4.5,1-8.7,2.3-12.6,4c-0.2,0.1-0.4,0.2-0.6,0.3c-0.3,0.1-0.7,0.3-0.9,0.5c4.6,2.6,9.6,4.4,16.5,4.7c0.7,0,1.4,0,2,0
		c5.3-0.2,9.8-1.5,13.6-3.2c3.7-1.7,7-4.1,9.9-7c0.6-0.6,1.1-1.2,1.7-1.8c0,0,0.1,0,0.1-0.1c0.1-0.3,0.5-0.6,0.7-0.9
		c0.2-0.2,0.3-0.4,0.4-0.6c0.1-0.1,0.3-0.3,0.4-0.4c0,0,0-0.1,0.1-0.2c0.1-0.1,0.2-0.2,0.3-0.3c0.1-0.1,0.1-0.2,0.2-0.3
		c0,0,0.1,0,0.1-0.1c0,0,0-0.1,0-0.1c0,0,0.1,0,0.1-0.1c0,0,0-0.1,0-0.1c0,0,0.1,0,0.1-0.1c0,0,0-0.1,0-0.1c0,0,0.1,0,0.1-0.1
		c0,0,0-0.1,0-0.1c0,0,0.1,0,0.1-0.1c0,0,0-0.1,0-0.1c0,0,0.1,0,0.1-0.1c0.2-0.5,0.7-1.1,1-1.7c0.4-0.8,0.9-1.6,1.3-2.4
		c0-0.1,0.1-0.2,0.2-0.3c1.7-3.9,3-8.7,3-13.8c0-9.4-3.3-16.6-7.6-21.9C76,28,75.5,27.4,75,26.8c-0.6-0.6-1.2-1.3-1.9-1.9
		c-0.2-0.1-0.3-0.3-0.6-0.5c-0.2-0.2-0.5-0.5-0.8-0.7c-0.2-0.2-0.4-0.3-0.6-0.5c-0.4-0.3-0.8-0.6-1.2-0.9c0,0,0-0.1-0.1-0.1
		c0,0-0.1,0-0.1,0c0,0,0-0.1-0.1-0.1c-0.1-0.1-0.3-0.2-0.5-0.3c0,0-0.1-0.1-0.2-0.2c-0.1-0.1-0.2-0.1-0.3-0.2c0,0,0-0.1-0.1-0.1
		c0,0-0.1,0-0.1,0c0,0,0-0.1-0.1-0.1c-0.3-0.1-0.7-0.4-1-0.6c-2.6-1.6-5.5-2.9-8.8-3.8c-2.2-0.6-4.7-1-7.2-1.2
		c-3.8-0.2-7.5,0.3-10.6,1.1c-0.1,0-0.2,0.1-0.3,0.1c-0.1,0-0.2,0-0.3,0.1c-0.2,0.1-0.4,0.2-0.6,0.2c-0.2,0.1-0.4,0.1-0.7,0.2
		c-0.4,0.1-0.7,0.3-1.2,0.4c-0.2,0.1-0.4,0.1-0.6,0.2c-0.2,0.1-0.4,0.2-0.6,0.3c-0.5,0.2-1.1,0.4-1.7,0.7c-2.1,1-4.1,2.3-5.9,3.6
		c-4.9,3.7-8.7,8.5-11.2,14.5c-0.6,1.5-1.2,3.1-1.6,4.8c-0.3,1.3-0.6,2.7-0.7,4.1c-0.1,0.5-0.1,1-0.2,1.4c-0.3,3.9,0.2,8.1,1.1,11.6
		c1.1,4,2.8,7.5,4.8,10.5c0.1,0.1,0.1,0.1,0.2,0.2c0,0,0,0.1,0.1,0.2c0,0,0.1,0,0.1,0.1c0,0.1,0,0.1,0.1,0.2
		c0.2,0.2,0.4,0.5,0.6,0.8c0.1,0.1,0.2,0.2,0.3,0.4c0.1,0.1,0.3,0.3,0.4,0.5c0.1,0.1,0.1,0.2,0.2,0.3c0,0,0.1,0.1,0.1,0.1
		c0.1,0.1,0.3,0.3,0.4,0.5c0.5,0.6,1,1.1,1.5,1.7c0.3,0.3,0.5,0.6,0.8,0.8c2.9-1,6-1.9,9.3-2.4v-4.7c-0.7-0.2-1.4-0.5-2-0.8
		c0.1-1.1,0.1-2.2,0.1-3.4c-0.2-0.4-0.6-0.6-0.9-1c-0.3-0.3-0.6-0.6-0.8-1v-5c1.9-0.1,4,0,6-0.1v-3.9c0.2-0.2,0.3-0.5,0.6-0.6
		c1.2-0.1,2.6,0,3.9-0.1V50c-4.2,0-8.6,0.1-12.8-0.1c-0.1-0.1-0.3-0.2-0.4-0.4c-0.1-6.6,0-13.5-0.1-20.2c0.2-0.2,0.3-0.5,0.6-0.6
		c1.5-0.1,3.1,0,4.7-0.1c0.1,0,0,0.3,0.2,0.2c0.9,0,2.1,0,3.1,0c0.3,0,0.8,0.1,0.7-0.3c0.2-0.1-0.2-0.1-0.3-0.2
		c-1-0.4-2-0.8-2.9-1.2c-0.2-0.1-0.2,0.1-0.3,0.2c-0.1-0.1-0.2-0.1-0.4-0.2c0.2-0.5,0.4-1,0.6-1.5c0.1-0.1,0-0.4,0.3-0.4
		c0,0.1,0.2,0.1,0.3,0.2c0.1,0.1-0.2,0.3,0.1,0.3c1,0.4,2.1,0.8,3,1.3c0.2,0,0.3,0.2,0.4,0c0.2-0.2,0.1-0.3-0.1-0.4
		c-0.6-0.6-1.4-1.4-2-2.1c-0.2-0.2-0.3-0.4-0.4-0.3c-0.1,0-0.1,0.1-0.2,0.1c-0.1-0.1-0.2-0.2-0.3-0.3c0.4-0.4,0.7-0.8,1.1-1.2
		c0.1-0.1,0.3-0.3,0.4-0.3c0,0.1,0.2,0.1,0.2,0.3c-0.2,0.2,0.2,0.4,0.4,0.6c0.5,0.5,1.1,1.1,1.7,1.7c0.2,0.2,0.4,0.6,0.7,0.5
		c0.2-0.1,0.1-0.3-0.1-0.4c-0.4-1.1-0.8-2.1-1.3-3.2c0-0.3-0.2,0.1-0.3-0.1c-0.1-0.1-0.1-0.3-0.2-0.4c0.4-0.3,1-0.4,1.5-0.7
		c0.2,0,0.3-0.3,0.4-0.1c0,0.2,0.1,0.2,0.2,0.4c-0.1,0.1-0.3,0.1-0.2,0.3c0.4,1,0.9,2.1,1.3,3.1c0.1,0.1,0,0.4,0.3,0.3
		c0.2,0,0.2-0.2,0.2-0.4v-3.5c0.1-0.2-0.2-0.1-0.3-0.2v-0.4c0.7,0,1.5-0.1,2.1,0.1c0,0.1,0.1,0.4-0.1,0.4c0,0.1-0.3,0-0.2,0.2v3.7
		c2.2,0.5,3.6,1.9,4.1,4.1h3.4c0.2,0.1,0-0.3,0.2-0.2h6.7V24c0.2,0,0.6-0.1,0.7,0.1c0.1,1.3-0.1,2.9,0,4.3c0,0.1-0.1,0.5,0.2,0.4
		c0.2,0,0.1-0.4,0.1-0.6v-3.7c0-0.2-0.1-0.5,0.1-0.5c0.4-0.1,0.3,0.2,0.3,0.3c0.2,0.4,0.3,0.8,0.5,1.2c0.1,0.1,0.2,0.2,0.3,0.4
		c0.1,0.2,0.3,0.4,0.4,0.6c0.3,0.3,0.5,0.6,0.8,0.9c0.1,0.1,0.2,0.2,0.4,0.3c0.1,0,0.1,0.1,0.2,0.2c0.1,0.1,0.3,0.1,0.5,0.2
		c0.2,0.1,0.3,0.2,0.4,0.2c0.6,0.3,1.3,0.5,2.1,0.6c1.1,0.1,2.4,0,3.7,0c1.1,0,2.1-0.1,3.2,0c0.1,0,0.3-0.1,0.3,0.1v0.3
		c-2,0.1-4.3,0-6.4,0.1h-0.4c-0.2,0-0.3,0-0.2,0.2c0,0.2,0.3,0.1,0.4,0.1c2.1,0.1,4.5-0.1,6.7,0v1.3h-0.7c0,2.1,0.1,4.3-0.1,6.2
		c-0.5,0.2-1.5,0.2-1.8-0.1v-3c0-1,0-2-0.1-2.9c-0.4,1.4-0.9,2.7-1.3,4.1c-0.2,0.4-0.3,0.9-0.5,1.3c-0.4,0-0.7-0.1-1-0.2
		c-0.3-0.1-0.5-0.2-0.7-0.5C67,34.2,67.6,32.6,68,31z M74.4,19c0.5,0,0.9,0,1.1-0.1c0.3-0.1,0.4-0.2,0.6-0.5
		c0.1-0.1,0.3-0.3,0.3-0.4c0.2-0.6,0.1-1.2-0.2-1.5c0,0,0-0.1-0.1-0.2c-0.1-0.1-0.2-0.1-0.3-0.2c0,0-0.1-0.1-0.1-0.2
		c-0.1-0.1-0.2-0.1-0.2-0.1c0,0-0.1-0.1-0.1-0.2c-0.1,0-0.2-0.1-0.2-0.1c-0.5-0.4-1.3-1-1.7-1.3c0,0,0-0.1-0.1-0.1
		c-1.1,1.5-2.2,3-3.3,4.5c0.3,0.2,0.6,0.5,1,0.7c0.4-0.5,0.8-1.1,1.3-1.7C73,18.1,73.6,18.6,74.4,19z M26.7,13.3
		c-0.1,0-0.1,0.1-0.2,0.2c-0.4,0.2-0.8,0.5-1.1,0.7c-0.2,0.1-0.3,0.2-0.4,0.3c-0.1,0.1-0.2,0.1-0.2,0.2c-0.6,0.4-1.2,0.8-1.8,1.3
		c0.4,0.5,0.8,1.1,1.2,1.7c0.4,0.6,0.7,1.2,1.2,1.7c0.1,0.2,0.2,0.4,0.4,0.6c0.1,0.2,0.2,0.5,0.4,0.6c0.3-0.2,0.6-0.4,0.8-0.6
		c0.1,0,0.1-0.1,0.1-0.1c0.1-0.1,0.2-0.1,0.3-0.1c0,0,0-0.1,0.1-0.1c0,0,0.1,0,0.2-0.1c0,0,0-0.1,0.1-0.1c0,0,0.1,0,0.2-0.1
		c0.1-0.1,0.3-0.2,0.3-0.3c0,0,0.1,0,0.2-0.1c0,0,0-0.1,0.1-0.1c0,0,0.1,0,0.2-0.1c0.1-0.1,0.2-0.2,0.3-0.3c0,0,0.1,0,0.2-0.1
		c0,0,0-0.1,0.1-0.1c0,0,0.1,0,0.2-0.1c0.3-0.2,0.4-0.4,0.7-0.5c0-0.2-0.2-0.2-0.2-0.4c-0.2,0-0.1-0.3-0.3-0.3
		c-0.9,0.6-1.8,1.3-2.8,1.9c-0.2-0.5-0.6-0.8-0.8-1.3c0.8-0.6,1.6-1.2,2.5-1.7c0-0.2-0.2-0.3-0.2-0.4c-0.1-0.1-0.1-0.3-0.3-0.3
		c-0.3,0.2-0.7,0.5-1,0.7c0,0,0,0.1-0.1,0.1c0,0-0.1,0-0.1,0c0,0,0,0.1-0.1,0.1c-0.4,0.3-0.8,0.6-1.3,0.8c-0.2-0.4-0.5-0.6-0.7-1
		c0.9-0.6,1.8-1.3,2.7-1.9C27.2,13.8,27,13.6,26.7,13.3z M33.8,11.9c-0.1-0.4-0.4-0.8-0.7-1c-0.3-0.2-0.6-0.3-1-0.2
		c-1.3,0.4-2.3,1.1-3.6,1.6c0.8,1.7,1.6,3.4,2.5,5.1c0.3-0.2,0.7-0.4,1-0.6c-0.3-0.7-0.7-1.4-1-2.1c0.4-0.1,0.6-0.3,1.2-0.3
		c0.8,0.4,1.5,0.8,2.3,1.2c0.5-0.2,1-0.4,1.3-0.7c-1-0.4-1.7-1.1-2.9-1.3C33.4,13.2,33.9,12.7,33.8,11.9z M63.4,15.1
		c0.4,0.2,0.7,0.4,1.1,0.5c0.2-0.5,0.5-1.1,0.8-1.6c0.1-0.2,0.1-0.4,0.3-0.6c0.7,0.4,1.6,0.7,2.3,1.1c0-0.4,0.3-0.5,0.3-0.9
		c-0.8-0.4-1.6-0.7-2.3-1.1c0.3-0.3,0.3-0.8,0.6-1.2c0.4,0.2,0.9,0.4,1.3,0.6c0.5,0.2,0.9,0.5,1.4,0.6c0.1-0.3,0.3-0.5,0.4-0.8
		c-1.3-0.6-2.6-1.2-3.9-1.8C65,11.8,64.1,13.4,63.4,15.1z M38.5,8.6C36.9,8.4,35.7,9,35.1,10c-0.3,1.1,0.5,1.8,1.4,1.9
		c1.1,0.1,2.6-0.4,2.7,0.4c0.1,0.3-0.2,0.6-0.4,0.8c-0.4,0.3-0.9,0.4-1.4,0.3c-0.3-0.2-0.6-0.4-0.8-0.7c-0.3,0.2-0.7,0.3-1,0.4
		c-0.1,0.2,0.1,0.2,0.2,0.3c0.1,0.1,0.1,0.2,0.2,0.3c0.1,0.1,0.2,0.1,0.3,0.2c0.4,0.3,1,0.5,1.7,0.4c0.8-0.1,1.9-0.6,2.2-1
		c0-0.1,0.1-0.2,0.1-0.3c0.1-0.1,0.1-0.2,0.2-0.2c0.2-0.8-0.1-1.3-0.4-1.7c-0.4-0.3-0.8-0.4-1.5-0.4c-0.9,0-2.1,0.5-2.4-0.4
		c0.2-0.5,1-0.9,1.7-0.8c0.3,0.1,0.4,0.4,0.7,0.5c0.3-0.2,0.7-0.2,1-0.4C39.4,9.1,39,8.9,38.5,8.6z M57.5,11.9
		c0,0.2,0.1,0.4,0.2,0.6c0.6,1.2,2.5,2,4,1.5c0.2-0.1,0.3-0.2,0.5-0.3c0,0,0.1,0,0.2-0.1c0.2-0.2,0.4-0.4,0.5-0.6c0,0,0.1,0,0.1-0.1
		c0.1-0.1,0.1-0.3,0.2-0.4c0.2-0.5,0.4-1.1,0.3-1.7c0-0.6-0.3-1.1-0.6-1.4c-0.2-0.2-0.4-0.4-0.7-0.6c0,0,0-0.1-0.1-0.1
		c-0.5-0.3-1.6-0.6-2.2-0.6c-0.7,0-1.1,0.4-1.7,0.7C57.8,9.8,57.3,10.9,57.5,11.9z M40.8,7.8c0.3,1.4,0.5,2.9,0.8,4.2
		c0.1,0.5,0.2,0.9,0.3,1.3c0.3-0.1,0.7-0.2,1.2-0.2c-0.4-1.8-0.7-3.7-1.1-5.5C41.6,7.7,41.2,7.8,40.8,7.8z M49.1,7
		c0.6,1,1.3,2.1,1.9,3.1c0,0.8-0.1,1.6-0.1,2.4c0.4,0,0.8,0,1.2,0.1c0.1-0.7,0.1-1.5,0.1-2.3c0.4-0.6,0.8-1.1,1.2-1.6
		C53.7,8.5,53.8,8.2,54,8c0.2-0.3,0.5-0.5,0.6-0.8c-0.5,0-0.8-0.1-1.3-0.1c-0.6,0.6-1,1.4-1.6,2.1c-0.5-0.7-0.9-1.5-1.3-2.3
		c-0.5,0-1-0.2-1.4,0C49,6.9,49.1,7,49.1,7z M43.3,7.3c0,0.4,0.1,0.6,0.1,0.9c0.6,0,1.2-0.1,1.8-0.2c0.2,1.5,0.3,3.1,0.4,4.6
		c0.4,0,0.8-0.1,1.2-0.1c-0.2-1.5-0.3-3.1-0.4-4.6c0.6,0,1.2-0.1,1.8-0.2c0-0.3,0-0.7-0.1-0.9C46.5,7,44.9,7.2,43.3,7.3z M82.3,16.3
		c0.2,0.2,0.5,0.4,0.7,0.7c0.2,0.2,0.4,0.5,0.6,0.7c0.3,0.3,0.7,0.6,1,1c0.1,0.1,0.2,0.3,0.3,0.4c0.1,0.2,0.3,0.3,0.5,0.5
		c0.1,0.2,0.3,0.4,0.4,0.6c0.1,0.1,0.2,0.3,0.3,0.4c0.2,0.2,0.4,0.4,0.6,0.7c0.2,0.3,0.5,0.6,0.7,0.9c0.1,0.1,0.2,0.2,0.3,0.4
		c0.1,0.1,0.2,0.2,0.3,0.4c0.1,0.1,0.2,0.2,0.3,0.4c0.3,0.4,0.6,0.9,0.9,1.4c0.2,0.3,0.3,0.5,0.5,0.8c0,0.1,0.1,0.2,0.1,0.2
		c0.1,0.2,0.2,0.4,0.4,0.6c0.2,0.4,0.5,0.8,0.7,1.3c0.9,1.7,1.8,3.5,2.5,5.5c0.1,0.3,0.2,0.7,0.3,1c0.1,0.1,0.2,0.3,0.2,0.4
		c0.1,0.3,0.2,0.6,0.3,1c0.4,1.1,0.7,2.4,1,3.6c0.1,0.5,0.3,1.1,0.4,1.6c0.1,0.6,0.2,1.1,0.3,1.7c0.1,0.7,0.2,1.5,0.3,2.3
		c0.6,5.1,0.3,10.3-0.7,14.7c-0.7,3.6-1.9,6.9-3.3,10c-0.3,0.6-0.5,1.2-0.8,1.8c-0.1,0.3-0.3,0.5-0.5,0.8c-0.2,0.3-0.3,0.6-0.4,0.9
		c-0.6,1.1-1.3,2.2-2,3.2c-0.1,0.2-0.2,0.4-0.4,0.6c-0.1,0.1-0.2,0.2-0.3,0.4c-0.1,0.1-0.3,0.4-0.4,0.6c-0.4,0.5-0.8,1-1.2,1.5
		c-0.8,1-1.6,1.9-2.5,2.8c-0.4,0.4-0.9,0.9-1.3,1.3c-0.4,0.4-0.9,0.9-1.3,1.3c-0.1,0.1-0.3,0.2-0.4,0.3c-0.1,0.1-0.2,0.2-0.3,0.3
		c-0.5,0.4-0.9,0.8-1.4,1.2c-0.3,0.2-0.6,0.5-0.9,0.7c-0.1,0-0.2,0.1-0.2,0.1c-0.1,0.1-0.2,0.2-0.3,0.3c-0.1,0.1-0.2,0.1-0.2,0.1
		c-0.1,0.1-0.2,0.2-0.4,0.3c-0.1,0-0.1,0.1-0.2,0.2c-0.1,0.1-0.2,0.1-0.3,0.1c-0.1,0.1-0.1,0.1-0.2,0.2c-0.2,0.1-0.4,0.2-0.6,0.4
		c-0.1,0-0.1,0.1-0.2,0.2c-0.1,0.1-0.3,0.1-0.4,0.2c-0.1,0-0.1,0.1-0.2,0.2c-0.1,0-0.2,0.1-0.2,0.1c-0.3,0.2-0.5,0.3-0.8,0.5
		c-0.1,0.1-0.2,0.2-0.4,0.3c-0.3,0.2-0.6,0.3-0.9,0.4c-0.1,0-0.1,0.1-0.2,0.2c-0.2,0.1-0.4,0.2-0.7,0.3c-1.7,0.9-3.5,1.8-5.5,2.5
		c-1.1,0.4-2.3,0.8-3.5,1.2c-0.4,0.1-1.1,0.3-1.6,0.4c-0.7,0.2-1.4,0.4-2.1,0.5c-4.7,0.9-10.4,1.2-15.8,0.5c-0.4,0-0.7-0.2-1.1-0.2
		c-0.7-0.1-1.5-0.2-2.3-0.4c-4.2-0.9-8.2-2.4-11.7-4.2c-0.3-0.2-0.6-0.3-0.8-0.5c-1.1-0.6-2.2-1.2-3.3-1.9c0,0-0.1-0.1-0.1-0.1
		c0,0-0.1,0-0.2-0.1c-0.1-0.1-0.1-0.2-0.2-0.2c-0.1,0-0.1,0-0.2-0.1c0,0-0.1-0.1-0.1-0.1c0,0-0.1,0-0.2-0.1c-0.1,0-0.2-0.2-0.3-0.3
		c-0.4-0.3-0.9-0.6-1.3-0.9c-0.2-0.1-0.3-0.2-0.5-0.3c-0.1-0.1-0.1-0.2-0.2-0.2c-0.2-0.1-0.3-0.2-0.5-0.4c0,0-0.1-0.1-0.1-0.1
		c0,0-0.1,0-0.2-0.1c-0.2-0.1-0.3-0.3-0.4-0.4c-0.1-0.1-0.2-0.1-0.3-0.2c-0.1-0.1-0.1-0.2-0.2-0.2c-0.1-0.1-0.2-0.1-0.3-0.2
		c-0.2-0.2-0.4-0.4-0.7-0.7c-0.2-0.1-0.3-0.2-0.5-0.4c-0.1-0.1-0.2-0.3-0.4-0.4c-0.3-0.3-0.7-0.5-0.9-0.8c-0.1-0.2-0.2-0.3-0.4-0.5
		c-0.1-0.1-0.3-0.2-0.4-0.4c-0.3-0.3-0.5-0.6-0.8-0.9c-0.1-0.1-0.3-0.3-0.4-0.4c0,0,0-0.1-0.1-0.2c-0.1-0.1-0.1-0.1-0.2-0.2
		c-0.1-0.2-0.3-0.4-0.5-0.6c-0.3-0.3-0.5-0.6-0.8-1c0,0-0.1-0.1-0.1-0.1c-0.1-0.1-0.1-0.2-0.2-0.3c-0.1-0.1-0.2-0.2-0.3-0.3
		c-0.5-0.7-1.2-1.6-1.7-2.4c-0.1-0.1-0.1-0.2-0.2-0.3c0,0,0-0.1-0.1-0.2c-0.1-0.1-0.2-0.1-0.2-0.2c0-0.1,0-0.1-0.1-0.2
		c-0.1-0.1-0.2-0.2-0.3-0.4c-0.1-0.2-0.3-0.4-0.4-0.7c-0.7-1.3-1.5-2.7-2.1-4.1c-1.5-3.2-2.6-6.6-3.4-10.5c-0.8-4-1.1-8.7-0.8-12.9
		C3.6,40.7,4.9,36,6.6,31.8c0.1-0.3,0.4-0.8,0.6-1.2C7.9,28.8,9,27,10,25.3c1.8-2.9,3.8-5.5,6.1-7.8c3.9-4,8.3-7.3,13.6-9.8
		c0.6-0.3,1.1-0.6,1.8-0.8c0.2-0.1,0.5-0.2,0.8-0.3c0.2-0.1,0.4-0.1,0.6-0.2c0,0,0.1-0.1,0.1-0.1c0.1,0,0.2-0.1,0.4-0.1
		C34,5.8,35,5.5,35.9,5.2c2.9-0.9,6.2-1.6,9.7-1.9c1.9-0.2,3.9-0.2,5.9-0.1c6.4,0.2,12,1.7,16.7,3.7C73.8,9.3,78.5,12.6,82.3,16.3z"
		/>
	<path fill-rule="evenodd" fill="#0C3B5D" d="M60.1,9.4c1.1-0.2,1.9,0.3,2.2,1.1c0.1,0.7-0.1,1.2-0.3,1.7c-0.2,0.4-0.3,0.6-0.8,0.8
		c-0.1,0.1-0.4,0.2-0.6,0.2c-0.6,0-1.5-0.4-1.7-1c-0.3-0.8,0.1-1.7,0.6-2.4C59.6,9.6,59.7,9.4,60.1,9.4z"/>
	<path fill-rule="evenodd" fill="#0C3B5D" d="M30.5,13.9c-0.1-0.5-0.4-0.8-0.6-1.3c0.5-0.3,1.1-0.5,1.7-0.8c0.1,0,0.4,0,0.6,0
		c0.2,0.2,0.4,0.4,0.4,0.7c0,0.4-0.4,0.6-0.9,0.9C31.3,13.6,30.9,13.8,30.5,13.9z"/>
	<path fill-rule="evenodd" fill="#0C3B5D" d="M73.8,15.6c0.5,0.4,1.1,0.7,1.4,1.3c0.1,0.7-0.4,1.1-0.9,0.9c-0.5-0.2-1.1-0.7-1.4-0.9
		C73.2,16.4,73.5,16,73.8,15.6z"/>
	<path fill-rule="evenodd" fill="#0C3B5D" d="M40.4,22.3"/>
	<path fill-rule="evenodd" fill="#0C3B5D" d="M40.4,22.3c0,0,0.1,0,0.1,0.1C40.4,22.4,40.4,22.3,40.4,22.3z"/>
	<path fill-rule="evenodd" fill="#0C3B5D" d="M40.4,22.4c0,0,0.1,0,0.1,0.1C40.5,22.5,40.4,22.4,40.4,22.4z"/>
	<path fill-rule="evenodd" fill="#0C3B5D" d="M37.4,23.6"/>
	<path fill-rule="evenodd" fill="#0C3B5D" d="M84.9,29.8c0.4-0.2,0.8-0.3,1.1-0.6c0.1,0,0.1,0.1,0.2,0.1c0.1,0.2,0.3,0.6,0.5,0.9
		c0.2,0.3,0.4,0.8,0.4,1c-0.1,0.4-0.6,0.8-1.2,0.4C85.5,31.1,85.1,30.5,84.9,29.8z"/>
	<path fill-rule="evenodd" fill="#0C3B5D" d="M68,31"/>
	<path fill-rule="evenodd" fill="#0C3B5D" d="M89.6,37.7c-0.3,1-1.4,1.5-2.7,1.3c-0.8-0.3-1.2-0.9-1.2-2c0-0.1,0.1-0.3,0.2-0.4
		c0.1-0.2,0.2-0.3,0.4-0.5c0.2-0.2,1-0.5,1.4-0.6C88.9,35.5,89.7,36.4,89.6,37.7z"/>
	<path fill-rule="evenodd" fill="#0C3B5D" d="M64,40.2c0.2,0,0.5-0.1,0.5,0.1H64V40.2z"/>
	<path fill-rule="evenodd" fill="#0C3B5D" d="M10.9,40.9c-0.1,0.6-0.2,1.1-0.3,1.6c-0.5-0.3-0.9-0.6-1.4-0.9
		c-0.1-0.1-0.4-0.1-0.4-0.3C9.5,41.1,10.1,40.9,10.9,40.9z"/>
	<path fill-rule="evenodd" fill="#0C3B5D" d="M60.2,49.4c0,0,0.1,0,0.1,0.1C60.2,49.5,60.2,49.5,60.2,49.4z"/>
	<path fill-rule="evenodd" fill="#0C3B5D" d="M60.3,49.5"/>
	<path fill-rule="evenodd" fill="#0C3B5D" d="M50.7,61.2C50.7,61.2,50.7,61.1,50.7,61.2C50.8,61.2,50.7,61.2,50.7,61.2z"/>
	<path fill-rule="evenodd" fill="#0C3B5D" d="M60.7,61.3"/>
	<path fill-rule="evenodd" fill="#0C3B5D" d="M50.9,66.4c0-0.1,0.1,0,0.2-0.1C51,66.4,50.9,66.4,50.9,66.4z"/>
	<path fill-rule="evenodd" fill="#0C3B5D" d="M73.5,73.3"/>
	<path fill-rule="evenodd" fill="#0C3B5D" d="M73.7,73.4C73.6,73.3,73.7,73.3,73.7,73.4C73.7,73.3,73.7,73.4,73.7,73.4z"/>
	<path fill-rule="evenodd" fill="#0C3B5D" d="M45.8,76.8v4.1h-1.2v-2.6c-0.4,0.2-0.7,0.5-1.2,0.5v-0.9c0.6-0.2,1.1-0.6,1.4-1.1H45.8
		z"/>
	<path fill-rule="evenodd" fill="#0C3B5D" d="M47.9,77.9c-0.1,0.7,0.1,1,0.6,1c0.6,0,0.6-0.9,0.2-1.3C48.3,77.5,48,77.6,47.9,77.9z
		 M46.9,80c0.4,0,0.7-0.1,1-0.1c0.2,0,0.2,0.1,0.2,0.3c0.1,0.1,0.2,0.1,0.3,0.2c0.5-0.1,0.6-0.5,0.6-1c-0.1-0.2-0.1,0.2-0.3,0.1
		c-0.2,0.2-0.8,0.2-1.1,0.1c-0.4-0.2-0.6-0.5-0.8-0.9v-0.7c0.1-0.1,0.1-0.2,0.1-0.3c0,0,0.1,0,0.1-0.1c0.2-0.5,0.8-0.7,1.7-0.7
		c0.2,0,0.4,0.1,0.6,0.2c0.6,0.3,1,1.3,0.8,2.4C50,80.3,49.4,81,48.4,81c-0.5,0-0.9-0.2-1.2-0.4C47.1,80.4,46.8,80.2,46.9,80z"/>
	<path fill-rule="evenodd" fill="#0C3B5D" d="M56.6,78.7c0.2,0.2,0.4,0.2,0.6,0.4c0.2,0.4,0.2,0.8,0,1.2c-0.2,0.4-0.7,0.8-1.4,0.8
		c-0.8,0-1.6-0.4-1.8-1.1c0-0.2,0.4-0.1,0.6-0.2c0.3,0,0.4-0.1,0.6-0.1c0.1,0.4,0.2,0.6,0.5,0.6c0.6,0,0.8-0.9,0.2-1.2
		c-0.2,0-0.4,0-0.6,0.1c0-0.3,0-0.6,0.1-0.8c0.3,0,0.5-0.1,0.6-0.3c0.2-0.8-0.9-0.7-0.8,0C54.8,78,54.3,78,54,77.9
		c0.1-0.7,0.9-1.2,2-1c0.2,0,0.6,0.1,0.7,0.2C57.2,77.4,57.3,78.3,56.6,78.7z"/>
	<path fill-rule="evenodd" fill="#0C3B5D" d="M53.5,76.9v0.9h-1.7c-0.2,0-0.1,0.4-0.2,0.5c0.1,0,0.3-0.1,0.6-0.1c0.1,0,0.3,0,0.4,0
		c0.3,0,0.6,0.2,0.8,0.4c0,0,0,0.1,0.1,0.2c0,0,0.2,0.2,0.2,0.3c0,0.1,0.1,0.3,0.1,0.4c0,1-0.8,1.6-1.7,1.6c-0.4,0-0.9-0.1-1.1-0.3
		c-0.2-0.1-0.6-0.5-0.6-0.9c0.4,0,0.7-0.1,1-0.1c0.2,0,0.1,0.3,0.2,0.3c0.1,0.1,0.2,0.2,0.3,0.2c0.7,0.1,0.8-1.3,0.2-1.4
		c-0.3-0.1-0.5,0.2-0.7,0.3c-0.3,0-0.6-0.1-0.9-0.1c0.2-0.7,0.2-1.5,0.4-2.2H53.5z"/>
	<path fill-rule="evenodd" fill="#0C3B5D" d="M74.7,79.6c0,0,0-0.1,0.1-0.1C74.8,79.6,74.8,79.7,74.7,79.6z"/>
	<path fill-rule="evenodd" fill="#0C3B5D" d="M74.7,79.6"/>
	<path fill-rule="evenodd" fill="#0C3B5D" d="M26,80.3c0.2,0.1,0.4,0.2,0.6,0.3c-0.3,0.2-0.8,0.2-1.1,0.3
		C25.6,80.7,25.8,80.5,26,80.3z"/>
	<path fill-rule="evenodd" fill="#0C3B5D" d="M33.5,85.6c0-0.1,0.2,0,0.3-0.1c0.1,0.4,0.1,0.7,0.1,1.1c-0.2,0-0.2-0.4-0.2-0.6
		C33.6,85.9,33.5,85.7,33.5,85.6z"/>
	<path fill-rule="evenodd" fill="#0C3B5D" d="M33.5,86.5c-0.4,0.4-1.3,0.3-2,0.4c0.2-0.2,0.5-0.2,0.8-0.3c0.4-0.1,0.7-0.2,0.9-0.4
		C33.5,86.3,33.4,86.5,33.5,86.5z"/>
	<path fill-rule="evenodd" fill="#0C3B5D" d="M74.3,86.9C74.3,86.8,74.4,86.8,74.3,86.9C74.4,86.8,74.3,86.9,74.3,86.9z"/>
	<path fill-rule="evenodd" fill="#0C3B5D" d="M35.1,87C35.1,86.9,35.2,86.9,35.1,87C35.2,87,35.1,87,35.1,87z"/>
	<path fill-rule="evenodd" fill="#0C3B5D" d="M35.2,87.2C35.2,87.1,35.2,87.2,35.2,87.2C35.2,87.3,35.2,87.2,35.2,87.2z"/>
	<path fill-rule="evenodd" fill="#0C3B5D" d="M30.9,87.5C30.8,87.5,30.9,87.5,30.9,87.5C30.9,87.5,30.9,87.5,30.9,87.5z"/>
	<path fill-rule="evenodd" fill="#0C3B5D" d="M31,87.7"/>
	<path fill-rule="evenodd" fill="#0C3B5D" d="M34.4,87.7C34.4,87.7,34.5,87.6,34.4,87.7C34.5,87.7,34.5,87.7,34.4,87.7z"/>
	<path fill-rule="evenodd" fill="#0C3B5D" d="M58.4,89.4c0,0.3-0.2,0.5-0.3,0.7c-0.1,0.2-0.2,0.3-0.3,0.4c0,0,0,0.1-0.1,0.2
		c0,0-0.1,0-0.1,0.1c0,0.1,0,0.1-0.1,0.2c-0.1,0.1-0.2,0.2-0.3,0.3c0,0-0.1,0.1-0.1,0.1c-0.1,0.1-0.1,0.3-0.3,0.3
		c-0.2-0.1-0.3-0.4-0.3-0.6c0-0.3,0.3-0.4,0.3-0.6c0.1-0.2,0.2-0.4,0.3-0.6c-0.1-0.5-0.5-0.6-0.5-1C57.4,88.8,58.2,89,58.4,89.4z"/>
	<path fill-rule="evenodd" fill="#0C3B5D" d="M55.8,89.1c0.2,0.2,0.1,0.7,0.1,1c-0.1,0.1-0.4,0.1-0.6,0.2c0.1,0.4,0.4,0.5,0.7,0.7
		c0,0.2,0.1,0.5,0.2,0.7c0,0.1-0.2,0.1-0.2,0.3c0,0.1,0,0.3-0.1,0.4c-0.1,0.1-0.2,0.1-0.3,0.2c-0.2-0.1-0.4-0.1-0.7-0.1
		c-0.4-0.2-0.7-0.5-1-0.8c-0.2-0.5,0.1-0.9,0.1-1.3c0.2-0.1,0.3-0.3,0.6-0.3c0.3-0.3,0.7-0.6,0.9-1H55.8z"/>
</g>
</svg>
