<?xml version="1.0" encoding="utf-8"?>
<!-- Generator: Adobe Illustrator 19.2.1, SVG Export Plug-In . SVG Version: 6.00 Build 0)  -->
<svg version="1.1" id="图层_1" xmlns="http://www.w3.org/2000/svg" xmlns:xlink="http://www.w3.org/1999/xlink" x="0px" y="0px"
	 viewBox="0 0 300 120" style="enable-background:new 0 0 300 120;" xml:space="preserve">
<style type="text/css">
	.st0{fill:#192F74;}
	.st1{fill:none;stroke:#192F74;stroke-width:0.1728;}
	.st2{fill:#8F8F8F;}
	.st3{fill:#FFFFFF;}
	.st4{fill:#2D2684;}
	.st5{fill:#1F2B6A;}
	.st6{fill:#F2C700;}
</style>
<g>
	<path class="st0" d="M96.1,33.7c1.2,0.3,1.9,1.2,1.5,3.1l-0.9,2c-0.6,1.3-1.1,2.8-1.2,4.2c-1.1,8.3,0.5,17,0.1,20.2
		s-1.9,0.9-2.8-0.1c-0.5-0.6-0.9-1.4-1.1-2.2c-0.2-0.5-0.4-1-0.8-0.7l-0.5,0.5c-0.2,0.3-0.4,0.6-0.5,1c-1,3.1-2,6.1-4,7.2
		c-2,1.2-4.2-1.6-4.1-4.3c2.4-3.2,3.4-7.3,2.8-11.2c1.2-1.8,2.5-2.3,3.6,0l0.3,5.2c1.4,0.2,2.6,0.3,3.1-0.5c1-8.6,1-18.2,2.1-23
		c0.3-1.3,0.9-1.7,2.2-1.4l0,0L96.1,33.7z M103.5,41.8c1.1,0,2.1,0.8,2.3,1.9l-0.6,6.5c1.2,0.7,4.3-1.4,7.3-3.3
		c1.2,0.6,1.4,2-0.3,3.5c-2.3,1.6-4.7,2.9-7.3,3.8c-0.4,3-0.4,6.1-0.1,9.1c1.3,1.4,3.1,0.5,4.9-1.6s5.6,1.8,3.6,3.7
		c-2.6,0.7-5.2,1.6-7.6,2.8c-3.1,0.3-4.1-1.3-4-2.7c0.6-7.6,1-15.1,1-22.7C102.6,42.1,102.5,41.7,103.5,41.8L103.5,41.8L103.5,41.8z
		 M131.2,35.6c1.4,0,2.8,0.4,4,1c0.5,0.6,0.6,1.4,0.4,2.1c-0.5,1.4-1.5,0.8-2.8,0.4c-1-0.3-1.8-0.8-2.5-1.5
		C129.3,36.3,129.6,35.6,131.2,35.6L131.2,35.6L131.2,35.6z M118.4,49.2c7.1-1.5,14.9-6.8,22.8-11.8c2.7-0.6,3.6,0.1,2.7,2.1
		c-0.5,0.7-1.3,1.1-2.1,1.2c-2.1,0.5-4,1.4-5.9,2.5c-5.4,3.1-10.8,6.2-16,9.4c-2.2,1.2-3.6,1.1-4.1-0.4
		C115.2,50.8,116.1,49.8,118.4,49.2L118.4,49.2z M135.1,46.5c2.1-0.7,3.9-1.9,5.4-3.6c0.7,0.1,1.4,0.4,2,0.8
		c0.5,0.2,0.7,0.8,0.5,1.3c-0.1,0.2-0.2,0.4-0.4,0.5c-1,0.9-1.9,2-3,2.7l1.2,1.7c-0.7,2.7-2.2,3.5-4.2,3.1s1.2-3.5,0.4-4.8
		c-0.9-1.3-1.7-0.3-2.2-0.5C134.2,47.5,134.3,46.8,135.1,46.5L135.1,46.5L135.1,46.5z M131.5,49.2l1.6,1c1,0.5,1,0.8,0.9,1.9
		c-0.1,0.7-0.3,1.3-0.8,1.8c-0.6,0.6-0.7,0.7-1.3,0.2c-1.1-0.8-1.9-2-2.2-3.4C129.7,49.9,130.2,48.4,131.5,49.2L131.5,49.2z
		 M134.1,54.9c0.9,0.4-0.7,4.3,1,6.6l0.4,3.6c0.1,1.3,0.4,2-0.9,2.8c-1.2,0.8-1.7,0.4-2.7-0.7c-0.7-1.1-1.3-2.3-1.8-3.5
		c-1.9,2.9-3.5,3.7-4.8,3c-0.5-1.1-0.7-2.2-0.6-3.4c2.2-0.3,3.4-3.8,4.6-3.6c1.2,0.3,1.8,1.2,1.2,3.3l1.5,0.4
		c0.8-0.5,0.5-4.3,0.4-6.8L134.1,54.9z M135.7,61c0-0.9,0.7-1.6,1.5-1.8c1.3,0,2.6,0.5,3.6,1.3c0.6,0.4,0.8,1.3,0.4,1.9l-0.4,0.7
		c-0.8,1.2-0.9,0.9-1.8,0.1L135.7,61L135.7,61L135.7,61z M150.4,42.4c0.8,0.3,0.7,4.3,1.1,6.4c2.4-3.7,5.4-6.3,8.3-7.1
		c2.9-0.8,2.9,6.3,2.9,7.9c3.8-3.4,6.9-4.1,9.3-1.3c2.4,2.8-0.4,4.8-4.5,7.9c0.3-2,2-4.2,0.8-6c-1.2-1.7-4.3,0.8-5.6,1.7
		c-0.5,3.8,1.1,11.2-2.6,11.6c-1.2-0.7-0.8-3.8,0.1-7.7c0.3-2.6,0.5-5.2,0.6-7.8c0.1-1.2,0-2.4-0.3-3.6c-0.4-0.8-0.8-0.6-1.3-0.3
		l-0.8,0.4c-1.8,0.9-3.2,2.4-4,4.2c1.2,1.9,1.3,4.4,0.3,6.4l-0.6,1.3c-0.5,1.2-0.7,1.1-1.7,0.8l-0.2-1c1.7-3.5,1.8-4.9-0.3-4.4
		c-1.3,3.5-2.3,7-1.8,10.6c-0.6,1.4-2,1.9-3,0.6c-0.3-3.6,2.1-7.7,3.2-11.4c-0.9-0.2-2.4,0.6-2.7-0.6
		C148.9,48.5,149.9,45.6,150.4,42.4L150.4,42.4L150.4,42.4z M177.9,46.3c1.2,0.1,2,1.3,1.6,6.6s-0.2,11.4-2.5,10.8
		c-0.7,0.2-1.5-1.1-1.4-2.9c0.2-0.8,0.4-1.6,0.8-2.3c0.6-2,0.8-4.1,0.7-6.2c-0.2-1.4-0.3-2.9-0.3-4.3
		C177,46.5,177.8,46.5,177.9,46.3L177.9,46.3L177.9,46.3z M178.8,41.1c5.3-2.5,10.4-5.5,15.3-8.9c2.7-0.9,3.6-0.1,3.6,2.7
		c0.1,2.8-1,6-1.1,8.7c-1.2,6.7,0.3,12.9,2.7,18.9c1,3.2,1,5.7-1.2,6.6c-1.4-1.6-3-3.1-4.7-4.3c-0.6-0.4-1.8-1.2-0.2-1.4
		c0.8,0,1.7,0.1,2.5,0.2c0.6-2.7-1.4-10-1.4-14.8c-0.2-3.9,0.1-7.7,0.8-11.5c0.1-1.2,0.1-2.2-0.7-1.8l-4.7,3.3
		c-1.7,1.3-3.7,2.4-5.7,3.2c-1.6,0.8-3.3,1.1-5.1,1.1c-0.5-0.3-0.7-1-0.4-1.6C178.6,41.3,178.7,41.2,178.8,41.1L178.8,41.1
		L178.8,41.1z M182,44.4l3.7-1.8c0.9-1,2.2-1.5,3.6-1.3l-0.3,3.8c-0.1,1.1,0.4,2.1,1.2,2.8c-1,2.1-2.3,4.1-3.8,5.9
		c-0.6,0.8-1.2,2.2-0.7,3.1s3.7,0.4,3.6-2.9c0-0.6,0.1-1,0.7-1.1c2.5,2.4,1.8,5-3.6,6.3c-0.9,0.3-1.8,0.3-2.7,0.1
		c-1.5-0.6-1.3-1.9-0.8-3.3s1.1-2.3,1.7-3.6c-1.6,0.6-2.8,0.4-3.4-0.5c-0.3-0.3-0.4-0.9-0.1-1.2c0.2-0.3,0.5-0.5,0.8-0.6
		c1.8-0.8,3.9-1.1,4.3-3.8c-1.9,0.9-3.6,1.2-4.5,0.3C181.8,45.9,181.8,45.2,182,44.4L182,44.4L182,44.4z M191.3,49.3l2.5,1.3v2
		l-2.5,0.3V49.3L191.3,49.3z M183.4,61.6c1.8-0.4,3.6-0.9,5.3-1.7c0.9-0.4,1.8-1.2,2.8-0.6c1,0.7,0.4,2.1-1,2.8
		c-1.9,0.9-4,1.4-6.1,1.6c-0.9,0.1-1.6,0.3-2.3-0.3c-0.2-0.2-0.4-0.5-0.4-0.8C181.8,61.7,182.6,61.8,183.4,61.6L183.4,61.6
		L183.4,61.6z M206.6,42c2.2-1,3.6-0.9,4.4,0.3c-0.8,3.1-2.3,4.4-4.5,4.1c0.1-0.4,0.5-0.6,0.6-1C207.1,44.3,206.9,43.1,206.6,42
		L206.6,42L206.6,42z M202.1,53.7c2.9,0.2,5.6-1.7,8.3-3.8s2.6-0.1,1.4,5.9l-0.7,4.4c-0.1,1.6,0.5,3.7,0,5.6
		c-0.5,1.8-1.9,0.6-2.7-0.3c-1.4-5.4,1.3-7.1,1.3-12.1c-2,1.2-4.1,4-6.1,4C201.6,57.3,201.5,55.1,202.1,53.7L202.1,53.7L202.1,53.7z
		 M216.2,35.8c-0.9,1.2-0.4,2.3,2.7,3.1c0.6,1.7,0.7,3.2-0.6,4c-1.2,0.9-1.9,0.3-2.9,0.6s-1,0.4-0.8,1.3c0.2,1,0.9,1.2,2.4,1.1
		c1.3,1.4-1.7,2.7-2.7,4s0.5,2.6,2.5,3.1c2.3-2.6,4.5-4,6.8-3.8c0.3,0,0.7,0,1-0.2c0.4-0.2,0.6-0.6,0.5-1.1c0-0.2,0-0.3-0.1-0.5
		c-0.1-0.7-0.5-1.3-1.2-1.7c-0.3-0.1-0.5-0.4-0.5-0.7c0.5-2.6-0.1-4-1.4-4.9c-0.1-0.3-0.2-0.6-0.3-1c0.7-1.6,0.7-2.9-0.8-3.4
		c-1.6,0.2-3.2,0.3-4.8,0.2l0,0L216.2,35.8z M220.9,44.1c0.6,0,0.7-0.1,0.8,0.6c0.2,0.7,0,1.4-0.4,1.9l-0.3,0.3
		c-0.9,0.4-1.1,0-1.2-0.9c0-0.3,0-0.6,0.1-1C220.1,44.1,220.1,44.1,220.9,44.1L220.9,44.1L220.9,44.1z M219.2,54.2
		c1.3-0.6,2.5-1.5,3.6-2.6c1.3-0.4,1.5,0.6,2,1.3c0.5,0.8-0.2,2.1-1.3,1.9l-0.2,1.9c1.2,0.9,2,2.4,2.1,3.9c-0.3,1.2-1.5,1.9-2.7,1.6
		c-0.2,0-0.3-0.1-0.5-0.2l-1-4.4v-2l-1.7-0.4L219.2,54.2z M217.5,57.3c-0.4,0.1-0.7,0.4-1,0.7c-0.7,0.8-0.2,1.3-0.2,2.2
		c0,0.4,0,0.8-0.1,1.2c-0.2,1-0.5,1.2,0.5,1.7s1.4-0.1,2-1.8c0.2-0.5,0.2-1.1,0.2-1.6c0-0.4-0.1-0.8-0.2-1.2
		C218.5,57.8,218.4,57,217.5,57.3L217.5,57.3L217.5,57.3z M239.3,48c-2.6,1.1-5.3,2-8.1,2.7l0.2,2.3c0.5,0.6,1.4,0.6,2.1,0.8
		l5.5-2.3c-1.4,4.6-3,9.4-6.5,11.6c-1.1,0.6-2.3,0.8-3.6,0.8c0,1.4,0.7,2.1,2.6,2.1c5.5-1.1,8.5-6.7,9.8-15.6
		c1.8-0.9,3.4-2.2,4.8-3.6c1.2-1.2,2.2-2.3,1.2-4.1c-0.4-0.7-1.1-1.1-1.9-1.2c0,2.2-1.4,4.2-3.6,4.9c0.1-3.1,1.3-8.4-1-10.6
		c-2.3-2.2-2.8-2-3.6-1.7c-0.9,0.3-0.5,1.3,0.1,2C239.6,39.1,240.4,42.7,239.3,48L239.3,48L239.3,48z M261.2,34.6
		c2.7,6-4.4,5.9-3,1.6C258.8,34.8,261.3,34.4,261.2,34.6L261.2,34.6z M267.6,31.7c-1.3-0.5-2.3-0.1-3.2,1.2
		c-0.9,1.2-1.1,1.3-0.3,2.1c0.5,0.4,1.1,0.5,1.7,0.4C267.2,35,268.9,33.1,267.6,31.7L267.6,31.7L267.6,31.7z M271.8,31.1v0.8
		c0.1,1.2-0.7,2.1-1.5,2.9c-0.7,0.7-1.5,1.3-2.3,1.8c1.8-0.1,7.4-1.2,8.1-3.6s-0.9-2.2-2.1-2.2C273.1,30.7,272.4,30.8,271.8,31.1
		L271.8,31.1L271.8,31.1z M253,46.5c3.8-1,8.4-3.4,13.4-6.4c1.9-1.2,3.2-2,5.5-2.1c0.7-0.1,1.5-0.1,2.2,0c1.8,0.4,2.6,1.1,1.4,3
		s-2.3,2.1-3.5,3c-1.3,1.1-2.9,1.9-4.5,2.3c0.3-0.9,3.4-6.1,0.8-4.4L257.1,49C253,49.6,252.2,48.5,253,46.5L253,46.5z M264.4,49.5
		c-1.1,1.7-2.6,3-4.4,3.7c-1.2,1.5-1.4,2.8-0.7,3.7c1.5-1.4,2.6-2.1,4.3-2l1.1,4.2c-2,1.6-3.6,3.5-4,5.9c-0.4,2.4-0.3,1.4,0.8,2
		c1.1,0.6,3.5,0.5,5.2-1c1.7-1.4,3.5-3.4,1.3-6.4c-1.2-1.3,3.4-2.6,3.7-0.8c2.2,1,2.9-0.1,2.5-2.7c-0.4-2.6-4.1-1.2-6.9,0.7
		c-1.6-1.1-0.1-3.6-0.4-5.1C266.6,50.3,266.3,49,264.4,49.5L264.4,49.5L264.4,49.5z M243.5,53.9c2.7-0.3,5.6,0.3,7.3,3
		c0.7,1.1,1.2,3-0.5,3.5s-2.7-1.4-3.6-2.6L246,57C244.9,55.7,243.9,54.7,243.5,53.9L243.5,53.9L243.5,53.9z M263.8,64
		c-0.3-0.7-0.2-1.5,0.3-2.1c2-2.4,3.2,1.6,0.7,2.4C264.3,64.5,264.1,64.5,263.8,64L263.8,64z"/>
	<path class="st1" d="M96.1,33.7c1.2,0.3,1.9,1.2,1.5,3.1l-0.9,2c-0.6,1.3-1.1,2.8-1.2,4.2c-1.1,8.3,0.5,17,0.1,20.2
		s-1.9,0.9-2.8-0.1c-0.5-0.6-0.9-1.4-1.1-2.2c-0.2-0.5-0.4-1-0.8-0.7l-0.5,0.5c-0.2,0.3-0.4,0.6-0.5,1c-1,3.1-2,6.1-4,7.2
		c-2,1.2-4.2-1.6-4.1-4.3c2.4-3.2,3.4-7.3,2.8-11.2c1.2-1.8,2.5-2.3,3.6,0l0.3,5.2c1.4,0.2,2.6,0.3,3.1-0.5c1-8.6,1-18.2,2.1-23
		c0.3-1.3,0.9-1.7,2.2-1.4l0,0L96.1,33.7z M103.5,41.8c1.1,0,2.1,0.8,2.3,1.9l-0.6,6.5c1.2,0.7,4.3-1.4,7.3-3.3
		c1.2,0.6,1.4,2-0.3,3.5c-2.3,1.6-4.7,2.9-7.3,3.8c-0.4,3-0.4,6.1-0.1,9.1c1.3,1.4,3.1,0.5,4.9-1.6s5.6,1.8,3.6,3.7
		c-2.6,0.7-5.2,1.6-7.6,2.8c-3.1,0.3-4.1-1.3-4-2.7c0.6-7.6,1-15.1,1-22.7C102.6,42.1,102.5,41.7,103.5,41.8L103.5,41.8L103.5,41.8z
		 M131.2,35.6c1.4,0,2.8,0.4,4,1c0.5,0.6,0.6,1.4,0.4,2.1c-0.5,1.4-1.5,0.8-2.8,0.4c-1-0.3-1.8-0.8-2.5-1.5
		C129.3,36.3,129.6,35.6,131.2,35.6L131.2,35.6L131.2,35.6z M118.4,49.2c7.1-1.5,14.9-6.8,22.8-11.8c2.7-0.6,3.6,0.1,2.7,2.1
		c-0.5,0.7-1.3,1.1-2.1,1.2c-2.1,0.5-4,1.4-5.9,2.5c-5.4,3.1-10.8,6.2-16,9.4c-2.2,1.2-3.6,1.1-4.1-0.4
		C115.2,50.8,116.1,49.8,118.4,49.2L118.4,49.2z M135.1,46.5c2.1-0.7,3.9-1.9,5.4-3.6c0.7,0.1,1.4,0.4,2,0.8
		c0.5,0.2,0.7,0.8,0.5,1.3c-0.1,0.2-0.2,0.4-0.4,0.5c-1,0.9-1.9,2-3,2.7l1.2,1.7c-0.7,2.7-2.2,3.5-4.2,3.1s1.2-3.5,0.4-4.8
		c-0.9-1.3-1.7-0.3-2.2-0.5C134.2,47.5,134.3,46.8,135.1,46.5L135.1,46.5L135.1,46.5z M131.5,49.2l1.6,1c1,0.5,1,0.8,0.9,1.9
		c-0.1,0.7-0.3,1.3-0.8,1.8c-0.6,0.6-0.7,0.7-1.3,0.2c-1.1-0.8-1.9-2-2.2-3.4C129.7,49.9,130.2,48.4,131.5,49.2L131.5,49.2z
		 M134.1,54.9c0.9,0.4-0.7,4.3,1,6.6l0.4,3.6c0.1,1.3,0.4,2-0.9,2.8c-1.2,0.8-1.7,0.4-2.7-0.7c-0.7-1.1-1.3-2.3-1.8-3.5
		c-1.9,2.9-3.5,3.7-4.8,3c-0.5-1.1-0.7-2.2-0.6-3.4c2.2-0.3,3.4-3.8,4.6-3.6c1.2,0.3,1.8,1.2,1.2,3.3l1.5,0.4
		c0.8-0.5,0.5-4.3,0.4-6.8L134.1,54.9z M135.7,61c0-0.9,0.7-1.6,1.5-1.8c1.3,0,2.6,0.5,3.6,1.3c0.6,0.4,0.8,1.3,0.4,1.9l-0.4,0.7
		c-0.8,1.2-0.9,0.9-1.8,0.1L135.7,61L135.7,61L135.7,61z M150.4,42.4c0.8,0.3,0.7,4.3,1.1,6.4c2.4-3.7,5.4-6.3,8.3-7.1
		c2.9-0.8,2.9,6.3,2.9,7.9c3.8-3.4,6.9-4.1,9.3-1.3c2.4,2.8-0.4,4.8-4.5,7.9c0.3-2,2-4.2,0.8-6c-1.2-1.7-4.3,0.8-5.6,1.7
		c-0.5,3.8,1.1,11.2-2.6,11.6c-1.2-0.7-0.8-3.8,0.1-7.7c0.3-2.6,0.5-5.2,0.6-7.8c0.1-1.2,0-2.4-0.3-3.6c-0.4-0.8-0.8-0.6-1.3-0.3
		l-0.8,0.4c-1.8,0.9-3.2,2.4-4,4.2c1.2,1.9,1.3,4.4,0.3,6.4l-0.6,1.3c-0.5,1.2-0.7,1.1-1.7,0.8l-0.2-1c1.7-3.5,1.8-4.9-0.3-4.4
		c-1.3,3.5-2.3,7-1.8,10.6c-0.6,1.4-2,1.9-3,0.6c-0.3-3.6,2.1-7.7,3.2-11.4c-0.9-0.2-2.4,0.6-2.7-0.6
		C148.9,48.5,149.9,45.6,150.4,42.4L150.4,42.4L150.4,42.4z M177.9,46.3c1.2,0.1,2,1.3,1.6,6.6s-0.2,11.4-2.5,10.8
		c-0.7,0.2-1.5-1.1-1.4-2.9c0.2-0.8,0.4-1.6,0.8-2.3c0.6-2,0.8-4.1,0.7-6.2c-0.2-1.4-0.3-2.9-0.3-4.3
		C177,46.5,177.8,46.5,177.9,46.3L177.9,46.3L177.9,46.3z M178.8,41.1c5.3-2.5,10.4-5.5,15.3-8.9c2.7-0.9,3.6-0.1,3.6,2.7
		c0.1,2.8-1,6-1.1,8.7c-1.2,6.7,0.3,12.9,2.7,18.9c1,3.2,1,5.7-1.2,6.6c-1.4-1.6-3-3.1-4.7-4.3c-0.6-0.4-1.8-1.2-0.2-1.4
		c0.8,0,1.7,0.1,2.5,0.2c0.6-2.7-1.4-10-1.4-14.8c-0.2-3.9,0.1-7.7,0.8-11.5c0.1-1.2,0.1-2.2-0.7-1.8l-4.7,3.3
		c-1.7,1.3-3.7,2.4-5.7,3.2c-1.6,0.8-3.3,1.1-5.1,1.1c-0.5-0.3-0.7-1-0.4-1.6C178.6,41.3,178.7,41.2,178.8,41.1L178.8,41.1
		L178.8,41.1z M182,44.4l3.7-1.8c0.9-1,2.2-1.5,3.6-1.3l-0.3,3.8c-0.1,1.1,0.4,2.1,1.2,2.8c-1,2.1-2.3,4.1-3.8,5.9
		c-0.6,0.8-1.2,2.2-0.7,3.1s3.7,0.4,3.6-2.9c0-0.6,0.1-1,0.7-1.1c2.5,2.4,1.8,5-3.6,6.3c-0.9,0.3-1.8,0.3-2.7,0.1
		c-1.5-0.6-1.3-1.9-0.8-3.3s1.1-2.3,1.7-3.6c-1.6,0.6-2.8,0.4-3.4-0.5c-0.3-0.3-0.4-0.9-0.1-1.2c0.2-0.3,0.5-0.5,0.8-0.6
		c1.8-0.8,3.9-1.1,4.3-3.8c-1.9,0.9-3.6,1.2-4.5,0.3C181.8,45.9,181.8,45.2,182,44.4L182,44.4L182,44.4z M191.3,49.3l2.5,1.3v2
		l-2.5,0.3V49.3L191.3,49.3z M183.4,61.6c1.8-0.4,3.6-0.9,5.3-1.7c0.9-0.4,1.8-1.2,2.8-0.6c1,0.7,0.4,2.1-1,2.8
		c-1.9,0.9-4,1.4-6.1,1.6c-0.9,0.1-1.6,0.3-2.3-0.3c-0.2-0.2-0.4-0.5-0.4-0.8C181.8,61.7,182.6,61.8,183.4,61.6L183.4,61.6
		L183.4,61.6z M206.6,42c2.2-1,3.6-0.9,4.4,0.3c-0.8,3.1-2.3,4.4-4.5,4.1c0.1-0.4,0.5-0.6,0.6-1C207.1,44.3,206.9,43.1,206.6,42
		L206.6,42L206.6,42z M202.1,53.7c2.9,0.2,5.6-1.7,8.3-3.8s2.6-0.1,1.4,5.9l-0.7,4.4c-0.1,1.6,0.5,3.7,0,5.6
		c-0.5,1.8-1.9,0.6-2.7-0.3c-1.4-5.4,1.3-7.1,1.3-12.1c-2,1.2-4.1,4-6.1,4C201.6,57.3,201.5,55.1,202.1,53.7L202.1,53.7L202.1,53.7z
		 M216.2,35.8c-0.9,1.2-0.4,2.3,2.7,3.1c0.6,1.7,0.7,3.2-0.6,4c-1.2,0.9-1.9,0.3-2.9,0.6s-1,0.4-0.8,1.3c0.2,1,0.9,1.2,2.4,1.1
		c1.3,1.4-1.7,2.7-2.7,4s0.5,2.6,2.5,3.1c2.3-2.6,4.5-4,6.8-3.8c0.3,0,0.7,0,1-0.2c0.4-0.2,0.6-0.6,0.5-1.1c0-0.2,0-0.3-0.1-0.5
		c-0.1-0.7-0.5-1.3-1.2-1.7c-0.3-0.1-0.5-0.4-0.5-0.7c0.5-2.6-0.1-4-1.4-4.9c-0.1-0.3-0.2-0.6-0.3-1c0.7-1.6,0.7-2.9-0.8-3.4
		c-1.6,0.2-3.2,0.3-4.8,0.2l0,0L216.2,35.8z M220.9,44.1c0.6,0,0.7-0.1,0.8,0.6c0.2,0.7,0,1.4-0.4,1.9l-0.3,0.3
		c-0.9,0.4-1.1,0-1.2-0.9c0-0.3,0-0.6,0.1-1C220.1,44.1,220.1,44.1,220.9,44.1L220.9,44.1L220.9,44.1z M219.2,54.2
		c1.3-0.6,2.5-1.5,3.6-2.6c1.3-0.4,1.5,0.6,2,1.3c0.5,0.8-0.2,2.1-1.3,1.9l-0.2,1.9c1.2,0.9,2,2.4,2.1,3.9c-0.3,1.2-1.5,1.9-2.7,1.6
		c-0.2,0-0.3-0.1-0.5-0.2l-1-4.4v-2l-1.7-0.4L219.2,54.2z M217.5,57.3c-0.4,0.1-0.7,0.4-1,0.7c-0.7,0.8-0.2,1.3-0.2,2.2
		c0,0.4,0,0.8-0.1,1.2c-0.2,1-0.5,1.2,0.5,1.7s1.4-0.1,2-1.8c0.2-0.5,0.2-1.1,0.2-1.6c0-0.4-0.1-0.8-0.2-1.2
		C218.5,57.8,218.4,57,217.5,57.3L217.5,57.3L217.5,57.3z M239.3,48c-2.6,1.1-5.3,2-8.1,2.7l0.2,2.3c0.5,0.6,1.4,0.6,2.1,0.8
		l5.5-2.3c-1.4,4.6-3,9.4-6.5,11.6c-1.1,0.6-2.3,0.8-3.6,0.8c0,1.4,0.7,2.1,2.6,2.1c5.5-1.1,8.5-6.7,9.8-15.6
		c1.8-0.9,3.4-2.2,4.8-3.6c1.2-1.2,2.2-2.3,1.2-4.1c-0.4-0.7-1.1-1.1-1.9-1.2c0,2.2-1.4,4.2-3.6,4.9c0.1-3.1,1.3-8.4-1-10.6
		c-2.3-2.2-2.8-2-3.6-1.7c-0.9,0.3-0.5,1.3,0.1,2C239.6,39.1,240.4,42.7,239.3,48L239.3,48L239.3,48z M261.2,34.6
		c2.7,6-4.4,5.9-3,1.6C258.8,34.8,261.3,34.4,261.2,34.6L261.2,34.6z M267.6,31.7c-1.3-0.5-2.3-0.1-3.2,1.2
		c-0.9,1.2-1.1,1.3-0.3,2.1c0.5,0.4,1.1,0.5,1.7,0.4C267.2,35,268.9,33.1,267.6,31.7L267.6,31.7L267.6,31.7z M271.8,31.1v0.8
		c0.1,1.2-0.7,2.1-1.5,2.9c-0.7,0.7-1.5,1.3-2.3,1.8c1.8-0.1,7.4-1.2,8.1-3.6s-0.9-2.2-2.1-2.2C273.1,30.7,272.4,30.8,271.8,31.1
		L271.8,31.1L271.8,31.1z M253,46.5c3.8-1,8.4-3.4,13.4-6.4c1.9-1.2,3.2-2,5.5-2.1c0.7-0.1,1.5-0.1,2.2,0c1.8,0.4,2.6,1.1,1.4,3
		s-2.3,2.1-3.5,3c-1.3,1.1-2.9,1.9-4.5,2.3c0.3-0.9,3.4-6.1,0.8-4.4L257.1,49C253,49.6,252.2,48.5,253,46.5L253,46.5z M264.4,49.5
		c-1.1,1.7-2.6,3-4.4,3.7c-1.2,1.5-1.4,2.8-0.7,3.7c1.5-1.4,2.6-2.1,4.3-2l1.1,4.2c-2,1.6-3.6,3.5-4,5.9c-0.4,2.4-0.3,1.4,0.8,2
		c1.1,0.6,3.5,0.5,5.2-1c1.7-1.4,3.5-3.4,1.3-6.4c-1.2-1.3,3.4-2.6,3.7-0.8c2.2,1,2.9-0.1,2.5-2.7c-0.4-2.6-4.1-1.2-6.9,0.7
		c-1.6-1.1-0.1-3.6-0.4-5.1C266.6,50.3,266.3,48.9,264.4,49.5L264.4,49.5L264.4,49.5z M243.5,53.9c2.7-0.3,5.6,0.3,7.3,3
		c0.7,1.1,1.2,3-0.5,3.5s-2.7-1.4-3.6-2.6L246,57C244.9,55.7,243.9,54.7,243.5,53.9L243.5,53.9L243.5,53.9z M263.8,64
		c-0.3-0.7-0.2-1.5,0.3-2.1c2-2.4,3.2,1.6,0.7,2.4C264.3,64.5,264.1,64.5,263.8,64L263.8,64z"/>
	<g>
		<path class="st2" d="M89.4,75.6c0.7-0.1,1.4,0.2,1.9,0.6s0.7,0.9,0.7,1.5c0,0.4-0.1,0.8-0.4,1.2c-0.2,0.3-0.6,0.5-1,0.7
			c1.1,0.2,1.9,1.3,1.7,2.5c-0.1,0.6-0.4,1.1-0.9,1.4c-0.6,0.4-1.3,0.5-2,0.5h-3.7v-8.3L89.4,75.6L89.4,75.6z M86.9,79h2.2
			c0.4,0,0.9-0.1,1.2-0.3c0.3-0.2,0.4-0.6,0.4-1c0-0.3-0.1-0.7-0.4-0.9c-0.4-0.2-0.8-0.3-1.2-0.3h-2.2V79L86.9,79z M86.9,82.8h2.3
			c0.4,0,0.9-0.1,1.2-0.3c0.4-0.2,0.6-0.6,0.6-1.1c0-0.4-0.2-0.8-0.5-1.1c-0.4-0.2-0.9-0.3-1.3-0.3h-2.3
			C86.9,80,86.9,82.8,86.9,82.8z"/>
		<path class="st2" d="M98.1,78.6c0.5,0.7,0.7,1.6,0.7,2.5h-4.4c0,0.5,0.2,1,0.5,1.3s0.7,0.5,1.2,0.5c0.4,0,0.7-0.1,1.1-0.3
			c0.2-0.2,0.4-0.5,0.6-0.8H99c-0.1,0.6-0.4,1.1-0.9,1.4c-0.6,0.5-1.3,0.7-2,0.7c-0.8,0-1.6-0.3-2.1-0.9c-1-1.3-1-3.2,0-4.5
			c0.5-0.6,1.3-0.9,2.1-0.9C96.8,77.7,97.6,78,98.1,78.6z M94.9,79c-0.3,0.3-0.4,0.7-0.5,1.2h3.2c-0.1-0.8-0.7-1.4-1.5-1.4
			C95.6,78.7,95.2,78.8,94.9,79L94.9,79z"/>
		<path class="st2" d="M101.4,75.7c0.2,0.1,0.3,0.4,0.3,0.6s-0.1,0.4-0.3,0.6l-0.6,0.2l-0.6-0.2c-0.2-0.1-0.3-0.4-0.3-0.6
			s0.1-0.4,0.3-0.6c0.2-0.1,0.4-0.2,0.6-0.2S101.2,75.5,101.4,75.7z M101.4,77.8v6h-1.2v-5.9L101.4,77.8L101.4,77.8z"/>
		<path class="st2" d="M104.6,77.9v6.5c0.1,0.8-0.5,1.6-1.3,1.7c-0.2,0-0.4,0-0.5,0h-0.6v-1h0.5c0.4,0,0.7-0.3,0.7-0.7v-0.1v-6.5
			L104.6,77.9L104.6,77.9z M104.6,75.7c0.2,0.1,0.3,0.4,0.3,0.6s-0.1,0.4-0.3,0.6l-0.6,0.2l-0.7-0.2c-0.2-0.1-0.3-0.4-0.3-0.6
			s0.1-0.4,0.3-0.6c0.2-0.1,0.4-0.2,0.6-0.2S104.4,75.5,104.6,75.7L104.6,75.7z"/>
		<path class="st2" d="M107.6,75.7c0.2,0.1,0.3,0.4,0.3,0.6s-0.1,0.4-0.3,0.6l-0.6,0.2l-0.6-0.2c-0.2-0.1-0.3-0.4-0.3-0.6
			s0.1-0.4,0.3-0.6c0.2-0.1,0.4-0.2,0.6-0.2C107.3,75.5,107.5,75.5,107.6,75.7z M107.6,77.8v6h-1.2v-5.9L107.6,77.8L107.6,77.8z"/>
		<path class="st2" d="M114.6,80.2v3.6h-1.2v-3.6c0.2-0.7-0.2-1.3-0.9-1.5c-0.1,0-0.3,0-0.4,0c-0.3,0-0.6,0.1-0.9,0.4
			s-0.5,0.7-0.5,1.2v3.6h-1.2v-6h1.2v0.8c0.2-0.3,0.5-0.5,0.8-0.7l1-0.2C113.8,77.7,114.6,78.5,114.6,80.2z"/>
		<path class="st2" d="M120.2,78.6v-0.8h1.2v5.6c0,1.9-1,2.9-2.8,2.9c-0.7,0-1.3-0.1-1.9-0.5c-0.5-0.3-0.8-0.9-0.9-1.4h1.2
			c0,0.3,0.2,0.6,0.5,0.8c0.3,0.2,0.7,0.2,1.1,0.2c0.8,0.1,1.5-0.5,1.6-1.3c0-0.1,0-0.3,0-0.4v-1c-0.4,0.6-1.1,1-1.8,1
			c-0.7,0-1.4-0.3-1.9-0.9s-0.8-1.3-0.8-2.1c0-0.8,0.2-1.6,0.8-2.2c0.5-0.6,1.2-0.9,1.9-0.9C119.2,77.6,119.9,78,120.2,78.6z
			 M117.3,79.2c-0.3,0.4-0.5,0.9-0.5,1.4s0.1,0.9,0.4,1.3s0.8,0.6,1.2,0.6c0.5,0,0.9-0.1,1.2-0.5c0.3-0.4,0.4-0.9,0.4-1.4
			s-0.1-1-0.4-1.4s-0.8-0.6-1.2-0.6C118.1,78.7,117.7,78.9,117.3,79.2L117.3,79.2z"/>
		<path class="st2" d="M132.4,75.6v1.1h-4.3V79h4v1.1H128v3.6h-1.2v-8.2L132.4,75.6L132.4,75.6z"/>
		<path class="st2" d="M138.3,78.5c0.5,0.6,0.8,1.4,0.8,2.2c0,0.8-0.2,1.6-0.8,2.2c-1.2,1.2-3.1,1.2-4.3,0c-1.1-1.3-1.1-3.2,0-4.5
			C135.2,77.3,137.1,77.3,138.3,78.5z M134.8,79.3c-0.3,0.4-0.4,0.9-0.4,1.4s0.1,1,0.4,1.4c0.3,0.4,0.8,0.7,1.3,0.7s1-0.2,1.3-0.7
			c0.6-0.9,0.6-2.1,0-3c-0.3-0.4-0.8-0.7-1.3-0.7C135.6,78.5,135.1,78.9,134.8,79.3L134.8,79.3z"/>
		<path class="st2" d="M143.9,77.9v1.2H143c-0.4,0-0.7,0.2-1,0.5s-0.5,0.8-0.5,1.2V84h-1.2v-6.1h1.2v0.9c0.1-0.3,0.3-0.6,0.6-0.8
			c0.3-0.2,0.6-0.3,1-0.3L143.9,77.9z"/>
		<path class="st2" d="M149.3,78.6c0.5,0.7,0.7,1.6,0.7,2.5h-4.5c0,0.5,0.2,1,0.5,1.3s0.7,0.5,1.2,0.5c0.4,0,0.7-0.1,1.1-0.3
			c0.2-0.2,0.4-0.5,0.6-0.8h1.2c-0.1,0.6-0.4,1.1-0.9,1.4c-0.6,0.5-1.3,0.7-2,0.7c-0.8,0-1.6-0.3-2.1-0.9c-1-1.3-1-3.2,0-4.5
			c0.5-0.6,1.3-0.9,2.1-0.9C147.9,77.7,148.8,78,149.3,78.6z M146.1,79c-0.3,0.3-0.4,0.7-0.5,1.2h3.2c0-0.8-0.7-1.5-1.5-1.5h-0.1
			C146.7,78.6,146.3,78.8,146.1,79L146.1,79z"/>
		<path class="st2" d="M152.6,75.7c0.2,0.1,0.3,0.4,0.3,0.6s-0.1,0.4-0.3,0.6L152,77l-0.6-0.2c-0.2-0.1-0.3-0.4-0.3-0.6
			s0.1-0.4,0.3-0.6c0.2-0.1,0.4-0.2,0.6-0.2C152.2,75.5,152.4,75.5,152.6,75.7z M152.6,77.8v6h-1.2v-5.9L152.6,77.8L152.6,77.8z"/>
		<path class="st2" d="M158.5,78.6v-0.8h1.2v5.6c0,1.9-1,2.9-2.8,2.9c-0.7,0-1.3-0.1-1.9-0.5c-0.5-0.3-0.8-0.9-0.9-1.4h1.2
			c0,0.3,0.2,0.6,0.5,0.8c0.3,0.2,0.7,0.2,1.1,0.2c0.8,0.1,1.5-0.5,1.6-1.3c0-0.1,0-0.3,0-0.4v-1c-0.4,0.6-1.1,1-1.8,1
			s-1.4-0.3-1.9-0.9s-0.8-1.3-0.8-2.1c0-0.8,0.2-1.6,0.8-2.2c0.5-0.6,1.2-0.9,1.9-0.9C157.4,77.6,158.1,78,158.5,78.6z M155.6,79.2
			c-0.3,0.4-0.4,0.9-0.4,1.4s0.1,0.9,0.4,1.3c0.3,0.4,0.8,0.6,1.2,0.6c0.5,0,0.9-0.1,1.2-0.5s0.4-0.9,0.4-1.4s-0.1-1-0.4-1.4
			c-0.3-0.4-0.8-0.6-1.2-0.6C156.4,78.6,155.9,78.8,155.6,79.2L155.6,79.2z"/>
		<path class="st2" d="M166.3,80.2v3.6h-1.2v-3.6c0.2-0.7-0.2-1.3-0.9-1.5c-0.2,0-0.4-0.1-0.5,0c-0.3,0-0.6,0.1-0.9,0.4
			c-0.3,0.3-0.5,0.7-0.5,1.2v3.6H161v-6h1.2v0.8c0.2-0.3,0.5-0.5,0.8-0.7l1-0.2C165.6,77.7,166.3,78.5,166.3,80.2z"/>
		<path class="st2" d="M176.8,76c0.6,0.5,1,1.2,1,2h-1.2c-0.1-0.5-0.3-0.9-0.7-1.2c-0.4-0.3-0.9-0.4-1.4-0.4c-0.4,0-0.9,0.1-1.2,0.3
			c-0.3,0.2-0.6,0.5-0.6,0.9s0.2,0.7,0.6,0.9l1.4,0.5l2.1,0.8c0.6,0.3,1,1,1.1,1.7c0,0.7-0.3,1.3-0.9,1.7c-1.5,0.8-3.3,0.8-4.8,0
			c-0.7-0.5-1.2-1.4-1.2-2.3h1.5c0,0.6,0.3,1.1,0.7,1.4c0.5,0.3,1,0.4,1.5,0.4s1-0.1,1.4-0.3c0.3-0.2,0.6-0.5,0.6-0.9
			c0-0.5-0.3-0.9-0.8-1.1l-1.6-0.6l-1.9-0.7c-0.6-0.3-1-1-1-1.6c0-0.7,0.3-1.4,0.9-1.7c0.7-0.4,1.4-0.6,2.2-0.6
			C175.3,75.3,176.1,75.6,176.8,76z"/>
		<path class="st2" d="M180.8,77.9h1.3V79h-1.3v3.5c0,0.1,0,0.3,0.1,0.4h1.2V84h-1c-0.4,0-0.8-0.1-1.2-0.4c-0.2-0.3-0.3-0.7-0.3-1.1
			v-3.6h-1.2v-1h1.2v-1.4l1.2-0.5V77.9L180.8,77.9z"/>
		<path class="st2" d="M184.4,77.9v3.6c-0.1,0.4,0,0.8,0.3,1.2c0.3,0.3,0.7,0.4,1.1,0.4c0.3,0,0.6-0.1,0.9-0.4
			c0.3-0.3,0.5-0.7,0.6-1.1v-3.7h1.2v6h-1.2V83c-0.4,0.6-1.2,1-1.9,1c-1.4,0-2.1-0.8-2.1-2.4V78L184.4,77.9L184.4,77.9z"/>
		<path class="st2" d="M195.3,75.4v8.4h-1.2V83c-0.4,0.6-1.1,0.9-1.8,0.9c-0.8,0-1.5-0.3-2-1c-0.5-0.6-0.7-1.4-0.7-2.2
			c0-0.8,0.2-1.6,0.7-2.2s1.2-1,2-1s1.4,0.4,1.8,1.1v-3.3L195.3,75.4L195.3,75.4z M191.2,79.2c-0.3,0.5-0.4,1-0.4,1.5
			s0.1,1.1,0.4,1.5c0.3,0.5,0.8,0.7,1.3,0.7s1-0.2,1.2-0.7c0.3-0.4,0.4-0.9,0.4-1.4l0,0c0-0.6-0.2-1.1-0.5-1.5s-0.7-0.6-1.2-0.6
			C192,78.7,191.5,78.9,191.2,79.2L191.2,79.2z"/>
		<path class="st2" d="M198.2,75.7c0.2,0.1,0.3,0.4,0.3,0.6s-0.1,0.4-0.3,0.6l-0.6,0.2l-0.6-0.2c-0.2-0.1-0.3-0.4-0.3-0.6
			s0.1-0.4,0.3-0.6c0.2-0.1,0.4-0.2,0.6-0.2S198.1,75.5,198.2,75.7z M198.2,77.8v6H197v-5.9L198.2,77.8L198.2,77.8z"/>
		<path class="st2" d="M204.6,78.6c0.5,0.7,0.7,1.6,0.7,2.5h-4.5c0,0.5,0.2,1,0.5,1.3s0.7,0.5,1.2,0.5c0.4,0,0.7-0.1,1.1-0.3
			c0.2-0.2,0.4-0.5,0.6-0.8h1.2c-0.1,0.6-0.4,1.1-0.9,1.4c-0.6,0.5-1.3,0.7-2,0.7c-0.8,0-1.6-0.3-2.1-0.9c-1-1.3-1-3.2,0-4.5
			c0.5-0.6,1.3-0.9,2.1-0.9C203.2,77.7,204,78,204.6,78.6z M201.3,79c-0.3,0.3-0.4,0.7-0.5,1.2h3.2c0-0.8-0.7-1.5-1.5-1.5h-0.1
			C201.9,78.6,201.6,78.8,201.3,79L201.3,79z"/>
		<path class="st2" d="M211.1,79.6h-1.2c0-0.3-0.2-0.5-0.4-0.7l-1-0.2l-0.9,0.2c-0.2,0.1-0.3,0.3-0.3,0.6c0,0.3,0.2,0.5,0.5,0.6
			l1.2,0.4l1.5,0.6c0.4,0.3,0.7,0.7,0.7,1.2c0,1.2-0.9,1.9-2.7,1.9s-2.5-0.7-2.7-2.1h1.2c0,0.3,0.2,0.6,0.4,0.9
			c0.3,0.2,0.6,0.2,1,0.2c1,0,1.4-0.3,1.4-0.8c0-0.3-0.3-0.6-0.6-0.7l-1.2-0.4l-1.4-0.5c-0.4-0.2-0.7-0.7-0.7-1.2s0.2-1,0.7-1.2
			c0.5-0.3,1.1-0.5,1.7-0.5C210.1,77.7,211,78.3,211.1,79.6z"/>
		<path class="st2" d="M217.5,75.6v5.1c-0.1,0.6,0.1,1.2,0.5,1.6c1,0.7,2.3,0.7,3.3,0c0.4-0.5,0.5-1,0.5-1.6v-5.1h1.2v5.1
			c0.1,0.9-0.2,1.8-0.9,2.5c-0.7,0.6-1.6,0.9-2.5,0.9c-0.9,0.1-1.8-0.3-2.5-0.9c-0.6-0.7-0.9-1.6-0.9-2.5v-5.1H217.5z"/>
		<path class="st2" d="M229.8,80.2v3.6h-1.2v-3.6c0.2-0.7-0.2-1.3-0.9-1.5c-0.1,0-0.3,0-0.4,0c-0.3,0-0.6,0.1-0.9,0.4
			c-0.3,0.3-0.5,0.7-0.5,1.2v3.6h-1.2v-6h1.2v0.8c0.2-0.3,0.5-0.5,0.8-0.7l1-0.2C229,77.7,229.8,78.5,229.8,80.2z"/>
		<path class="st2" d="M232.7,75.7c0.2,0.1,0.3,0.4,0.3,0.6s-0.1,0.4-0.3,0.6l-0.6,0.2l-0.6-0.2c-0.2-0.1-0.3-0.4-0.3-0.6
			s0.1-0.4,0.3-0.6c0.2-0.1,0.4-0.2,0.6-0.2S232.5,75.5,232.7,75.7z M232.7,77.8v6h-1.2v-5.9L232.7,77.8L232.7,77.8z"/>
		<path class="st2" d="M235,77.9l1.5,4.4l1.5-4.4h1.3l-2.2,6H236l-2.2-6H235L235,77.9z"/>
		<path class="st2" d="M244.9,78.6c0.5,0.7,0.7,1.6,0.7,2.5H241c0,0.5,0.2,1,0.5,1.3s0.7,0.5,1.2,0.5c0.4,0,0.7-0.1,1.1-0.3
			c0.2-0.2,0.4-0.5,0.6-0.8h1.2c-0.1,0.6-0.4,1.1-0.9,1.4c-0.6,0.5-1.3,0.7-2,0.7c-0.8,0-1.6-0.3-2.1-0.9c-1-1.3-1-3.2,0-4.5
			c0.5-0.6,1.3-0.9,2.1-0.9C243.5,77.6,244.3,78,244.9,78.6z M241.6,79c-0.3,0.3-0.4,0.7-0.5,1.2h3.2c0-0.8-0.7-1.5-1.5-1.5h-0.1
			C242.2,78.6,241.8,78.8,241.6,79L241.6,79z"/>
		<path class="st2" d="M250.2,77.9v1.2h-0.9c-0.4,0-0.7,0.2-1,0.5s-0.5,0.8-0.5,1.2V84h-1.2v-6.1h1.2v0.9c0.1-0.3,0.3-0.6,0.6-0.8
			c0.3-0.2,0.6-0.3,1-0.3L250.2,77.9z"/>
		<path class="st2" d="M255.6,79.6h-1.2c0-0.3-0.2-0.5-0.4-0.7l-1-0.2l-0.9,0.2c-0.2,0.1-0.3,0.3-0.3,0.6c0,0.3,0.2,0.5,0.5,0.6
			l1.2,0.4l1.5,0.6c0.4,0.3,0.7,0.7,0.7,1.2c0,1.2-0.9,1.9-2.7,1.9s-2.5-0.7-2.7-2.1h1.2c0,0.3,0.2,0.6,0.4,0.9
			c0.3,0.2,0.6,0.2,1,0.2c1,0,1.4-0.3,1.4-0.8c0-0.3-0.3-0.6-0.6-0.7l-1.2-0.4l-1.4-0.5c-0.4-0.2-0.7-0.7-0.7-1.2s0.2-1,0.7-1.2
			c0.5-0.3,1.1-0.5,1.7-0.5C254.7,77.7,255.6,78.3,255.6,79.6z"/>
		<path class="st2" d="M258.3,75.7c0.2,0.1,0.3,0.4,0.3,0.6s-0.1,0.4-0.3,0.6l-0.6,0.2l-0.6-0.2c-0.2-0.1-0.3-0.4-0.3-0.6
			s0.1-0.4,0.3-0.6c0.2-0.1,0.4-0.2,0.6-0.2C258,75.5,258.2,75.5,258.3,75.7z M258.3,77.8v6h-1.2v-5.9L258.3,77.8L258.3,77.8z"/>
		<path class="st2" d="M261.8,77.9h1.3V79h-1.3v3.5c0,0.1,0,0.3,0.1,0.4h1.2V84h-1c-0.4,0-0.8-0.1-1.2-0.4c-0.2-0.3-0.3-0.7-0.3-1.1
			v-3.6h-1.2v-1h1.2v-1.4l1.2-0.5L261.8,77.9L261.8,77.9z"/>
		<path class="st2" d="M264.9,77.9l1.6,4.3l1.5-4.3h1.3l-3.3,8.3h-1.3l1.1-2.4l-2.4-5.9H264.9L264.9,77.9z"/>
	</g>
</g>
<g>
	<path class="st3" d="M18.4,31.7c0,0,13.9-6,24.7-7.4c8,0.2,21.4,1.6,32.6,7.2c0,0,0,30.5-0.3,32.1c-0.2,2.5-3,16.4-11.5,22.8
		c-3.3,3-12.9,8.8-16.7,9C45.3,95.1,28.5,90,22.6,77c-0.8-1.9-3.6-8.5-3.8-14.2L18.4,31.7z"/>
	<g>
		<path class="st4" d="M47.1,23.6c-14.5,0-29.1,8-29.1,8s0,29.3,0.8,34.3c3.7,25.3,28.3,30,28.3,30s24.6-4.7,28.3-30
			c0.7-5.1,0.8-34.3,0.8-34.3S61.6,23.6,47.1,23.6z M74.7,65.8C71,90.5,47.1,95.1,47.1,95.1s-24-4.6-27.6-29.3
			c-0.7-4.9-0.7-33.7-0.7-33.7s14.2-7.7,28.3-7.7s28.3,7.7,28.3,7.7S75.4,60.8,74.7,65.8z"/>
		<path class="st4" d="M47.1,25.3c-13.7,0-27.4,7.5-27.4,7.5s0,28,0.7,32.8c3.5,23.9,26.7,28.6,26.7,28.6s23.2-4.8,26.7-28.6
			c0.7-4.8,0.7-32.8,0.7-32.8S60.8,25.3,47.1,25.3z M73.5,65.5C70,89.2,47.1,93.9,47.1,93.9s-23-4.7-26.4-28.4C20,60.8,20,33,20,33
			s13.6-7.4,27.1-7.4S74.2,33,74.2,33S74.2,60.8,73.5,65.5z"/>
		<path class="st5" d="M23.9,40l0.3,0.9h0.9l-0.8,0.6l0.3,0.9l-0.8-0.6l-0.7,0.6l0.3-0.9l-0.8-0.6h1L23.9,40L23.9,40z"/>
		<path class="st5" d="M70.3,40l0.3,0.9h1l-0.8,0.6l0.3,0.9l-0.8-0.6l-0.7,0.6l0.3-0.9L69,40.8h1L70.3,40L70.3,40z"/>
		<path class="st5" d="M66.3,40.8c0,0-9.6-4.9-19.2-4.9s-19.2,4.9-19.2,4.9s0,22.2,0.5,25.6c2.4,16.7,18.7,19.3,18.7,19.3
			s16.2-2.6,18.7-19.3C66.3,63,66.3,40.8,66.3,40.8z"/>
		<path class="st5" d="M23.8,45.6v0.8c0,0.3,0,0.9-0.6,0.9s-0.6-0.6-0.6-0.8v-0.9H23.8z M22.2,45.1v1.3c0,0.2,0,0.4,0.1,0.7
			s0.5,0.6,0.9,0.6c0.3,0,0.7-0.1,0.8-0.6c0.2,0.5,0.6,0.5,0.7,0.5c0.3,0,0.5-0.1,0.7-0.3c0.2-0.3,0.2-0.6,0.2-0.8v-1.3L22.2,45.1z
			 M25.3,45.6v0.7c0,0.4,0,0.9-0.5,0.8c-0.5,0-0.5-0.5-0.5-0.8v-0.7H25.3z"/>
		<path class="st5" d="M25.7,48.9v2.5h-0.4v-2.1h-1.1v1.9h-0.4v-1.9h-1.2v2.1h-0.4v-2.6L25.7,48.9z"/>
		<path class="st5" d="M25.7,52.6v0.5l-3.5,0.1v-0.5L25.7,52.6z"/>
		<path class="st5" d="M23.3,54.6c-0.2,0-0.7,0.1-0.7,0.5c0,0.5,0.5,0.5,0.8,0.5l2.4-0.1V56l-2.4,0.1c-0.3,0-1.2,0-1.2-0.9
			c0-0.3,0-0.8,0.8-0.9c0.1,0,0.2,0,0.3,0L23.3,54.6z"/>
		<path class="st5" d="M25.9,57.4v0.5L22.4,58v-0.5L25.9,57.4z"/>
		<path class="st5" d="M25.9,59.1v0.5l-2.6,1.9l0,0l2.7-0.1v0.4L22.6,62v-0.5l2.6-1.9l0,0l-2.7,0.1v-0.4L25.9,59.1z"/>
		<path class="st5" d="M24.5,64.8l0.1,1.5l-1.3,0.1c-0.2-0.2-0.6-0.6-0.6-1.4c-0.1-1.1,0.6-1.8,1.7-1.9c0.7-0.1,1.8,0.2,1.9,1.6
			c0.1,1.2-0.7,1.4-0.9,1.5l-0.1-0.4c0.2-0.1,0.7-0.3,0.7-1.1c-0.1-1.2-1.1-1.2-1.5-1.2s-0.7,0.1-1,0.4c-0.3,0.3-0.3,0.6-0.3,1
			c0,0.5,0.4,0.9,0.4,1h0.6l-0.1-1L24.5,64.8z"/>
		<path class="st5" d="M27.1,70.6l0.8,2.2l-0.4,0.1l-0.6-1.8l-1,0.4l0.5,1.5L26,73.2l-0.5-1.5L24,72.2l-0.2-0.4L27.1,70.6z"/>
		<path class="st5" d="M26.8,74.8c0.1-0.1,0.6-0.3,1-0.3s0.7,0.3,0.9,0.6c0.3,0.5,0.2,1.2-0.7,1.7c-0.8,0.5-1.5,0.2-1.8-0.4
			C25.8,75.9,26.1,75.2,26.8,74.8z M26.6,74.4c-0.8,0.4-1.2,1.4-0.7,2.3c0.5,0.8,1.4,1.1,2.4,0.6c1-0.6,1.2-1.5,0.8-2.3
			C28.5,74.1,27.6,73.8,26.6,74.4z"/>
		<path class="st5" d="M30.3,77.7l0.7,0.8c0.1,0.1,0.2,0.3,0.2,0.4c0,0.2,0,0.4-0.2,0.5s-0.4,0.2-0.6,0.1s-0.3-0.2-0.4-0.4l-0.6-0.8
			L30.3,77.7z M27.6,79.3l0.3,0.4l1.2-1l0.3,0.4c0.2,0.3,0.3,0.4,0,1.3l-0.3,0.8l0.4,0.4l0.3-1.1c0.2-0.5,0.1-0.7,0.1-0.9l0,0
			c0.4,0.4,0.9,0.5,1.3,0.2c0.3-0.2,0.4-0.6,0.3-1c-0.1-0.2-0.2-0.4-0.4-0.6l-1-1.2L27.6,79.3z"/>
		<path class="st5" d="M32.8,80l1.9,1.7L34.3,82l-1.5-1.4l-0.7,0.8l1.4,1.3L33.3,83l-1.4-1.3l-0.8,0.9l1.6,1.4l-0.3,0.3l-1.9-1.7
			L32.8,80z"/>
		<path class="st5" d="M35.5,82.4l0.4,0.3l-2.1,2.8l-0.4-0.3L35.5,82.4z"/>
		<path class="st5" d="M37.4,85.7l1.3,0.8L38,87.6c-0.2,0-0.9,0.1-1.5-0.3c-0.9-0.5-1.2-1.5-0.6-2.4c0.4-0.6,1.2-1.4,2.4-0.6
			c1,0.6,0.7,1.4,0.7,1.6l-0.4-0.1c0.1-0.2,0.2-0.7-0.5-1.2c-1-0.6-1.6,0.2-1.8,0.5s-0.3,0.7-0.3,1c0.1,0.4,0.3,0.7,0.6,0.8
			c0.5,0.3,0.9,0.2,1.1,0.2l0.3-0.5L37.1,86L37.4,85.7z"/>
		<path class="st5" d="M40.4,85.5l0.4,0.2l0.5,3.2l0,0l1.2-2.5l0.4,0.2l-1.5,3.1L41,89.6l-0.5-3.2l0,0l-1.2,2.5l-0.4-0.2L40.4,85.5z
			"/>
		<path class="st5" d="M46.8,90.6c0,0.1,0.1,0.2,0.2,0.3c0.3,0.3,0.8,0.2,1,0.2c0.5-0.1,0.8-0.4,0.7-0.8s-0.5-0.4-1.2-0.3
			c-0.5,0-1.2,0.1-1.4-0.6c-0.1-0.5,0.2-1,0.9-1.3c0.7-0.2,1.3,0,1.5,0.6l-0.4,0.2c-0.1-0.2-0.3-0.6-1-0.4c-0.3,0.1-0.7,0.3-0.6,0.7
			c0.1,0.3,0.3,0.3,1,0.3c0.6,0,1.4-0.1,1.6,0.6c0.2,0.6-0.2,1.1-0.9,1.4c-0.8,0.2-1.3,0-1.5-0.3c-0.1-0.2-0.2-0.3-0.2-0.4
			L46.8,90.6z"/>
		<path class="st5" d="M50.1,87.5L49,88l-0.2-0.4l2.6-1l0.2,0.4l-1.1,0.4l1.1,2.9l-0.4,0.2L50.1,87.5z"/>
		<path class="st5" d="M54.5,85.1l0.9,1.8c0.2,0.4,0.7,1.4-0.5,2s-1.6-0.2-1.9-0.7l-0.9-1.8l0.4-0.2l0.9,1.8c0.2,0.4,0.5,1,1.3,0.6
			s0.6-0.9,0.3-1.4l-0.9-1.8L54.5,85.1z"/>
		<path class="st5" d="M56,84.7l0.6-0.4c0.3-0.2,0.5-0.3,0.8-0.3c0.4,0.1,0.7,0.4,0.9,0.7c0.7,1.2,0.1,1.6-0.3,1.8l-0.6,0.4L56,84.7
			z M57.2,87.5l1.1-0.7c0.3-0.2,0.7-0.5,0.8-0.9s0-0.9-0.3-1.5c-0.4-0.6-0.8-0.8-1.1-0.9c-0.5-0.2-1,0.1-1.3,0.3l-1,0.6L57.2,87.5z"
			/>
		<path class="st5" d="M58.5,82.5l0.4-0.3L61,85l-0.4,0.3L58.5,82.5z"/>
		<path class="st5" d="M59.7,81.6l1.9-1.7l0.3,0.3l-1.5,1.4l0.7,0.8l1.4-1.3l0.3,0.3l-1.4,1.3l0.8,0.9l1.6-1.4l0.3,0.3L62,84.2
			L59.7,81.6z"/>
		<path class="st5" d="M64.1,80.6c0.1,0,0.2,0.1,0.3,0.2c0.4,0.1,0.8-0.2,0.9-0.4c0.3-0.4,0.4-0.8,0.1-1c-0.3-0.3-0.6-0.1-1.2,0.4
			c-0.4,0.3-0.9,0.7-1.5,0.2c-0.4-0.3-0.4-1,0.1-1.6s1.1-0.7,1.6-0.3l-0.3,0.4c-0.2-0.1-0.6-0.3-1.1,0.2c-0.2,0.2-0.5,0.7-0.1,0.9
			c0.2,0.2,0.4,0.1,1-0.3c0.5-0.4,1.1-0.8,1.7-0.4c0.4,0.4,0.5,1,0,1.6s-1,0.7-1.5,0.6c-0.1,0-0.2-0.1-0.3-0.1L64.1,80.6z"/>
		<path class="st5" d="M66.3,73l1.8,0.9c0.4,0.2,1.4,0.7,0.7,1.9c-0.6,1.2-1.4,0.8-2,0.5L65,75.4l0.2-0.4l1.8,0.9
			c0.4,0.2,1,0.5,1.4-0.3s0-1.1-0.6-1.3L66,73.4L66.3,73z"/>
		<path class="st5" d="M66.6,72.2l0.1-0.5l3.1-0.9l0,0L67.3,70l0.1-0.4l3.3,1L70.6,71l-3.1,1l0,0l2.6,0.8L70,73.2L66.6,72.2z"/>
		<path class="st5" d="M67.6,68.6l0.1-0.4l3.4,0.6L71,69.2L67.6,68.6z"/>
		<path class="st5" d="M67.8,67.5V67l2.6-0.7h0.1c0.2-0.1,0.2-0.1,0.5-0.1l0,0c-0.2-0.1-0.4-0.1-0.6-0.2L68,64.8v-0.5l3.4,1.6v0.5
			L67.8,67.5z"/>
		<path class="st5" d="M68.1,63.7l0.1-2.5h0.4l-0.1,2l1.1,0.1l0.1-1.9h0.4L70,63.3l1.2,0.1l0.1-2.1h0.4l-0.1,2.6L68.1,63.7z"/>
		<path class="st5" d="M68.6,59.7v-1.1c0-0.2,0-0.3,0.1-0.5c0.1-0.1,0.3-0.3,0.5-0.2c0.2,0,0.4,0.1,0.5,0.3s0.1,0.4,0.1,0.6v1
			L68.6,59.7z M71.7,60.3v-0.5l-1.5-0.1v-0.5c0-0.4,0.1-0.5,0.9-1l0.7-0.4v-0.6l-1,0.6c-0.4,0.3-0.6,0.5-0.7,0.6l0,0
			c0-0.6-0.3-1-0.9-1c-0.4,0-0.7,0.2-0.9,0.5c-0.1,0.2-0.1,0.4-0.1,0.7l-0.1,1.5L71.7,60.3z"/>
		<path class="st5" d="M70.7,56.1c0.1,0,0.2,0,0.4-0.1c0.4-0.2,0.5-0.7,0.5-0.9c0-0.5-0.2-0.9-0.6-0.9s-0.5,0.3-0.7,1
			c-0.1,0.5-0.3,1.1-1,1.1c-0.5,0-0.9-0.5-0.9-1.2s0.4-1.3,1.1-1.3v0.4c-0.3,0-0.7,0.1-0.7,0.8c0,0.3,0.1,0.8,0.5,0.8
			c0.3,0,0.4-0.2,0.6-0.8s0.3-1.4,1.1-1.3c0.6,0,1,0.5,1,1.3s-0.4,1.2-0.8,1.4c-0.2,0.1-0.3,0.1-0.4,0.1L70.7,56.1z"/>
		<path class="st5" d="M68.5,52.7v-0.5l3.5,0.1v0.5L68.5,52.7z"/>
		<path class="st5" d="M69,50.3v1.1h-0.4v-2.7H69v1.1h3.1v0.5L69,50.3z"/>
		<path class="st5" d="M70.6,47l-2,1.3v-0.6l1-0.7c0.3-0.2,0.4-0.2,0.6-0.4c-0.2-0.1-0.6-0.4-0.6-0.4l-1-0.7V45l2,1.4h1.5v0.5
			L70.6,47z"/>
		<path class="st5" d="M26.1,37.2l0.1-0.1l-0.6-1.5L25,35.9c-0.1,0-0.3,0.1-0.5,0.3c0-0.1,0-0.1,0-0.1V36c0,0-0.1-0.1-0.1-0.2
			c0.2-0.1,0.4-0.1,0.6-0.2l0.7-0.3l-0.2-0.5l-0.2-0.4l-0.2-0.5c0.2-0.1,0.3-0.1,0.3-0.1s0.1-0.1,0.3-0.1c0.1,0.2,0.1,0.4,0.2,0.6
			c0,0.1,0.1,0.3,0.2,0.4l1.1,2.7c0.1,0.2,0.2,0.4,0.2,0.5l0.2,0.3c-0.2,0.1-0.3,0.1-0.3,0.1s-0.1,0.1-0.2,0.1
			c0-0.1-0.1-0.2-0.1-0.3s0-0.1-0.1-0.2l-0.1-0.3l-0.3,0.3c-0.3,0.3-0.6,0.5-0.8,0.7c-0.1-0.1-0.2-0.2-0.3-0.3l-0.2-0.1
			C25.5,37.7,25.9,37.4,26.1,37.2z M26.2,33.3c0,0,0.1-0.1,0.3-0.1c0.1,0.2,0.1,0.4,0.2,0.5c0,0.1,0.1,0.3,0.2,0.4l0.4,0.9l0.1-0.1
			c0.3-0.3,0.5-0.7,0.6-1l0.1-0.1c0.1,0.1,0.3,0.2,0.5,0.3l-0.3,0.3l-0.4,0.4l-0.5,0.6l0.6,1.4c0.1,0.2,0.1,0.3,0.2,0.3s0.1,0,0.3,0
			l0.3-0.1c0.2-0.1,0.3-0.1,0.3-0.2c0-0.1,0.1-0.1,0.1-0.2c0-0.1,0-0.2,0-0.3v-0.2V36c0.1,0,0.2,0.1,0.3,0.1c0.1,0,0.2,0,0.3,0v0.1
			c0,0,0,0.1,0,0.2c0,0.1,0,0.2,0,0.3s0,0.2-0.1,0.2c-0.1,0.1-0.2,0.1-0.3,0.2l-0.6,0.3c-0.1,0.1-0.3,0.1-0.4,0.1s-0.2,0-0.3-0.1
			c-0.1-0.1-0.2-0.2-0.2-0.4l-1.2-3c-0.1-0.2-0.1-0.3-0.2-0.4L26,33.4C26.1,33.3,26.2,33.3,26.2,33.3z"/>
		<path class="st5" d="M32.1,33.1l2.3-0.7l0.2,0.7l-2.3,0.7L32.1,33.1z M31.7,35.8l0.3,0.1c0,0,0.1,0,0.2,0.1l0.1-0.1
			c0-0.1,0.1-0.2,0.2-0.3c0.1-0.2,0.2-0.4,0.3-0.5c0.1-0.2,0.2-0.3,0.2-0.3l0.1-0.1c-0.1,0-0.3-0.1-0.5-0.2v0.1
			C32.3,35,32.1,35.4,31.7,35.8L31.7,35.8z M30.6,32.4C30.6,32.4,30.6,32.5,30.6,32.4c0,0.1,0,0.2,0.1,0.2c0.3-0.1,0.6-0.2,0.7-0.3
			l3.3-1c0.1,0,0.3-0.1,0.7-0.2c-0.1-0.1-0.1-0.2-0.1-0.2v-0.1c0,0,0-0.1,0-0.2c-0.4,0.1-0.6,0.2-0.7,0.3l-1.3,0.4l-0.4-0.6
			c-0.2,0.1-0.3,0.2-0.5,0.2l0.3,0.4c0,0,0,0.1,0.1,0.1L31.2,32c-0.1,0-0.3,0.1-0.7,0.2C30.6,32.3,30.6,32.4,30.6,32.4z M32.6,34.1
			l0.8-0.3l0.3,1.1c0,0.1,0,0.2,0,0.3s-0.1,0.1-0.4,0.2h-0.1l0.2,0.2c0,0,0.1,0.1,0.2,0.3c0.3-0.1,0.5-0.3,0.6-0.3
			c0.1-0.1,0.1-0.1,0.1-0.2c0-0.1,0-0.1,0-0.2l-0.4-1.4l0.8-0.3c0,0,0.1,0,0.2-0.1c0.1,0,0.2,0,0.3-0.1l-0.1-0.1
			c0-0.1-0.1-0.1-0.1-0.3l-0.2-0.7c0,0,0-0.1,0-0.2c0-0.1,0-0.2-0.1-0.3c-0.2,0.1-0.4,0.2-0.5,0.2l-2.1,0.7c-0.1,0-0.3,0.1-0.6,0.2
			l0.1,0.2c0.1,0.1,0.1,0.2,0.1,0.2l0.2,0.7c0,0,0,0.1,0,0.2c0,0.1,0,0.2,0.1,0.3C32.3,34.2,32.5,34.1,32.6,34.1z M34.7,34.2
			c0.5,0.2,0.9,0.3,1.1,0.5l0.1,0.1c0.1-0.2,0.2-0.3,0.3-0.5l-1.4-0.5c-0.1,0.1-0.2,0.3-0.3,0.4H34.7z"/>
		<path class="st5" d="M37.8,31.9l0.1-0.2c0.2-0.3,0.3-0.6,0.4-0.9c0.1-0.3,0.1-0.5,0.1-0.6s0-0.2,0-0.4c0-0.2,0-0.3,0-0.4v-0.3
			c0.2,0,0.4,0.1,0.6,0v0.3v0.3V30l0.7-0.2c0.2,0,0.3-0.1,0.5-0.1c0,0.2,0,0.3,0,0.4v0.5c0,0.2,0,0.5,0,0.8s-0.1,0.6-0.3,1
			c-0.2,0.4-0.5,0.8-1,1.3L38.8,34c-0.2-0.1-0.3-0.2-0.3-0.2l-0.2-0.1l0.2-0.1c0.2-0.1,0.4-0.3,0.6-0.6c0.2-0.2,0.4-0.5,0.5-0.8
			c-0.2-0.2-0.4-0.3-0.6-0.4l-0.2-0.1c0.1-0.1,0.3-0.3,0.3-0.4l0.2,0.2l0.2,0.2l0.2,0.1c0-0.1,0-0.2,0-0.4c0-0.1,0-0.4,0-0.9
			l-0.8,0.2c0,0.1-0.1,0.2-0.1,0.4c-0.1,0.2-0.1,0.4-0.2,0.5l-0.1,0.3l-0.1,0.2C38.2,32,38,32,37.8,31.9z M41.1,30.2
			c0.1-0.1,0.3-0.2,0.4-0.4c0.5,0.4,0.9,0.9,1.4,1.4c-0.2,0.1-0.3,0.3-0.5,0.4l-0.1-0.2c-0.1-0.1-0.2-0.3-0.4-0.6
			c-0.2-0.2-0.4-0.4-0.6-0.6L41.1,30.2z M41.2,33.7c0-0.2-0.1-0.4-0.1-0.5S41,32.9,41,32.8l-0.6-2.9c0-0.2-0.1-0.4-0.1-0.5l-0.1-0.5
			c0.1,0,0.2,0,0.3,0c0,0,0.1,0,0.3-0.1c0,0.2,0.1,0.4,0.1,0.6s0.1,0.3,0.1,0.4l0.6,2.9c0,0.1,0.1,0.3,0.1,0.5l0.1,0.5
			C41.6,33.6,41.4,33.7,41.2,33.7z"/>
		<path class="st5" d="M45.8,28.6h3.3v3.6h-3.3V28.6z M46.5,31.8h1.9c0.1,0,0.3,0,0.5,0c0-0.1,0-0.2,0-0.2s0,0,0-0.1
			c0,0,0-0.1,0-0.2c-0.3,0-0.4,0-0.6,0h-0.1c0.1-0.1,0.2-0.1,0.4-0.2l-0.4-0.7c-0.1,0.1-0.3,0.1-0.4,0.2l0.1,0.2
			c0.1,0.2,0.2,0.3,0.3,0.5h-0.6v-0.9h0.5c0.1,0,0.3,0,0.5,0v-0.1c0,0,0,0,0-0.1v-0.1V30c-0.2,0-0.4,0-0.5,0h-0.5v-0.6h0.5
			c0.2,0,0.4,0,0.6,0c0-0.1,0-0.2,0-0.2v-0.1V29c-0.4,0-0.6,0-0.6,0h-1.4c-0.2,0-0.3,0-0.6,0c0,0.1,0,0.2,0,0.2v0.1v0.1
			c0.2,0,0.4,0,0.6,0h0.4V30h-0.4c-0.1,0-0.2,0-0.4,0c0,0.1,0,0.2,0,0.2v0.1c0,0,0,0.1,0,0.2c0.2,0,0.3,0,0.4,0h0.5v0.9h-0.7
			c-0.1,0-0.3,0-0.5,0c0,0.1,0,0.2,0,0.2s0,0.1,0,0.2C46.2,31.8,46.3,31.8,46.5,31.8z M45.6,33c0,0,0.1,0,0.2,0c0-0.1,0-0.2,0-0.2
			v-0.2h3.3v0.2c0,0.1,0,0.1,0,0.2c0.2,0,0.4,0,0.5,0v-0.4c0-0.1,0-0.3,0-0.5V29c0-0.1,0-0.3,0-0.4s0-0.3,0-0.5c-0.3,0-0.5,0-0.6,0
			h-3.1c-0.1,0-0.3,0-0.6,0v0.4c0,0.2,0,0.4,0,0.5v3.1c0,0.1,0,0.2,0,0.3s0,0.3,0,0.5C45.4,33,45.6,33,45.6,33z"/>
		<path class="st5" d="M55.3,30.8l0.8,0.2l-0.2,0.6L55,31.4L55.3,30.8z M52.3,30.4L52.3,30.4c0,0.1,0,0.2-0.1,0.2
			c0.2,0,0.3,0.1,0.4,0.1h0.2l-0.4,1.7c0,0.1-0.1,0.2-0.1,0.3s-0.1,0.2-0.2,0.2c0.1,0.2,0.2,0.3,0.3,0.5l0.1-0.1l0.3-0.2
			c0.3-0.2,0.5-0.4,0.6-0.4l0.2-0.1l-0.1-0.1c0,0-0.1-0.1-0.1-0.4c-0.2,0.1-0.3,0.2-0.3,0.3l-0.2,0.2l0.4-1.6c0-0.1,0-0.1,0.1-0.2
			c0-0.1,0.1-0.2,0.1-0.4c-0.2,0-0.3,0-0.4-0.1l-0.2-0.1c-0.1,0-0.3-0.1-0.4-0.1C52.3,30.2,52.3,30.3,52.3,30.4z M53,29.2
			c0.1,0.2,0.1,0.4,0.2,0.6V30c0.1,0,0.3-0.1,0.5-0.2l-0.3-1c-0.1,0-0.3,0.1-0.5,0.2L53,29.2z M54.2,31.6l2.1,0.5
			c0,0,0.3,0.1,0.7,0.2c0-0.1,0-0.2,0-0.2s0,0,0-0.1c0,0,0-0.1,0.1-0.1c-0.3,0-0.5-0.1-0.7-0.1h-0.1l0.2-0.6l0.2-0.4
			c-0.2,0-0.4-0.1-0.6-0.1l-0.7-0.2l0.3-0.5l0.8,0.2c0.1,0,0.3,0.1,0.7,0.2c0-0.1,0-0.2,0-0.2v-0.1c0,0,0-0.1,0.1-0.2
			c-0.3,0-0.5-0.1-0.8-0.1L55,29.5c-0.2-0.1-0.5-0.1-0.8-0.2c0,0.1,0,0.2,0,0.3v0.1v0.1c0.4,0.1,0.7,0.1,0.8,0.2l0.3,0.1L55,30.4
			l-0.2-0.1c-0.2,0-0.4-0.1-0.6-0.2v0.2c0,0,0,0,0,0.1v0.1v0.1c0.2,0,0.4,0.1,0.6,0.1H55l-0.3,0.6l-0.2-0.1
			c-0.3-0.1-0.6-0.1-0.7-0.2c0,0.1,0,0.2,0,0.2s0,0.1-0.1,0.2C54,31.6,54.2,31.6,54.2,31.6z M53.7,33.9c0,0,0.1,0,0.2,0.1v-0.1
			c0-0.1,0-0.1,0-0.1v-0.1l1.5,0.3v0.1c0,0,0,0.1-0.1,0.3c0.2,0,0.3,0,0.5,0.1v-0.3c0,0,0-0.1,0.1-0.3l0.2-0.8c0-0.1,0-0.2,0.1-0.2
			c0-0.1,0-0.2,0.1-0.3c-0.2,0-0.4-0.1-0.6-0.1l-1.1-0.3c-0.2-0.1-0.4-0.1-0.7-0.2l-0.1,0.3c0,0,0,0.2-0.1,0.3l-0.2,0.7
			c0,0.1-0.1,0.2-0.1,0.3s-0.1,0.2-0.1,0.3C53.6,33.9,53.7,33.9,53.7,33.9z M54.3,32.5l1.5,0.3l-0.2,0.7l-1.5-0.3L54.3,32.5z"/>
		<path class="st5" d="M58.4,34.6h0.2c0.4,0,0.8,0,1.2-0.2c0.4-0.1,0.7-0.3,0.9-0.5s0.3-0.4,0.4-0.5c0.1-0.2,0.2-0.3,0.3-0.5
			l-1.1-0.4c0,0-0.3-0.1-0.7-0.2c0-0.1,0-0.1,0.1-0.1v-0.1V32l0.1-0.2c0.4,0.2,0.6,0.2,0.7,0.3l1.2,0.4c0-0.1,0.1-0.1,0.1-0.2
			c0-0.1,0.1-0.2,0.1-0.3l0.1-0.2c0-0.1,0-0.1,0-0.1V31c0.1,0.1,0.2,0.1,0.3,0.1s0.1,0,0.3,0.1l-0.2,0.5c0,0.1-0.1,0.2-0.1,0.3
			c-0.1,0.1-0.1,0.2-0.1,0.3l-0.1,0.2l1.2,0.4c0,0,0.3,0.1,0.7,0.2c0,0.1-0.1,0.1-0.1,0.2v0.1c0,0,0,0.1-0.1,0.2
			c-0.3-0.1-0.6-0.2-0.7-0.3L62,33c0,0.1,0,0.2-0.1,0.3c0,0.1,0,0.4,0.1,0.8c0,0.4,0.1,0.7,0.3,0.9c0.1,0.2,0.3,0.4,0.4,0.5
			c0.2,0.2,0.3,0.3,0.5,0.4l0.1,0.1c-0.3,0-0.5,0.1-0.6,0.2l-0.2,0.2l-0.1-0.1c0,0-0.1-0.2-0.3-0.4c-0.2-0.3-0.4-0.6-0.5-1
			s-0.2-0.8-0.1-1.3c-0.1,0.1-0.1,0.2-0.2,0.3c0,0.1-0.1,0.1-0.1,0.2c0,0.1-0.1,0.1-0.2,0.2c-0.1,0.1-0.2,0.2-0.4,0.3
			c-0.1,0.1-0.3,0.2-0.5,0.3S59.8,35,59.6,35c-0.1,0-0.4,0.1-0.8,0.1h-0.1c0-0.1,0-0.1-0.1-0.2C58.7,34.9,58.6,34.7,58.4,34.6z"/>
		<path class="st5" d="M65.4,36.1c0.1-0.1,0.1-0.2,0.1-0.2v-0.1l0.1-0.2c0.3,0.1,0.5,0.2,0.6,0.3l1.4,0.6v-0.1l0,0v-0.1l0.1-0.2h0.1
			c0.1,0,0.4,0,0.7,0l-1.2-0.5c-0.1,0-0.3-0.1-0.7-0.3c0-0.1,0-0.1,0.1-0.1v-0.1V35v-0.1c0.4,0.2,0.6,0.3,0.7,0.3l1.5,0.6
			c0.2,0.1,0.4,0.2,0.6,0.2c0,0.1-0.1,0.1-0.1,0.2v0.1c0,0.1,0,0.1,0,0.1v0.1h-0.2c-0.2,0-0.5,0-0.9,0h-0.2L68,36.7l1.2,0.5
			c0.2,0.1,0.4,0.2,0.8,0.3c0,0.1-0.1,0.1-0.1,0.2c0,0,0,0.1-0.1,0.1c0,0,0,0.1-0.1,0.2c-0.5-0.2-0.7-0.3-0.7-0.3l-1-0.5L67.7,38
			c0,0.1-0.1,0.2-0.2,0.2s-0.4,0-0.9-0.1V38c0,0,0-0.1,0-0.2c0-0.1,0-0.2,0-0.3l0.1,0.1c0.1,0,0.2,0.1,0.2,0.1
			c0.1,0.1,0.2,0.1,0.3,0.1c0,0,0.1,0,0.1-0.1c0,0,0.1-0.1,0.1-0.3l0.2-0.4l-1.5-0.6C66.1,36.4,65.8,36.3,65.4,36.1z M66.1,34.8
			c0.1-0.1,0.1-0.3,0.1-0.3l0.2-0.4c0-0.1,0.1-0.2,0.1-0.3c0.3,0.1,0.4,0.2,0.5,0.3l2.2,0.9c0.3-0.2,0.6-0.4,0.9-0.8l0.1-0.1
			c0.1,0.2,0.2,0.3,0.3,0.4l-0.1,0.1l-0.2,0.1L70,34.9l-0.3,0.2l0.6,0.3c0.1,0,0.3,0.1,0.5,0.2c0,0.1-0.1,0.2-0.1,0.2
			c0,0.1,0,0.1-0.1,0.1l-0.2,0.4c0,0,0,0,0,0.1v0.2c-0.1-0.1-0.3-0.1-0.5-0.2c0-0.1,0.1-0.1,0.1-0.2v-0.1l0.1-0.3l-3.4-1.4l-0.1,0.3
			c0,0.1-0.1,0.1-0.1,0.1V35c-0.1,0-0.1-0.1-0.2-0.1C66.3,34.9,66.2,34.9,66.1,34.8z M67.3,33.3c0.2,0,0.3,0,0.5,0l0.2,0.9
			c-0.1,0-0.2,0-0.3,0h-0.3V34c0,0,0-0.1,0-0.2c0-0.1-0.1-0.2-0.1-0.3L67.3,33.3z M69.2,33.6v0.9c-0.2-0.1-0.3-0.1-0.5-0.1v-0.2
			c0-0.1,0-0.2,0-0.3v-0.4v-0.1C68.8,33.5,69,33.6,69.2,33.6z"/>
		<g>
			<path class="st6" d="M31.1,45.1H42v20.2c0,0,0,4.4,2.8,6c2.8,1.7,5.9-0.8,5.9-0.8s-2.5,6.8-9.2,6.7c-6.3-0.1-10-5.8-10.3-11.8
				L31.1,45.1z"/>
			<path class="st3" d="M52.4,45.1h10.8V65c0,0-0.1,9-7.9,12.9s-14.1,0.4-14.1,0.4s5.6,0.5,9-4.5c2.8-4.1,2.6-8.4,2.6-8.4L52.4,45.1
				z"/>
			<path class="st5" d="M40,53c-0.2-0.4-0.7-0.7-1.2-0.9c0.4-0.2,0.6-0.4,0.9-0.7c0.3-0.4,0.4-1,0.4-1.6c0-0.7-0.2-1.3-0.6-1.8
				c-0.4-0.5-1-0.7-1.7-0.7h-4.5v10.2h4.2c0.2,0,0.6-0.1,1.1-0.1c0.4-0.1,0.7-0.2,0.9-0.3c0.3-0.3,0.6-0.6,0.8-1s0.3-0.9,0.3-1.4
				C40.4,54,40.3,53.4,40,53z M35.6,49.4h1c0.4,0,0.6,0.1,0.8,0.2c0.1,0.1,0.2,0.4,0.2,0.7s-0.1,0.6-0.2,0.7
				c-0.2,0.2-0.4,0.3-0.8,0.3h-1V49.4z M37.7,55c-0.2,0.2-0.5,0.3-0.9,0.3h-1.2v-2.1h1.2c0.4,0,0.7,0.1,0.9,0.3s0.3,0.4,0.3,0.7
				C38,54.6,37.9,54.8,37.7,55z"/>
			<path class="st5" d="M54.2,54.1l2.5-0.2c0.1,0.5,0.2,0.9,0.3,1.1c0.2,0.4,0.6,0.6,1.1,0.6c0.4,0,0.6-0.1,0.9-0.3
				c0.2-0.2,0.3-0.5,0.3-0.7s-0.1-0.5-0.3-0.7s-0.6-0.4-1.3-0.6c-1.1-0.3-1.9-0.7-2.4-1.2s-0.7-1.2-0.7-2c0-0.5,0.1-1,0.4-1.5
				c0.2-0.5,0.6-0.8,1.1-1.1c0.5-0.2,1.2-0.4,2.1-0.4c1.1,0,1.9,0.2,2.5,0.7s0.9,1.3,1,2.3l-2.4,0.2c-0.1-0.4-0.2-0.8-0.4-1
				S58.4,49,58,49c-0.3,0-0.6,0.1-0.7,0.2c-0.1,0.2-0.2,0.4-0.2,0.6c0,0.2,0.1,0.3,0.2,0.4c0.1,0.1,0.4,0.2,0.9,0.4
				c1.1,0.3,2,0.6,2.5,0.9c0.5,0.3,0.8,0.7,1,1.1c0.2,0.5,0.3,1,0.3,1.5c0,0.6-0.2,1.3-0.4,1.8c-0.3,0.6-0.7,1-1.3,1.3
				c-0.5,0.3-1.2,0.4-2,0.4c-1.4,0-2.4-0.3-3-1C54.6,56,54.3,55.2,54.2,54.1z"/>
			<polygon class="st3" points="44,59.9 44,45.1 50.7,45.1 50.7,47.6 46.6,47.6 46.6,51.1 50,51.1 50,53.6 46.6,53.6 46.6,59.9 			
				"/>
		</g>
		<g>
			<path class="st3" d="M39.7,39.5c-0.2,0.2-0.4,0.2-0.6,0.3v0.5c0.3-0.1,0.6-0.2,0.8-0.4V42h0.7v-2.9H40
				C40,39.3,39.9,39.4,39.7,39.5z"/>
			<path class="st3" d="M44.8,39.1c-0.3,0-0.6,0.1-0.8,0.3s-0.3,0.4-0.3,0.7s0.1,0.5,0.3,0.7s0.4,0.2,0.7,0.2h0.1
				c0.2,0,0.4-0.1,0.5-0.2c0,0.3-0.1,0.6-0.2,0.7c-0.1,0.1-0.2,0.2-0.3,0.2s-0.2,0-0.3-0.1c-0.1,0-0.1-0.1-0.1-0.2h-0.6
				c0,0.2,0.2,0.4,0.3,0.6c0.2,0.1,0.4,0.2,0.6,0.2h0.1c0.3,0,0.6-0.1,0.9-0.3c0.2-0.2,0.3-0.6,0.3-1.2c0-0.5-0.1-0.9-0.3-1.1
				C45.4,39.2,45.2,39.1,44.8,39.1z M45.1,40.5c-0.1,0.1-0.2,0.1-0.3,0.1s-0.2,0-0.3-0.1s-0.1-0.3-0.1-0.4c0-0.2,0-0.3,0.1-0.4
				c0.1-0.1,0.2-0.1,0.3-0.1l0,0c0.1,0,0.2,0.1,0.3,0.2c0.1,0.1,0.2,0.2,0.2,0.4C45.3,40.3,45.2,40.4,45.1,40.5z"/>
			<path class="st3" d="M54.3,39.1c-0.1,0.2-0.2,0.3-0.4,0.5s-0.4,0.2-0.6,0.3v0.5c0.3-0.1,0.6-0.2,0.8-0.4v2h0.7v-2.9H54.3z"/>
			<path class="st3" d="M50.4,39.1h-0.5l-0.5,0.6l-1,1.3v0.5h1h0.4V42h0.6v-0.6h0.4v-0.5h-0.4V39.1z M49.8,40.9h-0.4H49l0.4-0.5
				l0.4-0.5C49.8,39.9,49.8,40.9,49.8,40.9z"/>
		</g>
	</g>
</g>
</svg>
